%TF.GenerationSoftware,KiCad,Pcbnew,7.0.9-rc1*%
%TF.CreationDate,2023-11-11T13:07:52+02:00*%
%TF.ProjectId,projectA,70726f6a-6563-4744-912e-6b696361645f,rev?*%
%TF.SameCoordinates,PX5e5c173PY6474d3b*%
%TF.FileFunction,Soldermask,Bot*%
%TF.FilePolarity,Negative*%
%FSLAX46Y46*%
G04 Gerber Fmt 4.6, Leading zero omitted, Abs format (unit mm)*
G04 Created by KiCad (PCBNEW 7.0.9-rc1) date 2023-11-11 13:07:52*
%MOMM*%
%LPD*%
G01*
G04 APERTURE LIST*
G04 APERTURE END LIST*
G36*
X17661195Y-72108770D02*
G01*
X17673523Y-72117007D01*
X17681760Y-72129335D01*
X17684653Y-72143877D01*
X17684653Y-73843877D01*
X17681760Y-73858419D01*
X17673523Y-73870747D01*
X17661195Y-73878984D01*
X17646653Y-73881877D01*
X15946653Y-73881877D01*
X15932111Y-73878984D01*
X15919783Y-73870747D01*
X15911546Y-73858419D01*
X15908653Y-73843877D01*
X15908653Y-72143877D01*
X15911546Y-72129335D01*
X15919783Y-72117007D01*
X15932111Y-72108770D01*
X15946653Y-72105877D01*
X17646653Y-72105877D01*
X17661195Y-72108770D01*
G37*
G36*
X-10695008Y-67026667D02*
G01*
X-10525415Y-67102174D01*
X-10375227Y-67211292D01*
X-10251008Y-67349252D01*
X-10158187Y-67510023D01*
X-10100820Y-67686579D01*
X-10081415Y-67871205D01*
X-10100820Y-68055831D01*
X-10158187Y-68232387D01*
X-10251008Y-68393158D01*
X-10375227Y-68531118D01*
X-10525415Y-68640236D01*
X-10695008Y-68715743D01*
X-10876594Y-68754340D01*
X-11062236Y-68754340D01*
X-11243822Y-68715743D01*
X-11413415Y-68640236D01*
X-11563603Y-68531118D01*
X-11687822Y-68393158D01*
X-11780643Y-68232387D01*
X-11838010Y-68055831D01*
X-11857415Y-67871205D01*
X-11838010Y-67686579D01*
X-11780643Y-67510023D01*
X-11687822Y-67349252D01*
X-11563603Y-67211292D01*
X-11413415Y-67102174D01*
X-11243822Y-67026667D01*
X-11062236Y-66988070D01*
X-10876594Y-66988070D01*
X-10695008Y-67026667D01*
G37*
G36*
X-13148460Y-66369266D02*
G01*
X-12978867Y-66444773D01*
X-12828679Y-66553891D01*
X-12704460Y-66691851D01*
X-12611639Y-66852622D01*
X-12554272Y-67029178D01*
X-12534867Y-67213804D01*
X-12554272Y-67398430D01*
X-12611639Y-67574986D01*
X-12704460Y-67735757D01*
X-12828679Y-67873717D01*
X-12978867Y-67982835D01*
X-13148460Y-68058342D01*
X-13330046Y-68096939D01*
X-13515688Y-68096939D01*
X-13697274Y-68058342D01*
X-13866867Y-67982835D01*
X-14017055Y-67873717D01*
X-14141274Y-67735757D01*
X-14234095Y-67574986D01*
X-14291462Y-67398430D01*
X-14310867Y-67213804D01*
X-14291462Y-67029178D01*
X-14234095Y-66852622D01*
X-14141274Y-66691851D01*
X-14017055Y-66553891D01*
X-13866867Y-66444773D01*
X-13697274Y-66369266D01*
X-13515688Y-66330669D01*
X-13330046Y-66330669D01*
X-13148460Y-66369266D01*
G37*
G36*
X-15601912Y-65711866D02*
G01*
X-15432319Y-65787373D01*
X-15282131Y-65896491D01*
X-15157912Y-66034451D01*
X-15065091Y-66195222D01*
X-15007724Y-66371778D01*
X-14988319Y-66556404D01*
X-15007724Y-66741030D01*
X-15065091Y-66917586D01*
X-15157912Y-67078357D01*
X-15282131Y-67216317D01*
X-15432319Y-67325435D01*
X-15601912Y-67400942D01*
X-15783498Y-67439539D01*
X-15969140Y-67439539D01*
X-16150726Y-67400942D01*
X-16320319Y-67325435D01*
X-16470507Y-67216317D01*
X-16594726Y-67078357D01*
X-16687547Y-66917586D01*
X-16744914Y-66741030D01*
X-16764319Y-66556404D01*
X-16744914Y-66371778D01*
X-16687547Y-66195222D01*
X-16594726Y-66034451D01*
X-16470507Y-65896491D01*
X-16320319Y-65787373D01*
X-16150726Y-65711866D01*
X-15969140Y-65673269D01*
X-15783498Y-65673269D01*
X-15601912Y-65711866D01*
G37*
G36*
X-18055363Y-65054466D02*
G01*
X-17885770Y-65129973D01*
X-17735582Y-65239091D01*
X-17611363Y-65377051D01*
X-17518542Y-65537822D01*
X-17461175Y-65714378D01*
X-17441770Y-65899004D01*
X-17461175Y-66083630D01*
X-17518542Y-66260186D01*
X-17611363Y-66420957D01*
X-17735582Y-66558917D01*
X-17885770Y-66668035D01*
X-18055363Y-66743542D01*
X-18236949Y-66782139D01*
X-18422591Y-66782139D01*
X-18604177Y-66743542D01*
X-18773770Y-66668035D01*
X-18923958Y-66558917D01*
X-19048177Y-66420957D01*
X-19140998Y-66260186D01*
X-19198365Y-66083630D01*
X-19217770Y-65899004D01*
X-19198365Y-65714378D01*
X-19140998Y-65537822D01*
X-19048177Y-65377051D01*
X-18923958Y-65239091D01*
X-18773770Y-65129973D01*
X-18604177Y-65054466D01*
X-18422591Y-65015869D01*
X-18236949Y-65015869D01*
X-18055363Y-65054466D01*
G37*
G36*
X-20508815Y-64397065D02*
G01*
X-20339222Y-64472572D01*
X-20189034Y-64581690D01*
X-20064815Y-64719650D01*
X-19971994Y-64880421D01*
X-19914627Y-65056977D01*
X-19895222Y-65241603D01*
X-19914627Y-65426229D01*
X-19971994Y-65602785D01*
X-20064815Y-65763556D01*
X-20189034Y-65901516D01*
X-20339222Y-66010634D01*
X-20508815Y-66086141D01*
X-20690401Y-66124738D01*
X-20876043Y-66124738D01*
X-21057629Y-66086141D01*
X-21227222Y-66010634D01*
X-21377410Y-65901516D01*
X-21501629Y-65763556D01*
X-21594450Y-65602785D01*
X-21651817Y-65426229D01*
X-21671222Y-65241603D01*
X-21651817Y-65056977D01*
X-21594450Y-64880421D01*
X-21501629Y-64719650D01*
X-21377410Y-64581690D01*
X-21227222Y-64472572D01*
X-21057629Y-64397065D01*
X-20876043Y-64358468D01*
X-20690401Y-64358468D01*
X-20508815Y-64397065D01*
G37*
G36*
X-23827879Y-63506465D02*
G01*
X-23823121Y-63507739D01*
X-23823120Y-63507740D01*
X-23271497Y-63655547D01*
X-22185805Y-63946457D01*
X-22172507Y-63953015D01*
X-22162731Y-63964162D01*
X-22157965Y-63978202D01*
X-22158935Y-63992997D01*
X-22598927Y-65635071D01*
X-22605485Y-65648369D01*
X-22616632Y-65658145D01*
X-22630672Y-65662911D01*
X-22645467Y-65661941D01*
X-24287541Y-65221949D01*
X-24300839Y-65215391D01*
X-24310615Y-65204244D01*
X-24315381Y-65190204D01*
X-24314411Y-65175409D01*
X-24302236Y-65129973D01*
X-23875694Y-63538093D01*
X-23875694Y-63538092D01*
X-23874419Y-63533335D01*
X-23867861Y-63520037D01*
X-23856714Y-63510261D01*
X-23842674Y-63505495D01*
X-23827879Y-63506465D01*
G37*
G36*
X-45375738Y-61715621D02*
G01*
X-45362738Y-61722752D01*
X-43447627Y-63329721D01*
X-43438347Y-63341285D01*
X-43434198Y-63355519D01*
X-43435812Y-63370257D01*
X-43442943Y-63383257D01*
X-45049912Y-65298368D01*
X-45061476Y-65307648D01*
X-45075710Y-65311797D01*
X-45090448Y-65310183D01*
X-45103448Y-65303052D01*
X-47018559Y-63696083D01*
X-47027839Y-63684519D01*
X-47031988Y-63670285D01*
X-47030374Y-63655547D01*
X-47023243Y-63642547D01*
X-46920445Y-63520037D01*
X-45419441Y-61731209D01*
X-45419438Y-61731206D01*
X-45416274Y-61727436D01*
X-45404710Y-61718156D01*
X-45390476Y-61714007D01*
X-45375738Y-61715621D01*
G37*
G36*
X-23732072Y-58985114D02*
G01*
X-23655006Y-58989602D01*
X-23612876Y-58999587D01*
X-23568757Y-59004944D01*
X-23532908Y-59018539D01*
X-23498215Y-59026762D01*
X-23458088Y-59046915D01*
X-23413676Y-59063758D01*
X-23384631Y-59083807D01*
X-23355532Y-59098421D01*
X-23318771Y-59129267D01*
X-23277178Y-59157977D01*
X-23255807Y-59182099D01*
X-23233218Y-59201054D01*
X-23202713Y-59242030D01*
X-23167193Y-59282123D01*
X-23153641Y-59307945D01*
X-23137876Y-59329121D01*
X-23116416Y-59378873D01*
X-23090115Y-59428984D01*
X-23083870Y-59454321D01*
X-23074635Y-59475730D01*
X-23064687Y-59532148D01*
X-23050422Y-59590023D01*
X-23050422Y-59613049D01*
X-23046910Y-59632967D01*
X-23050422Y-59693268D01*
X-23050422Y-59755881D01*
X-23055197Y-59775252D01*
X-23056193Y-59792358D01*
X-23074416Y-59853226D01*
X-23090115Y-59916920D01*
X-23097959Y-59931864D01*
X-23101987Y-59945321D01*
X-23135343Y-60003093D01*
X-23167193Y-60063781D01*
X-23176343Y-60074108D01*
X-23181819Y-60083594D01*
X-23229828Y-60134480D01*
X-23277178Y-60187927D01*
X-23285993Y-60194011D01*
X-23291385Y-60199727D01*
X-23352628Y-60240007D01*
X-23413676Y-60282146D01*
X-23420813Y-60284852D01*
X-23424786Y-60287466D01*
X-23497221Y-60313830D01*
X-23568757Y-60340960D01*
X-23573263Y-60341507D01*
X-23574823Y-60342075D01*
X-23658301Y-60351832D01*
X-23733406Y-60360952D01*
X-23736319Y-60360952D01*
X-24431958Y-60360952D01*
X-24433406Y-60360952D01*
X-24434742Y-60360789D01*
X-24511807Y-60356301D01*
X-24553930Y-60346317D01*
X-24598055Y-60340960D01*
X-24633910Y-60327362D01*
X-24668598Y-60319141D01*
X-24708721Y-60298990D01*
X-24753136Y-60282146D01*
X-24782185Y-60262094D01*
X-24811281Y-60247482D01*
X-24848041Y-60216637D01*
X-24889634Y-60187927D01*
X-24911006Y-60163803D01*
X-24933595Y-60144849D01*
X-24964102Y-60103871D01*
X-24999619Y-60063781D01*
X-25013172Y-60037959D01*
X-25028937Y-60016782D01*
X-25050401Y-59967024D01*
X-25076697Y-59916920D01*
X-25082942Y-59891585D01*
X-25092178Y-59870173D01*
X-25102128Y-59813743D01*
X-25116390Y-59755881D01*
X-25116390Y-59732859D01*
X-25119903Y-59712936D01*
X-25116390Y-59652617D01*
X-25116390Y-59590023D01*
X-25111617Y-59570656D01*
X-25110620Y-59553545D01*
X-25092391Y-59492652D01*
X-25076697Y-59428984D01*
X-25068857Y-59414045D01*
X-25064826Y-59400582D01*
X-25031455Y-59342780D01*
X-24999619Y-59282123D01*
X-24990474Y-59271800D01*
X-24984994Y-59262309D01*
X-24936955Y-59211389D01*
X-24889634Y-59157977D01*
X-24880826Y-59151896D01*
X-24875428Y-59146176D01*
X-24814134Y-59105861D01*
X-24753136Y-59063758D01*
X-24746006Y-59061053D01*
X-24742027Y-59058437D01*
X-24669503Y-59032040D01*
X-24598055Y-59004944D01*
X-24593555Y-59004397D01*
X-24591990Y-59003828D01*
X-24508393Y-58994056D01*
X-24433406Y-58984952D01*
X-23733406Y-58984952D01*
X-23732072Y-58985114D01*
G37*
G36*
X-23732072Y-56445114D02*
G01*
X-23655006Y-56449602D01*
X-23612876Y-56459587D01*
X-23568757Y-56464944D01*
X-23532908Y-56478539D01*
X-23498215Y-56486762D01*
X-23458088Y-56506915D01*
X-23413676Y-56523758D01*
X-23384631Y-56543807D01*
X-23355532Y-56558421D01*
X-23318771Y-56589267D01*
X-23277178Y-56617977D01*
X-23255807Y-56642099D01*
X-23233218Y-56661054D01*
X-23202713Y-56702030D01*
X-23167193Y-56742123D01*
X-23153641Y-56767945D01*
X-23137876Y-56789121D01*
X-23116416Y-56838873D01*
X-23090115Y-56888984D01*
X-23083870Y-56914321D01*
X-23074635Y-56935730D01*
X-23064687Y-56992148D01*
X-23050422Y-57050023D01*
X-23050422Y-57073049D01*
X-23046910Y-57092967D01*
X-23050422Y-57153268D01*
X-23050422Y-57215881D01*
X-23055197Y-57235252D01*
X-23056193Y-57252358D01*
X-23074416Y-57313226D01*
X-23090115Y-57376920D01*
X-23097959Y-57391864D01*
X-23101987Y-57405321D01*
X-23135343Y-57463093D01*
X-23167193Y-57523781D01*
X-23176343Y-57534108D01*
X-23181819Y-57543594D01*
X-23229828Y-57594480D01*
X-23277178Y-57647927D01*
X-23285993Y-57654011D01*
X-23291385Y-57659727D01*
X-23352628Y-57700007D01*
X-23413676Y-57742146D01*
X-23420813Y-57744852D01*
X-23424786Y-57747466D01*
X-23497221Y-57773830D01*
X-23568757Y-57800960D01*
X-23573263Y-57801507D01*
X-23574823Y-57802075D01*
X-23658301Y-57811832D01*
X-23733406Y-57820952D01*
X-23736319Y-57820952D01*
X-24431958Y-57820952D01*
X-24433406Y-57820952D01*
X-24434742Y-57820789D01*
X-24511807Y-57816301D01*
X-24553930Y-57806317D01*
X-24598055Y-57800960D01*
X-24633910Y-57787362D01*
X-24668598Y-57779141D01*
X-24708721Y-57758990D01*
X-24753136Y-57742146D01*
X-24782185Y-57722094D01*
X-24811281Y-57707482D01*
X-24848041Y-57676637D01*
X-24889634Y-57647927D01*
X-24911006Y-57623803D01*
X-24933595Y-57604849D01*
X-24964102Y-57563871D01*
X-24999619Y-57523781D01*
X-25013172Y-57497959D01*
X-25028937Y-57476782D01*
X-25050401Y-57427024D01*
X-25076697Y-57376920D01*
X-25082942Y-57351585D01*
X-25092178Y-57330173D01*
X-25102128Y-57273743D01*
X-25116390Y-57215881D01*
X-25116390Y-57192859D01*
X-25119903Y-57172936D01*
X-25116390Y-57112617D01*
X-25116390Y-57050023D01*
X-25111617Y-57030656D01*
X-25110620Y-57013545D01*
X-25092391Y-56952652D01*
X-25076697Y-56888984D01*
X-25068857Y-56874045D01*
X-25064826Y-56860582D01*
X-25031455Y-56802780D01*
X-24999619Y-56742123D01*
X-24990474Y-56731800D01*
X-24984994Y-56722309D01*
X-24936955Y-56671389D01*
X-24889634Y-56617977D01*
X-24880826Y-56611896D01*
X-24875428Y-56606176D01*
X-24814134Y-56565861D01*
X-24753136Y-56523758D01*
X-24746006Y-56521053D01*
X-24742027Y-56518437D01*
X-24669503Y-56492040D01*
X-24598055Y-56464944D01*
X-24593555Y-56464397D01*
X-24591990Y-56463828D01*
X-24508393Y-56454056D01*
X-24433406Y-56444952D01*
X-23733406Y-56444952D01*
X-23732072Y-56445114D01*
G37*
G36*
X-56100360Y-52716595D02*
G01*
X-56087360Y-52723726D01*
X-54679630Y-53904952D01*
X-54349089Y-54182309D01*
X-54172249Y-54330695D01*
X-54162969Y-54342259D01*
X-54158820Y-54356493D01*
X-54160434Y-54371231D01*
X-54167565Y-54384231D01*
X-55774534Y-56299342D01*
X-55786098Y-56308622D01*
X-55800332Y-56312771D01*
X-55815070Y-56311157D01*
X-55828070Y-56304026D01*
X-57743181Y-54697057D01*
X-57752461Y-54685493D01*
X-57756610Y-54671259D01*
X-57754996Y-54656521D01*
X-57747865Y-54643521D01*
X-57519140Y-54370937D01*
X-56144063Y-52732183D01*
X-56144060Y-52732180D01*
X-56140896Y-52728410D01*
X-56129332Y-52719130D01*
X-56115098Y-52714981D01*
X-56100360Y-52716595D01*
G37*
G36*
X-23732072Y-53905114D02*
G01*
X-23655006Y-53909602D01*
X-23612876Y-53919587D01*
X-23568757Y-53924944D01*
X-23532908Y-53938539D01*
X-23498215Y-53946762D01*
X-23458088Y-53966915D01*
X-23413676Y-53983758D01*
X-23384631Y-54003807D01*
X-23355532Y-54018421D01*
X-23318771Y-54049267D01*
X-23277178Y-54077977D01*
X-23255807Y-54102099D01*
X-23233218Y-54121054D01*
X-23202713Y-54162030D01*
X-23167193Y-54202123D01*
X-23153641Y-54227945D01*
X-23137876Y-54249121D01*
X-23116416Y-54298873D01*
X-23090115Y-54348984D01*
X-23083870Y-54374321D01*
X-23074635Y-54395730D01*
X-23064687Y-54452148D01*
X-23050422Y-54510023D01*
X-23050422Y-54533049D01*
X-23046910Y-54552967D01*
X-23050422Y-54613268D01*
X-23050422Y-54675881D01*
X-23055197Y-54695252D01*
X-23056193Y-54712358D01*
X-23074416Y-54773226D01*
X-23090115Y-54836920D01*
X-23097959Y-54851864D01*
X-23101987Y-54865321D01*
X-23135343Y-54923093D01*
X-23167193Y-54983781D01*
X-23176343Y-54994108D01*
X-23181819Y-55003594D01*
X-23229828Y-55054480D01*
X-23277178Y-55107927D01*
X-23285993Y-55114011D01*
X-23291385Y-55119727D01*
X-23352628Y-55160007D01*
X-23413676Y-55202146D01*
X-23420813Y-55204852D01*
X-23424786Y-55207466D01*
X-23497221Y-55233830D01*
X-23568757Y-55260960D01*
X-23573263Y-55261507D01*
X-23574823Y-55262075D01*
X-23658301Y-55271832D01*
X-23733406Y-55280952D01*
X-23736319Y-55280952D01*
X-24431958Y-55280952D01*
X-24433406Y-55280952D01*
X-24434742Y-55280789D01*
X-24511807Y-55276301D01*
X-24553930Y-55266317D01*
X-24598055Y-55260960D01*
X-24633910Y-55247362D01*
X-24668598Y-55239141D01*
X-24708721Y-55218990D01*
X-24753136Y-55202146D01*
X-24782185Y-55182094D01*
X-24811281Y-55167482D01*
X-24848041Y-55136637D01*
X-24889634Y-55107927D01*
X-24911006Y-55083803D01*
X-24933595Y-55064849D01*
X-24964102Y-55023871D01*
X-24999619Y-54983781D01*
X-25013172Y-54957959D01*
X-25028937Y-54936782D01*
X-25050401Y-54887024D01*
X-25076697Y-54836920D01*
X-25082942Y-54811585D01*
X-25092178Y-54790173D01*
X-25102128Y-54733743D01*
X-25116390Y-54675881D01*
X-25116390Y-54652859D01*
X-25119903Y-54632936D01*
X-25116390Y-54572617D01*
X-25116390Y-54510023D01*
X-25111617Y-54490656D01*
X-25110620Y-54473545D01*
X-25092391Y-54412652D01*
X-25076697Y-54348984D01*
X-25068857Y-54334045D01*
X-25064826Y-54320582D01*
X-25031455Y-54262780D01*
X-24999619Y-54202123D01*
X-24990474Y-54191800D01*
X-24984994Y-54182309D01*
X-24936955Y-54131389D01*
X-24889634Y-54077977D01*
X-24880826Y-54071896D01*
X-24875428Y-54066176D01*
X-24814134Y-54025861D01*
X-24753136Y-53983758D01*
X-24746006Y-53981053D01*
X-24742027Y-53978437D01*
X-24669503Y-53952040D01*
X-24598055Y-53924944D01*
X-24593555Y-53924397D01*
X-24591990Y-53923828D01*
X-24508393Y-53914056D01*
X-24433406Y-53904952D01*
X-23733406Y-53904952D01*
X-23732072Y-53905114D01*
G37*
G36*
X59975Y-49516719D02*
G01*
X122394Y-49516719D01*
X190598Y-49526999D01*
X256240Y-49532165D01*
X309150Y-49544867D01*
X364459Y-49553204D01*
X436734Y-49575498D01*
X506170Y-49592168D01*
X551064Y-49610764D01*
X598374Y-49625357D01*
X672654Y-49661128D01*
X743636Y-49690530D01*
X780069Y-49712856D01*
X818935Y-49731573D01*
X892862Y-49781976D01*
X962792Y-49824829D01*
X990794Y-49848745D01*
X1021186Y-49869466D01*
X1092152Y-49935313D01*
X1158241Y-49991758D01*
X1178308Y-50015254D01*
X1200635Y-50035970D01*
X1265909Y-50117822D01*
X1325170Y-50187207D01*
X1338203Y-50208475D01*
X1353264Y-50227361D01*
X1410064Y-50325742D01*
X1459469Y-50406363D01*
X1466725Y-50423881D01*
X1475659Y-50439355D01*
X1521213Y-50555426D01*
X1557831Y-50643829D01*
X1560859Y-50656444D01*
X1565095Y-50667236D01*
X1596800Y-50806150D01*
X1617834Y-50893759D01*
X1618379Y-50900694D01*
X1619565Y-50905887D01*
X1635047Y-51112485D01*
X1638000Y-51149999D01*
X1635047Y-51187515D01*
X1619565Y-51394110D01*
X1618379Y-51399302D01*
X1617834Y-51406239D01*
X1596796Y-51493866D01*
X1565095Y-51632761D01*
X1560860Y-51643550D01*
X1557831Y-51656169D01*
X1521205Y-51744589D01*
X1475659Y-51860642D01*
X1466727Y-51876112D01*
X1459469Y-51893635D01*
X1410054Y-51974271D01*
X1353264Y-52072636D01*
X1338206Y-52091518D01*
X1325170Y-52112791D01*
X1265897Y-52182189D01*
X1200635Y-52264027D01*
X1178312Y-52284739D01*
X1158241Y-52308240D01*
X1092139Y-52364696D01*
X1021186Y-52430531D01*
X990800Y-52451247D01*
X962792Y-52475169D01*
X892848Y-52518030D01*
X818935Y-52568424D01*
X780076Y-52587136D01*
X743636Y-52609468D01*
X672639Y-52638875D01*
X598374Y-52674640D01*
X551074Y-52689230D01*
X506170Y-52707830D01*
X436719Y-52724503D01*
X364459Y-52746793D01*
X309158Y-52755128D01*
X256240Y-52767833D01*
X190594Y-52772999D01*
X122394Y-52783279D01*
X59975Y-52783279D01*
X0Y-52787999D01*
X-59975Y-52783279D01*
X-122394Y-52783279D01*
X-190595Y-52772999D01*
X-256240Y-52767833D01*
X-309158Y-52755128D01*
X-364460Y-52746793D01*
X-436725Y-52724502D01*
X-506170Y-52707830D01*
X-551072Y-52689231D01*
X-598375Y-52674640D01*
X-672645Y-52638873D01*
X-743636Y-52609468D01*
X-780077Y-52587137D01*
X-818935Y-52568424D01*
X-892852Y-52518028D01*
X-962792Y-52475169D01*
X-990797Y-52451250D01*
X-1021187Y-52430531D01*
X-1092152Y-52364685D01*
X-1158241Y-52308240D01*
X-1178309Y-52284743D01*
X-1200636Y-52264027D01*
X-1265913Y-52182172D01*
X-1325170Y-52112791D01*
X-1338203Y-52091523D01*
X-1353265Y-52072636D01*
X-1410072Y-51974243D01*
X-1459469Y-51893635D01*
X-1466725Y-51876118D01*
X-1475660Y-51860642D01*
X-1521225Y-51744543D01*
X-1557831Y-51656169D01*
X-1560859Y-51643557D01*
X-1565096Y-51632761D01*
X-1596817Y-51493782D01*
X-1617834Y-51406239D01*
X-1618380Y-51399308D01*
X-1619566Y-51394110D01*
X-1635069Y-51187249D01*
X-1638000Y-51149999D01*
X-1635069Y-51112751D01*
X-1619566Y-50905887D01*
X-1618380Y-50900687D01*
X-1617834Y-50893759D01*
X-1596822Y-50806234D01*
X-1565096Y-50667236D01*
X-1560859Y-50656438D01*
X-1557831Y-50643829D01*
X-1521233Y-50555472D01*
X-1475660Y-50439355D01*
X-1466724Y-50423875D01*
X-1459469Y-50406363D01*
X-1410082Y-50325770D01*
X-1353265Y-50227361D01*
X-1338201Y-50208470D01*
X-1325170Y-50187207D01*
X-1265925Y-50117839D01*
X-1200636Y-50035970D01*
X-1178305Y-50015249D01*
X-1158241Y-49991758D01*
X-1092166Y-49935323D01*
X-1021187Y-49869466D01*
X-990791Y-49848742D01*
X-962792Y-49824829D01*
X-892867Y-49781978D01*
X-818935Y-49731573D01*
X-780069Y-49712855D01*
X-743636Y-49690530D01*
X-672659Y-49661130D01*
X-598375Y-49625357D01*
X-551062Y-49610762D01*
X-506170Y-49592168D01*
X-436740Y-49575499D01*
X-364460Y-49553204D01*
X-309149Y-49544867D01*
X-256240Y-49532165D01*
X-190599Y-49526999D01*
X-122394Y-49516719D01*
X-59975Y-49516719D01*
X0Y-49511999D01*
X59975Y-49516719D01*
G37*
G36*
X-23732072Y-51365114D02*
G01*
X-23655006Y-51369602D01*
X-23612876Y-51379587D01*
X-23568757Y-51384944D01*
X-23532908Y-51398539D01*
X-23498215Y-51406762D01*
X-23458088Y-51426915D01*
X-23413676Y-51443758D01*
X-23384631Y-51463807D01*
X-23355532Y-51478421D01*
X-23318771Y-51509267D01*
X-23277178Y-51537977D01*
X-23255807Y-51562099D01*
X-23233218Y-51581054D01*
X-23202713Y-51622030D01*
X-23167193Y-51662123D01*
X-23153641Y-51687945D01*
X-23137876Y-51709121D01*
X-23116416Y-51758873D01*
X-23090115Y-51808984D01*
X-23083870Y-51834321D01*
X-23074635Y-51855730D01*
X-23064687Y-51912148D01*
X-23050422Y-51970023D01*
X-23050422Y-51993049D01*
X-23046910Y-52012967D01*
X-23050422Y-52073268D01*
X-23050422Y-52135881D01*
X-23055197Y-52155252D01*
X-23056193Y-52172358D01*
X-23074416Y-52233226D01*
X-23090115Y-52296920D01*
X-23097959Y-52311864D01*
X-23101987Y-52325321D01*
X-23135343Y-52383093D01*
X-23167193Y-52443781D01*
X-23176343Y-52454108D01*
X-23181819Y-52463594D01*
X-23229828Y-52514480D01*
X-23277178Y-52567927D01*
X-23285993Y-52574011D01*
X-23291385Y-52579727D01*
X-23352628Y-52620007D01*
X-23413676Y-52662146D01*
X-23420813Y-52664852D01*
X-23424786Y-52667466D01*
X-23497221Y-52693830D01*
X-23568757Y-52720960D01*
X-23573263Y-52721507D01*
X-23574823Y-52722075D01*
X-23658301Y-52731832D01*
X-23733406Y-52740952D01*
X-23736319Y-52740952D01*
X-24431958Y-52740952D01*
X-24433406Y-52740952D01*
X-24434742Y-52740789D01*
X-24511807Y-52736301D01*
X-24553930Y-52726317D01*
X-24598055Y-52720960D01*
X-24633910Y-52707362D01*
X-24668598Y-52699141D01*
X-24708721Y-52678990D01*
X-24753136Y-52662146D01*
X-24782185Y-52642094D01*
X-24811281Y-52627482D01*
X-24848041Y-52596637D01*
X-24889634Y-52567927D01*
X-24911006Y-52543803D01*
X-24933595Y-52524849D01*
X-24964102Y-52483871D01*
X-24999619Y-52443781D01*
X-25013172Y-52417959D01*
X-25028937Y-52396782D01*
X-25050401Y-52347024D01*
X-25076697Y-52296920D01*
X-25082942Y-52271585D01*
X-25092178Y-52250173D01*
X-25102128Y-52193743D01*
X-25116390Y-52135881D01*
X-25116390Y-52112859D01*
X-25119903Y-52092936D01*
X-25116390Y-52032617D01*
X-25116390Y-51970023D01*
X-25111617Y-51950656D01*
X-25110620Y-51933545D01*
X-25092391Y-51872652D01*
X-25076697Y-51808984D01*
X-25068857Y-51794045D01*
X-25064826Y-51780582D01*
X-25031455Y-51722780D01*
X-24999619Y-51662123D01*
X-24990474Y-51651800D01*
X-24984994Y-51642309D01*
X-24936955Y-51591389D01*
X-24889634Y-51537977D01*
X-24880826Y-51531896D01*
X-24875428Y-51526176D01*
X-24814134Y-51485861D01*
X-24753136Y-51443758D01*
X-24746006Y-51441053D01*
X-24742027Y-51438437D01*
X-24669503Y-51412040D01*
X-24598055Y-51384944D01*
X-24593555Y-51384397D01*
X-24591990Y-51383828D01*
X-24508393Y-51374056D01*
X-24433406Y-51364952D01*
X-23733406Y-51364952D01*
X-23732072Y-51365114D01*
G37*
G36*
X-23732072Y-48825114D02*
G01*
X-23655006Y-48829602D01*
X-23612876Y-48839587D01*
X-23568757Y-48844944D01*
X-23532908Y-48858539D01*
X-23498215Y-48866762D01*
X-23458088Y-48886915D01*
X-23413676Y-48903758D01*
X-23384631Y-48923807D01*
X-23355532Y-48938421D01*
X-23318771Y-48969267D01*
X-23277178Y-48997977D01*
X-23255807Y-49022099D01*
X-23233218Y-49041054D01*
X-23202713Y-49082030D01*
X-23167193Y-49122123D01*
X-23153641Y-49147945D01*
X-23137876Y-49169121D01*
X-23116416Y-49218873D01*
X-23090115Y-49268984D01*
X-23083870Y-49294321D01*
X-23074635Y-49315730D01*
X-23064687Y-49372148D01*
X-23050422Y-49430023D01*
X-23050422Y-49453049D01*
X-23046910Y-49472967D01*
X-23050422Y-49533268D01*
X-23050422Y-49595881D01*
X-23055197Y-49615252D01*
X-23056193Y-49632358D01*
X-23074416Y-49693226D01*
X-23090115Y-49756920D01*
X-23097959Y-49771864D01*
X-23101987Y-49785321D01*
X-23135343Y-49843093D01*
X-23167193Y-49903781D01*
X-23176343Y-49914108D01*
X-23181819Y-49923594D01*
X-23229828Y-49974480D01*
X-23277178Y-50027927D01*
X-23285993Y-50034011D01*
X-23291385Y-50039727D01*
X-23352628Y-50080007D01*
X-23413676Y-50122146D01*
X-23420813Y-50124852D01*
X-23424786Y-50127466D01*
X-23497221Y-50153830D01*
X-23568757Y-50180960D01*
X-23573263Y-50181507D01*
X-23574823Y-50182075D01*
X-23658301Y-50191832D01*
X-23733406Y-50200952D01*
X-23736319Y-50200952D01*
X-24431958Y-50200952D01*
X-24433406Y-50200952D01*
X-24434742Y-50200789D01*
X-24511807Y-50196301D01*
X-24553930Y-50186317D01*
X-24598055Y-50180960D01*
X-24633910Y-50167362D01*
X-24668598Y-50159141D01*
X-24708721Y-50138990D01*
X-24753136Y-50122146D01*
X-24782185Y-50102094D01*
X-24811281Y-50087482D01*
X-24848041Y-50056637D01*
X-24889634Y-50027927D01*
X-24911006Y-50003803D01*
X-24933595Y-49984849D01*
X-24964102Y-49943871D01*
X-24999619Y-49903781D01*
X-25013172Y-49877959D01*
X-25028937Y-49856782D01*
X-25050401Y-49807024D01*
X-25076697Y-49756920D01*
X-25082942Y-49731585D01*
X-25092178Y-49710173D01*
X-25102128Y-49653743D01*
X-25116390Y-49595881D01*
X-25116390Y-49572859D01*
X-25119903Y-49552936D01*
X-25116390Y-49492617D01*
X-25116390Y-49430023D01*
X-25111617Y-49410656D01*
X-25110620Y-49393545D01*
X-25092391Y-49332652D01*
X-25076697Y-49268984D01*
X-25068857Y-49254045D01*
X-25064826Y-49240582D01*
X-25031455Y-49182780D01*
X-24999619Y-49122123D01*
X-24990474Y-49111800D01*
X-24984994Y-49102309D01*
X-24936955Y-49051389D01*
X-24889634Y-48997977D01*
X-24880826Y-48991896D01*
X-24875428Y-48986176D01*
X-24814134Y-48945861D01*
X-24753136Y-48903758D01*
X-24746006Y-48901053D01*
X-24742027Y-48898437D01*
X-24669503Y-48872040D01*
X-24598055Y-48844944D01*
X-24593555Y-48844397D01*
X-24591990Y-48843828D01*
X-24508393Y-48834056D01*
X-24433406Y-48824952D01*
X-23733406Y-48824952D01*
X-23732072Y-48825114D01*
G37*
G36*
X-30591623Y-44096599D02*
G01*
X-30578623Y-44103730D01*
X-28663512Y-45710699D01*
X-28654232Y-45722263D01*
X-28650083Y-45736497D01*
X-28651697Y-45751235D01*
X-28658828Y-45764235D01*
X-30265797Y-47679346D01*
X-30277361Y-47688626D01*
X-30291595Y-47692775D01*
X-30306333Y-47691161D01*
X-30319333Y-47684030D01*
X-32234444Y-46077061D01*
X-32243724Y-46065497D01*
X-32247873Y-46051263D01*
X-32246259Y-46036525D01*
X-32239128Y-46023525D01*
X-32024722Y-45768006D01*
X-30635326Y-44112187D01*
X-30635323Y-44112184D01*
X-30632159Y-44108414D01*
X-30620595Y-44099134D01*
X-30606361Y-44094985D01*
X-30591623Y-44096599D01*
G37*
G36*
X-23732072Y-46285114D02*
G01*
X-23655006Y-46289602D01*
X-23612876Y-46299587D01*
X-23568757Y-46304944D01*
X-23532908Y-46318539D01*
X-23498215Y-46326762D01*
X-23458088Y-46346915D01*
X-23413676Y-46363758D01*
X-23384631Y-46383807D01*
X-23355532Y-46398421D01*
X-23318771Y-46429267D01*
X-23277178Y-46457977D01*
X-23255807Y-46482099D01*
X-23233218Y-46501054D01*
X-23202713Y-46542030D01*
X-23167193Y-46582123D01*
X-23153641Y-46607945D01*
X-23137876Y-46629121D01*
X-23116416Y-46678873D01*
X-23090115Y-46728984D01*
X-23083870Y-46754321D01*
X-23074635Y-46775730D01*
X-23064687Y-46832148D01*
X-23050422Y-46890023D01*
X-23050422Y-46913049D01*
X-23046910Y-46932967D01*
X-23050422Y-46993268D01*
X-23050422Y-47055881D01*
X-23055197Y-47075252D01*
X-23056193Y-47092358D01*
X-23074416Y-47153226D01*
X-23090115Y-47216920D01*
X-23097959Y-47231864D01*
X-23101987Y-47245321D01*
X-23135343Y-47303093D01*
X-23167193Y-47363781D01*
X-23176343Y-47374108D01*
X-23181819Y-47383594D01*
X-23229828Y-47434480D01*
X-23277178Y-47487927D01*
X-23285993Y-47494011D01*
X-23291385Y-47499727D01*
X-23352628Y-47540007D01*
X-23413676Y-47582146D01*
X-23420813Y-47584852D01*
X-23424786Y-47587466D01*
X-23497221Y-47613830D01*
X-23568757Y-47640960D01*
X-23573263Y-47641507D01*
X-23574823Y-47642075D01*
X-23658301Y-47651832D01*
X-23733406Y-47660952D01*
X-23736319Y-47660952D01*
X-24431958Y-47660952D01*
X-24433406Y-47660952D01*
X-24434742Y-47660789D01*
X-24511807Y-47656301D01*
X-24553930Y-47646317D01*
X-24598055Y-47640960D01*
X-24633910Y-47627362D01*
X-24668598Y-47619141D01*
X-24708721Y-47598990D01*
X-24753136Y-47582146D01*
X-24782185Y-47562094D01*
X-24811281Y-47547482D01*
X-24848041Y-47516637D01*
X-24889634Y-47487927D01*
X-24911006Y-47463803D01*
X-24933595Y-47444849D01*
X-24964102Y-47403871D01*
X-24999619Y-47363781D01*
X-25013172Y-47337959D01*
X-25028937Y-47316782D01*
X-25050401Y-47267024D01*
X-25076697Y-47216920D01*
X-25082942Y-47191585D01*
X-25092178Y-47170173D01*
X-25102128Y-47113743D01*
X-25116390Y-47055881D01*
X-25116390Y-47032859D01*
X-25119903Y-47012936D01*
X-25116390Y-46952617D01*
X-25116390Y-46890023D01*
X-25111617Y-46870656D01*
X-25110620Y-46853545D01*
X-25092391Y-46792652D01*
X-25076697Y-46728984D01*
X-25068857Y-46714045D01*
X-25064826Y-46700582D01*
X-25031455Y-46642780D01*
X-24999619Y-46582123D01*
X-24990474Y-46571800D01*
X-24984994Y-46562309D01*
X-24936955Y-46511389D01*
X-24889634Y-46457977D01*
X-24880826Y-46451896D01*
X-24875428Y-46446176D01*
X-24814134Y-46405861D01*
X-24753136Y-46363758D01*
X-24746006Y-46361053D01*
X-24742027Y-46358437D01*
X-24669503Y-46332040D01*
X-24598055Y-46304944D01*
X-24593555Y-46304397D01*
X-24591990Y-46303828D01*
X-24508393Y-46294056D01*
X-24433406Y-46284952D01*
X-23733406Y-46284952D01*
X-23732072Y-46285114D01*
G37*
G36*
X-32889756Y-42168236D02*
G01*
X-32876756Y-42175367D01*
X-32393399Y-42580952D01*
X-31006198Y-43744952D01*
X-30961645Y-43782336D01*
X-30952365Y-43793900D01*
X-30948216Y-43808134D01*
X-30949830Y-43822872D01*
X-30956961Y-43835872D01*
X-32563930Y-45750983D01*
X-32575494Y-45760263D01*
X-32589728Y-45764412D01*
X-32604466Y-45762798D01*
X-32617466Y-45755667D01*
X-34532577Y-44148698D01*
X-34541857Y-44137134D01*
X-34546006Y-44122900D01*
X-34544392Y-44108162D01*
X-34537261Y-44095162D01*
X-34305061Y-43818437D01*
X-32933459Y-42183824D01*
X-32933456Y-42183821D01*
X-32930292Y-42180051D01*
X-32918728Y-42170771D01*
X-32904494Y-42166622D01*
X-32889756Y-42168236D01*
G37*
G36*
X-23732072Y-43745114D02*
G01*
X-23655006Y-43749602D01*
X-23612876Y-43759587D01*
X-23568757Y-43764944D01*
X-23532908Y-43778539D01*
X-23498215Y-43786762D01*
X-23458088Y-43806915D01*
X-23413676Y-43823758D01*
X-23384631Y-43843807D01*
X-23355532Y-43858421D01*
X-23318771Y-43889267D01*
X-23277178Y-43917977D01*
X-23255807Y-43942099D01*
X-23233218Y-43961054D01*
X-23202713Y-44002030D01*
X-23167193Y-44042123D01*
X-23153641Y-44067945D01*
X-23137876Y-44089121D01*
X-23116416Y-44138873D01*
X-23090115Y-44188984D01*
X-23083870Y-44214321D01*
X-23074635Y-44235730D01*
X-23064687Y-44292148D01*
X-23050422Y-44350023D01*
X-23050422Y-44373049D01*
X-23046910Y-44392967D01*
X-23050422Y-44453268D01*
X-23050422Y-44515881D01*
X-23055197Y-44535252D01*
X-23056193Y-44552358D01*
X-23074416Y-44613226D01*
X-23090115Y-44676920D01*
X-23097959Y-44691864D01*
X-23101987Y-44705321D01*
X-23135343Y-44763093D01*
X-23167193Y-44823781D01*
X-23176343Y-44834108D01*
X-23181819Y-44843594D01*
X-23229828Y-44894480D01*
X-23277178Y-44947927D01*
X-23285993Y-44954011D01*
X-23291385Y-44959727D01*
X-23352628Y-45000007D01*
X-23413676Y-45042146D01*
X-23420813Y-45044852D01*
X-23424786Y-45047466D01*
X-23497221Y-45073830D01*
X-23568757Y-45100960D01*
X-23573263Y-45101507D01*
X-23574823Y-45102075D01*
X-23658301Y-45111832D01*
X-23733406Y-45120952D01*
X-23736319Y-45120952D01*
X-24431958Y-45120952D01*
X-24433406Y-45120952D01*
X-24434742Y-45120789D01*
X-24511807Y-45116301D01*
X-24553930Y-45106317D01*
X-24598055Y-45100960D01*
X-24633910Y-45087362D01*
X-24668598Y-45079141D01*
X-24708721Y-45058990D01*
X-24753136Y-45042146D01*
X-24782185Y-45022094D01*
X-24811281Y-45007482D01*
X-24848041Y-44976637D01*
X-24889634Y-44947927D01*
X-24911006Y-44923803D01*
X-24933595Y-44904849D01*
X-24964102Y-44863871D01*
X-24999619Y-44823781D01*
X-25013172Y-44797959D01*
X-25028937Y-44776782D01*
X-25050401Y-44727024D01*
X-25076697Y-44676920D01*
X-25082942Y-44651585D01*
X-25092178Y-44630173D01*
X-25102128Y-44573743D01*
X-25116390Y-44515881D01*
X-25116390Y-44492859D01*
X-25119903Y-44472936D01*
X-25116390Y-44412617D01*
X-25116390Y-44350023D01*
X-25111617Y-44330656D01*
X-25110620Y-44313545D01*
X-25092391Y-44252652D01*
X-25076697Y-44188984D01*
X-25068857Y-44174045D01*
X-25064826Y-44160582D01*
X-25031455Y-44102780D01*
X-24999619Y-44042123D01*
X-24990474Y-44031800D01*
X-24984994Y-44022309D01*
X-24936955Y-43971389D01*
X-24889634Y-43917977D01*
X-24880826Y-43911896D01*
X-24875428Y-43906176D01*
X-24814134Y-43865861D01*
X-24753136Y-43823758D01*
X-24746006Y-43821053D01*
X-24742027Y-43818437D01*
X-24669503Y-43792040D01*
X-24598055Y-43764944D01*
X-24593555Y-43764397D01*
X-24591990Y-43763828D01*
X-24508393Y-43754056D01*
X-24433406Y-43744952D01*
X-23733406Y-43744952D01*
X-23732072Y-43745114D01*
G37*
G36*
X-23732072Y-41205114D02*
G01*
X-23655006Y-41209602D01*
X-23612876Y-41219587D01*
X-23568757Y-41224944D01*
X-23532908Y-41238539D01*
X-23498215Y-41246762D01*
X-23458088Y-41266915D01*
X-23413676Y-41283758D01*
X-23384631Y-41303807D01*
X-23355532Y-41318421D01*
X-23318771Y-41349267D01*
X-23277178Y-41377977D01*
X-23255807Y-41402099D01*
X-23233218Y-41421054D01*
X-23202713Y-41462030D01*
X-23167193Y-41502123D01*
X-23153641Y-41527945D01*
X-23137876Y-41549121D01*
X-23116416Y-41598873D01*
X-23090115Y-41648984D01*
X-23083870Y-41674321D01*
X-23074635Y-41695730D01*
X-23064687Y-41752148D01*
X-23050422Y-41810023D01*
X-23050422Y-41833049D01*
X-23046910Y-41852967D01*
X-23050422Y-41913268D01*
X-23050422Y-41975881D01*
X-23055197Y-41995252D01*
X-23056193Y-42012358D01*
X-23074416Y-42073226D01*
X-23090115Y-42136920D01*
X-23097959Y-42151864D01*
X-23101987Y-42165321D01*
X-23135343Y-42223093D01*
X-23167193Y-42283781D01*
X-23176343Y-42294108D01*
X-23181819Y-42303594D01*
X-23229828Y-42354480D01*
X-23277178Y-42407927D01*
X-23285993Y-42414011D01*
X-23291385Y-42419727D01*
X-23352628Y-42460007D01*
X-23413676Y-42502146D01*
X-23420813Y-42504852D01*
X-23424786Y-42507466D01*
X-23497221Y-42533830D01*
X-23568757Y-42560960D01*
X-23573263Y-42561507D01*
X-23574823Y-42562075D01*
X-23658301Y-42571832D01*
X-23733406Y-42580952D01*
X-23736319Y-42580952D01*
X-24431958Y-42580952D01*
X-24433406Y-42580952D01*
X-24434742Y-42580789D01*
X-24511807Y-42576301D01*
X-24553930Y-42566317D01*
X-24598055Y-42560960D01*
X-24633910Y-42547362D01*
X-24668598Y-42539141D01*
X-24708721Y-42518990D01*
X-24753136Y-42502146D01*
X-24782185Y-42482094D01*
X-24811281Y-42467482D01*
X-24848041Y-42436637D01*
X-24889634Y-42407927D01*
X-24911006Y-42383803D01*
X-24933595Y-42364849D01*
X-24964102Y-42323871D01*
X-24999619Y-42283781D01*
X-25013172Y-42257959D01*
X-25028937Y-42236782D01*
X-25050401Y-42187024D01*
X-25076697Y-42136920D01*
X-25082942Y-42111585D01*
X-25092178Y-42090173D01*
X-25102128Y-42033743D01*
X-25116390Y-41975881D01*
X-25116390Y-41952859D01*
X-25119903Y-41932936D01*
X-25116390Y-41872617D01*
X-25116390Y-41810023D01*
X-25111617Y-41790656D01*
X-25110620Y-41773545D01*
X-25092391Y-41712652D01*
X-25076697Y-41648984D01*
X-25068857Y-41634045D01*
X-25064826Y-41620582D01*
X-25031455Y-41562780D01*
X-24999619Y-41502123D01*
X-24990474Y-41491800D01*
X-24984994Y-41482309D01*
X-24936955Y-41431389D01*
X-24889634Y-41377977D01*
X-24880826Y-41371896D01*
X-24875428Y-41366176D01*
X-24814134Y-41325861D01*
X-24753136Y-41283758D01*
X-24746006Y-41281053D01*
X-24742027Y-41278437D01*
X-24669503Y-41252040D01*
X-24598055Y-41224944D01*
X-24593555Y-41224397D01*
X-24591990Y-41223828D01*
X-24508393Y-41214056D01*
X-24433406Y-41204952D01*
X-23733406Y-41204952D01*
X-23732072Y-41205114D01*
G37*
G36*
X-39018112Y-37025935D02*
G01*
X-39005112Y-37033066D01*
X-37090001Y-38640035D01*
X-37080721Y-38651599D01*
X-37076572Y-38665833D01*
X-37078186Y-38680571D01*
X-37085317Y-38693571D01*
X-38692286Y-40608682D01*
X-38703850Y-40617962D01*
X-38718084Y-40622111D01*
X-38732822Y-40620497D01*
X-38745822Y-40613366D01*
X-40660933Y-39006397D01*
X-40670213Y-38994833D01*
X-40674362Y-38980599D01*
X-40672748Y-38965861D01*
X-40665617Y-38952861D01*
X-40451211Y-38697342D01*
X-39061815Y-37041523D01*
X-39061812Y-37041520D01*
X-39058648Y-37037750D01*
X-39047084Y-37028470D01*
X-39032850Y-37024321D01*
X-39018112Y-37025935D01*
G37*
G36*
X-41316245Y-35097572D02*
G01*
X-41303245Y-35104703D01*
X-39388134Y-36711672D01*
X-39378854Y-36723236D01*
X-39374705Y-36737470D01*
X-39376319Y-36752208D01*
X-39383450Y-36765208D01*
X-40990419Y-38680319D01*
X-41001983Y-38689599D01*
X-41016217Y-38693748D01*
X-41030955Y-38692134D01*
X-41043955Y-38685003D01*
X-42959066Y-37078034D01*
X-42968346Y-37066470D01*
X-42972495Y-37052236D01*
X-42970881Y-37037498D01*
X-42963750Y-37024498D01*
X-42735025Y-36751914D01*
X-41359948Y-35113160D01*
X-41359945Y-35113157D01*
X-41356781Y-35109387D01*
X-41345217Y-35100107D01*
X-41330983Y-35095958D01*
X-41316245Y-35097572D01*
G37*
G36*
X-25906945Y-23860275D02*
G01*
X-25894269Y-23867966D01*
X-21124085Y-28239035D01*
X-21115318Y-28250992D01*
X-21111793Y-28265394D01*
X-21114049Y-28280048D01*
X-21121741Y-28292724D01*
X-26837234Y-34530090D01*
X-26849191Y-34538857D01*
X-26863593Y-34542381D01*
X-26878247Y-34540125D01*
X-26890923Y-34532434D01*
X-31661107Y-30161365D01*
X-31669874Y-30149408D01*
X-31673399Y-30135006D01*
X-31671143Y-30120352D01*
X-31663451Y-30107676D01*
X-31660125Y-30104046D01*
X-25951285Y-23873940D01*
X-25951283Y-23873938D01*
X-25947958Y-23870310D01*
X-25936001Y-23861543D01*
X-25921599Y-23858019D01*
X-25906945Y-23860275D01*
G37*
G36*
X-51206226Y-26370518D02*
G01*
X-51157594Y-26370518D01*
X-51103436Y-26380642D01*
X-51050843Y-26385822D01*
X-51010888Y-26397942D01*
X-50969345Y-26405708D01*
X-50911807Y-26427998D01*
X-50856122Y-26444890D01*
X-50824308Y-26461895D01*
X-50790764Y-26474890D01*
X-50732480Y-26510978D01*
X-50676665Y-26540812D01*
X-50653214Y-26560058D01*
X-50627943Y-26575705D01*
X-50571956Y-26626744D01*
X-50519370Y-26669900D01*
X-50503786Y-26688889D01*
X-50486414Y-26704726D01*
X-50435978Y-26771514D01*
X-50390282Y-26827195D01*
X-50381447Y-26843725D01*
X-50371005Y-26857552D01*
X-50329460Y-26940985D01*
X-50294360Y-27006652D01*
X-50290618Y-27018990D01*
X-50285640Y-27028986D01*
X-50256238Y-27132323D01*
X-50235292Y-27201373D01*
X-50234604Y-27208359D01*
X-50233232Y-27213181D01*
X-50218979Y-27367007D01*
X-50215347Y-27403877D01*
X-50218979Y-27440749D01*
X-50233232Y-27594572D01*
X-50234604Y-27599393D01*
X-50235292Y-27606381D01*
X-50256243Y-27675445D01*
X-50285640Y-27778767D01*
X-50290617Y-27788760D01*
X-50294360Y-27801102D01*
X-50329467Y-27866782D01*
X-50371005Y-27950201D01*
X-50381445Y-27964024D01*
X-50390282Y-27980559D01*
X-50435988Y-28036251D01*
X-50486414Y-28103027D01*
X-50503783Y-28118860D01*
X-50519370Y-28137854D01*
X-50571967Y-28181018D01*
X-50627943Y-28232048D01*
X-50653209Y-28247691D01*
X-50676665Y-28266942D01*
X-50732491Y-28296781D01*
X-50790764Y-28332863D01*
X-50824301Y-28345854D01*
X-50856122Y-28362864D01*
X-50911819Y-28379759D01*
X-50969345Y-28402045D01*
X-51010882Y-28409809D01*
X-51050843Y-28421932D01*
X-51103439Y-28427112D01*
X-51157594Y-28437236D01*
X-51206226Y-28437236D01*
X-51253347Y-28441877D01*
X-51300468Y-28437236D01*
X-51349100Y-28437236D01*
X-51403257Y-28427112D01*
X-51455851Y-28421932D01*
X-51495812Y-28409810D01*
X-51537350Y-28402045D01*
X-51594880Y-28379758D01*
X-51650572Y-28362864D01*
X-51682392Y-28345856D01*
X-51715931Y-28332863D01*
X-51774211Y-28296777D01*
X-51830029Y-28266942D01*
X-51853483Y-28247694D01*
X-51878752Y-28232048D01*
X-51934738Y-28181010D01*
X-51987324Y-28137854D01*
X-52002909Y-28118864D01*
X-52020281Y-28103027D01*
X-52070720Y-28036236D01*
X-52116412Y-27980559D01*
X-52125248Y-27964029D01*
X-52135690Y-27950201D01*
X-52177242Y-27866754D01*
X-52212334Y-27801102D01*
X-52216077Y-27788765D01*
X-52221055Y-27778767D01*
X-52250468Y-27675392D01*
X-52271402Y-27606381D01*
X-52272090Y-27599398D01*
X-52273463Y-27594572D01*
X-52287733Y-27440578D01*
X-52291347Y-27403877D01*
X-52287733Y-27367178D01*
X-52273463Y-27213181D01*
X-52272090Y-27208353D01*
X-52271402Y-27201373D01*
X-52250473Y-27132376D01*
X-52221055Y-27028986D01*
X-52216076Y-27018985D01*
X-52212334Y-27006652D01*
X-52177250Y-26941012D01*
X-52135690Y-26857552D01*
X-52125246Y-26843721D01*
X-52116412Y-26827195D01*
X-52070729Y-26771529D01*
X-52020281Y-26704726D01*
X-52002906Y-26688885D01*
X-51987324Y-26669900D01*
X-51934749Y-26626752D01*
X-51878752Y-26575705D01*
X-51853478Y-26560055D01*
X-51830029Y-26540812D01*
X-51774223Y-26510982D01*
X-51715931Y-26474890D01*
X-51682385Y-26461894D01*
X-51650572Y-26444890D01*
X-51594892Y-26427999D01*
X-51537350Y-26405708D01*
X-51495805Y-26397941D01*
X-51455851Y-26385822D01*
X-51403260Y-26380642D01*
X-51349100Y-26370518D01*
X-51300468Y-26370518D01*
X-51253347Y-26365877D01*
X-51206226Y-26370518D01*
G37*
G36*
X-48666226Y-26370518D02*
G01*
X-48617594Y-26370518D01*
X-48563436Y-26380642D01*
X-48510843Y-26385822D01*
X-48470888Y-26397942D01*
X-48429345Y-26405708D01*
X-48371807Y-26427998D01*
X-48316122Y-26444890D01*
X-48284308Y-26461895D01*
X-48250764Y-26474890D01*
X-48192480Y-26510978D01*
X-48136665Y-26540812D01*
X-48113214Y-26560058D01*
X-48087943Y-26575705D01*
X-48031956Y-26626744D01*
X-47979370Y-26669900D01*
X-47963786Y-26688889D01*
X-47946414Y-26704726D01*
X-47895978Y-26771514D01*
X-47850282Y-26827195D01*
X-47841447Y-26843725D01*
X-47831005Y-26857552D01*
X-47789460Y-26940985D01*
X-47754360Y-27006652D01*
X-47750618Y-27018990D01*
X-47745640Y-27028986D01*
X-47716238Y-27132323D01*
X-47695292Y-27201373D01*
X-47694604Y-27208359D01*
X-47693232Y-27213181D01*
X-47678979Y-27367007D01*
X-47675347Y-27403877D01*
X-47678979Y-27440749D01*
X-47693232Y-27594572D01*
X-47694604Y-27599393D01*
X-47695292Y-27606381D01*
X-47716243Y-27675445D01*
X-47745640Y-27778767D01*
X-47750617Y-27788760D01*
X-47754360Y-27801102D01*
X-47789467Y-27866782D01*
X-47831005Y-27950201D01*
X-47841445Y-27964024D01*
X-47850282Y-27980559D01*
X-47895988Y-28036251D01*
X-47946414Y-28103027D01*
X-47963783Y-28118860D01*
X-47979370Y-28137854D01*
X-48031967Y-28181018D01*
X-48087943Y-28232048D01*
X-48113209Y-28247691D01*
X-48136665Y-28266942D01*
X-48192491Y-28296781D01*
X-48250764Y-28332863D01*
X-48284301Y-28345854D01*
X-48316122Y-28362864D01*
X-48371819Y-28379759D01*
X-48429345Y-28402045D01*
X-48470882Y-28409809D01*
X-48510843Y-28421932D01*
X-48563439Y-28427112D01*
X-48617594Y-28437236D01*
X-48666226Y-28437236D01*
X-48713347Y-28441877D01*
X-48760468Y-28437236D01*
X-48809100Y-28437236D01*
X-48863257Y-28427112D01*
X-48915851Y-28421932D01*
X-48955812Y-28409810D01*
X-48997350Y-28402045D01*
X-49054880Y-28379758D01*
X-49110572Y-28362864D01*
X-49142392Y-28345856D01*
X-49175931Y-28332863D01*
X-49234211Y-28296777D01*
X-49290029Y-28266942D01*
X-49313483Y-28247694D01*
X-49338752Y-28232048D01*
X-49394738Y-28181010D01*
X-49447324Y-28137854D01*
X-49462909Y-28118864D01*
X-49480281Y-28103027D01*
X-49530720Y-28036236D01*
X-49576412Y-27980559D01*
X-49585248Y-27964029D01*
X-49595690Y-27950201D01*
X-49637242Y-27866754D01*
X-49672334Y-27801102D01*
X-49676077Y-27788765D01*
X-49681055Y-27778767D01*
X-49710468Y-27675392D01*
X-49731402Y-27606381D01*
X-49732090Y-27599398D01*
X-49733463Y-27594572D01*
X-49747733Y-27440578D01*
X-49751347Y-27403877D01*
X-49747733Y-27367178D01*
X-49733463Y-27213181D01*
X-49732090Y-27208353D01*
X-49731402Y-27201373D01*
X-49710473Y-27132376D01*
X-49681055Y-27028986D01*
X-49676076Y-27018985D01*
X-49672334Y-27006652D01*
X-49637250Y-26941012D01*
X-49595690Y-26857552D01*
X-49585246Y-26843721D01*
X-49576412Y-26827195D01*
X-49530729Y-26771529D01*
X-49480281Y-26704726D01*
X-49462906Y-26688885D01*
X-49447324Y-26669900D01*
X-49394749Y-26626752D01*
X-49338752Y-26575705D01*
X-49313478Y-26560055D01*
X-49290029Y-26540812D01*
X-49234223Y-26510982D01*
X-49175931Y-26474890D01*
X-49142385Y-26461894D01*
X-49110572Y-26444890D01*
X-49054892Y-26427999D01*
X-48997350Y-26405708D01*
X-48955805Y-26397941D01*
X-48915851Y-26385822D01*
X-48863260Y-26380642D01*
X-48809100Y-26370518D01*
X-48760468Y-26370518D01*
X-48713347Y-26365877D01*
X-48666226Y-26370518D01*
G37*
G36*
X-46126226Y-26370518D02*
G01*
X-46077594Y-26370518D01*
X-46023436Y-26380642D01*
X-45970843Y-26385822D01*
X-45930888Y-26397942D01*
X-45889345Y-26405708D01*
X-45831807Y-26427998D01*
X-45776122Y-26444890D01*
X-45744308Y-26461895D01*
X-45710764Y-26474890D01*
X-45652480Y-26510978D01*
X-45596665Y-26540812D01*
X-45573214Y-26560058D01*
X-45547943Y-26575705D01*
X-45491956Y-26626744D01*
X-45439370Y-26669900D01*
X-45423786Y-26688889D01*
X-45406414Y-26704726D01*
X-45355978Y-26771514D01*
X-45310282Y-26827195D01*
X-45301447Y-26843725D01*
X-45291005Y-26857552D01*
X-45249460Y-26940985D01*
X-45214360Y-27006652D01*
X-45210618Y-27018990D01*
X-45205640Y-27028986D01*
X-45176238Y-27132323D01*
X-45155292Y-27201373D01*
X-45154604Y-27208359D01*
X-45153232Y-27213181D01*
X-45138979Y-27367007D01*
X-45135347Y-27403877D01*
X-45138979Y-27440749D01*
X-45153232Y-27594572D01*
X-45154604Y-27599393D01*
X-45155292Y-27606381D01*
X-45176243Y-27675445D01*
X-45205640Y-27778767D01*
X-45210617Y-27788760D01*
X-45214360Y-27801102D01*
X-45249467Y-27866782D01*
X-45291005Y-27950201D01*
X-45301445Y-27964024D01*
X-45310282Y-27980559D01*
X-45355988Y-28036251D01*
X-45406414Y-28103027D01*
X-45423783Y-28118860D01*
X-45439370Y-28137854D01*
X-45491967Y-28181018D01*
X-45547943Y-28232048D01*
X-45573209Y-28247691D01*
X-45596665Y-28266942D01*
X-45652491Y-28296781D01*
X-45710764Y-28332863D01*
X-45744301Y-28345854D01*
X-45776122Y-28362864D01*
X-45831819Y-28379759D01*
X-45889345Y-28402045D01*
X-45930882Y-28409809D01*
X-45970843Y-28421932D01*
X-46023439Y-28427112D01*
X-46077594Y-28437236D01*
X-46126226Y-28437236D01*
X-46173347Y-28441877D01*
X-46220468Y-28437236D01*
X-46269100Y-28437236D01*
X-46323257Y-28427112D01*
X-46375851Y-28421932D01*
X-46415812Y-28409810D01*
X-46457350Y-28402045D01*
X-46514880Y-28379758D01*
X-46570572Y-28362864D01*
X-46602392Y-28345856D01*
X-46635931Y-28332863D01*
X-46694211Y-28296777D01*
X-46750029Y-28266942D01*
X-46773483Y-28247694D01*
X-46798752Y-28232048D01*
X-46854738Y-28181010D01*
X-46907324Y-28137854D01*
X-46922909Y-28118864D01*
X-46940281Y-28103027D01*
X-46990720Y-28036236D01*
X-47036412Y-27980559D01*
X-47045248Y-27964029D01*
X-47055690Y-27950201D01*
X-47097242Y-27866754D01*
X-47132334Y-27801102D01*
X-47136077Y-27788765D01*
X-47141055Y-27778767D01*
X-47170468Y-27675392D01*
X-47191402Y-27606381D01*
X-47192090Y-27599398D01*
X-47193463Y-27594572D01*
X-47207733Y-27440578D01*
X-47211347Y-27403877D01*
X-47207733Y-27367178D01*
X-47193463Y-27213181D01*
X-47192090Y-27208353D01*
X-47191402Y-27201373D01*
X-47170473Y-27132376D01*
X-47141055Y-27028986D01*
X-47136076Y-27018985D01*
X-47132334Y-27006652D01*
X-47097250Y-26941012D01*
X-47055690Y-26857552D01*
X-47045246Y-26843721D01*
X-47036412Y-26827195D01*
X-46990729Y-26771529D01*
X-46940281Y-26704726D01*
X-46922906Y-26688885D01*
X-46907324Y-26669900D01*
X-46854749Y-26626752D01*
X-46798752Y-26575705D01*
X-46773478Y-26560055D01*
X-46750029Y-26540812D01*
X-46694223Y-26510982D01*
X-46635931Y-26474890D01*
X-46602385Y-26461894D01*
X-46570572Y-26444890D01*
X-46514892Y-26427999D01*
X-46457350Y-26405708D01*
X-46415805Y-26397941D01*
X-46375851Y-26385822D01*
X-46323260Y-26380642D01*
X-46269100Y-26370518D01*
X-46220468Y-26370518D01*
X-46173347Y-26365877D01*
X-46126226Y-26370518D01*
G37*
G36*
X-43586226Y-26370518D02*
G01*
X-43537594Y-26370518D01*
X-43483436Y-26380642D01*
X-43430843Y-26385822D01*
X-43390888Y-26397942D01*
X-43349345Y-26405708D01*
X-43291807Y-26427998D01*
X-43236122Y-26444890D01*
X-43204308Y-26461895D01*
X-43170764Y-26474890D01*
X-43112480Y-26510978D01*
X-43056665Y-26540812D01*
X-43033214Y-26560058D01*
X-43007943Y-26575705D01*
X-42951956Y-26626744D01*
X-42899370Y-26669900D01*
X-42883786Y-26688889D01*
X-42866414Y-26704726D01*
X-42815978Y-26771514D01*
X-42770282Y-26827195D01*
X-42761447Y-26843725D01*
X-42751005Y-26857552D01*
X-42709460Y-26940985D01*
X-42674360Y-27006652D01*
X-42670618Y-27018990D01*
X-42665640Y-27028986D01*
X-42636238Y-27132323D01*
X-42615292Y-27201373D01*
X-42614604Y-27208359D01*
X-42613232Y-27213181D01*
X-42598979Y-27367007D01*
X-42595347Y-27403877D01*
X-42598979Y-27440749D01*
X-42613232Y-27594572D01*
X-42614604Y-27599393D01*
X-42615292Y-27606381D01*
X-42636243Y-27675445D01*
X-42665640Y-27778767D01*
X-42670617Y-27788760D01*
X-42674360Y-27801102D01*
X-42709467Y-27866782D01*
X-42751005Y-27950201D01*
X-42761445Y-27964024D01*
X-42770282Y-27980559D01*
X-42815988Y-28036251D01*
X-42866414Y-28103027D01*
X-42883783Y-28118860D01*
X-42899370Y-28137854D01*
X-42951967Y-28181018D01*
X-43007943Y-28232048D01*
X-43033209Y-28247691D01*
X-43056665Y-28266942D01*
X-43112491Y-28296781D01*
X-43170764Y-28332863D01*
X-43204301Y-28345854D01*
X-43236122Y-28362864D01*
X-43291819Y-28379759D01*
X-43349345Y-28402045D01*
X-43390882Y-28409809D01*
X-43430843Y-28421932D01*
X-43483439Y-28427112D01*
X-43537594Y-28437236D01*
X-43586226Y-28437236D01*
X-43633347Y-28441877D01*
X-43680468Y-28437236D01*
X-43729100Y-28437236D01*
X-43783257Y-28427112D01*
X-43835851Y-28421932D01*
X-43875812Y-28409810D01*
X-43917350Y-28402045D01*
X-43974880Y-28379758D01*
X-44030572Y-28362864D01*
X-44062392Y-28345856D01*
X-44095931Y-28332863D01*
X-44154211Y-28296777D01*
X-44210029Y-28266942D01*
X-44233483Y-28247694D01*
X-44258752Y-28232048D01*
X-44314738Y-28181010D01*
X-44367324Y-28137854D01*
X-44382909Y-28118864D01*
X-44400281Y-28103027D01*
X-44450720Y-28036236D01*
X-44496412Y-27980559D01*
X-44505248Y-27964029D01*
X-44515690Y-27950201D01*
X-44557242Y-27866754D01*
X-44592334Y-27801102D01*
X-44596077Y-27788765D01*
X-44601055Y-27778767D01*
X-44630468Y-27675392D01*
X-44651402Y-27606381D01*
X-44652090Y-27599398D01*
X-44653463Y-27594572D01*
X-44667733Y-27440578D01*
X-44671347Y-27403877D01*
X-44667733Y-27367178D01*
X-44653463Y-27213181D01*
X-44652090Y-27208353D01*
X-44651402Y-27201373D01*
X-44630473Y-27132376D01*
X-44601055Y-27028986D01*
X-44596076Y-27018985D01*
X-44592334Y-27006652D01*
X-44557250Y-26941012D01*
X-44515690Y-26857552D01*
X-44505246Y-26843721D01*
X-44496412Y-26827195D01*
X-44450729Y-26771529D01*
X-44400281Y-26704726D01*
X-44382906Y-26688885D01*
X-44367324Y-26669900D01*
X-44314749Y-26626752D01*
X-44258752Y-26575705D01*
X-44233478Y-26560055D01*
X-44210029Y-26540812D01*
X-44154223Y-26510982D01*
X-44095931Y-26474890D01*
X-44062385Y-26461894D01*
X-44030572Y-26444890D01*
X-43974892Y-26427999D01*
X-43917350Y-26405708D01*
X-43875805Y-26397941D01*
X-43835851Y-26385822D01*
X-43783260Y-26380642D01*
X-43729100Y-26370518D01*
X-43680468Y-26370518D01*
X-43633347Y-26365877D01*
X-43586226Y-26370518D01*
G37*
G36*
X-41046226Y-26370518D02*
G01*
X-40997594Y-26370518D01*
X-40943436Y-26380642D01*
X-40890843Y-26385822D01*
X-40850888Y-26397942D01*
X-40809345Y-26405708D01*
X-40751807Y-26427998D01*
X-40696122Y-26444890D01*
X-40664308Y-26461895D01*
X-40630764Y-26474890D01*
X-40572480Y-26510978D01*
X-40516665Y-26540812D01*
X-40493214Y-26560058D01*
X-40467943Y-26575705D01*
X-40411956Y-26626744D01*
X-40359370Y-26669900D01*
X-40343786Y-26688889D01*
X-40326414Y-26704726D01*
X-40275978Y-26771514D01*
X-40230282Y-26827195D01*
X-40221447Y-26843725D01*
X-40211005Y-26857552D01*
X-40169460Y-26940985D01*
X-40134360Y-27006652D01*
X-40130618Y-27018990D01*
X-40125640Y-27028986D01*
X-40096238Y-27132323D01*
X-40075292Y-27201373D01*
X-40074604Y-27208359D01*
X-40073232Y-27213181D01*
X-40058979Y-27367007D01*
X-40055347Y-27403877D01*
X-40058979Y-27440749D01*
X-40073232Y-27594572D01*
X-40074604Y-27599393D01*
X-40075292Y-27606381D01*
X-40096243Y-27675445D01*
X-40125640Y-27778767D01*
X-40130617Y-27788760D01*
X-40134360Y-27801102D01*
X-40169467Y-27866782D01*
X-40211005Y-27950201D01*
X-40221445Y-27964024D01*
X-40230282Y-27980559D01*
X-40275988Y-28036251D01*
X-40326414Y-28103027D01*
X-40343783Y-28118860D01*
X-40359370Y-28137854D01*
X-40411967Y-28181018D01*
X-40467943Y-28232048D01*
X-40493209Y-28247691D01*
X-40516665Y-28266942D01*
X-40572491Y-28296781D01*
X-40630764Y-28332863D01*
X-40664301Y-28345854D01*
X-40696122Y-28362864D01*
X-40751819Y-28379759D01*
X-40809345Y-28402045D01*
X-40850882Y-28409809D01*
X-40890843Y-28421932D01*
X-40943439Y-28427112D01*
X-40997594Y-28437236D01*
X-41046226Y-28437236D01*
X-41093347Y-28441877D01*
X-41140468Y-28437236D01*
X-41189100Y-28437236D01*
X-41243257Y-28427112D01*
X-41295851Y-28421932D01*
X-41335812Y-28409810D01*
X-41377350Y-28402045D01*
X-41434880Y-28379758D01*
X-41490572Y-28362864D01*
X-41522392Y-28345856D01*
X-41555931Y-28332863D01*
X-41614211Y-28296777D01*
X-41670029Y-28266942D01*
X-41693483Y-28247694D01*
X-41718752Y-28232048D01*
X-41774738Y-28181010D01*
X-41827324Y-28137854D01*
X-41842909Y-28118864D01*
X-41860281Y-28103027D01*
X-41910720Y-28036236D01*
X-41956412Y-27980559D01*
X-41965248Y-27964029D01*
X-41975690Y-27950201D01*
X-42017242Y-27866754D01*
X-42052334Y-27801102D01*
X-42056077Y-27788765D01*
X-42061055Y-27778767D01*
X-42090468Y-27675392D01*
X-42111402Y-27606381D01*
X-42112090Y-27599398D01*
X-42113463Y-27594572D01*
X-42127733Y-27440578D01*
X-42131347Y-27403877D01*
X-42127733Y-27367178D01*
X-42113463Y-27213181D01*
X-42112090Y-27208353D01*
X-42111402Y-27201373D01*
X-42090473Y-27132376D01*
X-42061055Y-27028986D01*
X-42056076Y-27018985D01*
X-42052334Y-27006652D01*
X-42017250Y-26941012D01*
X-41975690Y-26857552D01*
X-41965246Y-26843721D01*
X-41956412Y-26827195D01*
X-41910729Y-26771529D01*
X-41860281Y-26704726D01*
X-41842906Y-26688885D01*
X-41827324Y-26669900D01*
X-41774749Y-26626752D01*
X-41718752Y-26575705D01*
X-41693478Y-26560055D01*
X-41670029Y-26540812D01*
X-41614223Y-26510982D01*
X-41555931Y-26474890D01*
X-41522385Y-26461894D01*
X-41490572Y-26444890D01*
X-41434892Y-26427999D01*
X-41377350Y-26405708D01*
X-41335805Y-26397941D01*
X-41295851Y-26385822D01*
X-41243260Y-26380642D01*
X-41189100Y-26370518D01*
X-41140468Y-26370518D01*
X-41093347Y-26365877D01*
X-41046226Y-26370518D01*
G37*
G36*
X-38506226Y-26370518D02*
G01*
X-38457594Y-26370518D01*
X-38403436Y-26380642D01*
X-38350843Y-26385822D01*
X-38310888Y-26397942D01*
X-38269345Y-26405708D01*
X-38211807Y-26427998D01*
X-38156122Y-26444890D01*
X-38124308Y-26461895D01*
X-38090764Y-26474890D01*
X-38032480Y-26510978D01*
X-37976665Y-26540812D01*
X-37953214Y-26560058D01*
X-37927943Y-26575705D01*
X-37871956Y-26626744D01*
X-37819370Y-26669900D01*
X-37803786Y-26688889D01*
X-37786414Y-26704726D01*
X-37735978Y-26771514D01*
X-37690282Y-26827195D01*
X-37681447Y-26843725D01*
X-37671005Y-26857552D01*
X-37629460Y-26940985D01*
X-37594360Y-27006652D01*
X-37590618Y-27018990D01*
X-37585640Y-27028986D01*
X-37556238Y-27132323D01*
X-37535292Y-27201373D01*
X-37534604Y-27208359D01*
X-37533232Y-27213181D01*
X-37518979Y-27367007D01*
X-37515347Y-27403877D01*
X-37518979Y-27440749D01*
X-37533232Y-27594572D01*
X-37534604Y-27599393D01*
X-37535292Y-27606381D01*
X-37556243Y-27675445D01*
X-37585640Y-27778767D01*
X-37590617Y-27788760D01*
X-37594360Y-27801102D01*
X-37629467Y-27866782D01*
X-37671005Y-27950201D01*
X-37681445Y-27964024D01*
X-37690282Y-27980559D01*
X-37735988Y-28036251D01*
X-37786414Y-28103027D01*
X-37803783Y-28118860D01*
X-37819370Y-28137854D01*
X-37871967Y-28181018D01*
X-37927943Y-28232048D01*
X-37953209Y-28247691D01*
X-37976665Y-28266942D01*
X-38032491Y-28296781D01*
X-38090764Y-28332863D01*
X-38124301Y-28345854D01*
X-38156122Y-28362864D01*
X-38211819Y-28379759D01*
X-38269345Y-28402045D01*
X-38310882Y-28409809D01*
X-38350843Y-28421932D01*
X-38403439Y-28427112D01*
X-38457594Y-28437236D01*
X-38506226Y-28437236D01*
X-38553347Y-28441877D01*
X-38600468Y-28437236D01*
X-38649100Y-28437236D01*
X-38703257Y-28427112D01*
X-38755851Y-28421932D01*
X-38795812Y-28409810D01*
X-38837350Y-28402045D01*
X-38894880Y-28379758D01*
X-38950572Y-28362864D01*
X-38982392Y-28345856D01*
X-39015931Y-28332863D01*
X-39074211Y-28296777D01*
X-39130029Y-28266942D01*
X-39153483Y-28247694D01*
X-39178752Y-28232048D01*
X-39234738Y-28181010D01*
X-39287324Y-28137854D01*
X-39302909Y-28118864D01*
X-39320281Y-28103027D01*
X-39370720Y-28036236D01*
X-39416412Y-27980559D01*
X-39425248Y-27964029D01*
X-39435690Y-27950201D01*
X-39477242Y-27866754D01*
X-39512334Y-27801102D01*
X-39516077Y-27788765D01*
X-39521055Y-27778767D01*
X-39550468Y-27675392D01*
X-39571402Y-27606381D01*
X-39572090Y-27599398D01*
X-39573463Y-27594572D01*
X-39587733Y-27440578D01*
X-39591347Y-27403877D01*
X-39587733Y-27367178D01*
X-39573463Y-27213181D01*
X-39572090Y-27208353D01*
X-39571402Y-27201373D01*
X-39550473Y-27132376D01*
X-39521055Y-27028986D01*
X-39516076Y-27018985D01*
X-39512334Y-27006652D01*
X-39477250Y-26941012D01*
X-39435690Y-26857552D01*
X-39425246Y-26843721D01*
X-39416412Y-26827195D01*
X-39370729Y-26771529D01*
X-39320281Y-26704726D01*
X-39302906Y-26688885D01*
X-39287324Y-26669900D01*
X-39234749Y-26626752D01*
X-39178752Y-26575705D01*
X-39153478Y-26560055D01*
X-39130029Y-26540812D01*
X-39074223Y-26510982D01*
X-39015931Y-26474890D01*
X-38982385Y-26461894D01*
X-38950572Y-26444890D01*
X-38894892Y-26427999D01*
X-38837350Y-26405708D01*
X-38795805Y-26397941D01*
X-38755851Y-26385822D01*
X-38703260Y-26380642D01*
X-38649100Y-26370518D01*
X-38600468Y-26370518D01*
X-38553347Y-26365877D01*
X-38506226Y-26370518D01*
G37*
G36*
X-74564039Y-20494894D02*
G01*
X-74501620Y-20494894D01*
X-74433416Y-20505174D01*
X-74367774Y-20510340D01*
X-74314864Y-20523042D01*
X-74259555Y-20531379D01*
X-74187280Y-20553673D01*
X-74117844Y-20570343D01*
X-74072950Y-20588939D01*
X-74025640Y-20603532D01*
X-73951360Y-20639303D01*
X-73880378Y-20668705D01*
X-73843945Y-20691031D01*
X-73805079Y-20709748D01*
X-73731152Y-20760151D01*
X-73661222Y-20803004D01*
X-73633220Y-20826920D01*
X-73602828Y-20847641D01*
X-73531862Y-20913488D01*
X-73465773Y-20969933D01*
X-73445706Y-20993429D01*
X-73423379Y-21014145D01*
X-73358105Y-21095997D01*
X-73298844Y-21165382D01*
X-73285811Y-21186650D01*
X-73270750Y-21205536D01*
X-73213950Y-21303917D01*
X-73164545Y-21384538D01*
X-73157289Y-21402056D01*
X-73148355Y-21417530D01*
X-73102801Y-21533601D01*
X-73066183Y-21622004D01*
X-73063155Y-21634619D01*
X-73058919Y-21645411D01*
X-73027214Y-21784325D01*
X-73006180Y-21871934D01*
X-73005635Y-21878869D01*
X-73004449Y-21884062D01*
X-72988967Y-22090660D01*
X-72986014Y-22128174D01*
X-72988967Y-22165690D01*
X-73004449Y-22372285D01*
X-73005635Y-22377477D01*
X-73006180Y-22384414D01*
X-73027218Y-22472041D01*
X-73058919Y-22610936D01*
X-73063154Y-22621725D01*
X-73066183Y-22634344D01*
X-73102809Y-22722764D01*
X-73148355Y-22838817D01*
X-73157287Y-22854287D01*
X-73164545Y-22871810D01*
X-73213960Y-22952446D01*
X-73270750Y-23050811D01*
X-73285808Y-23069693D01*
X-73298844Y-23090966D01*
X-73358117Y-23160364D01*
X-73423379Y-23242202D01*
X-73445702Y-23262914D01*
X-73465773Y-23286415D01*
X-73531875Y-23342871D01*
X-73602828Y-23408706D01*
X-73633214Y-23429422D01*
X-73661222Y-23453344D01*
X-73731166Y-23496205D01*
X-73805079Y-23546599D01*
X-73843938Y-23565311D01*
X-73880378Y-23587643D01*
X-73951375Y-23617050D01*
X-74025640Y-23652815D01*
X-74072940Y-23667405D01*
X-74117844Y-23686005D01*
X-74187295Y-23702678D01*
X-74259555Y-23724968D01*
X-74314856Y-23733303D01*
X-74367774Y-23746008D01*
X-74433420Y-23751174D01*
X-74501620Y-23761454D01*
X-74564039Y-23761454D01*
X-74624014Y-23766174D01*
X-74683989Y-23761454D01*
X-74746408Y-23761454D01*
X-74814609Y-23751174D01*
X-74880254Y-23746008D01*
X-74933172Y-23733303D01*
X-74988474Y-23724968D01*
X-75060739Y-23702677D01*
X-75130184Y-23686005D01*
X-75175086Y-23667406D01*
X-75222389Y-23652815D01*
X-75296659Y-23617048D01*
X-75367650Y-23587643D01*
X-75404091Y-23565312D01*
X-75442949Y-23546599D01*
X-75516866Y-23496203D01*
X-75586806Y-23453344D01*
X-75614811Y-23429425D01*
X-75645201Y-23408706D01*
X-75716166Y-23342860D01*
X-75782255Y-23286415D01*
X-75802323Y-23262918D01*
X-75824650Y-23242202D01*
X-75889927Y-23160347D01*
X-75949184Y-23090966D01*
X-75962217Y-23069698D01*
X-75977279Y-23050811D01*
X-76034086Y-22952418D01*
X-76083483Y-22871810D01*
X-76090739Y-22854293D01*
X-76099674Y-22838817D01*
X-76145239Y-22722718D01*
X-76181845Y-22634344D01*
X-76184873Y-22621732D01*
X-76189110Y-22610936D01*
X-76220831Y-22471957D01*
X-76241848Y-22384414D01*
X-76242394Y-22377483D01*
X-76243580Y-22372285D01*
X-76259083Y-22165424D01*
X-76262014Y-22128174D01*
X-76259083Y-22090926D01*
X-76243580Y-21884062D01*
X-76242394Y-21878862D01*
X-76241848Y-21871934D01*
X-76220836Y-21784409D01*
X-76189110Y-21645411D01*
X-76184873Y-21634613D01*
X-76181845Y-21622004D01*
X-76145247Y-21533647D01*
X-76099674Y-21417530D01*
X-76090738Y-21402050D01*
X-76083483Y-21384538D01*
X-76034096Y-21303945D01*
X-75977279Y-21205536D01*
X-75962215Y-21186645D01*
X-75949184Y-21165382D01*
X-75889939Y-21096014D01*
X-75824650Y-21014145D01*
X-75802319Y-20993424D01*
X-75782255Y-20969933D01*
X-75716180Y-20913498D01*
X-75645201Y-20847641D01*
X-75614805Y-20826917D01*
X-75586806Y-20803004D01*
X-75516881Y-20760153D01*
X-75442949Y-20709748D01*
X-75404083Y-20691030D01*
X-75367650Y-20668705D01*
X-75296673Y-20639305D01*
X-75222389Y-20603532D01*
X-75175076Y-20588937D01*
X-75130184Y-20570343D01*
X-75060754Y-20553674D01*
X-74988474Y-20531379D01*
X-74933163Y-20523042D01*
X-74880254Y-20510340D01*
X-74814613Y-20505174D01*
X-74746408Y-20494894D01*
X-74683989Y-20494894D01*
X-74624014Y-20490174D01*
X-74564039Y-20494894D01*
G37*
G36*
X58125529Y-13603937D02*
G01*
X58187948Y-13603937D01*
X58256152Y-13614217D01*
X58321794Y-13619383D01*
X58374704Y-13632085D01*
X58430013Y-13640422D01*
X58502288Y-13662716D01*
X58571724Y-13679386D01*
X58616618Y-13697982D01*
X58663928Y-13712575D01*
X58738208Y-13748346D01*
X58809190Y-13777748D01*
X58845623Y-13800074D01*
X58884489Y-13818791D01*
X58958416Y-13869194D01*
X59028346Y-13912047D01*
X59056348Y-13935963D01*
X59086740Y-13956684D01*
X59157706Y-14022531D01*
X59223795Y-14078976D01*
X59243862Y-14102472D01*
X59266189Y-14123188D01*
X59331463Y-14205040D01*
X59390724Y-14274425D01*
X59403757Y-14295693D01*
X59418818Y-14314579D01*
X59475618Y-14412960D01*
X59525023Y-14493581D01*
X59532279Y-14511099D01*
X59541213Y-14526573D01*
X59586767Y-14642644D01*
X59623385Y-14731047D01*
X59626413Y-14743662D01*
X59630649Y-14754454D01*
X59662354Y-14893368D01*
X59683388Y-14980977D01*
X59683933Y-14987912D01*
X59685119Y-14993105D01*
X59700601Y-15199703D01*
X59703554Y-15237217D01*
X59700601Y-15274733D01*
X59685119Y-15481328D01*
X59683933Y-15486520D01*
X59683388Y-15493457D01*
X59662350Y-15581084D01*
X59630649Y-15719979D01*
X59626414Y-15730768D01*
X59623385Y-15743387D01*
X59586759Y-15831807D01*
X59541213Y-15947860D01*
X59532281Y-15963330D01*
X59525023Y-15980853D01*
X59475608Y-16061489D01*
X59418818Y-16159854D01*
X59403760Y-16178736D01*
X59390724Y-16200009D01*
X59331451Y-16269407D01*
X59266189Y-16351245D01*
X59243866Y-16371957D01*
X59223795Y-16395458D01*
X59157693Y-16451914D01*
X59086740Y-16517749D01*
X59056354Y-16538465D01*
X59028346Y-16562387D01*
X58958402Y-16605248D01*
X58884489Y-16655642D01*
X58845630Y-16674354D01*
X58809190Y-16696686D01*
X58738193Y-16726093D01*
X58663928Y-16761858D01*
X58616628Y-16776448D01*
X58571724Y-16795048D01*
X58502273Y-16811721D01*
X58430013Y-16834011D01*
X58374712Y-16842346D01*
X58321794Y-16855051D01*
X58256148Y-16860217D01*
X58187948Y-16870497D01*
X58125529Y-16870497D01*
X58065554Y-16875217D01*
X58005579Y-16870497D01*
X57943160Y-16870497D01*
X57874959Y-16860217D01*
X57809314Y-16855051D01*
X57756396Y-16842346D01*
X57701094Y-16834011D01*
X57628829Y-16811720D01*
X57559384Y-16795048D01*
X57514482Y-16776449D01*
X57467179Y-16761858D01*
X57392909Y-16726091D01*
X57321918Y-16696686D01*
X57285477Y-16674355D01*
X57246619Y-16655642D01*
X57172702Y-16605246D01*
X57102762Y-16562387D01*
X57074757Y-16538468D01*
X57044367Y-16517749D01*
X56973402Y-16451903D01*
X56907313Y-16395458D01*
X56887245Y-16371961D01*
X56864918Y-16351245D01*
X56799641Y-16269390D01*
X56740384Y-16200009D01*
X56727351Y-16178741D01*
X56712289Y-16159854D01*
X56655482Y-16061461D01*
X56606085Y-15980853D01*
X56598829Y-15963336D01*
X56589894Y-15947860D01*
X56544329Y-15831761D01*
X56507723Y-15743387D01*
X56504695Y-15730775D01*
X56500458Y-15719979D01*
X56468737Y-15581000D01*
X56447720Y-15493457D01*
X56447174Y-15486526D01*
X56445988Y-15481328D01*
X56430485Y-15274467D01*
X56427554Y-15237217D01*
X56430485Y-15199969D01*
X56445988Y-14993105D01*
X56447174Y-14987905D01*
X56447720Y-14980977D01*
X56468732Y-14893452D01*
X56500458Y-14754454D01*
X56504695Y-14743656D01*
X56507723Y-14731047D01*
X56544321Y-14642690D01*
X56589894Y-14526573D01*
X56598830Y-14511093D01*
X56606085Y-14493581D01*
X56655472Y-14412988D01*
X56712289Y-14314579D01*
X56727353Y-14295688D01*
X56740384Y-14274425D01*
X56799629Y-14205057D01*
X56864918Y-14123188D01*
X56887249Y-14102467D01*
X56907313Y-14078976D01*
X56973388Y-14022541D01*
X57044367Y-13956684D01*
X57074763Y-13935960D01*
X57102762Y-13912047D01*
X57172687Y-13869196D01*
X57246619Y-13818791D01*
X57285485Y-13800073D01*
X57321918Y-13777748D01*
X57392895Y-13748348D01*
X57467179Y-13712575D01*
X57514492Y-13697980D01*
X57559384Y-13679386D01*
X57628814Y-13662717D01*
X57701094Y-13640422D01*
X57756405Y-13632085D01*
X57809314Y-13619383D01*
X57874955Y-13614217D01*
X57943160Y-13603937D01*
X58005579Y-13603937D01*
X58065554Y-13599217D01*
X58125529Y-13603937D01*
G37*
G36*
X51844715Y-5496783D02*
G01*
X51907134Y-5496783D01*
X51975338Y-5507063D01*
X52040980Y-5512229D01*
X52093890Y-5524931D01*
X52149199Y-5533268D01*
X52221474Y-5555562D01*
X52290910Y-5572232D01*
X52335804Y-5590828D01*
X52383114Y-5605421D01*
X52457394Y-5641192D01*
X52528376Y-5670594D01*
X52564809Y-5692920D01*
X52603675Y-5711637D01*
X52677602Y-5762040D01*
X52747532Y-5804893D01*
X52775534Y-5828809D01*
X52805926Y-5849530D01*
X52876892Y-5915377D01*
X52942981Y-5971822D01*
X52963048Y-5995318D01*
X52985375Y-6016034D01*
X53050649Y-6097886D01*
X53109910Y-6167271D01*
X53122943Y-6188539D01*
X53138004Y-6207425D01*
X53194804Y-6305806D01*
X53244209Y-6386427D01*
X53251465Y-6403945D01*
X53260399Y-6419419D01*
X53305953Y-6535490D01*
X53342571Y-6623893D01*
X53345599Y-6636508D01*
X53349835Y-6647300D01*
X53381540Y-6786214D01*
X53402574Y-6873823D01*
X53403119Y-6880758D01*
X53404305Y-6885951D01*
X53419787Y-7092549D01*
X53422740Y-7130063D01*
X53419787Y-7167579D01*
X53404305Y-7374174D01*
X53403119Y-7379366D01*
X53402574Y-7386303D01*
X53381536Y-7473930D01*
X53349835Y-7612825D01*
X53345600Y-7623614D01*
X53342571Y-7636233D01*
X53305945Y-7724653D01*
X53260399Y-7840706D01*
X53251467Y-7856176D01*
X53244209Y-7873699D01*
X53194794Y-7954335D01*
X53138004Y-8052700D01*
X53122946Y-8071582D01*
X53109910Y-8092855D01*
X53050637Y-8162253D01*
X52985375Y-8244091D01*
X52963052Y-8264803D01*
X52942981Y-8288304D01*
X52876879Y-8344760D01*
X52805926Y-8410595D01*
X52775540Y-8431311D01*
X52747532Y-8455233D01*
X52677588Y-8498094D01*
X52603675Y-8548488D01*
X52564816Y-8567200D01*
X52528376Y-8589532D01*
X52457379Y-8618939D01*
X52383114Y-8654704D01*
X52335814Y-8669294D01*
X52290910Y-8687894D01*
X52221459Y-8704567D01*
X52149199Y-8726857D01*
X52093898Y-8735192D01*
X52040980Y-8747897D01*
X51975334Y-8753063D01*
X51907134Y-8763343D01*
X51844715Y-8763343D01*
X51784740Y-8768063D01*
X51724765Y-8763343D01*
X51662346Y-8763343D01*
X51594145Y-8753063D01*
X51528500Y-8747897D01*
X51475582Y-8735192D01*
X51420280Y-8726857D01*
X51348015Y-8704566D01*
X51278570Y-8687894D01*
X51233668Y-8669295D01*
X51186365Y-8654704D01*
X51112095Y-8618937D01*
X51041104Y-8589532D01*
X51004663Y-8567201D01*
X50965805Y-8548488D01*
X50891888Y-8498092D01*
X50821948Y-8455233D01*
X50793943Y-8431314D01*
X50763553Y-8410595D01*
X50692588Y-8344749D01*
X50626499Y-8288304D01*
X50606431Y-8264807D01*
X50584104Y-8244091D01*
X50518827Y-8162236D01*
X50459570Y-8092855D01*
X50446537Y-8071587D01*
X50431475Y-8052700D01*
X50374668Y-7954307D01*
X50325271Y-7873699D01*
X50318015Y-7856182D01*
X50309080Y-7840706D01*
X50263515Y-7724607D01*
X50226909Y-7636233D01*
X50223881Y-7623621D01*
X50219644Y-7612825D01*
X50187923Y-7473846D01*
X50166906Y-7386303D01*
X50166360Y-7379372D01*
X50165174Y-7374174D01*
X50149671Y-7167313D01*
X50146740Y-7130063D01*
X50149671Y-7092815D01*
X50165174Y-6885951D01*
X50166360Y-6880751D01*
X50166906Y-6873823D01*
X50187918Y-6786298D01*
X50219644Y-6647300D01*
X50223881Y-6636502D01*
X50226909Y-6623893D01*
X50263507Y-6535536D01*
X50309080Y-6419419D01*
X50318016Y-6403939D01*
X50325271Y-6386427D01*
X50374658Y-6305834D01*
X50431475Y-6207425D01*
X50446539Y-6188534D01*
X50459570Y-6167271D01*
X50518815Y-6097903D01*
X50584104Y-6016034D01*
X50606435Y-5995313D01*
X50626499Y-5971822D01*
X50692574Y-5915387D01*
X50763553Y-5849530D01*
X50793949Y-5828806D01*
X50821948Y-5804893D01*
X50891873Y-5762042D01*
X50965805Y-5711637D01*
X51004671Y-5692919D01*
X51041104Y-5670594D01*
X51112081Y-5641194D01*
X51186365Y-5605421D01*
X51233678Y-5590826D01*
X51278570Y-5572232D01*
X51348000Y-5555563D01*
X51420280Y-5533268D01*
X51475591Y-5524931D01*
X51528500Y-5512229D01*
X51594141Y-5507063D01*
X51662346Y-5496783D01*
X51724765Y-5496783D01*
X51784740Y-5492063D01*
X51844715Y-5496783D01*
G37*
G36*
X80631195Y-3628770D02*
G01*
X80643523Y-3637007D01*
X80651760Y-3649335D01*
X80654653Y-3663877D01*
X80654653Y-5363877D01*
X80651760Y-5378419D01*
X80643523Y-5390747D01*
X80631195Y-5398984D01*
X80616653Y-5401877D01*
X78916653Y-5401877D01*
X78902111Y-5398984D01*
X78889783Y-5390747D01*
X78881546Y-5378419D01*
X78878653Y-5363877D01*
X78878653Y-3663877D01*
X78881546Y-3649335D01*
X78889783Y-3637007D01*
X78902111Y-3628770D01*
X78916653Y-3625877D01*
X80616653Y-3625877D01*
X80631195Y-3628770D01*
G37*
G36*
X76197Y2182899D02*
G01*
X149314Y2182899D01*
X215959Y2173739D01*
X285579Y2169176D01*
X367018Y2152977D01*
X445162Y2142236D01*
X504265Y2125677D01*
X566262Y2113344D01*
X651272Y2084487D01*
X732717Y2061667D01*
X783579Y2039575D01*
X837272Y2021348D01*
X923962Y1978598D01*
X1006622Y1942693D01*
X1048883Y1916994D01*
X1093946Y1894771D01*
X1180193Y1837143D01*
X1261777Y1787530D01*
X1295486Y1760106D01*
X1331905Y1735771D01*
X1415398Y1662550D01*
X1493426Y1599069D01*
X1518961Y1571727D01*
X1547073Y1547074D01*
X1625398Y1457761D01*
X1697256Y1380820D01*
X1715336Y1355207D01*
X1735770Y1331906D01*
X1806420Y1226171D01*
X1869470Y1136850D01*
X1881101Y1114404D01*
X1894770Y1093946D01*
X1955282Y971239D01*
X2006858Y871702D01*
X2013281Y853629D01*
X2021347Y837273D01*
X2069312Y695972D01*
X2106863Y590315D01*
X2109522Y577520D01*
X2113343Y566263D01*
X2146505Y399545D01*
X2167621Y297933D01*
X2168094Y291013D01*
X2169175Y285580D01*
X2185417Y37750D01*
X2188000Y0D01*
X2185417Y-37752D01*
X2169175Y-285579D01*
X2168094Y-291011D01*
X2167621Y-297933D01*
X2146501Y-399566D01*
X2113343Y-566262D01*
X2109522Y-577516D01*
X2106863Y-590315D01*
X2069305Y-695992D01*
X2021347Y-837272D01*
X2013282Y-853625D01*
X2006858Y-871702D01*
X1955277Y-971247D01*
X1894770Y-1093946D01*
X1881101Y-1114402D01*
X1869470Y-1136850D01*
X1806413Y-1226179D01*
X1735770Y-1331905D01*
X1715339Y-1355200D01*
X1697256Y-1380820D01*
X1625384Y-1457775D01*
X1547073Y-1547073D01*
X1518966Y-1571721D01*
X1493426Y-1599069D01*
X1415382Y-1662562D01*
X1331905Y-1735770D01*
X1295493Y-1760099D01*
X1261777Y-1787530D01*
X1180176Y-1837152D01*
X1093946Y-1894770D01*
X1048892Y-1916988D01*
X1006622Y-1942693D01*
X923945Y-1978604D01*
X837272Y-2021347D01*
X783590Y-2039569D01*
X732717Y-2061667D01*
X651256Y-2084491D01*
X566262Y-2113343D01*
X504277Y-2125672D01*
X445162Y-2142236D01*
X367002Y-2152978D01*
X285579Y-2169175D01*
X215973Y-2173737D01*
X149314Y-2182899D01*
X76182Y-2182899D01*
X0Y-2187892D01*
X-76182Y-2182899D01*
X-149314Y-2182899D01*
X-215973Y-2173737D01*
X-285580Y-2169175D01*
X-367006Y-2152978D01*
X-445162Y-2142236D01*
X-504276Y-2125673D01*
X-566263Y-2113343D01*
X-651262Y-2084489D01*
X-732717Y-2061667D01*
X-783587Y-2039571D01*
X-837273Y-2021347D01*
X-923955Y-1978600D01*
X-1006622Y-1942693D01*
X-1048888Y-1916990D01*
X-1093947Y-1894770D01*
X-1180188Y-1837145D01*
X-1261777Y-1787530D01*
X-1295489Y-1760103D01*
X-1331906Y-1735770D01*
X-1415397Y-1662550D01*
X-1493426Y-1599069D01*
X-1518963Y-1571726D01*
X-1547074Y-1547073D01*
X-1625401Y-1457758D01*
X-1697256Y-1380820D01*
X-1715336Y-1355206D01*
X-1735771Y-1331905D01*
X-1806433Y-1226153D01*
X-1869470Y-1136850D01*
X-1881098Y-1114409D01*
X-1894771Y-1093946D01*
X-1955299Y-971207D01*
X-2006858Y-871702D01*
X-2013280Y-853632D01*
X-2021348Y-837272D01*
X-2069328Y-695930D01*
X-2106863Y-590315D01*
X-2109521Y-577524D01*
X-2113344Y-566262D01*
X-2146525Y-399454D01*
X-2167621Y-297933D01*
X-2168094Y-291018D01*
X-2169176Y-285579D01*
X-2185442Y-37402D01*
X-2188000Y0D01*
X-2185442Y37400D01*
X-2169176Y285580D01*
X-2168094Y291021D01*
X-2167621Y297933D01*
X-2146530Y399433D01*
X-2113344Y566263D01*
X-2109521Y577527D01*
X-2106863Y590315D01*
X-2069335Y695909D01*
X-2021348Y837273D01*
X-2013279Y853637D01*
X-2006858Y871702D01*
X-1955304Y971199D01*
X-1894771Y1093946D01*
X-1881098Y1114410D01*
X-1869470Y1136850D01*
X-1806440Y1226144D01*
X-1735771Y1331906D01*
X-1715333Y1355212D01*
X-1697256Y1380820D01*
X-1625416Y1457743D01*
X-1547074Y1547074D01*
X-1518958Y1571732D01*
X-1493426Y1599069D01*
X-1415413Y1662538D01*
X-1331906Y1735771D01*
X-1295483Y1760109D01*
X-1261777Y1787530D01*
X-1180198Y1837140D01*
X-1093946Y1894771D01*
X-1048883Y1916994D01*
X-1006622Y1942693D01*
X-923969Y1978595D01*
X-837273Y2021348D01*
X-783576Y2039576D01*
X-732717Y2061667D01*
X-651279Y2084485D01*
X-566263Y2113344D01*
X-504263Y2125677D01*
X-445162Y2142236D01*
X-367022Y2152977D01*
X-285580Y2169176D01*
X-215959Y2173740D01*
X-149314Y2182899D01*
X-76197Y2182899D01*
X0Y2187893D01*
X76197Y2182899D01*
G37*
G36*
X-20869422Y1346995D02*
G01*
X-20807003Y1346995D01*
X-20738799Y1336715D01*
X-20673157Y1331549D01*
X-20620247Y1318847D01*
X-20564938Y1310510D01*
X-20492663Y1288216D01*
X-20423227Y1271546D01*
X-20378333Y1252950D01*
X-20331023Y1238357D01*
X-20256743Y1202586D01*
X-20185761Y1173184D01*
X-20149328Y1150858D01*
X-20110462Y1132141D01*
X-20036535Y1081738D01*
X-19966605Y1038885D01*
X-19938603Y1014969D01*
X-19908211Y994248D01*
X-19837245Y928401D01*
X-19771156Y871956D01*
X-19751089Y848460D01*
X-19728762Y827744D01*
X-19663488Y745892D01*
X-19604227Y676507D01*
X-19591194Y655239D01*
X-19576133Y636353D01*
X-19519333Y537972D01*
X-19469928Y457351D01*
X-19462672Y439833D01*
X-19453738Y424359D01*
X-19408184Y308288D01*
X-19371566Y219885D01*
X-19368538Y207270D01*
X-19364302Y196478D01*
X-19332597Y57564D01*
X-19311563Y-30045D01*
X-19311018Y-36980D01*
X-19309832Y-42173D01*
X-19294350Y-248771D01*
X-19291397Y-286285D01*
X-19294350Y-323801D01*
X-19309832Y-530396D01*
X-19311018Y-535588D01*
X-19311563Y-542525D01*
X-19332601Y-630152D01*
X-19364302Y-769047D01*
X-19368537Y-779836D01*
X-19371566Y-792455D01*
X-19408192Y-880875D01*
X-19453738Y-996928D01*
X-19462670Y-1012398D01*
X-19469928Y-1029921D01*
X-19519343Y-1110557D01*
X-19576133Y-1208922D01*
X-19591191Y-1227804D01*
X-19604227Y-1249077D01*
X-19663500Y-1318475D01*
X-19728762Y-1400313D01*
X-19751085Y-1421025D01*
X-19771156Y-1444526D01*
X-19837258Y-1500982D01*
X-19908211Y-1566817D01*
X-19938597Y-1587533D01*
X-19966605Y-1611455D01*
X-20036549Y-1654316D01*
X-20110462Y-1704710D01*
X-20149321Y-1723422D01*
X-20185761Y-1745754D01*
X-20256758Y-1775161D01*
X-20331023Y-1810926D01*
X-20378323Y-1825516D01*
X-20423227Y-1844116D01*
X-20492678Y-1860789D01*
X-20564938Y-1883079D01*
X-20620239Y-1891414D01*
X-20673157Y-1904119D01*
X-20738803Y-1909285D01*
X-20807003Y-1919565D01*
X-20869422Y-1919565D01*
X-20929397Y-1924285D01*
X-20989372Y-1919565D01*
X-21051791Y-1919565D01*
X-21119992Y-1909285D01*
X-21185637Y-1904119D01*
X-21238555Y-1891414D01*
X-21293857Y-1883079D01*
X-21366122Y-1860788D01*
X-21435567Y-1844116D01*
X-21480469Y-1825517D01*
X-21527772Y-1810926D01*
X-21602042Y-1775159D01*
X-21673033Y-1745754D01*
X-21709474Y-1723423D01*
X-21748332Y-1704710D01*
X-21822249Y-1654314D01*
X-21892189Y-1611455D01*
X-21920194Y-1587536D01*
X-21950584Y-1566817D01*
X-22021549Y-1500971D01*
X-22087638Y-1444526D01*
X-22107706Y-1421029D01*
X-22130033Y-1400313D01*
X-22195310Y-1318458D01*
X-22254567Y-1249077D01*
X-22267600Y-1227809D01*
X-22282662Y-1208922D01*
X-22339469Y-1110529D01*
X-22388866Y-1029921D01*
X-22396122Y-1012404D01*
X-22405057Y-996928D01*
X-22450622Y-880829D01*
X-22487228Y-792455D01*
X-22490256Y-779843D01*
X-22494493Y-769047D01*
X-22526214Y-630068D01*
X-22547231Y-542525D01*
X-22547777Y-535594D01*
X-22548963Y-530396D01*
X-22564466Y-323535D01*
X-22567397Y-286285D01*
X-22564466Y-249037D01*
X-22548963Y-42173D01*
X-22547777Y-36973D01*
X-22547231Y-30045D01*
X-22526219Y57480D01*
X-22494493Y196478D01*
X-22490256Y207276D01*
X-22487228Y219885D01*
X-22450630Y308242D01*
X-22405057Y424359D01*
X-22396121Y439839D01*
X-22388866Y457351D01*
X-22339479Y537944D01*
X-22282662Y636353D01*
X-22267598Y655244D01*
X-22254567Y676507D01*
X-22195322Y745875D01*
X-22130033Y827744D01*
X-22107702Y848465D01*
X-22087638Y871956D01*
X-22021563Y928391D01*
X-21950584Y994248D01*
X-21920188Y1014972D01*
X-21892189Y1038885D01*
X-21822264Y1081736D01*
X-21748332Y1132141D01*
X-21709466Y1150859D01*
X-21673033Y1173184D01*
X-21602056Y1202584D01*
X-21527772Y1238357D01*
X-21480459Y1252952D01*
X-21435567Y1271546D01*
X-21366137Y1288215D01*
X-21293857Y1310510D01*
X-21238546Y1318847D01*
X-21185637Y1331549D01*
X-21119996Y1336715D01*
X-21051791Y1346995D01*
X-20989372Y1346995D01*
X-20929397Y1351715D01*
X-20869422Y1346995D01*
G37*
G36*
X-28758805Y1851230D02*
G01*
X-28746477Y1842993D01*
X-28738240Y1830665D01*
X-28735347Y1816123D01*
X-28735347Y116123D01*
X-28738240Y101581D01*
X-28746477Y89253D01*
X-28758805Y81016D01*
X-28773347Y78123D01*
X-30473347Y78123D01*
X-30487889Y81016D01*
X-30500217Y89253D01*
X-30508454Y101581D01*
X-30511347Y116123D01*
X-30511347Y1816123D01*
X-30508454Y1830665D01*
X-30500217Y1842993D01*
X-30487889Y1851230D01*
X-30473347Y1854123D01*
X-28773347Y1854123D01*
X-28758805Y1851230D01*
G37*
G36*
X68125678Y13335259D02*
G01*
X68136825Y13325483D01*
X68143383Y13312185D01*
X68583375Y11670111D01*
X68584345Y11655316D01*
X68579579Y11641276D01*
X68569803Y11630129D01*
X68556505Y11623571D01*
X66914431Y11183579D01*
X66899636Y11182609D01*
X66885596Y11187375D01*
X66874449Y11197151D01*
X66867891Y11210449D01*
X66866616Y11215206D01*
X66429173Y12847765D01*
X66429172Y12847770D01*
X66427899Y12852523D01*
X66426929Y12867318D01*
X66431695Y12881358D01*
X66441471Y12892505D01*
X66454769Y12899063D01*
X66459522Y12900337D01*
X66459525Y12900338D01*
X68092084Y13337781D01*
X68092089Y13337782D01*
X68096843Y13339055D01*
X68111638Y13340025D01*
X68125678Y13335259D01*
G37*
G36*
X67122643Y15559307D02*
G01*
X67292236Y15483800D01*
X67442424Y15374682D01*
X67566643Y15236722D01*
X67659464Y15075951D01*
X67716831Y14899395D01*
X67736236Y14714769D01*
X67716831Y14530143D01*
X67659464Y14353587D01*
X67566643Y14192816D01*
X67442424Y14054856D01*
X67292236Y13945738D01*
X67122643Y13870231D01*
X66941057Y13831634D01*
X66755415Y13831634D01*
X66573829Y13870231D01*
X66404236Y13945738D01*
X66254048Y14054856D01*
X66129829Y14192816D01*
X66037008Y14353587D01*
X65979641Y14530143D01*
X65960236Y14714769D01*
X65979641Y14899395D01*
X66037008Y15075951D01*
X66129829Y15236722D01*
X66254048Y15374682D01*
X66404236Y15483800D01*
X66573829Y15559307D01*
X66755415Y15597904D01*
X66941057Y15597904D01*
X67122643Y15559307D01*
G37*
G36*
X66465243Y18012758D02*
G01*
X66634836Y17937251D01*
X66785024Y17828133D01*
X66909243Y17690173D01*
X67002064Y17529402D01*
X67059431Y17352846D01*
X67078836Y17168220D01*
X67059431Y16983594D01*
X67002064Y16807038D01*
X66909243Y16646267D01*
X66785024Y16508307D01*
X66634836Y16399189D01*
X66465243Y16323682D01*
X66283657Y16285085D01*
X66098015Y16285085D01*
X65916429Y16323682D01*
X65746836Y16399189D01*
X65596648Y16508307D01*
X65472429Y16646267D01*
X65379608Y16807038D01*
X65322241Y16983594D01*
X65302836Y17168220D01*
X65322241Y17352846D01*
X65379608Y17529402D01*
X65472429Y17690173D01*
X65596648Y17828133D01*
X65746836Y17937251D01*
X65916429Y18012758D01*
X66098015Y18051355D01*
X66283657Y18051355D01*
X66465243Y18012758D01*
G37*
G36*
X65807842Y20466210D02*
G01*
X65977435Y20390703D01*
X66127623Y20281585D01*
X66251842Y20143625D01*
X66344663Y19982854D01*
X66402030Y19806298D01*
X66421435Y19621672D01*
X66402030Y19437046D01*
X66344663Y19260490D01*
X66251842Y19099719D01*
X66127623Y18961759D01*
X65977435Y18852641D01*
X65807842Y18777134D01*
X65626256Y18738537D01*
X65440614Y18738537D01*
X65259028Y18777134D01*
X65089435Y18852641D01*
X64939247Y18961759D01*
X64815028Y19099719D01*
X64722207Y19260490D01*
X64664840Y19437046D01*
X64645435Y19621672D01*
X64664840Y19806298D01*
X64722207Y19982854D01*
X64815028Y20143625D01*
X64939247Y20281585D01*
X65089435Y20390703D01*
X65259028Y20466210D01*
X65440614Y20504807D01*
X65626256Y20504807D01*
X65807842Y20466210D01*
G37*
G36*
X65150442Y22919661D02*
G01*
X65320035Y22844154D01*
X65470223Y22735036D01*
X65594442Y22597076D01*
X65687263Y22436305D01*
X65744630Y22259749D01*
X65764035Y22075123D01*
X65744630Y21890497D01*
X65687263Y21713941D01*
X65594442Y21553170D01*
X65470223Y21415210D01*
X65320035Y21306092D01*
X65150442Y21230585D01*
X64968856Y21191988D01*
X64783214Y21191988D01*
X64601628Y21230585D01*
X64432035Y21306092D01*
X64281847Y21415210D01*
X64157628Y21553170D01*
X64064807Y21713941D01*
X64007440Y21890497D01*
X63988035Y22075123D01*
X64007440Y22259749D01*
X64064807Y22436305D01*
X64157628Y22597076D01*
X64281847Y22735036D01*
X64432035Y22844154D01*
X64601628Y22919661D01*
X64783214Y22958258D01*
X64968856Y22958258D01*
X65150442Y22919661D01*
G37*
G36*
X-38479939Y24583363D02*
G01*
X-38469229Y24573110D01*
X-37322076Y22934806D01*
X-37316105Y22921235D01*
X-37315781Y22906412D01*
X-37321155Y22892593D01*
X-37331408Y22881883D01*
X-38969712Y21734730D01*
X-38983283Y21728759D01*
X-38998106Y21728435D01*
X-39011925Y21733809D01*
X-39022635Y21744062D01*
X-39716523Y22735036D01*
X-40166964Y23378332D01*
X-40166966Y23378335D01*
X-40169788Y23382366D01*
X-40175759Y23395937D01*
X-40176083Y23410760D01*
X-40170709Y23424579D01*
X-40160456Y23435289D01*
X-39989445Y23555032D01*
X-38526187Y24579618D01*
X-38526182Y24579621D01*
X-38522152Y24582442D01*
X-38508581Y24588413D01*
X-38493758Y24588737D01*
X-38479939Y24583363D01*
G37*
G36*
X-52956513Y25898955D02*
G01*
X-52894094Y25898955D01*
X-52825890Y25888675D01*
X-52760248Y25883509D01*
X-52707338Y25870807D01*
X-52652029Y25862470D01*
X-52579754Y25840176D01*
X-52510318Y25823506D01*
X-52465424Y25804910D01*
X-52418114Y25790317D01*
X-52343834Y25754546D01*
X-52272852Y25725144D01*
X-52236419Y25702818D01*
X-52197553Y25684101D01*
X-52123626Y25633698D01*
X-52053696Y25590845D01*
X-52025694Y25566929D01*
X-51995302Y25546208D01*
X-51924336Y25480361D01*
X-51858247Y25423916D01*
X-51838180Y25400420D01*
X-51815853Y25379704D01*
X-51750579Y25297852D01*
X-51691318Y25228467D01*
X-51678285Y25207199D01*
X-51663224Y25188313D01*
X-51606424Y25089932D01*
X-51557019Y25009311D01*
X-51549763Y24991793D01*
X-51540829Y24976319D01*
X-51495275Y24860248D01*
X-51458657Y24771845D01*
X-51455629Y24759230D01*
X-51451393Y24748438D01*
X-51419688Y24609524D01*
X-51398654Y24521915D01*
X-51398109Y24514980D01*
X-51396923Y24509787D01*
X-51381441Y24303189D01*
X-51378488Y24265675D01*
X-51381441Y24228159D01*
X-51396923Y24021564D01*
X-51398109Y24016372D01*
X-51398654Y24009435D01*
X-51419692Y23921808D01*
X-51451393Y23782913D01*
X-51455628Y23772124D01*
X-51458657Y23759505D01*
X-51495283Y23671085D01*
X-51540829Y23555032D01*
X-51549761Y23539562D01*
X-51557019Y23522039D01*
X-51606434Y23441403D01*
X-51663224Y23343038D01*
X-51678282Y23324156D01*
X-51691318Y23302883D01*
X-51750591Y23233485D01*
X-51815853Y23151647D01*
X-51838176Y23130935D01*
X-51858247Y23107434D01*
X-51924349Y23050978D01*
X-51995302Y22985143D01*
X-52025688Y22964427D01*
X-52053696Y22940505D01*
X-52123640Y22897644D01*
X-52197553Y22847250D01*
X-52236412Y22828538D01*
X-52272852Y22806206D01*
X-52343849Y22776799D01*
X-52418114Y22741034D01*
X-52465414Y22726444D01*
X-52510318Y22707844D01*
X-52579769Y22691171D01*
X-52652029Y22668881D01*
X-52707330Y22660546D01*
X-52760248Y22647841D01*
X-52825894Y22642675D01*
X-52894094Y22632395D01*
X-52956513Y22632395D01*
X-53016488Y22627675D01*
X-53076463Y22632395D01*
X-53138882Y22632395D01*
X-53207083Y22642675D01*
X-53272728Y22647841D01*
X-53325646Y22660546D01*
X-53380948Y22668881D01*
X-53453213Y22691172D01*
X-53522658Y22707844D01*
X-53567560Y22726443D01*
X-53614863Y22741034D01*
X-53689133Y22776801D01*
X-53760124Y22806206D01*
X-53796565Y22828537D01*
X-53835423Y22847250D01*
X-53909340Y22897646D01*
X-53979280Y22940505D01*
X-54007285Y22964424D01*
X-54037675Y22985143D01*
X-54108640Y23050989D01*
X-54174729Y23107434D01*
X-54194797Y23130931D01*
X-54217124Y23151647D01*
X-54282401Y23233502D01*
X-54341658Y23302883D01*
X-54354691Y23324151D01*
X-54369753Y23343038D01*
X-54426560Y23441431D01*
X-54475957Y23522039D01*
X-54483213Y23539556D01*
X-54492148Y23555032D01*
X-54537713Y23671131D01*
X-54574319Y23759505D01*
X-54577347Y23772117D01*
X-54581584Y23782913D01*
X-54613305Y23921892D01*
X-54634322Y24009435D01*
X-54634868Y24016366D01*
X-54636054Y24021564D01*
X-54651557Y24228425D01*
X-54654488Y24265675D01*
X-54651557Y24302923D01*
X-54636054Y24509787D01*
X-54634868Y24514987D01*
X-54634322Y24521915D01*
X-54613310Y24609440D01*
X-54581584Y24748438D01*
X-54577347Y24759236D01*
X-54574319Y24771845D01*
X-54537721Y24860202D01*
X-54492148Y24976319D01*
X-54483212Y24991799D01*
X-54475957Y25009311D01*
X-54426570Y25089904D01*
X-54369753Y25188313D01*
X-54354689Y25207204D01*
X-54341658Y25228467D01*
X-54282413Y25297835D01*
X-54217124Y25379704D01*
X-54194793Y25400425D01*
X-54174729Y25423916D01*
X-54108654Y25480351D01*
X-54037675Y25546208D01*
X-54007279Y25566932D01*
X-53979280Y25590845D01*
X-53909355Y25633696D01*
X-53835423Y25684101D01*
X-53796557Y25702819D01*
X-53760124Y25725144D01*
X-53689147Y25754544D01*
X-53614863Y25790317D01*
X-53567550Y25804912D01*
X-53522658Y25823506D01*
X-53453228Y25840175D01*
X-53380948Y25862470D01*
X-53325637Y25870807D01*
X-53272728Y25883509D01*
X-53207087Y25888675D01*
X-53138882Y25898955D01*
X-53076463Y25898955D01*
X-53016488Y25903675D01*
X-52956513Y25898955D01*
G37*
G36*
X64493042Y25373113D02*
G01*
X64662635Y25297606D01*
X64812823Y25188488D01*
X64937042Y25050528D01*
X65029863Y24889757D01*
X65087230Y24713201D01*
X65106635Y24528575D01*
X65087230Y24343949D01*
X65029863Y24167393D01*
X64937042Y24006622D01*
X64812823Y23868662D01*
X64662635Y23759544D01*
X64493042Y23684037D01*
X64311456Y23645440D01*
X64125814Y23645440D01*
X63944228Y23684037D01*
X63774635Y23759544D01*
X63624447Y23868662D01*
X63500228Y24006622D01*
X63407407Y24167393D01*
X63350040Y24343949D01*
X63330635Y24528575D01*
X63350040Y24713201D01*
X63407407Y24889757D01*
X63500228Y25050528D01*
X63624447Y25188488D01*
X63774635Y25297606D01*
X63944228Y25373113D01*
X64125814Y25411710D01*
X64311456Y25411710D01*
X64493042Y25373113D01*
G37*
G36*
X27694382Y34635309D02*
G01*
X27707058Y34627618D01*
X32477242Y30256549D01*
X32486009Y30244592D01*
X32489534Y30230190D01*
X32487278Y30215536D01*
X32479586Y30202860D01*
X26764093Y23965494D01*
X26752136Y23956727D01*
X26737734Y23953203D01*
X26723080Y23955459D01*
X26710404Y23963150D01*
X21940220Y28334219D01*
X21931453Y28346176D01*
X21927928Y28360578D01*
X21930184Y28375232D01*
X21937876Y28387908D01*
X21941202Y28391538D01*
X27650042Y34621644D01*
X27650044Y34621646D01*
X27653369Y34625274D01*
X27665326Y34634041D01*
X27679728Y34637565D01*
X27694382Y34635309D01*
G37*
G36*
X-9427348Y26604412D02*
G01*
X-9416637Y26594159D01*
X-8355520Y25078727D01*
X-8349549Y25065156D01*
X-8349226Y25050333D01*
X-8354599Y25036515D01*
X-8364852Y25025804D01*
X-9880284Y23964687D01*
X-9893855Y23958716D01*
X-9908678Y23958393D01*
X-9922496Y23963766D01*
X-9933207Y23974019D01*
X-10994324Y25489451D01*
X-11000295Y25503022D01*
X-11000618Y25517845D01*
X-10995245Y25531663D01*
X-10984992Y25542374D01*
X-10980959Y25545198D01*
X-9473592Y26600668D01*
X-9473592Y26600669D01*
X-9469560Y26603491D01*
X-9455989Y26609462D01*
X-9441166Y26609785D01*
X-9427348Y26604412D01*
G37*
G36*
X-10943934Y28309231D02*
G01*
X-10763282Y28254431D01*
X-10596792Y28165440D01*
X-10450862Y28045679D01*
X-10331101Y27899749D01*
X-10242110Y27733259D01*
X-10187310Y27552607D01*
X-10168806Y27364735D01*
X-10187310Y27176863D01*
X-10242110Y26996211D01*
X-10331101Y26829721D01*
X-10450862Y26683791D01*
X-10596792Y26564030D01*
X-10763282Y26475039D01*
X-10943934Y26420239D01*
X-11131806Y26401735D01*
X-11319678Y26420239D01*
X-11500330Y26475039D01*
X-11666820Y26564030D01*
X-11812750Y26683791D01*
X-11932511Y26829721D01*
X-12021502Y26996211D01*
X-12076302Y27176863D01*
X-12094806Y27364735D01*
X-12076302Y27552607D01*
X-12021502Y27733259D01*
X-11932511Y27899749D01*
X-11812750Y28045679D01*
X-11666820Y28165440D01*
X-11500330Y28254431D01*
X-11319678Y28309231D01*
X-11131806Y28327735D01*
X-10943934Y28309231D01*
G37*
G36*
X35376195Y28636230D02*
G01*
X35388523Y28627993D01*
X35396760Y28615665D01*
X35399653Y28601123D01*
X35399653Y26901123D01*
X35396760Y26886581D01*
X35388523Y26874253D01*
X35376195Y26866016D01*
X35361653Y26863123D01*
X33661653Y26863123D01*
X33647111Y26866016D01*
X33634783Y26874253D01*
X33626546Y26886581D01*
X33623653Y26901123D01*
X33623653Y28601123D01*
X33626546Y28615665D01*
X33634783Y28627993D01*
X33647111Y28636230D01*
X33661653Y28639123D01*
X35361653Y28639123D01*
X35376195Y28636230D01*
G37*
G36*
X-30157354Y30410900D02*
G01*
X-30146644Y30400647D01*
X-29312876Y29209903D01*
X-29103139Y28910367D01*
X-28999491Y28762343D01*
X-28993520Y28748772D01*
X-28993196Y28733949D01*
X-28998570Y28720130D01*
X-29008823Y28709420D01*
X-30647127Y27562267D01*
X-30660698Y27556296D01*
X-30675521Y27555972D01*
X-30689340Y27561346D01*
X-30700050Y27571599D01*
X-31445513Y28636230D01*
X-31844379Y29205869D01*
X-31844381Y29205872D01*
X-31847203Y29209903D01*
X-31853174Y29223474D01*
X-31853498Y29238297D01*
X-31848124Y29252116D01*
X-31837871Y29262826D01*
X-31788706Y29297252D01*
X-30203602Y30407155D01*
X-30203597Y30407158D01*
X-30199567Y30409979D01*
X-30185996Y30415950D01*
X-30171173Y30416274D01*
X-30157354Y30410900D01*
G37*
G36*
X-12400818Y30389877D02*
G01*
X-12220166Y30335077D01*
X-12053676Y30246086D01*
X-11907746Y30126325D01*
X-11787985Y29980395D01*
X-11698994Y29813905D01*
X-11644194Y29633253D01*
X-11625690Y29445381D01*
X-11644194Y29257509D01*
X-11698994Y29076857D01*
X-11787985Y28910367D01*
X-11907746Y28764437D01*
X-12053676Y28644676D01*
X-12220166Y28555685D01*
X-12400818Y28500885D01*
X-12588690Y28482381D01*
X-12776562Y28500885D01*
X-12957214Y28555685D01*
X-13123704Y28644676D01*
X-13269634Y28764437D01*
X-13389395Y28910367D01*
X-13478386Y29076857D01*
X-13533186Y29257509D01*
X-13551690Y29445381D01*
X-13533186Y29633253D01*
X-13478386Y29813905D01*
X-13389395Y29980395D01*
X-13269634Y30126325D01*
X-13123704Y30246086D01*
X-12957214Y30335077D01*
X-12776562Y30389877D01*
X-12588690Y30408381D01*
X-12400818Y30389877D01*
G37*
G36*
X-13857702Y32470523D02*
G01*
X-13677050Y32415723D01*
X-13510560Y32326732D01*
X-13364630Y32206971D01*
X-13244869Y32061041D01*
X-13155878Y31894551D01*
X-13101078Y31713899D01*
X-13082574Y31526027D01*
X-13101078Y31338155D01*
X-13155878Y31157503D01*
X-13244869Y30991013D01*
X-13364630Y30845083D01*
X-13510560Y30725322D01*
X-13677050Y30636331D01*
X-13857702Y30581531D01*
X-14045574Y30563027D01*
X-14233446Y30581531D01*
X-14414098Y30636331D01*
X-14580588Y30725322D01*
X-14726518Y30845083D01*
X-14846279Y30991013D01*
X-14935270Y31157503D01*
X-14990070Y31338155D01*
X-15008574Y31526027D01*
X-14990070Y31713899D01*
X-14935270Y31894551D01*
X-14846279Y32061041D01*
X-14726518Y32206971D01*
X-14580588Y32326732D01*
X-14414098Y32415723D01*
X-14233446Y32470523D01*
X-14045574Y32489027D01*
X-13857702Y32470523D01*
G37*
G36*
X24106571Y35338703D02*
G01*
X24117281Y35328450D01*
X25264434Y33690146D01*
X25270405Y33676575D01*
X25270729Y33661752D01*
X25265355Y33647933D01*
X25255102Y33637223D01*
X23616798Y32490070D01*
X23603227Y32484099D01*
X23588404Y32483775D01*
X23574585Y32489149D01*
X23563875Y32499402D01*
X22759294Y33648462D01*
X22419546Y34133672D01*
X22419544Y34133675D01*
X22416722Y34137706D01*
X22410751Y34151277D01*
X22410427Y34166100D01*
X22415801Y34179919D01*
X22426054Y34190629D01*
X22735319Y34407179D01*
X24060323Y35334958D01*
X24060328Y35334961D01*
X24064358Y35337782D01*
X24077929Y35343753D01*
X24092752Y35344077D01*
X24106571Y35338703D01*
G37*
G36*
X-15314587Y34551169D02*
G01*
X-15133935Y34496369D01*
X-14967445Y34407378D01*
X-14821515Y34287617D01*
X-14701754Y34141687D01*
X-14612763Y33975197D01*
X-14557963Y33794545D01*
X-14539459Y33606673D01*
X-14557963Y33418801D01*
X-14612763Y33238149D01*
X-14701754Y33071659D01*
X-14821515Y32925729D01*
X-14967445Y32805968D01*
X-15133935Y32716977D01*
X-15314587Y32662177D01*
X-15502459Y32643673D01*
X-15690331Y32662177D01*
X-15870983Y32716977D01*
X-16037473Y32805968D01*
X-16183403Y32925729D01*
X-16303164Y33071659D01*
X-16392155Y33238149D01*
X-16446955Y33418801D01*
X-16465459Y33606673D01*
X-16446955Y33794545D01*
X-16392155Y33975197D01*
X-16303164Y34141687D01*
X-16183403Y34287617D01*
X-16037473Y34407378D01*
X-15870983Y34496369D01*
X-15690331Y34551169D01*
X-15502459Y34569673D01*
X-15314587Y34551169D01*
G37*
G36*
X-47370374Y37280220D02*
G01*
X-47359664Y37269967D01*
X-46212511Y35631663D01*
X-46206540Y35618092D01*
X-46206216Y35603269D01*
X-46211590Y35589450D01*
X-46221843Y35578740D01*
X-47860147Y34431587D01*
X-47873718Y34425616D01*
X-47888541Y34425292D01*
X-47902360Y34430666D01*
X-47913070Y34440919D01*
X-48654260Y35499448D01*
X-49057399Y36075189D01*
X-49057401Y36075192D01*
X-49060223Y36079223D01*
X-49066194Y36092794D01*
X-49066518Y36107617D01*
X-49061144Y36121436D01*
X-49050891Y36132146D01*
X-49001726Y36166572D01*
X-47416622Y37276475D01*
X-47416617Y37276478D01*
X-47412587Y37279299D01*
X-47399016Y37285270D01*
X-47384193Y37285594D01*
X-47370374Y37280220D01*
G37*
G36*
X-16771471Y36631816D02*
G01*
X-16590819Y36577016D01*
X-16424329Y36488025D01*
X-16278399Y36368264D01*
X-16158638Y36222334D01*
X-16069647Y36055844D01*
X-16014847Y35875192D01*
X-15996343Y35687320D01*
X-16014847Y35499448D01*
X-16069647Y35318796D01*
X-16158638Y35152306D01*
X-16278399Y35006376D01*
X-16424329Y34886615D01*
X-16590819Y34797624D01*
X-16771471Y34742824D01*
X-16959343Y34724320D01*
X-17147215Y34742824D01*
X-17327867Y34797624D01*
X-17494357Y34886615D01*
X-17640287Y35006376D01*
X-17760048Y35152306D01*
X-17849039Y35318796D01*
X-17903839Y35499448D01*
X-17922343Y35687320D01*
X-17903839Y35875192D01*
X-17849039Y36055844D01*
X-17760048Y36222334D01*
X-17640287Y36368264D01*
X-17494357Y36488025D01*
X-17327867Y36577016D01*
X-17147215Y36631816D01*
X-16959343Y36650320D01*
X-16771471Y36631816D01*
G37*
G36*
X-18228355Y38712462D02*
G01*
X-18047703Y38657662D01*
X-17881213Y38568671D01*
X-17735283Y38448910D01*
X-17615522Y38302980D01*
X-17526531Y38136490D01*
X-17471731Y37955838D01*
X-17453227Y37767966D01*
X-17471731Y37580094D01*
X-17526531Y37399442D01*
X-17615522Y37232952D01*
X-17735283Y37087022D01*
X-17881213Y36967261D01*
X-18047703Y36878270D01*
X-18228355Y36823470D01*
X-18416227Y36804966D01*
X-18604099Y36823470D01*
X-18784751Y36878270D01*
X-18951241Y36967261D01*
X-19097171Y37087022D01*
X-19216932Y37232952D01*
X-19305923Y37399442D01*
X-19360723Y37580094D01*
X-19379227Y37767966D01*
X-19360723Y37955838D01*
X-19305923Y38136490D01*
X-19216932Y38302980D01*
X-19097171Y38448910D01*
X-18951241Y38568671D01*
X-18784751Y38657662D01*
X-18604099Y38712462D01*
X-18416227Y38730966D01*
X-18228355Y38712462D01*
G37*
G36*
X32429156Y41166240D02*
G01*
X32439866Y41155987D01*
X33267439Y39974091D01*
X33486849Y39660740D01*
X33587019Y39517683D01*
X33592990Y39504112D01*
X33593314Y39489289D01*
X33587940Y39475470D01*
X33577687Y39464760D01*
X31939383Y38317607D01*
X31925812Y38311636D01*
X31910989Y38311312D01*
X31897170Y38316686D01*
X31886460Y38326939D01*
X31195498Y39313735D01*
X30742131Y39961209D01*
X30742129Y39961212D01*
X30739307Y39965243D01*
X30733336Y39978814D01*
X30733012Y39993637D01*
X30738386Y40007456D01*
X30748639Y40018166D01*
X31032669Y40217046D01*
X32382908Y41162495D01*
X32382913Y41162498D01*
X32386943Y41165319D01*
X32400514Y41171290D01*
X32415337Y41171614D01*
X32429156Y41166240D01*
G37*
G36*
X-41128435Y41650872D02*
G01*
X-41117725Y41640619D01*
X-40283957Y40449875D01*
X-39974172Y40007456D01*
X-39970572Y40002315D01*
X-39964601Y39988744D01*
X-39964277Y39973921D01*
X-39969651Y39960102D01*
X-39979904Y39949392D01*
X-41618208Y38802239D01*
X-41631779Y38796268D01*
X-41646602Y38795944D01*
X-41660421Y38801318D01*
X-41671131Y38811571D01*
X-42475712Y39960631D01*
X-42815460Y40445841D01*
X-42815462Y40445844D01*
X-42818284Y40449875D01*
X-42824255Y40463446D01*
X-42824579Y40478269D01*
X-42819205Y40492088D01*
X-42808952Y40502798D01*
X-42719390Y40565510D01*
X-41174683Y41647127D01*
X-41174678Y41647130D01*
X-41170648Y41649951D01*
X-41157077Y41655922D01*
X-41142254Y41656246D01*
X-41128435Y41650872D01*
G37*
G36*
X-19685239Y40793108D02*
G01*
X-19504587Y40738308D01*
X-19338097Y40649317D01*
X-19192167Y40529556D01*
X-19072406Y40383626D01*
X-18983415Y40217136D01*
X-18928615Y40036484D01*
X-18910111Y39848612D01*
X-18928615Y39660740D01*
X-18983415Y39480088D01*
X-19072406Y39313598D01*
X-19192167Y39167668D01*
X-19338097Y39047907D01*
X-19504587Y38958916D01*
X-19685239Y38904116D01*
X-19873111Y38885612D01*
X-20060983Y38904116D01*
X-20241635Y38958916D01*
X-20408125Y39047907D01*
X-20554055Y39167668D01*
X-20673816Y39313598D01*
X-20762807Y39480088D01*
X-20817607Y39660740D01*
X-20836111Y39848612D01*
X-20817607Y40036484D01*
X-20762807Y40217136D01*
X-20673816Y40383626D01*
X-20554055Y40529556D01*
X-20408125Y40649317D01*
X-20241635Y40738308D01*
X-20060983Y40793108D01*
X-19873111Y40811612D01*
X-19685239Y40793108D01*
G37*
G36*
X11810903Y41141572D02*
G01*
X11991555Y41086772D01*
X12158045Y40997781D01*
X12303975Y40878020D01*
X12423736Y40732090D01*
X12512727Y40565600D01*
X12567527Y40384948D01*
X12586031Y40197076D01*
X12567527Y40009204D01*
X12512727Y39828552D01*
X12423736Y39662062D01*
X12303975Y39516132D01*
X12158045Y39396371D01*
X11991555Y39307380D01*
X11810903Y39252580D01*
X11623031Y39234076D01*
X11435159Y39252580D01*
X11254507Y39307380D01*
X11088017Y39396371D01*
X10942087Y39516132D01*
X10822326Y39662062D01*
X10733335Y39828552D01*
X10678535Y40009204D01*
X10660031Y40197076D01*
X10678535Y40384948D01*
X10733335Y40565600D01*
X10822326Y40732090D01*
X10942087Y40878020D01*
X11088017Y40997781D01*
X11254507Y41086772D01*
X11435159Y41141572D01*
X11623031Y41160076D01*
X11810903Y41141572D01*
G37*
G36*
X-39047789Y43107757D02*
G01*
X-39037079Y43097504D01*
X-38205082Y41909289D01*
X-37902402Y41477017D01*
X-37889926Y41459200D01*
X-37883955Y41445629D01*
X-37883631Y41430806D01*
X-37889005Y41416987D01*
X-37899258Y41406277D01*
X-39537562Y40259124D01*
X-39551133Y40253153D01*
X-39565956Y40252829D01*
X-39579775Y40258203D01*
X-39590485Y40268456D01*
X-40276710Y41248486D01*
X-40734814Y41902726D01*
X-40734816Y41902729D01*
X-40737638Y41906760D01*
X-40743609Y41920331D01*
X-40743933Y41935154D01*
X-40738559Y41948973D01*
X-40728306Y41959683D01*
X-40503517Y42117082D01*
X-39094037Y43104012D01*
X-39094032Y43104015D01*
X-39090002Y43106836D01*
X-39076431Y43112807D01*
X-39061608Y43113131D01*
X-39047789Y43107757D01*
G37*
G36*
X-21142123Y42873754D02*
G01*
X-20961471Y42818954D01*
X-20794981Y42729963D01*
X-20649051Y42610202D01*
X-20529290Y42464272D01*
X-20440299Y42297782D01*
X-20385499Y42117130D01*
X-20366995Y41929258D01*
X-20385499Y41741386D01*
X-20440299Y41560734D01*
X-20529290Y41394244D01*
X-20649051Y41248314D01*
X-20794981Y41128553D01*
X-20961471Y41039562D01*
X-21142123Y40984762D01*
X-21329995Y40966258D01*
X-21517867Y40984762D01*
X-21698519Y41039562D01*
X-21865009Y41128553D01*
X-22010939Y41248314D01*
X-22130700Y41394244D01*
X-22219691Y41560734D01*
X-22274491Y41741386D01*
X-22292995Y41929258D01*
X-22274491Y42117130D01*
X-22219691Y42297782D01*
X-22130700Y42464272D01*
X-22010939Y42610202D01*
X-21865009Y42729963D01*
X-21698519Y42818954D01*
X-21517867Y42873754D01*
X-21329995Y42892258D01*
X-21142123Y42873754D01*
G37*
G36*
X10354019Y43222218D02*
G01*
X10534671Y43167418D01*
X10701161Y43078427D01*
X10847091Y42958666D01*
X10966852Y42812736D01*
X11055843Y42646246D01*
X11110643Y42465594D01*
X11129147Y42277722D01*
X11110643Y42089850D01*
X11055843Y41909198D01*
X10966852Y41742708D01*
X10847091Y41596778D01*
X10701161Y41477017D01*
X10534671Y41388026D01*
X10354019Y41333226D01*
X10166147Y41314722D01*
X9978275Y41333226D01*
X9797623Y41388026D01*
X9631133Y41477017D01*
X9485203Y41596778D01*
X9365442Y41742708D01*
X9276451Y41909198D01*
X9221651Y42089850D01*
X9203147Y42277722D01*
X9221651Y42465594D01*
X9276451Y42646246D01*
X9365442Y42812736D01*
X9485203Y42958666D01*
X9631133Y43078427D01*
X9797623Y43167418D01*
X9978275Y43222218D01*
X10166147Y43240722D01*
X10354019Y43222218D01*
G37*
G36*
X-43859127Y43125620D02*
G01*
X-43703141Y43071038D01*
X-43563212Y42983115D01*
X-43446355Y42866258D01*
X-43358432Y42726329D01*
X-43303850Y42570343D01*
X-43285347Y42406123D01*
X-43303850Y42241903D01*
X-43358432Y42085917D01*
X-43446355Y41945988D01*
X-43563212Y41829131D01*
X-43703141Y41741208D01*
X-43859127Y41686626D01*
X-44023347Y41668123D01*
X-44187567Y41686626D01*
X-44343553Y41741208D01*
X-44483482Y41829131D01*
X-44600339Y41945988D01*
X-44688262Y42085917D01*
X-44742844Y42241903D01*
X-44761347Y42406123D01*
X-44742844Y42570343D01*
X-44688262Y42726329D01*
X-44600339Y42866258D01*
X-44483482Y42983115D01*
X-44343553Y43071038D01*
X-44187567Y43125620D01*
X-44023347Y43144123D01*
X-43859127Y43125620D01*
G37*
G36*
X-52998802Y44191588D02*
G01*
X-52829209Y44116081D01*
X-52679021Y44006963D01*
X-52554802Y43869003D01*
X-52461981Y43708232D01*
X-52404614Y43531676D01*
X-52385209Y43347050D01*
X-52404614Y43162424D01*
X-52461981Y42985868D01*
X-52554802Y42825097D01*
X-52679021Y42687137D01*
X-52829209Y42578019D01*
X-52998802Y42502512D01*
X-53180388Y42463915D01*
X-53366030Y42463915D01*
X-53547616Y42502512D01*
X-53717209Y42578019D01*
X-53867397Y42687137D01*
X-53991616Y42825097D01*
X-54084437Y42985868D01*
X-54141804Y43162424D01*
X-54161209Y43347050D01*
X-54141804Y43531676D01*
X-54084437Y43708232D01*
X-53991616Y43869003D01*
X-53867397Y44006963D01*
X-53717209Y44116081D01*
X-53547616Y44191588D01*
X-53366030Y44230185D01*
X-53180388Y44230185D01*
X-52998802Y44191588D01*
G37*
G36*
X-22599007Y44954400D02*
G01*
X-22418355Y44899600D01*
X-22251865Y44810609D01*
X-22105935Y44690848D01*
X-21986174Y44544918D01*
X-21897183Y44378428D01*
X-21842383Y44197776D01*
X-21823879Y44009904D01*
X-21842383Y43822032D01*
X-21897183Y43641380D01*
X-21986174Y43474890D01*
X-22105935Y43328960D01*
X-22251865Y43209199D01*
X-22418355Y43120208D01*
X-22599007Y43065408D01*
X-22786879Y43046904D01*
X-22974751Y43065408D01*
X-23155403Y43120208D01*
X-23321893Y43209199D01*
X-23467823Y43328960D01*
X-23587584Y43474890D01*
X-23676575Y43641380D01*
X-23731375Y43822032D01*
X-23749879Y44009904D01*
X-23731375Y44197776D01*
X-23676575Y44378428D01*
X-23587584Y44544918D01*
X-23467823Y44690848D01*
X-23321893Y44810609D01*
X-23155403Y44899600D01*
X-22974751Y44954400D01*
X-22786879Y44972904D01*
X-22599007Y44954400D01*
G37*
G36*
X-41778481Y44582504D02*
G01*
X-41622495Y44527922D01*
X-41482566Y44439999D01*
X-41365709Y44323142D01*
X-41277786Y44183213D01*
X-41223204Y44027227D01*
X-41204701Y43863007D01*
X-41223204Y43698787D01*
X-41277786Y43542801D01*
X-41365709Y43402872D01*
X-41482566Y43286015D01*
X-41622495Y43198092D01*
X-41778481Y43143510D01*
X-41942701Y43125007D01*
X-42106921Y43143510D01*
X-42262907Y43198092D01*
X-42402836Y43286015D01*
X-42519693Y43402872D01*
X-42607616Y43542801D01*
X-42662198Y43698787D01*
X-42680701Y43863007D01*
X-42662198Y44027227D01*
X-42607616Y44183213D01*
X-42519693Y44323142D01*
X-42402836Y44439999D01*
X-42262907Y44527922D01*
X-42106921Y44582504D01*
X-41942701Y44601007D01*
X-41778481Y44582504D01*
G37*
G36*
X8897135Y45302864D02*
G01*
X9077787Y45248064D01*
X9244277Y45159073D01*
X9390207Y45039312D01*
X9509968Y44893382D01*
X9598959Y44726892D01*
X9653759Y44546240D01*
X9672263Y44358368D01*
X9653759Y44170496D01*
X9598959Y43989844D01*
X9509968Y43823354D01*
X9390207Y43677424D01*
X9244277Y43557663D01*
X9077787Y43468672D01*
X8897135Y43413872D01*
X8709263Y43395368D01*
X8521391Y43413872D01*
X8340739Y43468672D01*
X8174249Y43557663D01*
X8028319Y43677424D01*
X7908558Y43823354D01*
X7819567Y43989844D01*
X7764767Y44170496D01*
X7746263Y44358368D01*
X7764767Y44546240D01*
X7819567Y44726892D01*
X7908558Y44893382D01*
X8028319Y45039312D01*
X8174249Y45159073D01*
X8340739Y45248064D01*
X8521391Y45302864D01*
X8709263Y45321368D01*
X8897135Y45302864D01*
G37*
G36*
X-51202751Y45987639D02*
G01*
X-51033158Y45912132D01*
X-50882970Y45803014D01*
X-50758751Y45665054D01*
X-50665930Y45504283D01*
X-50608563Y45327727D01*
X-50589158Y45143101D01*
X-50608563Y44958475D01*
X-50665930Y44781919D01*
X-50758751Y44621148D01*
X-50882970Y44483188D01*
X-51033158Y44374070D01*
X-51202751Y44298563D01*
X-51384337Y44259966D01*
X-51569979Y44259966D01*
X-51751565Y44298563D01*
X-51921158Y44374070D01*
X-52071346Y44483188D01*
X-52195565Y44621148D01*
X-52288386Y44781919D01*
X-52345753Y44958475D01*
X-52365158Y45143101D01*
X-52345753Y45327727D01*
X-52288386Y45504283D01*
X-52195565Y45665054D01*
X-52071346Y45803014D01*
X-51921158Y45912132D01*
X-51751565Y45987639D01*
X-51569979Y46026236D01*
X-51384337Y46026236D01*
X-51202751Y45987639D01*
G37*
G36*
X-24055892Y47035047D02*
G01*
X-23875240Y46980247D01*
X-23708750Y46891256D01*
X-23562820Y46771495D01*
X-23443059Y46625565D01*
X-23354068Y46459075D01*
X-23299268Y46278423D01*
X-23280764Y46090551D01*
X-23299268Y45902679D01*
X-23354068Y45722027D01*
X-23443059Y45555537D01*
X-23562820Y45409607D01*
X-23708750Y45289846D01*
X-23875240Y45200855D01*
X-24055892Y45146055D01*
X-24243764Y45127551D01*
X-24431636Y45146055D01*
X-24612288Y45200855D01*
X-24778778Y45289846D01*
X-24924708Y45409607D01*
X-25044469Y45555537D01*
X-25133460Y45722027D01*
X-25188260Y45902679D01*
X-25206764Y46090551D01*
X-25188260Y46278423D01*
X-25133460Y46459075D01*
X-25044469Y46625565D01*
X-24924708Y46771495D01*
X-24778778Y46891256D01*
X-24612288Y46980247D01*
X-24431636Y47035047D01*
X-24243764Y47053551D01*
X-24055892Y47035047D01*
G37*
G36*
X15216136Y48035560D02*
G01*
X15226846Y48025307D01*
X16060614Y46834563D01*
X16240282Y46577970D01*
X16373999Y46387003D01*
X16379970Y46373432D01*
X16380294Y46358609D01*
X16374920Y46344790D01*
X16364667Y46334080D01*
X14726363Y45186927D01*
X14712792Y45180956D01*
X14697969Y45180632D01*
X14684150Y45186006D01*
X14673440Y45196259D01*
X13915129Y46279239D01*
X13529111Y46830529D01*
X13529109Y46830532D01*
X13526287Y46834563D01*
X13520316Y46848134D01*
X13519992Y46862957D01*
X13525366Y46876776D01*
X13535619Y46887486D01*
X13835030Y47097136D01*
X15169888Y48031815D01*
X15169893Y48031818D01*
X15173923Y48034639D01*
X15187494Y48040610D01*
X15202317Y48040934D01*
X15216136Y48035560D01*
G37*
G36*
X7440251Y47383511D02*
G01*
X7620903Y47328711D01*
X7787393Y47239720D01*
X7933323Y47119959D01*
X8053084Y46974029D01*
X8142075Y46807539D01*
X8196875Y46626887D01*
X8215379Y46439015D01*
X8196875Y46251143D01*
X8142075Y46070491D01*
X8053084Y45904001D01*
X7933323Y45758071D01*
X7787393Y45638310D01*
X7620903Y45549319D01*
X7440251Y45494519D01*
X7252379Y45476015D01*
X7064507Y45494519D01*
X6883855Y45549319D01*
X6717365Y45638310D01*
X6571435Y45758071D01*
X6451674Y45904001D01*
X6362683Y46070491D01*
X6307883Y46251143D01*
X6289379Y46439015D01*
X6307883Y46626887D01*
X6362683Y46807539D01*
X6451674Y46974029D01*
X6571435Y47119959D01*
X6717365Y47239720D01*
X6883855Y47328711D01*
X7064507Y47383511D01*
X7252379Y47402015D01*
X7440251Y47383511D01*
G37*
G36*
X-49406700Y47783690D02*
G01*
X-49237107Y47708183D01*
X-49086919Y47599065D01*
X-48962700Y47461105D01*
X-48869879Y47300334D01*
X-48812512Y47123778D01*
X-48793107Y46939152D01*
X-48812512Y46754526D01*
X-48869879Y46577970D01*
X-48962700Y46417199D01*
X-49086919Y46279239D01*
X-49237107Y46170121D01*
X-49406700Y46094614D01*
X-49588286Y46056017D01*
X-49773928Y46056017D01*
X-49955514Y46094614D01*
X-50125107Y46170121D01*
X-50275295Y46279239D01*
X-50399514Y46417199D01*
X-50492335Y46577970D01*
X-50549702Y46754526D01*
X-50569107Y46939152D01*
X-50549702Y47123778D01*
X-50492335Y47300334D01*
X-50399514Y47461105D01*
X-50275295Y47599065D01*
X-50125107Y47708183D01*
X-49955514Y47783690D01*
X-49773928Y47822287D01*
X-49588286Y47822287D01*
X-49406700Y47783690D01*
G37*
G36*
X42913774Y49089482D02*
G01*
X42962406Y49089482D01*
X43016564Y49079358D01*
X43069157Y49074178D01*
X43109112Y49062058D01*
X43150655Y49054292D01*
X43208193Y49032002D01*
X43263878Y49015110D01*
X43295692Y48998105D01*
X43329236Y48985110D01*
X43387520Y48949022D01*
X43443335Y48919188D01*
X43466786Y48899942D01*
X43492057Y48884295D01*
X43548044Y48833256D01*
X43600630Y48790100D01*
X43616214Y48771111D01*
X43633586Y48755274D01*
X43684022Y48688486D01*
X43729718Y48632805D01*
X43738553Y48616275D01*
X43748995Y48602448D01*
X43790540Y48519015D01*
X43825640Y48453348D01*
X43829382Y48441010D01*
X43834360Y48431014D01*
X43863762Y48327677D01*
X43884708Y48258627D01*
X43885396Y48251641D01*
X43886768Y48246819D01*
X43901021Y48092993D01*
X43904653Y48056123D01*
X43901021Y48019251D01*
X43886768Y47865428D01*
X43885396Y47860607D01*
X43884708Y47853619D01*
X43863757Y47784555D01*
X43834360Y47681233D01*
X43829383Y47671240D01*
X43825640Y47658898D01*
X43790533Y47593218D01*
X43748995Y47509799D01*
X43738555Y47495976D01*
X43729718Y47479441D01*
X43684012Y47423749D01*
X43633586Y47356973D01*
X43616217Y47341140D01*
X43600630Y47322146D01*
X43548033Y47278982D01*
X43492057Y47227952D01*
X43466791Y47212309D01*
X43443335Y47193058D01*
X43387509Y47163219D01*
X43329236Y47127137D01*
X43295699Y47114146D01*
X43263878Y47097136D01*
X43208181Y47080241D01*
X43150655Y47057955D01*
X43109118Y47050191D01*
X43069157Y47038068D01*
X43016561Y47032888D01*
X42962406Y47022764D01*
X42913774Y47022764D01*
X42866653Y47018123D01*
X42819532Y47022764D01*
X42770900Y47022764D01*
X42716743Y47032888D01*
X42664149Y47038068D01*
X42624188Y47050190D01*
X42582650Y47057955D01*
X42525120Y47080242D01*
X42469428Y47097136D01*
X42437608Y47114144D01*
X42404069Y47127137D01*
X42345789Y47163223D01*
X42289971Y47193058D01*
X42266517Y47212306D01*
X42241248Y47227952D01*
X42185262Y47278990D01*
X42132676Y47322146D01*
X42117091Y47341136D01*
X42099719Y47356973D01*
X42049280Y47423764D01*
X42003588Y47479441D01*
X41994752Y47495971D01*
X41984310Y47509799D01*
X41942758Y47593246D01*
X41907666Y47658898D01*
X41903923Y47671235D01*
X41898945Y47681233D01*
X41869532Y47784608D01*
X41848598Y47853619D01*
X41847910Y47860602D01*
X41846537Y47865428D01*
X41832267Y48019422D01*
X41828653Y48056123D01*
X41832267Y48092822D01*
X41846537Y48246819D01*
X41847910Y48251647D01*
X41848598Y48258627D01*
X41869527Y48327624D01*
X41898945Y48431014D01*
X41903924Y48441015D01*
X41907666Y48453348D01*
X41942750Y48518988D01*
X41984310Y48602448D01*
X41994754Y48616279D01*
X42003588Y48632805D01*
X42049271Y48688471D01*
X42099719Y48755274D01*
X42117094Y48771115D01*
X42132676Y48790100D01*
X42185251Y48833248D01*
X42241248Y48884295D01*
X42266522Y48899945D01*
X42289971Y48919188D01*
X42345777Y48949018D01*
X42404069Y48985110D01*
X42437615Y48998106D01*
X42469428Y49015110D01*
X42525108Y49032001D01*
X42582650Y49054292D01*
X42624195Y49062059D01*
X42664149Y49074178D01*
X42716740Y49079358D01*
X42770900Y49089482D01*
X42819532Y49089482D01*
X42866653Y49094123D01*
X42913774Y49089482D01*
G37*
G36*
X45453774Y49089482D02*
G01*
X45502406Y49089482D01*
X45556564Y49079358D01*
X45609157Y49074178D01*
X45649112Y49062058D01*
X45690655Y49054292D01*
X45748193Y49032002D01*
X45803878Y49015110D01*
X45835692Y48998105D01*
X45869236Y48985110D01*
X45927520Y48949022D01*
X45983335Y48919188D01*
X46006786Y48899942D01*
X46032057Y48884295D01*
X46088044Y48833256D01*
X46140630Y48790100D01*
X46156214Y48771111D01*
X46173586Y48755274D01*
X46224022Y48688486D01*
X46269718Y48632805D01*
X46278553Y48616275D01*
X46288995Y48602448D01*
X46330540Y48519015D01*
X46365640Y48453348D01*
X46369382Y48441010D01*
X46374360Y48431014D01*
X46403762Y48327677D01*
X46424708Y48258627D01*
X46425396Y48251641D01*
X46426768Y48246819D01*
X46441021Y48092993D01*
X46444653Y48056123D01*
X46441021Y48019251D01*
X46426768Y47865428D01*
X46425396Y47860607D01*
X46424708Y47853619D01*
X46403757Y47784555D01*
X46374360Y47681233D01*
X46369383Y47671240D01*
X46365640Y47658898D01*
X46330533Y47593218D01*
X46288995Y47509799D01*
X46278555Y47495976D01*
X46269718Y47479441D01*
X46224012Y47423749D01*
X46173586Y47356973D01*
X46156217Y47341140D01*
X46140630Y47322146D01*
X46088033Y47278982D01*
X46032057Y47227952D01*
X46006791Y47212309D01*
X45983335Y47193058D01*
X45927509Y47163219D01*
X45869236Y47127137D01*
X45835699Y47114146D01*
X45803878Y47097136D01*
X45748181Y47080241D01*
X45690655Y47057955D01*
X45649118Y47050191D01*
X45609157Y47038068D01*
X45556561Y47032888D01*
X45502406Y47022764D01*
X45453774Y47022764D01*
X45406653Y47018123D01*
X45359532Y47022764D01*
X45310900Y47022764D01*
X45256743Y47032888D01*
X45204149Y47038068D01*
X45164188Y47050190D01*
X45122650Y47057955D01*
X45065120Y47080242D01*
X45009428Y47097136D01*
X44977608Y47114144D01*
X44944069Y47127137D01*
X44885789Y47163223D01*
X44829971Y47193058D01*
X44806517Y47212306D01*
X44781248Y47227952D01*
X44725262Y47278990D01*
X44672676Y47322146D01*
X44657091Y47341136D01*
X44639719Y47356973D01*
X44589280Y47423764D01*
X44543588Y47479441D01*
X44534752Y47495971D01*
X44524310Y47509799D01*
X44482758Y47593246D01*
X44447666Y47658898D01*
X44443923Y47671235D01*
X44438945Y47681233D01*
X44409532Y47784608D01*
X44388598Y47853619D01*
X44387910Y47860602D01*
X44386537Y47865428D01*
X44372267Y48019422D01*
X44368653Y48056123D01*
X44372267Y48092822D01*
X44386537Y48246819D01*
X44387910Y48251647D01*
X44388598Y48258627D01*
X44409527Y48327624D01*
X44438945Y48431014D01*
X44443924Y48441015D01*
X44447666Y48453348D01*
X44482750Y48518988D01*
X44524310Y48602448D01*
X44534754Y48616279D01*
X44543588Y48632805D01*
X44589271Y48688471D01*
X44639719Y48755274D01*
X44657094Y48771115D01*
X44672676Y48790100D01*
X44725251Y48833248D01*
X44781248Y48884295D01*
X44806522Y48899945D01*
X44829971Y48919188D01*
X44885777Y48949018D01*
X44944069Y48985110D01*
X44977615Y48998106D01*
X45009428Y49015110D01*
X45065108Y49032001D01*
X45122650Y49054292D01*
X45164195Y49062059D01*
X45204149Y49074178D01*
X45256740Y49079358D01*
X45310900Y49089482D01*
X45359532Y49089482D01*
X45406653Y49094123D01*
X45453774Y49089482D01*
G37*
G36*
X47993774Y49089482D02*
G01*
X48042406Y49089482D01*
X48096564Y49079358D01*
X48149157Y49074178D01*
X48189112Y49062058D01*
X48230655Y49054292D01*
X48288193Y49032002D01*
X48343878Y49015110D01*
X48375692Y48998105D01*
X48409236Y48985110D01*
X48467520Y48949022D01*
X48523335Y48919188D01*
X48546786Y48899942D01*
X48572057Y48884295D01*
X48628044Y48833256D01*
X48680630Y48790100D01*
X48696214Y48771111D01*
X48713586Y48755274D01*
X48764022Y48688486D01*
X48809718Y48632805D01*
X48818553Y48616275D01*
X48828995Y48602448D01*
X48870540Y48519015D01*
X48905640Y48453348D01*
X48909382Y48441010D01*
X48914360Y48431014D01*
X48943762Y48327677D01*
X48964708Y48258627D01*
X48965396Y48251641D01*
X48966768Y48246819D01*
X48981021Y48092993D01*
X48984653Y48056123D01*
X48981021Y48019251D01*
X48966768Y47865428D01*
X48965396Y47860607D01*
X48964708Y47853619D01*
X48943757Y47784555D01*
X48914360Y47681233D01*
X48909383Y47671240D01*
X48905640Y47658898D01*
X48870533Y47593218D01*
X48828995Y47509799D01*
X48818555Y47495976D01*
X48809718Y47479441D01*
X48764012Y47423749D01*
X48713586Y47356973D01*
X48696217Y47341140D01*
X48680630Y47322146D01*
X48628033Y47278982D01*
X48572057Y47227952D01*
X48546791Y47212309D01*
X48523335Y47193058D01*
X48467509Y47163219D01*
X48409236Y47127137D01*
X48375699Y47114146D01*
X48343878Y47097136D01*
X48288181Y47080241D01*
X48230655Y47057955D01*
X48189118Y47050191D01*
X48149157Y47038068D01*
X48096561Y47032888D01*
X48042406Y47022764D01*
X47993774Y47022764D01*
X47946653Y47018123D01*
X47899532Y47022764D01*
X47850900Y47022764D01*
X47796743Y47032888D01*
X47744149Y47038068D01*
X47704188Y47050190D01*
X47662650Y47057955D01*
X47605120Y47080242D01*
X47549428Y47097136D01*
X47517608Y47114144D01*
X47484069Y47127137D01*
X47425789Y47163223D01*
X47369971Y47193058D01*
X47346517Y47212306D01*
X47321248Y47227952D01*
X47265262Y47278990D01*
X47212676Y47322146D01*
X47197091Y47341136D01*
X47179719Y47356973D01*
X47129280Y47423764D01*
X47083588Y47479441D01*
X47074752Y47495971D01*
X47064310Y47509799D01*
X47022758Y47593246D01*
X46987666Y47658898D01*
X46983923Y47671235D01*
X46978945Y47681233D01*
X46949532Y47784608D01*
X46928598Y47853619D01*
X46927910Y47860602D01*
X46926537Y47865428D01*
X46912267Y48019422D01*
X46908653Y48056123D01*
X46912267Y48092822D01*
X46926537Y48246819D01*
X46927910Y48251647D01*
X46928598Y48258627D01*
X46949527Y48327624D01*
X46978945Y48431014D01*
X46983924Y48441015D01*
X46987666Y48453348D01*
X47022750Y48518988D01*
X47064310Y48602448D01*
X47074754Y48616279D01*
X47083588Y48632805D01*
X47129271Y48688471D01*
X47179719Y48755274D01*
X47197094Y48771115D01*
X47212676Y48790100D01*
X47265251Y48833248D01*
X47321248Y48884295D01*
X47346522Y48899945D01*
X47369971Y48919188D01*
X47425777Y48949018D01*
X47484069Y48985110D01*
X47517615Y48998106D01*
X47549428Y49015110D01*
X47605108Y49032001D01*
X47662650Y49054292D01*
X47704195Y49062059D01*
X47744149Y49074178D01*
X47796740Y49079358D01*
X47850900Y49089482D01*
X47899532Y49089482D01*
X47946653Y49094123D01*
X47993774Y49089482D01*
G37*
G36*
X50533774Y49089482D02*
G01*
X50582406Y49089482D01*
X50636564Y49079358D01*
X50689157Y49074178D01*
X50729112Y49062058D01*
X50770655Y49054292D01*
X50828193Y49032002D01*
X50883878Y49015110D01*
X50915692Y48998105D01*
X50949236Y48985110D01*
X51007520Y48949022D01*
X51063335Y48919188D01*
X51086786Y48899942D01*
X51112057Y48884295D01*
X51168044Y48833256D01*
X51220630Y48790100D01*
X51236214Y48771111D01*
X51253586Y48755274D01*
X51304022Y48688486D01*
X51349718Y48632805D01*
X51358553Y48616275D01*
X51368995Y48602448D01*
X51410540Y48519015D01*
X51445640Y48453348D01*
X51449382Y48441010D01*
X51454360Y48431014D01*
X51483762Y48327677D01*
X51504708Y48258627D01*
X51505396Y48251641D01*
X51506768Y48246819D01*
X51521021Y48092993D01*
X51524653Y48056123D01*
X51521021Y48019251D01*
X51506768Y47865428D01*
X51505396Y47860607D01*
X51504708Y47853619D01*
X51483757Y47784555D01*
X51454360Y47681233D01*
X51449383Y47671240D01*
X51445640Y47658898D01*
X51410533Y47593218D01*
X51368995Y47509799D01*
X51358555Y47495976D01*
X51349718Y47479441D01*
X51304012Y47423749D01*
X51253586Y47356973D01*
X51236217Y47341140D01*
X51220630Y47322146D01*
X51168033Y47278982D01*
X51112057Y47227952D01*
X51086791Y47212309D01*
X51063335Y47193058D01*
X51007509Y47163219D01*
X50949236Y47127137D01*
X50915699Y47114146D01*
X50883878Y47097136D01*
X50828181Y47080241D01*
X50770655Y47057955D01*
X50729118Y47050191D01*
X50689157Y47038068D01*
X50636561Y47032888D01*
X50582406Y47022764D01*
X50533774Y47022764D01*
X50486653Y47018123D01*
X50439532Y47022764D01*
X50390900Y47022764D01*
X50336743Y47032888D01*
X50284149Y47038068D01*
X50244188Y47050190D01*
X50202650Y47057955D01*
X50145120Y47080242D01*
X50089428Y47097136D01*
X50057608Y47114144D01*
X50024069Y47127137D01*
X49965789Y47163223D01*
X49909971Y47193058D01*
X49886517Y47212306D01*
X49861248Y47227952D01*
X49805262Y47278990D01*
X49752676Y47322146D01*
X49737091Y47341136D01*
X49719719Y47356973D01*
X49669280Y47423764D01*
X49623588Y47479441D01*
X49614752Y47495971D01*
X49604310Y47509799D01*
X49562758Y47593246D01*
X49527666Y47658898D01*
X49523923Y47671235D01*
X49518945Y47681233D01*
X49489532Y47784608D01*
X49468598Y47853619D01*
X49467910Y47860602D01*
X49466537Y47865428D01*
X49452267Y48019422D01*
X49448653Y48056123D01*
X49452267Y48092822D01*
X49466537Y48246819D01*
X49467910Y48251647D01*
X49468598Y48258627D01*
X49489527Y48327624D01*
X49518945Y48431014D01*
X49523924Y48441015D01*
X49527666Y48453348D01*
X49562750Y48518988D01*
X49604310Y48602448D01*
X49614754Y48616279D01*
X49623588Y48632805D01*
X49669271Y48688471D01*
X49719719Y48755274D01*
X49737094Y48771115D01*
X49752676Y48790100D01*
X49805251Y48833248D01*
X49861248Y48884295D01*
X49886522Y48899945D01*
X49909971Y48919188D01*
X49965777Y48949018D01*
X50024069Y48985110D01*
X50057615Y48998106D01*
X50089428Y49015110D01*
X50145108Y49032001D01*
X50202650Y49054292D01*
X50244195Y49062059D01*
X50284149Y49074178D01*
X50336740Y49079358D01*
X50390900Y49089482D01*
X50439532Y49089482D01*
X50486653Y49094123D01*
X50533774Y49089482D01*
G37*
G36*
X53073774Y49089482D02*
G01*
X53122406Y49089482D01*
X53176564Y49079358D01*
X53229157Y49074178D01*
X53269112Y49062058D01*
X53310655Y49054292D01*
X53368193Y49032002D01*
X53423878Y49015110D01*
X53455692Y48998105D01*
X53489236Y48985110D01*
X53547520Y48949022D01*
X53603335Y48919188D01*
X53626786Y48899942D01*
X53652057Y48884295D01*
X53708044Y48833256D01*
X53760630Y48790100D01*
X53776214Y48771111D01*
X53793586Y48755274D01*
X53844022Y48688486D01*
X53889718Y48632805D01*
X53898553Y48616275D01*
X53908995Y48602448D01*
X53950540Y48519015D01*
X53985640Y48453348D01*
X53989382Y48441010D01*
X53994360Y48431014D01*
X54023762Y48327677D01*
X54044708Y48258627D01*
X54045396Y48251641D01*
X54046768Y48246819D01*
X54061021Y48092993D01*
X54064653Y48056123D01*
X54061021Y48019251D01*
X54046768Y47865428D01*
X54045396Y47860607D01*
X54044708Y47853619D01*
X54023757Y47784555D01*
X53994360Y47681233D01*
X53989383Y47671240D01*
X53985640Y47658898D01*
X53950533Y47593218D01*
X53908995Y47509799D01*
X53898555Y47495976D01*
X53889718Y47479441D01*
X53844012Y47423749D01*
X53793586Y47356973D01*
X53776217Y47341140D01*
X53760630Y47322146D01*
X53708033Y47278982D01*
X53652057Y47227952D01*
X53626791Y47212309D01*
X53603335Y47193058D01*
X53547509Y47163219D01*
X53489236Y47127137D01*
X53455699Y47114146D01*
X53423878Y47097136D01*
X53368181Y47080241D01*
X53310655Y47057955D01*
X53269118Y47050191D01*
X53229157Y47038068D01*
X53176561Y47032888D01*
X53122406Y47022764D01*
X53073774Y47022764D01*
X53026653Y47018123D01*
X52979532Y47022764D01*
X52930900Y47022764D01*
X52876743Y47032888D01*
X52824149Y47038068D01*
X52784188Y47050190D01*
X52742650Y47057955D01*
X52685120Y47080242D01*
X52629428Y47097136D01*
X52597608Y47114144D01*
X52564069Y47127137D01*
X52505789Y47163223D01*
X52449971Y47193058D01*
X52426517Y47212306D01*
X52401248Y47227952D01*
X52345262Y47278990D01*
X52292676Y47322146D01*
X52277091Y47341136D01*
X52259719Y47356973D01*
X52209280Y47423764D01*
X52163588Y47479441D01*
X52154752Y47495971D01*
X52144310Y47509799D01*
X52102758Y47593246D01*
X52067666Y47658898D01*
X52063923Y47671235D01*
X52058945Y47681233D01*
X52029532Y47784608D01*
X52008598Y47853619D01*
X52007910Y47860602D01*
X52006537Y47865428D01*
X51992267Y48019422D01*
X51988653Y48056123D01*
X51992267Y48092822D01*
X52006537Y48246819D01*
X52007910Y48251647D01*
X52008598Y48258627D01*
X52029527Y48327624D01*
X52058945Y48431014D01*
X52063924Y48441015D01*
X52067666Y48453348D01*
X52102750Y48518988D01*
X52144310Y48602448D01*
X52154754Y48616279D01*
X52163588Y48632805D01*
X52209271Y48688471D01*
X52259719Y48755274D01*
X52277094Y48771115D01*
X52292676Y48790100D01*
X52345251Y48833248D01*
X52401248Y48884295D01*
X52426522Y48899945D01*
X52449971Y48919188D01*
X52505777Y48949018D01*
X52564069Y48985110D01*
X52597615Y48998106D01*
X52629428Y49015110D01*
X52685108Y49032001D01*
X52742650Y49054292D01*
X52784195Y49062059D01*
X52824149Y49074178D01*
X52876740Y49079358D01*
X52930900Y49089482D01*
X52979532Y49089482D01*
X53026653Y49094123D01*
X53073774Y49089482D01*
G37*
G36*
X55613774Y49089482D02*
G01*
X55662406Y49089482D01*
X55716564Y49079358D01*
X55769157Y49074178D01*
X55809112Y49062058D01*
X55850655Y49054292D01*
X55908193Y49032002D01*
X55963878Y49015110D01*
X55995692Y48998105D01*
X56029236Y48985110D01*
X56087520Y48949022D01*
X56143335Y48919188D01*
X56166786Y48899942D01*
X56192057Y48884295D01*
X56248044Y48833256D01*
X56300630Y48790100D01*
X56316214Y48771111D01*
X56333586Y48755274D01*
X56384022Y48688486D01*
X56429718Y48632805D01*
X56438553Y48616275D01*
X56448995Y48602448D01*
X56490540Y48519015D01*
X56525640Y48453348D01*
X56529382Y48441010D01*
X56534360Y48431014D01*
X56563762Y48327677D01*
X56584708Y48258627D01*
X56585396Y48251641D01*
X56586768Y48246819D01*
X56601021Y48092993D01*
X56604653Y48056123D01*
X56601021Y48019251D01*
X56586768Y47865428D01*
X56585396Y47860607D01*
X56584708Y47853619D01*
X56563757Y47784555D01*
X56534360Y47681233D01*
X56529383Y47671240D01*
X56525640Y47658898D01*
X56490533Y47593218D01*
X56448995Y47509799D01*
X56438555Y47495976D01*
X56429718Y47479441D01*
X56384012Y47423749D01*
X56333586Y47356973D01*
X56316217Y47341140D01*
X56300630Y47322146D01*
X56248033Y47278982D01*
X56192057Y47227952D01*
X56166791Y47212309D01*
X56143335Y47193058D01*
X56087509Y47163219D01*
X56029236Y47127137D01*
X55995699Y47114146D01*
X55963878Y47097136D01*
X55908181Y47080241D01*
X55850655Y47057955D01*
X55809118Y47050191D01*
X55769157Y47038068D01*
X55716561Y47032888D01*
X55662406Y47022764D01*
X55613774Y47022764D01*
X55566653Y47018123D01*
X55519532Y47022764D01*
X55470900Y47022764D01*
X55416743Y47032888D01*
X55364149Y47038068D01*
X55324188Y47050190D01*
X55282650Y47057955D01*
X55225120Y47080242D01*
X55169428Y47097136D01*
X55137608Y47114144D01*
X55104069Y47127137D01*
X55045789Y47163223D01*
X54989971Y47193058D01*
X54966517Y47212306D01*
X54941248Y47227952D01*
X54885262Y47278990D01*
X54832676Y47322146D01*
X54817091Y47341136D01*
X54799719Y47356973D01*
X54749280Y47423764D01*
X54703588Y47479441D01*
X54694752Y47495971D01*
X54684310Y47509799D01*
X54642758Y47593246D01*
X54607666Y47658898D01*
X54603923Y47671235D01*
X54598945Y47681233D01*
X54569532Y47784608D01*
X54548598Y47853619D01*
X54547910Y47860602D01*
X54546537Y47865428D01*
X54532267Y48019422D01*
X54528653Y48056123D01*
X54532267Y48092822D01*
X54546537Y48246819D01*
X54547910Y48251647D01*
X54548598Y48258627D01*
X54569527Y48327624D01*
X54598945Y48431014D01*
X54603924Y48441015D01*
X54607666Y48453348D01*
X54642750Y48518988D01*
X54684310Y48602448D01*
X54694754Y48616279D01*
X54703588Y48632805D01*
X54749271Y48688471D01*
X54799719Y48755274D01*
X54817094Y48771115D01*
X54832676Y48790100D01*
X54885251Y48833248D01*
X54941248Y48884295D01*
X54966522Y48899945D01*
X54989971Y48919188D01*
X55045777Y48949018D01*
X55104069Y48985110D01*
X55137615Y48998106D01*
X55169428Y49015110D01*
X55225108Y49032001D01*
X55282650Y49054292D01*
X55324195Y49062059D01*
X55364149Y49074178D01*
X55416740Y49079358D01*
X55470900Y49089482D01*
X55519532Y49089482D01*
X55566653Y49094123D01*
X55613774Y49089482D01*
G37*
G36*
X-25512776Y49115693D02*
G01*
X-25332124Y49060893D01*
X-25165634Y48971902D01*
X-25019704Y48852141D01*
X-24899943Y48706211D01*
X-24810952Y48539721D01*
X-24756152Y48359069D01*
X-24737648Y48171197D01*
X-24756152Y47983325D01*
X-24810952Y47802673D01*
X-24899943Y47636183D01*
X-25019704Y47490253D01*
X-25165634Y47370492D01*
X-25332124Y47281501D01*
X-25512776Y47226701D01*
X-25700648Y47208197D01*
X-25888520Y47226701D01*
X-26069172Y47281501D01*
X-26235662Y47370492D01*
X-26381592Y47490253D01*
X-26501353Y47636183D01*
X-26590344Y47802673D01*
X-26645144Y47983325D01*
X-26663648Y48171197D01*
X-26645144Y48359069D01*
X-26590344Y48539721D01*
X-26501353Y48706211D01*
X-26381592Y48852141D01*
X-26235662Y48971902D01*
X-26069172Y49060893D01*
X-25888520Y49115693D01*
X-25700648Y49134197D01*
X-25512776Y49115693D01*
G37*
G36*
X5983367Y49464157D02*
G01*
X6164019Y49409357D01*
X6330509Y49320366D01*
X6476439Y49200605D01*
X6596200Y49054675D01*
X6685191Y48888185D01*
X6739991Y48707533D01*
X6758495Y48519661D01*
X6739991Y48331789D01*
X6685191Y48151137D01*
X6596200Y47984647D01*
X6476439Y47838717D01*
X6330509Y47718956D01*
X6164019Y47629965D01*
X5983367Y47575165D01*
X5795495Y47556661D01*
X5607623Y47575165D01*
X5426971Y47629965D01*
X5260481Y47718956D01*
X5114551Y47838717D01*
X4994790Y47984647D01*
X4905799Y48151137D01*
X4850999Y48331789D01*
X4832495Y48519661D01*
X4850999Y48707533D01*
X4905799Y48888185D01*
X4994790Y49054675D01*
X5114551Y49200605D01*
X5260481Y49320366D01*
X5426971Y49409357D01*
X5607623Y49464157D01*
X5795495Y49482661D01*
X5983367Y49464157D01*
G37*
G36*
X-47610649Y49579742D02*
G01*
X-47441056Y49504235D01*
X-47290868Y49395117D01*
X-47166649Y49257157D01*
X-47073828Y49096386D01*
X-47016461Y48919830D01*
X-46997056Y48735204D01*
X-47016461Y48550578D01*
X-47073828Y48374022D01*
X-47166649Y48213251D01*
X-47290868Y48075291D01*
X-47441056Y47966173D01*
X-47610649Y47890666D01*
X-47792235Y47852069D01*
X-47977877Y47852069D01*
X-48159463Y47890666D01*
X-48329056Y47966173D01*
X-48479244Y48075291D01*
X-48603463Y48213251D01*
X-48696284Y48374022D01*
X-48753651Y48550578D01*
X-48773056Y48735204D01*
X-48753651Y48919830D01*
X-48696284Y49096386D01*
X-48603463Y49257157D01*
X-48479244Y49395117D01*
X-48329056Y49504235D01*
X-48159463Y49579742D01*
X-47977877Y49618339D01*
X-47792235Y49618339D01*
X-47610649Y49579742D01*
G37*
G36*
X-26969660Y51196339D02*
G01*
X-26789008Y51141539D01*
X-26622518Y51052548D01*
X-26476588Y50932787D01*
X-26356827Y50786857D01*
X-26267836Y50620367D01*
X-26213036Y50439715D01*
X-26194532Y50251843D01*
X-26213036Y50063971D01*
X-26267836Y49883319D01*
X-26356827Y49716829D01*
X-26476588Y49570899D01*
X-26622518Y49451138D01*
X-26789008Y49362147D01*
X-26969660Y49307347D01*
X-27157532Y49288843D01*
X-27345404Y49307347D01*
X-27526056Y49362147D01*
X-27692546Y49451138D01*
X-27838476Y49570899D01*
X-27958237Y49716829D01*
X-28047228Y49883319D01*
X-28102028Y50063971D01*
X-28120532Y50251843D01*
X-28102028Y50439715D01*
X-28047228Y50620367D01*
X-27958237Y50786857D01*
X-27838476Y50932787D01*
X-27692546Y51052548D01*
X-27526056Y51141539D01*
X-27345404Y51196339D01*
X-27157532Y51214843D01*
X-26969660Y51196339D01*
G37*
G36*
X21458075Y52406212D02*
G01*
X21468785Y52395959D01*
X22295811Y51214843D01*
X22594598Y50788131D01*
X22615938Y50757655D01*
X22621909Y50744084D01*
X22622233Y50729261D01*
X22616859Y50715442D01*
X22606606Y50704732D01*
X20968302Y49557579D01*
X20954731Y49551608D01*
X20939908Y49551284D01*
X20926089Y49556658D01*
X20915379Y49566911D01*
X20110798Y50715971D01*
X19771050Y51201181D01*
X19771048Y51201184D01*
X19768226Y51205215D01*
X19762255Y51218786D01*
X19761931Y51233609D01*
X19767305Y51247428D01*
X19777558Y51258138D01*
X19963010Y51387993D01*
X21411827Y52402467D01*
X21411832Y52402470D01*
X21415862Y52405291D01*
X21429433Y52411262D01*
X21444256Y52411586D01*
X21458075Y52406212D01*
G37*
G36*
X4526482Y51544803D02*
G01*
X4707134Y51490003D01*
X4873624Y51401012D01*
X5019554Y51281251D01*
X5139315Y51135321D01*
X5228306Y50968831D01*
X5283106Y50788179D01*
X5301610Y50600307D01*
X5283106Y50412435D01*
X5228306Y50231783D01*
X5139315Y50065293D01*
X5019554Y49919363D01*
X4873624Y49799602D01*
X4707134Y49710611D01*
X4526482Y49655811D01*
X4338610Y49637307D01*
X4150738Y49655811D01*
X3970086Y49710611D01*
X3803596Y49799602D01*
X3657666Y49919363D01*
X3537905Y50065293D01*
X3448914Y50231783D01*
X3394114Y50412435D01*
X3375610Y50600307D01*
X3394114Y50788179D01*
X3448914Y50968831D01*
X3537905Y51135321D01*
X3657666Y51281251D01*
X3803596Y51401012D01*
X3970086Y51490003D01*
X4150738Y51544803D01*
X4338610Y51563307D01*
X4526482Y51544803D01*
G37*
G36*
X-45814597Y51375793D02*
G01*
X-45645004Y51300286D01*
X-45494816Y51191168D01*
X-45370597Y51053208D01*
X-45277776Y50892437D01*
X-45220409Y50715881D01*
X-45201004Y50531255D01*
X-45220409Y50346629D01*
X-45277776Y50170073D01*
X-45370597Y50009302D01*
X-45494816Y49871342D01*
X-45645004Y49762224D01*
X-45814597Y49686717D01*
X-45996183Y49648120D01*
X-46181825Y49648120D01*
X-46363411Y49686717D01*
X-46533004Y49762224D01*
X-46683192Y49871342D01*
X-46807411Y50009302D01*
X-46900232Y50170073D01*
X-46957599Y50346629D01*
X-46977004Y50531255D01*
X-46957599Y50715881D01*
X-46900232Y50892437D01*
X-46807411Y51053208D01*
X-46683192Y51191168D01*
X-46533004Y51300286D01*
X-46363411Y51375793D01*
X-46181825Y51414390D01*
X-45996183Y51414390D01*
X-45814597Y51375793D01*
G37*
G36*
X34004430Y54235196D02*
G01*
X34066849Y54235196D01*
X34135053Y54224916D01*
X34200695Y54219750D01*
X34253605Y54207048D01*
X34308914Y54198711D01*
X34381189Y54176417D01*
X34450625Y54159747D01*
X34495519Y54141151D01*
X34542829Y54126558D01*
X34617109Y54090787D01*
X34688091Y54061385D01*
X34724524Y54039059D01*
X34763390Y54020342D01*
X34837317Y53969939D01*
X34907247Y53927086D01*
X34935249Y53903170D01*
X34965641Y53882449D01*
X35036607Y53816602D01*
X35102696Y53760157D01*
X35122763Y53736661D01*
X35145090Y53715945D01*
X35210364Y53634093D01*
X35269625Y53564708D01*
X35282658Y53543440D01*
X35297719Y53524554D01*
X35354519Y53426173D01*
X35403924Y53345552D01*
X35411180Y53328034D01*
X35420114Y53312560D01*
X35465668Y53196489D01*
X35502286Y53108086D01*
X35505314Y53095471D01*
X35509550Y53084679D01*
X35541255Y52945765D01*
X35562289Y52858156D01*
X35562834Y52851221D01*
X35564020Y52846028D01*
X35579502Y52639430D01*
X35582455Y52601916D01*
X35579502Y52564400D01*
X35564020Y52357805D01*
X35562834Y52352613D01*
X35562289Y52345676D01*
X35541251Y52258049D01*
X35509550Y52119154D01*
X35505315Y52108365D01*
X35502286Y52095746D01*
X35465660Y52007326D01*
X35420114Y51891273D01*
X35411182Y51875803D01*
X35403924Y51858280D01*
X35354509Y51777644D01*
X35297719Y51679279D01*
X35282661Y51660397D01*
X35269625Y51639124D01*
X35210352Y51569726D01*
X35145090Y51487888D01*
X35122767Y51467176D01*
X35102696Y51443675D01*
X35036594Y51387219D01*
X34965641Y51321384D01*
X34935255Y51300668D01*
X34907247Y51276746D01*
X34837303Y51233885D01*
X34763390Y51183491D01*
X34724531Y51164779D01*
X34688091Y51142447D01*
X34617094Y51113040D01*
X34542829Y51077275D01*
X34495529Y51062685D01*
X34450625Y51044085D01*
X34381174Y51027412D01*
X34308914Y51005122D01*
X34253613Y50996787D01*
X34200695Y50984082D01*
X34135049Y50978916D01*
X34066849Y50968636D01*
X34004430Y50968636D01*
X33944455Y50963916D01*
X33884480Y50968636D01*
X33822061Y50968636D01*
X33753860Y50978916D01*
X33688215Y50984082D01*
X33635297Y50996787D01*
X33579995Y51005122D01*
X33507730Y51027413D01*
X33438285Y51044085D01*
X33393383Y51062684D01*
X33346080Y51077275D01*
X33271810Y51113042D01*
X33200819Y51142447D01*
X33164378Y51164778D01*
X33125520Y51183491D01*
X33051603Y51233887D01*
X32981663Y51276746D01*
X32953658Y51300665D01*
X32923268Y51321384D01*
X32852303Y51387230D01*
X32786214Y51443675D01*
X32766146Y51467172D01*
X32743819Y51487888D01*
X32678542Y51569743D01*
X32619285Y51639124D01*
X32606252Y51660392D01*
X32591190Y51679279D01*
X32534383Y51777672D01*
X32484986Y51858280D01*
X32477730Y51875797D01*
X32468795Y51891273D01*
X32423230Y52007372D01*
X32386624Y52095746D01*
X32383596Y52108358D01*
X32379359Y52119154D01*
X32347638Y52258133D01*
X32326621Y52345676D01*
X32326075Y52352607D01*
X32324889Y52357805D01*
X32309386Y52564666D01*
X32306455Y52601916D01*
X32309386Y52639164D01*
X32324889Y52846028D01*
X32326075Y52851228D01*
X32326621Y52858156D01*
X32347633Y52945681D01*
X32379359Y53084679D01*
X32383596Y53095477D01*
X32386624Y53108086D01*
X32423222Y53196443D01*
X32468795Y53312560D01*
X32477731Y53328040D01*
X32484986Y53345552D01*
X32534373Y53426145D01*
X32591190Y53524554D01*
X32606254Y53543445D01*
X32619285Y53564708D01*
X32678530Y53634076D01*
X32743819Y53715945D01*
X32766150Y53736666D01*
X32786214Y53760157D01*
X32852289Y53816592D01*
X32923268Y53882449D01*
X32953664Y53903173D01*
X32981663Y53927086D01*
X33051588Y53969937D01*
X33125520Y54020342D01*
X33164386Y54039060D01*
X33200819Y54061385D01*
X33271796Y54090785D01*
X33346080Y54126558D01*
X33393393Y54141153D01*
X33438285Y54159747D01*
X33507715Y54176416D01*
X33579995Y54198711D01*
X33635306Y54207048D01*
X33688215Y54219750D01*
X33753856Y54224916D01*
X33822061Y54235196D01*
X33884480Y54235196D01*
X33944455Y54239916D01*
X34004430Y54235196D01*
G37*
G36*
X23538721Y53863097D02*
G01*
X23549431Y53852844D01*
X24383199Y52662100D01*
X24638874Y52296958D01*
X24696584Y52214540D01*
X24702555Y52200969D01*
X24702879Y52186146D01*
X24697505Y52172327D01*
X24687252Y52161617D01*
X23048948Y51014464D01*
X23035377Y51008493D01*
X23020554Y51008169D01*
X23006735Y51013543D01*
X22996025Y51023796D01*
X22229047Y52119154D01*
X21851696Y52658066D01*
X21851694Y52658069D01*
X21848872Y52662100D01*
X21842901Y52675671D01*
X21842577Y52690494D01*
X21847951Y52704313D01*
X21858204Y52715023D01*
X22284133Y53013262D01*
X23492473Y53859352D01*
X23492478Y53859355D01*
X23496508Y53862176D01*
X23510079Y53868147D01*
X23524902Y53868471D01*
X23538721Y53863097D01*
G37*
G36*
X-44278411Y53564495D02*
G01*
X-44266083Y53556258D01*
X-43064001Y52354176D01*
X-43055764Y52341848D01*
X-43052872Y52327306D01*
X-43055764Y52312764D01*
X-43064001Y52300436D01*
X-44266083Y51098354D01*
X-44278411Y51090117D01*
X-44292953Y51087225D01*
X-44307495Y51090117D01*
X-44319823Y51098354D01*
X-45521905Y52300436D01*
X-45530142Y52312764D01*
X-45533034Y52327306D01*
X-45530142Y52341848D01*
X-45521905Y52354176D01*
X-44319823Y53556258D01*
X-44307495Y53564495D01*
X-44292953Y53567387D01*
X-44278411Y53564495D01*
G37*
G36*
X-28426544Y53276985D02*
G01*
X-28245892Y53222185D01*
X-28079402Y53133194D01*
X-27933472Y53013433D01*
X-27813711Y52867503D01*
X-27724720Y52701013D01*
X-27669920Y52520361D01*
X-27651416Y52332489D01*
X-27669920Y52144617D01*
X-27724720Y51963965D01*
X-27813711Y51797475D01*
X-27933472Y51651545D01*
X-28079402Y51531784D01*
X-28245892Y51442793D01*
X-28426544Y51387993D01*
X-28614416Y51369489D01*
X-28802288Y51387993D01*
X-28982940Y51442793D01*
X-29149430Y51531784D01*
X-29295360Y51651545D01*
X-29415121Y51797475D01*
X-29504112Y51963965D01*
X-29558912Y52144617D01*
X-29577416Y52332489D01*
X-29558912Y52520361D01*
X-29504112Y52701013D01*
X-29415121Y52867503D01*
X-29295360Y53013433D01*
X-29149430Y53133194D01*
X-28982940Y53222185D01*
X-28802288Y53276985D01*
X-28614416Y53295489D01*
X-28426544Y53276985D01*
G37*
G36*
X3069598Y53625449D02*
G01*
X3250250Y53570649D01*
X3416740Y53481658D01*
X3562670Y53361897D01*
X3682431Y53215967D01*
X3771422Y53049477D01*
X3826222Y52868825D01*
X3844726Y52680953D01*
X3826222Y52493081D01*
X3771422Y52312429D01*
X3682431Y52145939D01*
X3562670Y52000009D01*
X3416740Y51880248D01*
X3250250Y51791257D01*
X3069598Y51736457D01*
X2881726Y51717953D01*
X2693854Y51736457D01*
X2513202Y51791257D01*
X2346712Y51880248D01*
X2200782Y52000009D01*
X2081021Y52145939D01*
X1992030Y52312429D01*
X1937230Y52493081D01*
X1918726Y52680953D01*
X1937230Y52868825D01*
X1992030Y53049477D01*
X2081021Y53215967D01*
X2200782Y53361897D01*
X2346712Y53481658D01*
X2513202Y53570649D01*
X2693854Y53625449D01*
X2881726Y53643953D01*
X3069598Y53625449D01*
G37*
G36*
X-29883428Y55357631D02*
G01*
X-29702776Y55302831D01*
X-29536286Y55213840D01*
X-29390356Y55094079D01*
X-29270595Y54948149D01*
X-29181604Y54781659D01*
X-29126804Y54601007D01*
X-29108300Y54413135D01*
X-29126804Y54225263D01*
X-29181604Y54044611D01*
X-29270595Y53878121D01*
X-29390356Y53732191D01*
X-29536286Y53612430D01*
X-29702776Y53523439D01*
X-29883428Y53468639D01*
X-30071300Y53450135D01*
X-30259172Y53468639D01*
X-30439824Y53523439D01*
X-30606314Y53612430D01*
X-30752244Y53732191D01*
X-30872005Y53878121D01*
X-30960996Y54044611D01*
X-31015796Y54225263D01*
X-31034300Y54413135D01*
X-31015796Y54601007D01*
X-30960996Y54781659D01*
X-30872005Y54948149D01*
X-30752244Y55094079D01*
X-30606314Y55213840D01*
X-30439824Y55302831D01*
X-30259172Y55357631D01*
X-30071300Y55376135D01*
X-29883428Y55357631D01*
G37*
G36*
X1612714Y55706095D02*
G01*
X1793366Y55651295D01*
X1959856Y55562304D01*
X2105786Y55442543D01*
X2225547Y55296613D01*
X2314538Y55130123D01*
X2369338Y54949471D01*
X2387842Y54761599D01*
X2369338Y54573727D01*
X2314538Y54393075D01*
X2225547Y54226585D01*
X2105786Y54080655D01*
X1959856Y53960894D01*
X1793366Y53871903D01*
X1612714Y53817103D01*
X1424842Y53798599D01*
X1236970Y53817103D01*
X1056318Y53871903D01*
X889828Y53960894D01*
X743898Y54080655D01*
X624137Y54226585D01*
X535146Y54393075D01*
X480346Y54573727D01*
X461842Y54761599D01*
X480346Y54949471D01*
X535146Y55130123D01*
X624137Y55296613D01*
X743898Y55442543D01*
X889828Y55562304D01*
X1056318Y55651295D01*
X1236970Y55706095D01*
X1424842Y55724599D01*
X1612714Y55706095D01*
G37*
G36*
X-31340312Y57438278D02*
G01*
X-31159660Y57383478D01*
X-30993170Y57294487D01*
X-30847240Y57174726D01*
X-30727479Y57028796D01*
X-30638488Y56862306D01*
X-30583688Y56681654D01*
X-30565184Y56493782D01*
X-30583688Y56305910D01*
X-30638488Y56125258D01*
X-30727479Y55958768D01*
X-30847240Y55812838D01*
X-30993170Y55693077D01*
X-31159660Y55604086D01*
X-31340312Y55549286D01*
X-31528184Y55530782D01*
X-31716056Y55549286D01*
X-31896708Y55604086D01*
X-32063198Y55693077D01*
X-32209128Y55812838D01*
X-32328889Y55958768D01*
X-32417880Y56125258D01*
X-32472680Y56305910D01*
X-32491184Y56493782D01*
X-32472680Y56681654D01*
X-32417880Y56862306D01*
X-32328889Y57028796D01*
X-32209128Y57174726D01*
X-32063198Y57294487D01*
X-31896708Y57383478D01*
X-31716056Y57438278D01*
X-31528184Y57456782D01*
X-31340312Y57438278D01*
G37*
G36*
X155830Y57786742D02*
G01*
X336482Y57731942D01*
X502972Y57642951D01*
X648902Y57523190D01*
X768663Y57377260D01*
X857654Y57210770D01*
X912454Y57030118D01*
X930958Y56842246D01*
X912454Y56654374D01*
X857654Y56473722D01*
X768663Y56307232D01*
X648902Y56161302D01*
X502972Y56041541D01*
X336482Y55952550D01*
X155830Y55897750D01*
X-32042Y55879246D01*
X-219914Y55897750D01*
X-400566Y55952550D01*
X-567056Y56041541D01*
X-712986Y56161302D01*
X-832747Y56307232D01*
X-921738Y56473722D01*
X-976538Y56654374D01*
X-995042Y56842246D01*
X-976538Y57030118D01*
X-921738Y57210770D01*
X-832747Y57377260D01*
X-712986Y57523190D01*
X-567056Y57642951D01*
X-400566Y57731942D01*
X-219914Y57786742D01*
X-32042Y57805246D01*
X155830Y57786742D01*
G37*
G36*
X-32797196Y59518924D02*
G01*
X-32616544Y59464124D01*
X-32450054Y59375133D01*
X-32304124Y59255372D01*
X-32184363Y59109442D01*
X-32095372Y58942952D01*
X-32040572Y58762300D01*
X-32022068Y58574428D01*
X-32040572Y58386556D01*
X-32095372Y58205904D01*
X-32184363Y58039414D01*
X-32304124Y57893484D01*
X-32450054Y57773723D01*
X-32616544Y57684732D01*
X-32797196Y57629932D01*
X-32985068Y57611428D01*
X-33172940Y57629932D01*
X-33353592Y57684732D01*
X-33520082Y57773723D01*
X-33666012Y57893484D01*
X-33785773Y58039414D01*
X-33874764Y58205904D01*
X-33929564Y58386556D01*
X-33948068Y58574428D01*
X-33929564Y58762300D01*
X-33874764Y58942952D01*
X-33785773Y59109442D01*
X-33666012Y59255372D01*
X-33520082Y59375133D01*
X-33353592Y59464124D01*
X-33172940Y59518924D01*
X-32985068Y59537428D01*
X-32797196Y59518924D01*
G37*
G36*
X-1301054Y59867388D02*
G01*
X-1120402Y59812588D01*
X-953912Y59723597D01*
X-807982Y59603836D01*
X-688221Y59457906D01*
X-599230Y59291416D01*
X-544430Y59110764D01*
X-525926Y58922892D01*
X-544430Y58735020D01*
X-599230Y58554368D01*
X-688221Y58387878D01*
X-807982Y58241948D01*
X-953912Y58122187D01*
X-1120402Y58033196D01*
X-1301054Y57978396D01*
X-1488926Y57959892D01*
X-1676798Y57978396D01*
X-1857450Y58033196D01*
X-2023940Y58122187D01*
X-2169870Y58241948D01*
X-2289631Y58387878D01*
X-2378622Y58554368D01*
X-2433422Y58735020D01*
X-2451926Y58922892D01*
X-2433422Y59110764D01*
X-2378622Y59291416D01*
X-2289631Y59457906D01*
X-2169870Y59603836D01*
X-2023940Y59723597D01*
X-1857450Y59812588D01*
X-1676798Y59867388D01*
X-1488926Y59885892D01*
X-1301054Y59867388D01*
G37*
G36*
X-34254081Y61599570D02*
G01*
X-34073429Y61544770D01*
X-33906939Y61455779D01*
X-33761009Y61336018D01*
X-33641248Y61190088D01*
X-33552257Y61023598D01*
X-33497457Y60842946D01*
X-33478953Y60655074D01*
X-33497457Y60467202D01*
X-33552257Y60286550D01*
X-33641248Y60120060D01*
X-33761009Y59974130D01*
X-33906939Y59854369D01*
X-34073429Y59765378D01*
X-34254081Y59710578D01*
X-34441953Y59692074D01*
X-34629825Y59710578D01*
X-34810477Y59765378D01*
X-34976967Y59854369D01*
X-35122897Y59974130D01*
X-35242658Y60120060D01*
X-35331649Y60286550D01*
X-35386449Y60467202D01*
X-35404953Y60655074D01*
X-35386449Y60842946D01*
X-35331649Y61023598D01*
X-35242658Y61190088D01*
X-35122897Y61336018D01*
X-34976967Y61455779D01*
X-34810477Y61544770D01*
X-34629825Y61599570D01*
X-34441953Y61618074D01*
X-34254081Y61599570D01*
G37*
G36*
X-2757938Y61948034D02*
G01*
X-2577286Y61893234D01*
X-2410796Y61804243D01*
X-2264866Y61684482D01*
X-2145105Y61538552D01*
X-2056114Y61372062D01*
X-2001314Y61191410D01*
X-1982810Y61003538D01*
X-2001314Y60815666D01*
X-2056114Y60635014D01*
X-2145105Y60468524D01*
X-2264866Y60322594D01*
X-2410796Y60202833D01*
X-2577286Y60113842D01*
X-2757938Y60059042D01*
X-2945810Y60040538D01*
X-3133682Y60059042D01*
X-3314334Y60113842D01*
X-3480824Y60202833D01*
X-3626754Y60322594D01*
X-3746515Y60468524D01*
X-3835506Y60635014D01*
X-3890306Y60815666D01*
X-3908810Y61003538D01*
X-3890306Y61191410D01*
X-3835506Y61372062D01*
X-3746515Y61538552D01*
X-3626754Y61684482D01*
X-3480824Y61804243D01*
X-3314334Y61893234D01*
X-3133682Y61948034D01*
X-2945810Y61966538D01*
X-2757938Y61948034D01*
G37*
G36*
X4786628Y63449403D02*
G01*
X4849047Y63449403D01*
X4917251Y63439123D01*
X4982893Y63433957D01*
X5035803Y63421255D01*
X5091112Y63412918D01*
X5163387Y63390624D01*
X5232823Y63373954D01*
X5277717Y63355358D01*
X5325027Y63340765D01*
X5399307Y63304994D01*
X5470289Y63275592D01*
X5506722Y63253266D01*
X5545588Y63234549D01*
X5619515Y63184146D01*
X5689445Y63141293D01*
X5717447Y63117377D01*
X5747839Y63096656D01*
X5818805Y63030809D01*
X5884894Y62974364D01*
X5904961Y62950868D01*
X5927288Y62930152D01*
X5992562Y62848300D01*
X6051823Y62778915D01*
X6064856Y62757647D01*
X6079917Y62738761D01*
X6136717Y62640380D01*
X6186122Y62559759D01*
X6193378Y62542241D01*
X6202312Y62526767D01*
X6247866Y62410696D01*
X6284484Y62322293D01*
X6287512Y62309678D01*
X6291748Y62298886D01*
X6323453Y62159972D01*
X6344487Y62072363D01*
X6345032Y62065428D01*
X6346218Y62060235D01*
X6361700Y61853637D01*
X6364653Y61816123D01*
X6361700Y61778607D01*
X6346218Y61572012D01*
X6345032Y61566820D01*
X6344487Y61559883D01*
X6323449Y61472256D01*
X6291748Y61333361D01*
X6287513Y61322572D01*
X6284484Y61309953D01*
X6247858Y61221533D01*
X6202312Y61105480D01*
X6193380Y61090010D01*
X6186122Y61072487D01*
X6136707Y60991851D01*
X6079917Y60893486D01*
X6064859Y60874604D01*
X6051823Y60853331D01*
X5992550Y60783933D01*
X5927288Y60702095D01*
X5904965Y60681383D01*
X5884894Y60657882D01*
X5818792Y60601426D01*
X5747839Y60535591D01*
X5717453Y60514875D01*
X5689445Y60490953D01*
X5619501Y60448092D01*
X5545588Y60397698D01*
X5506729Y60378986D01*
X5470289Y60356654D01*
X5399292Y60327247D01*
X5325027Y60291482D01*
X5277727Y60276892D01*
X5232823Y60258292D01*
X5163372Y60241619D01*
X5091112Y60219329D01*
X5035811Y60210994D01*
X4982893Y60198289D01*
X4917247Y60193123D01*
X4849047Y60182843D01*
X4786628Y60182843D01*
X4726653Y60178123D01*
X4666678Y60182843D01*
X4604259Y60182843D01*
X4536058Y60193123D01*
X4470413Y60198289D01*
X4417495Y60210994D01*
X4362193Y60219329D01*
X4289928Y60241620D01*
X4220483Y60258292D01*
X4175581Y60276891D01*
X4128278Y60291482D01*
X4054008Y60327249D01*
X3983017Y60356654D01*
X3946576Y60378985D01*
X3907718Y60397698D01*
X3833801Y60448094D01*
X3763861Y60490953D01*
X3735856Y60514872D01*
X3705466Y60535591D01*
X3634501Y60601437D01*
X3568412Y60657882D01*
X3548344Y60681379D01*
X3526017Y60702095D01*
X3460740Y60783950D01*
X3401483Y60853331D01*
X3388450Y60874599D01*
X3373388Y60893486D01*
X3316581Y60991879D01*
X3267184Y61072487D01*
X3259928Y61090004D01*
X3250993Y61105480D01*
X3205428Y61221579D01*
X3168822Y61309953D01*
X3165794Y61322565D01*
X3161557Y61333361D01*
X3129836Y61472340D01*
X3108819Y61559883D01*
X3108273Y61566814D01*
X3107087Y61572012D01*
X3091584Y61778873D01*
X3088653Y61816123D01*
X3091584Y61853371D01*
X3107087Y62060235D01*
X3108273Y62065435D01*
X3108819Y62072363D01*
X3129831Y62159888D01*
X3161557Y62298886D01*
X3165794Y62309684D01*
X3168822Y62322293D01*
X3205420Y62410650D01*
X3250993Y62526767D01*
X3259929Y62542247D01*
X3267184Y62559759D01*
X3316571Y62640352D01*
X3373388Y62738761D01*
X3388452Y62757652D01*
X3401483Y62778915D01*
X3460728Y62848283D01*
X3526017Y62930152D01*
X3548348Y62950873D01*
X3568412Y62974364D01*
X3634487Y63030799D01*
X3705466Y63096656D01*
X3735862Y63117380D01*
X3763861Y63141293D01*
X3833786Y63184144D01*
X3907718Y63234549D01*
X3946584Y63253267D01*
X3983017Y63275592D01*
X4053994Y63304992D01*
X4128278Y63340765D01*
X4175591Y63355360D01*
X4220483Y63373954D01*
X4289913Y63390623D01*
X4362193Y63412918D01*
X4417504Y63421255D01*
X4470413Y63433957D01*
X4536054Y63439123D01*
X4604259Y63449403D01*
X4666678Y63449403D01*
X4726653Y63454123D01*
X4786628Y63449403D01*
G37*
G36*
X-35710965Y63680216D02*
G01*
X-35530313Y63625416D01*
X-35363823Y63536425D01*
X-35217893Y63416664D01*
X-35098132Y63270734D01*
X-35009141Y63104244D01*
X-34954341Y62923592D01*
X-34935837Y62735720D01*
X-34954341Y62547848D01*
X-35009141Y62367196D01*
X-35098132Y62200706D01*
X-35217893Y62054776D01*
X-35363823Y61935015D01*
X-35530313Y61846024D01*
X-35710965Y61791224D01*
X-35898837Y61772720D01*
X-36086709Y61791224D01*
X-36267361Y61846024D01*
X-36433851Y61935015D01*
X-36579781Y62054776D01*
X-36699542Y62200706D01*
X-36788533Y62367196D01*
X-36843333Y62547848D01*
X-36861837Y62735720D01*
X-36843333Y62923592D01*
X-36788533Y63104244D01*
X-36699542Y63270734D01*
X-36579781Y63416664D01*
X-36433851Y63536425D01*
X-36267361Y63625416D01*
X-36086709Y63680216D01*
X-35898837Y63698720D01*
X-35710965Y63680216D01*
G37*
G36*
X-4214823Y64028680D02*
G01*
X-4034171Y63973880D01*
X-3867681Y63884889D01*
X-3721751Y63765128D01*
X-3601990Y63619198D01*
X-3512999Y63452708D01*
X-3458199Y63272056D01*
X-3439695Y63084184D01*
X-3458199Y62896312D01*
X-3512999Y62715660D01*
X-3601990Y62549170D01*
X-3721751Y62403240D01*
X-3867681Y62283479D01*
X-4034171Y62194488D01*
X-4214823Y62139688D01*
X-4402695Y62121184D01*
X-4590567Y62139688D01*
X-4771219Y62194488D01*
X-4937709Y62283479D01*
X-5083639Y62403240D01*
X-5203400Y62549170D01*
X-5292391Y62715660D01*
X-5347191Y62896312D01*
X-5365695Y63084184D01*
X-5347191Y63272056D01*
X-5292391Y63452708D01*
X-5203400Y63619198D01*
X-5083639Y63765128D01*
X-4937709Y63884889D01*
X-4771219Y63973880D01*
X-4590567Y64028680D01*
X-4402695Y64047184D01*
X-4214823Y64028680D01*
G37*
G36*
X-5671707Y66109326D02*
G01*
X-5491055Y66054526D01*
X-5324565Y65965535D01*
X-5178635Y65845774D01*
X-5058874Y65699844D01*
X-4969883Y65533354D01*
X-4915083Y65352702D01*
X-4896579Y65164830D01*
X-4915083Y64976958D01*
X-4969883Y64796306D01*
X-5058874Y64629816D01*
X-5178635Y64483886D01*
X-5324565Y64364125D01*
X-5491055Y64275134D01*
X-5671707Y64220334D01*
X-5859579Y64201830D01*
X-6047451Y64220334D01*
X-6228103Y64275134D01*
X-6394593Y64364125D01*
X-6540523Y64483886D01*
X-6660284Y64629816D01*
X-6749275Y64796306D01*
X-6804075Y64976958D01*
X-6822579Y65164830D01*
X-6804075Y65352702D01*
X-6749275Y65533354D01*
X-6660284Y65699844D01*
X-6540523Y65845774D01*
X-6394593Y65965535D01*
X-6228103Y66054526D01*
X-6047451Y66109326D01*
X-5859579Y66127830D01*
X-5671707Y66109326D01*
G37*
G36*
X-7128591Y68189972D02*
G01*
X-6947939Y68135172D01*
X-6781449Y68046181D01*
X-6635519Y67926420D01*
X-6515758Y67780490D01*
X-6426767Y67614000D01*
X-6371967Y67433348D01*
X-6353463Y67245476D01*
X-6371967Y67057604D01*
X-6426767Y66876952D01*
X-6515758Y66710462D01*
X-6635519Y66564532D01*
X-6781449Y66444771D01*
X-6947939Y66355780D01*
X-7128591Y66300980D01*
X-7316463Y66282476D01*
X-7504335Y66300980D01*
X-7684987Y66355780D01*
X-7851477Y66444771D01*
X-7997407Y66564532D01*
X-8117168Y66710462D01*
X-8206159Y66876952D01*
X-8260959Y67057604D01*
X-8279463Y67245476D01*
X-8260959Y67433348D01*
X-8206159Y67614000D01*
X-8117168Y67780490D01*
X-7997407Y67926420D01*
X-7851477Y68046181D01*
X-7684987Y68135172D01*
X-7504335Y68189972D01*
X-7316463Y68208476D01*
X-7128591Y68189972D01*
G37*
G36*
X60058Y70486213D02*
G01*
X122477Y70486213D01*
X190681Y70475933D01*
X256323Y70470767D01*
X309233Y70458065D01*
X364542Y70449728D01*
X436817Y70427434D01*
X506253Y70410764D01*
X551147Y70392168D01*
X598457Y70377575D01*
X672737Y70341804D01*
X743719Y70312402D01*
X780152Y70290076D01*
X819018Y70271359D01*
X892945Y70220956D01*
X962875Y70178103D01*
X990877Y70154187D01*
X1021269Y70133466D01*
X1092235Y70067619D01*
X1158324Y70011174D01*
X1178391Y69987678D01*
X1200718Y69966962D01*
X1265992Y69885110D01*
X1325253Y69815725D01*
X1338286Y69794457D01*
X1353347Y69775571D01*
X1410147Y69677190D01*
X1459552Y69596569D01*
X1466808Y69579051D01*
X1475742Y69563577D01*
X1521296Y69447506D01*
X1557914Y69359103D01*
X1560942Y69346488D01*
X1565178Y69335696D01*
X1596883Y69196782D01*
X1617917Y69109173D01*
X1618462Y69102238D01*
X1619648Y69097045D01*
X1635130Y68890447D01*
X1638083Y68852933D01*
X1635130Y68815417D01*
X1619648Y68608822D01*
X1618462Y68603630D01*
X1617917Y68596693D01*
X1596879Y68509066D01*
X1565178Y68370171D01*
X1560943Y68359382D01*
X1557914Y68346763D01*
X1521288Y68258343D01*
X1475742Y68142290D01*
X1466810Y68126820D01*
X1459552Y68109297D01*
X1410137Y68028661D01*
X1353347Y67930296D01*
X1338289Y67911414D01*
X1325253Y67890141D01*
X1265980Y67820743D01*
X1200718Y67738905D01*
X1178395Y67718193D01*
X1158324Y67694692D01*
X1092222Y67638236D01*
X1021269Y67572401D01*
X990883Y67551685D01*
X962875Y67527763D01*
X892931Y67484902D01*
X819018Y67434508D01*
X780159Y67415796D01*
X743719Y67393464D01*
X672722Y67364057D01*
X598457Y67328292D01*
X551157Y67313702D01*
X506253Y67295102D01*
X436802Y67278429D01*
X364542Y67256139D01*
X309241Y67247804D01*
X256323Y67235099D01*
X190677Y67229933D01*
X122477Y67219653D01*
X60058Y67219653D01*
X83Y67214933D01*
X-59892Y67219653D01*
X-122311Y67219653D01*
X-190512Y67229933D01*
X-256157Y67235099D01*
X-309075Y67247804D01*
X-364377Y67256139D01*
X-436642Y67278430D01*
X-506087Y67295102D01*
X-550989Y67313701D01*
X-598292Y67328292D01*
X-672562Y67364059D01*
X-743553Y67393464D01*
X-779994Y67415795D01*
X-818852Y67434508D01*
X-892769Y67484904D01*
X-962709Y67527763D01*
X-990714Y67551682D01*
X-1021104Y67572401D01*
X-1092069Y67638247D01*
X-1158158Y67694692D01*
X-1178226Y67718189D01*
X-1200553Y67738905D01*
X-1265830Y67820760D01*
X-1325087Y67890141D01*
X-1338120Y67911409D01*
X-1353182Y67930296D01*
X-1409989Y68028689D01*
X-1459386Y68109297D01*
X-1466642Y68126814D01*
X-1475577Y68142290D01*
X-1521142Y68258389D01*
X-1557748Y68346763D01*
X-1560776Y68359375D01*
X-1565013Y68370171D01*
X-1596734Y68509150D01*
X-1617751Y68596693D01*
X-1618297Y68603624D01*
X-1619483Y68608822D01*
X-1634986Y68815683D01*
X-1637917Y68852933D01*
X-1634986Y68890181D01*
X-1619483Y69097045D01*
X-1618297Y69102245D01*
X-1617751Y69109173D01*
X-1596739Y69196698D01*
X-1565013Y69335696D01*
X-1560776Y69346494D01*
X-1557748Y69359103D01*
X-1521150Y69447460D01*
X-1475577Y69563577D01*
X-1466641Y69579057D01*
X-1459386Y69596569D01*
X-1409999Y69677162D01*
X-1353182Y69775571D01*
X-1338118Y69794462D01*
X-1325087Y69815725D01*
X-1265842Y69885093D01*
X-1200553Y69966962D01*
X-1178222Y69987683D01*
X-1158158Y70011174D01*
X-1092083Y70067609D01*
X-1021104Y70133466D01*
X-990708Y70154190D01*
X-962709Y70178103D01*
X-892784Y70220954D01*
X-818852Y70271359D01*
X-779986Y70290077D01*
X-743553Y70312402D01*
X-672576Y70341802D01*
X-598292Y70377575D01*
X-550979Y70392170D01*
X-506087Y70410764D01*
X-436657Y70427433D01*
X-364377Y70449728D01*
X-309066Y70458065D01*
X-256157Y70470767D01*
X-190516Y70475933D01*
X-122311Y70486213D01*
X-59892Y70486213D01*
X83Y70490933D01*
X60058Y70486213D01*
G37*
G36*
X-8585475Y70270619D02*
G01*
X-8404823Y70215819D01*
X-8238333Y70126828D01*
X-8092403Y70007067D01*
X-7972642Y69861137D01*
X-7883651Y69694647D01*
X-7828851Y69513995D01*
X-7810347Y69326123D01*
X-7828851Y69138251D01*
X-7883651Y68957599D01*
X-7972642Y68791109D01*
X-8092403Y68645179D01*
X-8238333Y68525418D01*
X-8404823Y68436427D01*
X-8585475Y68381627D01*
X-8773347Y68363123D01*
X-8961219Y68381627D01*
X-9141871Y68436427D01*
X-9308361Y68525418D01*
X-9454291Y68645179D01*
X-9574052Y68791109D01*
X-9663043Y68957599D01*
X-9717843Y69138251D01*
X-9736347Y69326123D01*
X-9717843Y69513995D01*
X-9663043Y69694647D01*
X-9574052Y69861137D01*
X-9454291Y70007067D01*
X-9308361Y70126828D01*
X-9141871Y70215819D01*
X-8961219Y70270619D01*
X-8773347Y70289123D01*
X-8585475Y70270619D01*
G37*
G36*
X-10042359Y72351265D02*
G01*
X-9861707Y72296465D01*
X-9695217Y72207474D01*
X-9549287Y72087713D01*
X-9429526Y71941783D01*
X-9340535Y71775293D01*
X-9285735Y71594641D01*
X-9267231Y71406769D01*
X-9285735Y71218897D01*
X-9340535Y71038245D01*
X-9429526Y70871755D01*
X-9549287Y70725825D01*
X-9695217Y70606064D01*
X-9861707Y70517073D01*
X-10042359Y70462273D01*
X-10230231Y70443769D01*
X-10418103Y70462273D01*
X-10598755Y70517073D01*
X-10765245Y70606064D01*
X-10911175Y70725825D01*
X-11030936Y70871755D01*
X-11119927Y71038245D01*
X-11174727Y71218897D01*
X-11193231Y71406769D01*
X-11174727Y71594641D01*
X-11119927Y71775293D01*
X-11030936Y71941783D01*
X-10911175Y72087713D01*
X-10765245Y72207474D01*
X-10598755Y72296465D01*
X-10418103Y72351265D01*
X-10230231Y72369769D01*
X-10042359Y72351265D01*
G37*
G36*
X-11499243Y74431911D02*
G01*
X-11318591Y74377111D01*
X-11152101Y74288120D01*
X-11006171Y74168359D01*
X-10886410Y74022429D01*
X-10797419Y73855939D01*
X-10742619Y73675287D01*
X-10724115Y73487415D01*
X-10742619Y73299543D01*
X-10797419Y73118891D01*
X-10886410Y72952401D01*
X-11006171Y72806471D01*
X-11152101Y72686710D01*
X-11318591Y72597719D01*
X-11499243Y72542919D01*
X-11687115Y72524415D01*
X-11874987Y72542919D01*
X-12055639Y72597719D01*
X-12222129Y72686710D01*
X-12368059Y72806471D01*
X-12487820Y72952401D01*
X-12576811Y73118891D01*
X-12631611Y73299543D01*
X-12650115Y73487415D01*
X-12631611Y73675287D01*
X-12576811Y73855939D01*
X-12487820Y74022429D01*
X-12368059Y74168359D01*
X-12222129Y74288120D01*
X-12055639Y74377111D01*
X-11874987Y74431911D01*
X-11687115Y74450415D01*
X-11499243Y74431911D01*
G37*
G36*
X-12956127Y76512557D02*
G01*
X-12775475Y76457757D01*
X-12608985Y76368766D01*
X-12463055Y76249005D01*
X-12343294Y76103075D01*
X-12254303Y75936585D01*
X-12199503Y75755933D01*
X-12180999Y75568061D01*
X-12199503Y75380189D01*
X-12254303Y75199537D01*
X-12343294Y75033047D01*
X-12463055Y74887117D01*
X-12608985Y74767356D01*
X-12775475Y74678365D01*
X-12956127Y74623565D01*
X-13143999Y74605061D01*
X-13331871Y74623565D01*
X-13512523Y74678365D01*
X-13679013Y74767356D01*
X-13824943Y74887117D01*
X-13944704Y75033047D01*
X-14033695Y75199537D01*
X-14088495Y75380189D01*
X-14106999Y75568061D01*
X-14088495Y75755933D01*
X-14033695Y75936585D01*
X-13944704Y76103075D01*
X-13824943Y76249005D01*
X-13679013Y76368766D01*
X-13512523Y76457757D01*
X-13331871Y76512557D01*
X-13143999Y76531061D01*
X-12956127Y76512557D01*
G37*
G36*
X-14353310Y78969030D02*
G01*
X-14342599Y78958777D01*
X-13281482Y77443345D01*
X-13275511Y77429774D01*
X-13275188Y77414951D01*
X-13280561Y77401133D01*
X-13290814Y77390422D01*
X-14806246Y76329305D01*
X-14819817Y76323334D01*
X-14834640Y76323011D01*
X-14848458Y76328384D01*
X-14859169Y76338637D01*
X-15920286Y77854069D01*
X-15926257Y77867640D01*
X-15926580Y77882463D01*
X-15921207Y77896281D01*
X-15910954Y77906992D01*
X-15906921Y77909816D01*
X-14399554Y78965286D01*
X-14399554Y78965287D01*
X-14395522Y78968109D01*
X-14381951Y78974080D01*
X-14367128Y78974403D01*
X-14353310Y78969030D01*
G37*
M02*
