%TF.GenerationSoftware,KiCad,Pcbnew,7.0.9-rc1*%
%TF.CreationDate,2023-11-05T19:21:47+02:00*%
%TF.ProjectId,projectA,70726f6a-6563-4744-912e-6b696361645f,rev?*%
%TF.SameCoordinates,PX5e5c173PY6474d3b*%
%TF.FileFunction,Soldermask,Top*%
%TF.FilePolarity,Negative*%
%FSLAX46Y46*%
G04 Gerber Fmt 4.6, Leading zero omitted, Abs format (unit mm)*
G04 Created by KiCad (PCBNEW 7.0.9-rc1) date 2023-11-05 19:21:47*
%MOMM*%
%LPD*%
G01*
G04 APERTURE LIST*
G04 Aperture macros list*
%AMRoundRect*
0 Rectangle with rounded corners*
0 $1 Rounding radius*
0 $2 $3 $4 $5 $6 $7 $8 $9 X,Y pos of 4 corners*
0 Add a 4 corners polygon primitive as box body*
4,1,4,$2,$3,$4,$5,$6,$7,$8,$9,$2,$3,0*
0 Add four circle primitives for the rounded corners*
1,1,$1+$1,$2,$3*
1,1,$1+$1,$4,$5*
1,1,$1+$1,$6,$7*
1,1,$1+$1,$8,$9*
0 Add four rect primitives between the rounded corners*
20,1,$1+$1,$2,$3,$4,$5,0*
20,1,$1+$1,$4,$5,$6,$7,0*
20,1,$1+$1,$6,$7,$8,$9,0*
20,1,$1+$1,$8,$9,$2,$3,0*%
%AMRotRect*
0 Rectangle, with rotation*
0 The origin of the aperture is its center*
0 $1 length*
0 $2 width*
0 $3 Rotation angle, in degrees counterclockwise*
0 Add horizontal line*
21,1,$1,$2,0,0,$3*%
G04 Aperture macros list end*
%ADD10O,2.000000X1.300000*%
%ADD11RoundRect,0.250000X-0.043082X0.519182X-0.473137X0.218055X0.043082X-0.519182X0.473137X-0.218055X0*%
%ADD12C,2.000000*%
%ADD13RotRect,2.200000X1.600000X125.000000*%
%ADD14RotRect,2.200000X1.600000X35.000000*%
%ADD15RotRect,1.524000X1.524000X225.000000*%
%ADD16RotRect,2.200000X1.600000X230.000000*%
%ADD17RoundRect,0.250000X-0.067661X0.532491X-0.477237X0.245703X0.067661X-0.532491X0.477237X-0.245703X0*%
%ADD18RoundRect,0.243750X0.062026X-0.513547X0.461363X-0.233929X-0.062026X0.513547X-0.461363X0.233929X0*%
%ADD19RotRect,1.000000X1.000000X341.000000*%
%ADD20RoundRect,0.250000X0.250000X0.475000X-0.250000X0.475000X-0.250000X-0.475000X0.250000X-0.475000X0*%
%ADD21RoundRect,0.250000X-0.450000X0.262500X-0.450000X-0.262500X0.450000X-0.262500X0.450000X0.262500X0*%
%ADD22RoundRect,0.250000X-0.523520X0.118542X-0.394110X-0.364421X0.523520X-0.118542X0.394110X0.364421X0*%
%ADD23C,1.400000*%
%ADD24RoundRect,0.250000X0.391025X0.367729X-0.081735X0.530513X-0.391025X-0.367729X0.081735X-0.530513X0*%
%ADD25RotRect,2.000000X2.000000X305.000000*%
%ADD26RoundRect,0.250000X-0.475000X0.250000X-0.475000X-0.250000X0.475000X-0.250000X0.475000X0.250000X0*%
%ADD27RoundRect,0.250000X-0.250000X-0.475000X0.250000X-0.475000X0.250000X0.475000X-0.250000X0.475000X0*%
%ADD28RotRect,1.524000X1.524000X345.000000*%
%ADD29RoundRect,0.250000X0.364421X0.394110X-0.118542X0.523520X-0.364421X-0.394110X0.118542X-0.523520X0*%
%ADD30RoundRect,0.250000X0.159099X-0.512652X0.512652X-0.159099X-0.159099X0.512652X-0.512652X0.159099X0*%
%ADD31RoundRect,0.250000X0.043082X-0.519182X0.473137X-0.218055X-0.043082X0.519182X-0.473137X0.218055X0*%
%ADD32RotRect,8.460000X6.470000X45.000000*%
%ADD33RotRect,2.500000X2.500000X50.000000*%
%ADD34RotRect,1.524000X1.524000X105.000000*%
%ADD35RotRect,2.000000X2.000000X35.000000*%
G04 APERTURE END LIST*
D10*
%TO.C,U11*%
X-24083406Y-59672952D03*
X-24083406Y-57132952D03*
X-24083406Y-54592952D03*
X-24083406Y-52052952D03*
X-24083406Y-49512952D03*
X-24083406Y-46972952D03*
X-24083406Y-44432952D03*
X-24083406Y-41892952D03*
%TD*%
D11*
%TO.C,R4*%
X-34758395Y46972899D03*
X-36253347Y45926123D03*
%TD*%
D12*
%TO.C,U1*%
X55166653Y47916123D03*
X52626653Y47916123D03*
X50086653Y47916123D03*
X47546653Y47916123D03*
X45006653Y47916123D03*
X42466653Y47916123D03*
%TD*%
D13*
%TO.C,C3*%
X-6452982Y75727395D03*
X-8173712Y78184851D03*
%TD*%
D14*
%TO.C,C2*%
X-54992075Y32875758D03*
X-52534619Y34596488D03*
%TD*%
D15*
%TO.C,U3*%
X-44472558Y52506911D03*
X-46431244Y50548225D03*
X-48227295Y48752174D03*
X-50023347Y46956123D03*
X-51819398Y45160072D03*
X-53615449Y43364020D03*
%TD*%
D16*
%TO.C,C5*%
X-35519166Y-32584810D03*
X-37447528Y-34882944D03*
%TD*%
D17*
%TO.C,C12*%
X-3535153Y73311021D03*
X-5091541Y72221225D03*
%TD*%
D18*
%TO.C,D8*%
X-19595392Y32223851D03*
X-21131302Y31148395D03*
%TD*%
D12*
%TO.C,U2*%
X-51263347Y-27413877D03*
X-48723347Y-27413877D03*
X-46183347Y-27413877D03*
X-43643347Y-27413877D03*
X-41103347Y-27413877D03*
X-38563347Y-27413877D03*
%TD*%
D19*
%TO.C,U10*%
X13920959Y57957004D03*
X15102857Y57550044D03*
X16284755Y57143084D03*
X17466653Y56736123D03*
X18648552Y56329163D03*
X19830450Y55922203D03*
%TD*%
D11*
%TO.C,R2*%
X-40775871Y55459511D03*
X-42270823Y54412735D03*
%TD*%
D20*
%TO.C,C10*%
X49826653Y52226123D03*
X47926653Y52226123D03*
%TD*%
D11*
%TO.C,R7*%
X-25568395Y34392899D03*
X-27063347Y33346123D03*
%TD*%
D21*
%TO.C,R9*%
X-27713347Y-41753877D03*
X-27713347Y-43578877D03*
%TD*%
D18*
%TO.C,D2*%
X-39058886Y56651424D03*
X-37522976Y57726880D03*
%TD*%
D22*
%TO.C,C7*%
X63810775Y13263753D03*
X64302531Y11428493D03*
%TD*%
D18*
%TO.C,D6*%
X-27051302Y39648395D03*
X-25515392Y40723851D03*
%TD*%
%TO.C,D1*%
X-42071302Y60838395D03*
X-40535392Y61913851D03*
%TD*%
D23*
%TO.C,JP1*%
X-41619407Y44293093D03*
X-43700053Y42836209D03*
%TD*%
D24*
%TO.C,C9*%
X16364896Y60186833D03*
X14568410Y60805413D03*
%TD*%
D25*
%TO.C,U7*%
X-39313782Y41682980D03*
X-41394428Y40226095D03*
X-47636367Y35855443D03*
X-30423347Y28986123D03*
X-38745932Y23158586D03*
%TD*%
D26*
%TO.C,C8*%
X-27823347Y-57443877D03*
X-27823347Y-59343877D03*
%TD*%
D27*
%TO.C,C11*%
X-45723347Y-31213877D03*
X-43823347Y-31213877D03*
%TD*%
D18*
%TO.C,D3*%
X-36048886Y52391424D03*
X-34512976Y53466880D03*
%TD*%
D25*
%TO.C,U6*%
X23272728Y52438320D03*
X21192082Y50981435D03*
X14950143Y46610783D03*
X32163163Y39741463D03*
X23840578Y33913926D03*
%TD*%
D28*
%TO.C,U4*%
X-23302413Y-64829548D03*
X-20626799Y-65546477D03*
X-18173347Y-66203877D03*
X-15719896Y-66861278D03*
X-13266444Y-67518678D03*
X-10812992Y-68176078D03*
%TD*%
D18*
%TO.C,D5*%
X-29828886Y44051424D03*
X-28292976Y45126880D03*
%TD*%
D29*
%TO.C,C6*%
X-26995717Y-63709755D03*
X-28830977Y-63217999D03*
%TD*%
D18*
%TO.C,D7*%
X-23811302Y35568395D03*
X-22275392Y36643851D03*
%TD*%
D11*
%TO.C,R5*%
X-31875871Y42679511D03*
X-33370823Y41632735D03*
%TD*%
%TO.C,R1*%
X-43825871Y59669511D03*
X-45320823Y58622735D03*
%TD*%
D30*
%TO.C,C4*%
X-44025098Y48524372D03*
X-42681596Y49867874D03*
%TD*%
D31*
%TO.C,R10*%
X-20790823Y25232735D03*
X-19295871Y26279511D03*
%TD*%
%TO.C,R11*%
X-18058299Y21439347D03*
X-16563347Y22486123D03*
%TD*%
D18*
%TO.C,D4*%
X-32853347Y48236123D03*
X-31317437Y49311579D03*
%TD*%
D14*
%TO.C,C1*%
X32917925Y45920067D03*
X35375381Y47640797D03*
%TD*%
D11*
%TO.C,R8*%
X-22805871Y29989511D03*
X-24300823Y28942735D03*
%TD*%
D32*
%TO.C,U8*%
X28046691Y28873947D03*
X-28055161Y-27227905D03*
%TD*%
D33*
%TO.C,U9*%
X-41173600Y-36894853D03*
X-38875467Y-38823216D03*
X-32747111Y-43965517D03*
X-30448978Y-45893880D03*
X-55957715Y-54513876D03*
X-45233093Y-63512902D03*
%TD*%
D11*
%TO.C,R3*%
X-37865871Y51179511D03*
X-39360823Y50132735D03*
%TD*%
D34*
%TO.C,U5*%
X67750982Y12327057D03*
X67034053Y15002672D03*
X66376653Y17456123D03*
X65719252Y19909575D03*
X65061852Y22363026D03*
X64404452Y24816478D03*
%TD*%
D11*
%TO.C,R6*%
X-28775871Y38509511D03*
X-30270823Y37462735D03*
%TD*%
D12*
%TO.C,U12*%
X-35898837Y62735720D03*
X-34441953Y60655074D03*
X-32985068Y58574428D03*
X-31528184Y56493782D03*
X-30071300Y54413135D03*
X-28614416Y52332489D03*
X-27157532Y50251843D03*
X-25700648Y48171197D03*
X-24243764Y46090551D03*
X-22786879Y44009904D03*
X-21329995Y41929258D03*
X-19873111Y39848612D03*
X-18416227Y37767966D03*
X-16959343Y35687320D03*
X-15502459Y33606673D03*
X-14045574Y31526027D03*
X-12588690Y29445381D03*
X-11131806Y27364735D03*
D35*
X-9674922Y25284089D03*
D12*
X11623031Y40197076D03*
X10166147Y42277722D03*
X8709263Y44358368D03*
X7252379Y46439015D03*
X5795495Y48519661D03*
X4338610Y50600307D03*
X2881726Y52680953D03*
X1424842Y54761599D03*
X-32042Y56842246D03*
X-1488926Y58922892D03*
X-2945810Y61003538D03*
X-4402695Y63084184D03*
X-5859579Y65164830D03*
X-7316463Y67245476D03*
X-8773347Y69326123D03*
X-10230231Y71406769D03*
X-11687115Y73487415D03*
X-13143999Y75568061D03*
D35*
X-14600884Y77648707D03*
%TD*%
M02*
