%TF.GenerationSoftware,KiCad,Pcbnew,7.0.9-rc1*%
%TF.CreationDate,2023-11-05T19:21:23+02:00*%
%TF.ProjectId,projectA,70726f6a-6563-4744-912e-6b696361645f,rev?*%
%TF.SameCoordinates,PX5e5c173PY6474d3b*%
%TF.FileFunction,Drillmap*%
%TF.FilePolarity,Positive*%
%FSLAX45Y45*%
G04 Gerber Fmt 4.5, Leading zero omitted, Abs format (unit mm)*
G04 Created by KiCad (PCBNEW 7.0.9-rc1) date 2023-11-05 19:21:23*
%MOMM*%
%LPD*%
G01*
G04 APERTURE LIST*
%ADD10C,0.200000*%
%ADD11C,0.100000*%
%ADD12C,0.102000*%
G04 APERTURE END LIST*
D10*
X8150000Y0D02*
G75*
G03*
X8150000Y0I-8150000J0D01*
G01*
D11*
X1389096Y5798700D02*
X1395096Y5792700D01*
X1395096Y5798700D02*
X1389096Y5792700D01*
X1507286Y5758004D02*
X1513286Y5752004D01*
X1513286Y5758004D02*
X1507286Y5752004D01*
X1625475Y5717308D02*
X1631475Y5711308D01*
X1631475Y5717308D02*
X1625475Y5711308D01*
X1743665Y5676612D02*
X1749665Y5670612D01*
X1749665Y5676612D02*
X1743665Y5670612D01*
X1861855Y5635916D02*
X1867855Y5629916D01*
X1867855Y5635916D02*
X1861855Y5629916D01*
X1980045Y5595220D02*
X1986045Y5589220D01*
X1986045Y5595220D02*
X1980045Y5589220D01*
X-4330005Y4283621D02*
G75*
G03*
X-4330005Y4283621I-40000J0D01*
G01*
X-4121941Y4429309D02*
G75*
G03*
X-4121941Y4429309I-40000J0D01*
G01*
D12*
X-5595771Y-5400388D02*
X-5595771Y-5502388D01*
X-5646771Y-5451388D02*
X-5544772Y-5451388D01*
X-5361545Y4387402D02*
X-5361545Y4285402D01*
X-5412545Y4336402D02*
X-5310545Y4336402D01*
X-5181940Y4567007D02*
X-5181940Y4465007D01*
X-5232940Y4516007D02*
X-5130940Y4516007D01*
X-5126335Y-2690388D02*
X-5126335Y-2792388D01*
X-5177335Y-2741388D02*
X-5075335Y-2741388D01*
X-5002335Y4746612D02*
X-5002335Y4644612D01*
X-5053335Y4695612D02*
X-4951335Y4695612D01*
X-4872335Y-2690388D02*
X-4872335Y-2792388D01*
X-4923335Y-2741388D02*
X-4821335Y-2741388D01*
X-4822730Y4926217D02*
X-4822730Y4824217D01*
X-4873730Y4875217D02*
X-4771730Y4875217D01*
X-4763637Y3636544D02*
X-4763637Y3534544D01*
X-4814637Y3585544D02*
X-4712637Y3585544D01*
X-4643124Y5105823D02*
X-4643124Y5003823D01*
X-4694124Y5054823D02*
X-4592124Y5054823D01*
X-4618335Y-2690388D02*
X-4618335Y-2792388D01*
X-4669335Y-2741388D02*
X-4567335Y-2741388D01*
X-4523309Y-6300290D02*
X-4523309Y-6402290D01*
X-4574309Y-6351290D02*
X-4472309Y-6351290D01*
X-4447256Y5301691D02*
X-4447256Y5199691D01*
X-4498256Y5250691D02*
X-4396256Y5250691D01*
X-4364335Y-2690388D02*
X-4364335Y-2792388D01*
X-4415335Y-2741388D02*
X-4313335Y-2741388D01*
X-4139443Y4073609D02*
X-4139443Y3971609D01*
X-4190443Y4022609D02*
X-4088443Y4022609D01*
X-4117360Y-3638485D02*
X-4117360Y-3740485D01*
X-4168360Y-3689485D02*
X-4066360Y-3689485D01*
X-4110335Y-2690388D02*
X-4110335Y-2792388D01*
X-4161335Y-2741388D02*
X-4059335Y-2741388D01*
X-3931378Y4219298D02*
X-3931378Y4117298D01*
X-3982378Y4168298D02*
X-3880378Y4168298D01*
X-3887547Y-3831322D02*
X-3887547Y-3933322D01*
X-3938547Y-3882322D02*
X-3836547Y-3882322D01*
X-3874593Y2366859D02*
X-3874593Y2264859D01*
X-3925593Y2315859D02*
X-3823593Y2315859D01*
X-3856335Y-2690388D02*
X-3856335Y-2792388D01*
X-3907335Y-2741388D02*
X-3805335Y-2741388D01*
X-3589884Y6324572D02*
X-3589884Y6222572D01*
X-3640884Y6273572D02*
X-3538884Y6273572D01*
X-3444195Y6116507D02*
X-3444195Y6014507D01*
X-3495195Y6065507D02*
X-3393195Y6065507D01*
X-3298507Y5908443D02*
X-3298507Y5806443D01*
X-3349507Y5857443D02*
X-3247507Y5857443D01*
X-3274711Y-4345552D02*
X-3274711Y-4447552D01*
X-3325711Y-4396552D02*
X-3223711Y-4396552D01*
X-3152818Y5700378D02*
X-3152818Y5598378D01*
X-3203818Y5649378D02*
X-3101818Y5649378D01*
X-3044898Y-4538388D02*
X-3044898Y-4640388D01*
X-3095898Y-4589388D02*
X-2993898Y-4589388D01*
X-3042335Y2949612D02*
X-3042335Y2847612D01*
X-3093335Y2898612D02*
X-2991335Y2898612D01*
X-3007130Y5492314D02*
X-3007130Y5390314D01*
X-3058130Y5441314D02*
X-2956130Y5441314D01*
X-2861442Y5284249D02*
X-2861442Y5182249D01*
X-2912442Y5233249D02*
X-2810442Y5233249D01*
X-2715753Y5076184D02*
X-2715753Y4974184D01*
X-2766753Y5025184D02*
X-2664753Y5025184D01*
X-2570065Y4868120D02*
X-2570065Y4766120D01*
X-2621065Y4817120D02*
X-2519065Y4817120D01*
X-2424376Y4660055D02*
X-2424376Y4558055D01*
X-2475376Y4609055D02*
X-2373376Y4609055D01*
X-2408341Y-4138295D02*
X-2408341Y-4240295D01*
X-2459341Y-4189295D02*
X-2357341Y-4189295D01*
X-2408341Y-4392295D02*
X-2408341Y-4494295D01*
X-2459341Y-4443295D02*
X-2357341Y-4443295D01*
X-2408341Y-4646295D02*
X-2408341Y-4748295D01*
X-2459341Y-4697295D02*
X-2357341Y-4697295D01*
X-2408341Y-4900295D02*
X-2408341Y-5002295D01*
X-2459341Y-4951295D02*
X-2357341Y-4951295D01*
X-2408341Y-5154295D02*
X-2408341Y-5256295D01*
X-2459341Y-5205295D02*
X-2357341Y-5205295D01*
X-2408341Y-5408295D02*
X-2408341Y-5510295D01*
X-2459341Y-5459295D02*
X-2357341Y-5459295D01*
X-2408341Y-5662295D02*
X-2408341Y-5764295D01*
X-2459341Y-5713295D02*
X-2357341Y-5713295D01*
X-2408341Y-5916295D02*
X-2408341Y-6018295D01*
X-2459341Y-5967295D02*
X-2357341Y-5967295D01*
X-2330241Y-6431955D02*
X-2330241Y-6533955D01*
X-2381241Y-6482955D02*
X-2279241Y-6482955D01*
X-2278688Y4451990D02*
X-2278688Y4349990D01*
X-2329688Y4400990D02*
X-2227688Y4400990D01*
X-2133000Y4243926D02*
X-2133000Y4141926D01*
X-2184000Y4192926D02*
X-2081999Y4192926D01*
X-2062680Y-6503648D02*
X-2062680Y-6605648D01*
X-2113680Y-6554648D02*
X-2011680Y-6554648D01*
X-1987311Y4035861D02*
X-1987311Y3933861D01*
X-2038311Y3984861D02*
X-1936311Y3984861D01*
X-1841623Y3827797D02*
X-1841623Y3725797D01*
X-1892623Y3776797D02*
X-1790623Y3776797D01*
X-1817335Y-6569388D02*
X-1817335Y-6671388D01*
X-1868335Y-6620388D02*
X-1766335Y-6620388D01*
X-1695934Y3619732D02*
X-1695934Y3517732D01*
X-1746934Y3568732D02*
X-1644934Y3568732D01*
X-1571990Y-6635128D02*
X-1571990Y-6737128D01*
X-1622990Y-6686128D02*
X-1520990Y-6686128D01*
X-1550246Y3411667D02*
X-1550246Y3309667D01*
X-1601246Y3360667D02*
X-1499246Y3360667D01*
X-1460088Y7815871D02*
X-1460088Y7713871D01*
X-1511088Y7764871D02*
X-1409088Y7764871D01*
X-1404557Y3203603D02*
X-1404557Y3101603D01*
X-1455557Y3152603D02*
X-1353557Y3152603D01*
X-1326644Y-6700868D02*
X-1326644Y-6802868D01*
X-1377644Y-6751868D02*
X-1275644Y-6751868D01*
X-1314400Y7607806D02*
X-1314400Y7505806D01*
X-1365400Y7556806D02*
X-1263400Y7556806D01*
X-1258869Y2995538D02*
X-1258869Y2893538D01*
X-1309869Y2944538D02*
X-1207869Y2944538D01*
X-1168712Y7399741D02*
X-1168712Y7297741D01*
X-1219712Y7348741D02*
X-1117712Y7348741D01*
X-1113181Y2787474D02*
X-1113181Y2685474D01*
X-1164181Y2736474D02*
X-1062181Y2736474D01*
X-1081299Y-6766608D02*
X-1081299Y-6868608D01*
X-1132299Y-6817608D02*
X-1030299Y-6817608D01*
X-1023023Y7191677D02*
X-1023023Y7089677D01*
X-1074023Y7140677D02*
X-972023Y7140677D01*
X-967492Y2579409D02*
X-967492Y2477409D01*
X-1018492Y2528409D02*
X-916492Y2528409D01*
X-877335Y6983612D02*
X-877335Y6881612D01*
X-928335Y6932612D02*
X-826335Y6932612D01*
X-731646Y6775548D02*
X-731646Y6673548D01*
X-782646Y6724548D02*
X-680646Y6724548D01*
X-585958Y6567483D02*
X-585958Y6465483D01*
X-636958Y6516483D02*
X-534958Y6516483D01*
X-440269Y6359418D02*
X-440269Y6257418D01*
X-491269Y6308418D02*
X-389269Y6308418D01*
X-294581Y6151354D02*
X-294581Y6049354D01*
X-345581Y6100354D02*
X-243581Y6100354D01*
X-148893Y5943289D02*
X-148893Y5841289D01*
X-199893Y5892289D02*
X-97893Y5892289D01*
X-3204Y5735225D02*
X-3204Y5633225D01*
X-54204Y5684225D02*
X47796Y5684225D01*
X142484Y5527160D02*
X142484Y5425160D01*
X91484Y5476160D02*
X193484Y5476160D01*
X288173Y5319095D02*
X288173Y5217095D01*
X237173Y5268095D02*
X339173Y5268095D01*
X433861Y5111031D02*
X433861Y5009031D01*
X382861Y5060031D02*
X484861Y5060031D01*
X579550Y4902966D02*
X579550Y4800966D01*
X528550Y4851966D02*
X630550Y4851966D01*
X725238Y4694902D02*
X725238Y4592902D01*
X674238Y4643902D02*
X776238Y4643902D01*
X870926Y4486837D02*
X870926Y4384837D01*
X819926Y4435837D02*
X921926Y4435837D01*
X1016615Y4278772D02*
X1016615Y4176772D01*
X965615Y4227772D02*
X1067615Y4227772D01*
X1162303Y4070708D02*
X1162303Y3968708D01*
X1111303Y4019708D02*
X1213303Y4019708D01*
X1495014Y4712078D02*
X1495014Y4610078D01*
X1444014Y4661078D02*
X1546014Y4661078D01*
X2119208Y5149144D02*
X2119208Y5047144D01*
X2068208Y5098144D02*
X2170208Y5098144D01*
X2327273Y5294832D02*
X2327273Y5192832D01*
X2276273Y5243832D02*
X2378273Y5243832D01*
X2384058Y3442393D02*
X2384058Y3340393D01*
X2333058Y3391393D02*
X2435058Y3391393D01*
X3216316Y4025146D02*
X3216316Y3923146D01*
X3165316Y3974146D02*
X3267316Y3974146D01*
X4246665Y4842612D02*
X4246665Y4740612D01*
X4195665Y4791612D02*
X4297665Y4791612D01*
X4500665Y4842612D02*
X4500665Y4740612D01*
X4449665Y4791612D02*
X4551665Y4791612D01*
X4754665Y4842612D02*
X4754665Y4740612D01*
X4703665Y4791612D02*
X4805665Y4791612D01*
X5008665Y4842612D02*
X5008665Y4740612D01*
X4957665Y4791612D02*
X5059665Y4791612D01*
X5262665Y4842612D02*
X5262665Y4740612D01*
X5211665Y4791612D02*
X5313665Y4791612D01*
X5516665Y4842612D02*
X5516665Y4740612D01*
X5465665Y4791612D02*
X5567665Y4791612D01*
X6440445Y2532648D02*
X6440445Y2430648D01*
X6389445Y2481648D02*
X6491445Y2481648D01*
X6506185Y2287303D02*
X6506185Y2185303D01*
X6455185Y2236303D02*
X6557185Y2236303D01*
X6571925Y2041957D02*
X6571925Y1939957D01*
X6520925Y1990957D02*
X6622925Y1990957D01*
X6637665Y1796612D02*
X6637665Y1694612D01*
X6586665Y1745612D02*
X6688665Y1745612D01*
X6703405Y1551267D02*
X6703405Y1449267D01*
X6652405Y1500267D02*
X6754405Y1500267D01*
X6775098Y1283706D02*
X6775098Y1181706D01*
X6724098Y1232706D02*
X6826098Y1232706D01*
D10*
X-7899223Y-8471484D02*
X-7899223Y-8271484D01*
X-7899223Y-8271484D02*
X-7851604Y-8271484D01*
X-7851604Y-8271484D02*
X-7823033Y-8281008D01*
X-7823033Y-8281008D02*
X-7803985Y-8300055D01*
X-7803985Y-8300055D02*
X-7794461Y-8319103D01*
X-7794461Y-8319103D02*
X-7784937Y-8357198D01*
X-7784937Y-8357198D02*
X-7784937Y-8385769D01*
X-7784937Y-8385769D02*
X-7794461Y-8423865D01*
X-7794461Y-8423865D02*
X-7803985Y-8442912D01*
X-7803985Y-8442912D02*
X-7823033Y-8461960D01*
X-7823033Y-8461960D02*
X-7851604Y-8471484D01*
X-7851604Y-8471484D02*
X-7899223Y-8471484D01*
X-7699223Y-8471484D02*
X-7699223Y-8338150D01*
X-7699223Y-8376246D02*
X-7689699Y-8357198D01*
X-7689699Y-8357198D02*
X-7680176Y-8347674D01*
X-7680176Y-8347674D02*
X-7661128Y-8338150D01*
X-7661128Y-8338150D02*
X-7642080Y-8338150D01*
X-7575414Y-8471484D02*
X-7575414Y-8338150D01*
X-7575414Y-8271484D02*
X-7584937Y-8281008D01*
X-7584937Y-8281008D02*
X-7575414Y-8290531D01*
X-7575414Y-8290531D02*
X-7565890Y-8281008D01*
X-7565890Y-8281008D02*
X-7575414Y-8271484D01*
X-7575414Y-8271484D02*
X-7575414Y-8290531D01*
X-7451604Y-8471484D02*
X-7470652Y-8461960D01*
X-7470652Y-8461960D02*
X-7480176Y-8442912D01*
X-7480176Y-8442912D02*
X-7480176Y-8271484D01*
X-7346842Y-8471484D02*
X-7365890Y-8461960D01*
X-7365890Y-8461960D02*
X-7375414Y-8442912D01*
X-7375414Y-8442912D02*
X-7375414Y-8271484D01*
X-7118271Y-8471484D02*
X-7118271Y-8271484D01*
X-7118271Y-8271484D02*
X-7051604Y-8414341D01*
X-7051604Y-8414341D02*
X-6984937Y-8271484D01*
X-6984937Y-8271484D02*
X-6984937Y-8471484D01*
X-6803985Y-8471484D02*
X-6803985Y-8366722D01*
X-6803985Y-8366722D02*
X-6813509Y-8347674D01*
X-6813509Y-8347674D02*
X-6832556Y-8338150D01*
X-6832556Y-8338150D02*
X-6870652Y-8338150D01*
X-6870652Y-8338150D02*
X-6889699Y-8347674D01*
X-6803985Y-8461960D02*
X-6823033Y-8471484D01*
X-6823033Y-8471484D02*
X-6870652Y-8471484D01*
X-6870652Y-8471484D02*
X-6889699Y-8461960D01*
X-6889699Y-8461960D02*
X-6899223Y-8442912D01*
X-6899223Y-8442912D02*
X-6899223Y-8423865D01*
X-6899223Y-8423865D02*
X-6889699Y-8404817D01*
X-6889699Y-8404817D02*
X-6870652Y-8395293D01*
X-6870652Y-8395293D02*
X-6823033Y-8395293D01*
X-6823033Y-8395293D02*
X-6803985Y-8385769D01*
X-6708747Y-8338150D02*
X-6708747Y-8538150D01*
X-6708747Y-8347674D02*
X-6689699Y-8338150D01*
X-6689699Y-8338150D02*
X-6651604Y-8338150D01*
X-6651604Y-8338150D02*
X-6632556Y-8347674D01*
X-6632556Y-8347674D02*
X-6623033Y-8357198D01*
X-6623033Y-8357198D02*
X-6613509Y-8376246D01*
X-6613509Y-8376246D02*
X-6613509Y-8433389D01*
X-6613509Y-8433389D02*
X-6623033Y-8452436D01*
X-6623033Y-8452436D02*
X-6632556Y-8461960D01*
X-6632556Y-8461960D02*
X-6651604Y-8471484D01*
X-6651604Y-8471484D02*
X-6689699Y-8471484D01*
X-6689699Y-8471484D02*
X-6708747Y-8461960D01*
X-6527795Y-8452436D02*
X-6518271Y-8461960D01*
X-6518271Y-8461960D02*
X-6527795Y-8471484D01*
X-6527795Y-8471484D02*
X-6537318Y-8461960D01*
X-6537318Y-8461960D02*
X-6527795Y-8452436D01*
X-6527795Y-8452436D02*
X-6527795Y-8471484D01*
X-6527795Y-8347674D02*
X-6518271Y-8357198D01*
X-6518271Y-8357198D02*
X-6527795Y-8366722D01*
X-6527795Y-8366722D02*
X-6537318Y-8357198D01*
X-6537318Y-8357198D02*
X-6527795Y-8347674D01*
X-6527795Y-8347674D02*
X-6527795Y-8366722D01*
D11*
X-8166000Y-8797000D02*
X-8160000Y-8803000D01*
X-8160000Y-8797000D02*
X-8166000Y-8803000D01*
D10*
X-7861128Y-8691484D02*
X-7842080Y-8691484D01*
X-7842080Y-8691484D02*
X-7823033Y-8701008D01*
X-7823033Y-8701008D02*
X-7813509Y-8710531D01*
X-7813509Y-8710531D02*
X-7803985Y-8729579D01*
X-7803985Y-8729579D02*
X-7794461Y-8767674D01*
X-7794461Y-8767674D02*
X-7794461Y-8815293D01*
X-7794461Y-8815293D02*
X-7803985Y-8853389D01*
X-7803985Y-8853389D02*
X-7813509Y-8872436D01*
X-7813509Y-8872436D02*
X-7823033Y-8881960D01*
X-7823033Y-8881960D02*
X-7842080Y-8891484D01*
X-7842080Y-8891484D02*
X-7861128Y-8891484D01*
X-7861128Y-8891484D02*
X-7880176Y-8881960D01*
X-7880176Y-8881960D02*
X-7889699Y-8872436D01*
X-7889699Y-8872436D02*
X-7899223Y-8853389D01*
X-7899223Y-8853389D02*
X-7908747Y-8815293D01*
X-7908747Y-8815293D02*
X-7908747Y-8767674D01*
X-7908747Y-8767674D02*
X-7899223Y-8729579D01*
X-7899223Y-8729579D02*
X-7889699Y-8710531D01*
X-7889699Y-8710531D02*
X-7880176Y-8701008D01*
X-7880176Y-8701008D02*
X-7861128Y-8691484D01*
X-7708747Y-8872436D02*
X-7699223Y-8881960D01*
X-7699223Y-8881960D02*
X-7708747Y-8891484D01*
X-7708747Y-8891484D02*
X-7718271Y-8881960D01*
X-7718271Y-8881960D02*
X-7708747Y-8872436D01*
X-7708747Y-8872436D02*
X-7708747Y-8891484D01*
X-7575414Y-8691484D02*
X-7556366Y-8691484D01*
X-7556366Y-8691484D02*
X-7537318Y-8701008D01*
X-7537318Y-8701008D02*
X-7527795Y-8710531D01*
X-7527795Y-8710531D02*
X-7518271Y-8729579D01*
X-7518271Y-8729579D02*
X-7508747Y-8767674D01*
X-7508747Y-8767674D02*
X-7508747Y-8815293D01*
X-7508747Y-8815293D02*
X-7518271Y-8853389D01*
X-7518271Y-8853389D02*
X-7527795Y-8872436D01*
X-7527795Y-8872436D02*
X-7537318Y-8881960D01*
X-7537318Y-8881960D02*
X-7556366Y-8891484D01*
X-7556366Y-8891484D02*
X-7575414Y-8891484D01*
X-7575414Y-8891484D02*
X-7594461Y-8881960D01*
X-7594461Y-8881960D02*
X-7603985Y-8872436D01*
X-7603985Y-8872436D02*
X-7613509Y-8853389D01*
X-7613509Y-8853389D02*
X-7623033Y-8815293D01*
X-7623033Y-8815293D02*
X-7623033Y-8767674D01*
X-7623033Y-8767674D02*
X-7613509Y-8729579D01*
X-7613509Y-8729579D02*
X-7603985Y-8710531D01*
X-7603985Y-8710531D02*
X-7594461Y-8701008D01*
X-7594461Y-8701008D02*
X-7575414Y-8691484D01*
X-7337318Y-8691484D02*
X-7375414Y-8691484D01*
X-7375414Y-8691484D02*
X-7394461Y-8701008D01*
X-7394461Y-8701008D02*
X-7403985Y-8710531D01*
X-7403985Y-8710531D02*
X-7423033Y-8739103D01*
X-7423033Y-8739103D02*
X-7432556Y-8777198D01*
X-7432556Y-8777198D02*
X-7432556Y-8853389D01*
X-7432556Y-8853389D02*
X-7423033Y-8872436D01*
X-7423033Y-8872436D02*
X-7413509Y-8881960D01*
X-7413509Y-8881960D02*
X-7394461Y-8891484D01*
X-7394461Y-8891484D02*
X-7356366Y-8891484D01*
X-7356366Y-8891484D02*
X-7337318Y-8881960D01*
X-7337318Y-8881960D02*
X-7327795Y-8872436D01*
X-7327795Y-8872436D02*
X-7318271Y-8853389D01*
X-7318271Y-8853389D02*
X-7318271Y-8805770D01*
X-7318271Y-8805770D02*
X-7327795Y-8786722D01*
X-7327795Y-8786722D02*
X-7337318Y-8777198D01*
X-7337318Y-8777198D02*
X-7356366Y-8767674D01*
X-7356366Y-8767674D02*
X-7394461Y-8767674D01*
X-7394461Y-8767674D02*
X-7413509Y-8777198D01*
X-7413509Y-8777198D02*
X-7423033Y-8786722D01*
X-7423033Y-8786722D02*
X-7432556Y-8805770D01*
X-7194461Y-8691484D02*
X-7175414Y-8691484D01*
X-7175414Y-8691484D02*
X-7156366Y-8701008D01*
X-7156366Y-8701008D02*
X-7146842Y-8710531D01*
X-7146842Y-8710531D02*
X-7137318Y-8729579D01*
X-7137318Y-8729579D02*
X-7127795Y-8767674D01*
X-7127795Y-8767674D02*
X-7127795Y-8815293D01*
X-7127795Y-8815293D02*
X-7137318Y-8853389D01*
X-7137318Y-8853389D02*
X-7146842Y-8872436D01*
X-7146842Y-8872436D02*
X-7156366Y-8881960D01*
X-7156366Y-8881960D02*
X-7175414Y-8891484D01*
X-7175414Y-8891484D02*
X-7194461Y-8891484D01*
X-7194461Y-8891484D02*
X-7213509Y-8881960D01*
X-7213509Y-8881960D02*
X-7223033Y-8872436D01*
X-7223033Y-8872436D02*
X-7232556Y-8853389D01*
X-7232556Y-8853389D02*
X-7242080Y-8815293D01*
X-7242080Y-8815293D02*
X-7242080Y-8767674D01*
X-7242080Y-8767674D02*
X-7232556Y-8729579D01*
X-7232556Y-8729579D02*
X-7223033Y-8710531D01*
X-7223033Y-8710531D02*
X-7213509Y-8701008D01*
X-7213509Y-8701008D02*
X-7194461Y-8691484D01*
X-7042080Y-8891484D02*
X-7042080Y-8758150D01*
X-7042080Y-8777198D02*
X-7032556Y-8767674D01*
X-7032556Y-8767674D02*
X-7013509Y-8758150D01*
X-7013509Y-8758150D02*
X-6984937Y-8758150D01*
X-6984937Y-8758150D02*
X-6965890Y-8767674D01*
X-6965890Y-8767674D02*
X-6956366Y-8786722D01*
X-6956366Y-8786722D02*
X-6956366Y-8891484D01*
X-6956366Y-8786722D02*
X-6946842Y-8767674D01*
X-6946842Y-8767674D02*
X-6927795Y-8758150D01*
X-6927795Y-8758150D02*
X-6899223Y-8758150D01*
X-6899223Y-8758150D02*
X-6880175Y-8767674D01*
X-6880175Y-8767674D02*
X-6870652Y-8786722D01*
X-6870652Y-8786722D02*
X-6870652Y-8891484D01*
X-6775414Y-8891484D02*
X-6775414Y-8758150D01*
X-6775414Y-8777198D02*
X-6765890Y-8767674D01*
X-6765890Y-8767674D02*
X-6746842Y-8758150D01*
X-6746842Y-8758150D02*
X-6718271Y-8758150D01*
X-6718271Y-8758150D02*
X-6699223Y-8767674D01*
X-6699223Y-8767674D02*
X-6689699Y-8786722D01*
X-6689699Y-8786722D02*
X-6689699Y-8891484D01*
X-6689699Y-8786722D02*
X-6680175Y-8767674D01*
X-6680175Y-8767674D02*
X-6661128Y-8758150D01*
X-6661128Y-8758150D02*
X-6632556Y-8758150D01*
X-6632556Y-8758150D02*
X-6613509Y-8767674D01*
X-6613509Y-8767674D02*
X-6603985Y-8786722D01*
X-6603985Y-8786722D02*
X-6603985Y-8891484D01*
X-6213509Y-8681960D02*
X-6384937Y-8939103D01*
X-5956366Y-8691484D02*
X-5937318Y-8691484D01*
X-5937318Y-8691484D02*
X-5918271Y-8701008D01*
X-5918271Y-8701008D02*
X-5908747Y-8710531D01*
X-5908747Y-8710531D02*
X-5899223Y-8729579D01*
X-5899223Y-8729579D02*
X-5889699Y-8767674D01*
X-5889699Y-8767674D02*
X-5889699Y-8815293D01*
X-5889699Y-8815293D02*
X-5899223Y-8853389D01*
X-5899223Y-8853389D02*
X-5908747Y-8872436D01*
X-5908747Y-8872436D02*
X-5918271Y-8881960D01*
X-5918271Y-8881960D02*
X-5937318Y-8891484D01*
X-5937318Y-8891484D02*
X-5956366Y-8891484D01*
X-5956366Y-8891484D02*
X-5975413Y-8881960D01*
X-5975413Y-8881960D02*
X-5984937Y-8872436D01*
X-5984937Y-8872436D02*
X-5994461Y-8853389D01*
X-5994461Y-8853389D02*
X-6003985Y-8815293D01*
X-6003985Y-8815293D02*
X-6003985Y-8767674D01*
X-6003985Y-8767674D02*
X-5994461Y-8729579D01*
X-5994461Y-8729579D02*
X-5984937Y-8710531D01*
X-5984937Y-8710531D02*
X-5975413Y-8701008D01*
X-5975413Y-8701008D02*
X-5956366Y-8691484D01*
X-5803985Y-8872436D02*
X-5794461Y-8881960D01*
X-5794461Y-8881960D02*
X-5803985Y-8891484D01*
X-5803985Y-8891484D02*
X-5813509Y-8881960D01*
X-5813509Y-8881960D02*
X-5803985Y-8872436D01*
X-5803985Y-8872436D02*
X-5803985Y-8891484D01*
X-5670652Y-8691484D02*
X-5651604Y-8691484D01*
X-5651604Y-8691484D02*
X-5632556Y-8701008D01*
X-5632556Y-8701008D02*
X-5623032Y-8710531D01*
X-5623032Y-8710531D02*
X-5613509Y-8729579D01*
X-5613509Y-8729579D02*
X-5603985Y-8767674D01*
X-5603985Y-8767674D02*
X-5603985Y-8815293D01*
X-5603985Y-8815293D02*
X-5613509Y-8853389D01*
X-5613509Y-8853389D02*
X-5623032Y-8872436D01*
X-5623032Y-8872436D02*
X-5632556Y-8881960D01*
X-5632556Y-8881960D02*
X-5651604Y-8891484D01*
X-5651604Y-8891484D02*
X-5670652Y-8891484D01*
X-5670652Y-8891484D02*
X-5689699Y-8881960D01*
X-5689699Y-8881960D02*
X-5699223Y-8872436D01*
X-5699223Y-8872436D02*
X-5708747Y-8853389D01*
X-5708747Y-8853389D02*
X-5718271Y-8815293D01*
X-5718271Y-8815293D02*
X-5718271Y-8767674D01*
X-5718271Y-8767674D02*
X-5708747Y-8729579D01*
X-5708747Y-8729579D02*
X-5699223Y-8710531D01*
X-5699223Y-8710531D02*
X-5689699Y-8701008D01*
X-5689699Y-8701008D02*
X-5670652Y-8691484D01*
X-5480175Y-8691484D02*
X-5461128Y-8691484D01*
X-5461128Y-8691484D02*
X-5442080Y-8701008D01*
X-5442080Y-8701008D02*
X-5432556Y-8710531D01*
X-5432556Y-8710531D02*
X-5423033Y-8729579D01*
X-5423033Y-8729579D02*
X-5413509Y-8767674D01*
X-5413509Y-8767674D02*
X-5413509Y-8815293D01*
X-5413509Y-8815293D02*
X-5423033Y-8853389D01*
X-5423033Y-8853389D02*
X-5432556Y-8872436D01*
X-5432556Y-8872436D02*
X-5442080Y-8881960D01*
X-5442080Y-8881960D02*
X-5461128Y-8891484D01*
X-5461128Y-8891484D02*
X-5480175Y-8891484D01*
X-5480175Y-8891484D02*
X-5499223Y-8881960D01*
X-5499223Y-8881960D02*
X-5508747Y-8872436D01*
X-5508747Y-8872436D02*
X-5518271Y-8853389D01*
X-5518271Y-8853389D02*
X-5527794Y-8815293D01*
X-5527794Y-8815293D02*
X-5527794Y-8767674D01*
X-5527794Y-8767674D02*
X-5518271Y-8729579D01*
X-5518271Y-8729579D02*
X-5508747Y-8710531D01*
X-5508747Y-8710531D02*
X-5499223Y-8701008D01*
X-5499223Y-8701008D02*
X-5480175Y-8691484D01*
X-5337318Y-8710531D02*
X-5327794Y-8701008D01*
X-5327794Y-8701008D02*
X-5308747Y-8691484D01*
X-5308747Y-8691484D02*
X-5261128Y-8691484D01*
X-5261128Y-8691484D02*
X-5242080Y-8701008D01*
X-5242080Y-8701008D02*
X-5232556Y-8710531D01*
X-5232556Y-8710531D02*
X-5223033Y-8729579D01*
X-5223033Y-8729579D02*
X-5223033Y-8748627D01*
X-5223033Y-8748627D02*
X-5232556Y-8777198D01*
X-5232556Y-8777198D02*
X-5346842Y-8891484D01*
X-5346842Y-8891484D02*
X-5223033Y-8891484D01*
X-5051604Y-8758150D02*
X-5051604Y-8891484D01*
X-5099223Y-8681960D02*
X-5146842Y-8824817D01*
X-5146842Y-8824817D02*
X-5023033Y-8824817D01*
X-4956366Y-8691484D02*
X-4956366Y-8729579D01*
X-4880175Y-8691484D02*
X-4880175Y-8729579D01*
X-4584937Y-8967674D02*
X-4594461Y-8958150D01*
X-4594461Y-8958150D02*
X-4613509Y-8929579D01*
X-4613509Y-8929579D02*
X-4623032Y-8910531D01*
X-4623032Y-8910531D02*
X-4632556Y-8881960D01*
X-4632556Y-8881960D02*
X-4642080Y-8834341D01*
X-4642080Y-8834341D02*
X-4642080Y-8796246D01*
X-4642080Y-8796246D02*
X-4632556Y-8748627D01*
X-4632556Y-8748627D02*
X-4623032Y-8720055D01*
X-4623032Y-8720055D02*
X-4613509Y-8701008D01*
X-4613509Y-8701008D02*
X-4594461Y-8672436D01*
X-4594461Y-8672436D02*
X-4584937Y-8662912D01*
X-4423032Y-8691484D02*
X-4461128Y-8691484D01*
X-4461128Y-8691484D02*
X-4480175Y-8701008D01*
X-4480175Y-8701008D02*
X-4489699Y-8710531D01*
X-4489699Y-8710531D02*
X-4508747Y-8739103D01*
X-4508747Y-8739103D02*
X-4518271Y-8777198D01*
X-4518271Y-8777198D02*
X-4518271Y-8853389D01*
X-4518271Y-8853389D02*
X-4508747Y-8872436D01*
X-4508747Y-8872436D02*
X-4499223Y-8881960D01*
X-4499223Y-8881960D02*
X-4480175Y-8891484D01*
X-4480175Y-8891484D02*
X-4442080Y-8891484D01*
X-4442080Y-8891484D02*
X-4423032Y-8881960D01*
X-4423032Y-8881960D02*
X-4413509Y-8872436D01*
X-4413509Y-8872436D02*
X-4403985Y-8853389D01*
X-4403985Y-8853389D02*
X-4403985Y-8805770D01*
X-4403985Y-8805770D02*
X-4413509Y-8786722D01*
X-4413509Y-8786722D02*
X-4423032Y-8777198D01*
X-4423032Y-8777198D02*
X-4442080Y-8767674D01*
X-4442080Y-8767674D02*
X-4480175Y-8767674D01*
X-4480175Y-8767674D02*
X-4499223Y-8777198D01*
X-4499223Y-8777198D02*
X-4508747Y-8786722D01*
X-4508747Y-8786722D02*
X-4518271Y-8805770D01*
X-4165889Y-8891484D02*
X-4165889Y-8691484D01*
X-4080175Y-8891484D02*
X-4080175Y-8786722D01*
X-4080175Y-8786722D02*
X-4089699Y-8767674D01*
X-4089699Y-8767674D02*
X-4108747Y-8758150D01*
X-4108747Y-8758150D02*
X-4137318Y-8758150D01*
X-4137318Y-8758150D02*
X-4156366Y-8767674D01*
X-4156366Y-8767674D02*
X-4165889Y-8777198D01*
X-3956366Y-8891484D02*
X-3975413Y-8881960D01*
X-3975413Y-8881960D02*
X-3984937Y-8872436D01*
X-3984937Y-8872436D02*
X-3994461Y-8853389D01*
X-3994461Y-8853389D02*
X-3994461Y-8796246D01*
X-3994461Y-8796246D02*
X-3984937Y-8777198D01*
X-3984937Y-8777198D02*
X-3975413Y-8767674D01*
X-3975413Y-8767674D02*
X-3956366Y-8758150D01*
X-3956366Y-8758150D02*
X-3927794Y-8758150D01*
X-3927794Y-8758150D02*
X-3908747Y-8767674D01*
X-3908747Y-8767674D02*
X-3899223Y-8777198D01*
X-3899223Y-8777198D02*
X-3889699Y-8796246D01*
X-3889699Y-8796246D02*
X-3889699Y-8853389D01*
X-3889699Y-8853389D02*
X-3899223Y-8872436D01*
X-3899223Y-8872436D02*
X-3908747Y-8881960D01*
X-3908747Y-8881960D02*
X-3927794Y-8891484D01*
X-3927794Y-8891484D02*
X-3956366Y-8891484D01*
X-3775413Y-8891484D02*
X-3794461Y-8881960D01*
X-3794461Y-8881960D02*
X-3803985Y-8862912D01*
X-3803985Y-8862912D02*
X-3803985Y-8691484D01*
X-3623032Y-8881960D02*
X-3642080Y-8891484D01*
X-3642080Y-8891484D02*
X-3680175Y-8891484D01*
X-3680175Y-8891484D02*
X-3699223Y-8881960D01*
X-3699223Y-8881960D02*
X-3708747Y-8862912D01*
X-3708747Y-8862912D02*
X-3708747Y-8786722D01*
X-3708747Y-8786722D02*
X-3699223Y-8767674D01*
X-3699223Y-8767674D02*
X-3680175Y-8758150D01*
X-3680175Y-8758150D02*
X-3642080Y-8758150D01*
X-3642080Y-8758150D02*
X-3623032Y-8767674D01*
X-3623032Y-8767674D02*
X-3613508Y-8786722D01*
X-3613508Y-8786722D02*
X-3613508Y-8805770D01*
X-3613508Y-8805770D02*
X-3708747Y-8824817D01*
X-3537318Y-8881960D02*
X-3518270Y-8891484D01*
X-3518270Y-8891484D02*
X-3480175Y-8891484D01*
X-3480175Y-8891484D02*
X-3461127Y-8881960D01*
X-3461127Y-8881960D02*
X-3451604Y-8862912D01*
X-3451604Y-8862912D02*
X-3451604Y-8853389D01*
X-3451604Y-8853389D02*
X-3461127Y-8834341D01*
X-3461127Y-8834341D02*
X-3480175Y-8824817D01*
X-3480175Y-8824817D02*
X-3508747Y-8824817D01*
X-3508747Y-8824817D02*
X-3527794Y-8815293D01*
X-3527794Y-8815293D02*
X-3537318Y-8796246D01*
X-3537318Y-8796246D02*
X-3537318Y-8786722D01*
X-3537318Y-8786722D02*
X-3527794Y-8767674D01*
X-3527794Y-8767674D02*
X-3508747Y-8758150D01*
X-3508747Y-8758150D02*
X-3480175Y-8758150D01*
X-3480175Y-8758150D02*
X-3461127Y-8767674D01*
X-3384937Y-8967674D02*
X-3375413Y-8958150D01*
X-3375413Y-8958150D02*
X-3356366Y-8929579D01*
X-3356366Y-8929579D02*
X-3346842Y-8910531D01*
X-3346842Y-8910531D02*
X-3337318Y-8881960D01*
X-3337318Y-8881960D02*
X-3327794Y-8834341D01*
X-3327794Y-8834341D02*
X-3327794Y-8796246D01*
X-3327794Y-8796246D02*
X-3337318Y-8748627D01*
X-3337318Y-8748627D02*
X-3346842Y-8720055D01*
X-3346842Y-8720055D02*
X-3356366Y-8701008D01*
X-3356366Y-8701008D02*
X-3375413Y-8672436D01*
X-3375413Y-8672436D02*
X-3384937Y-8662912D01*
D11*
X-8160000Y-9064000D02*
G75*
G03*
X-8160000Y-9064000I-40000J0D01*
G01*
D10*
X-7861128Y-8955484D02*
X-7842080Y-8955484D01*
X-7842080Y-8955484D02*
X-7823033Y-8965008D01*
X-7823033Y-8965008D02*
X-7813509Y-8974531D01*
X-7813509Y-8974531D02*
X-7803985Y-8993579D01*
X-7803985Y-8993579D02*
X-7794461Y-9031674D01*
X-7794461Y-9031674D02*
X-7794461Y-9079293D01*
X-7794461Y-9079293D02*
X-7803985Y-9117389D01*
X-7803985Y-9117389D02*
X-7813509Y-9136436D01*
X-7813509Y-9136436D02*
X-7823033Y-9145960D01*
X-7823033Y-9145960D02*
X-7842080Y-9155484D01*
X-7842080Y-9155484D02*
X-7861128Y-9155484D01*
X-7861128Y-9155484D02*
X-7880176Y-9145960D01*
X-7880176Y-9145960D02*
X-7889699Y-9136436D01*
X-7889699Y-9136436D02*
X-7899223Y-9117389D01*
X-7899223Y-9117389D02*
X-7908747Y-9079293D01*
X-7908747Y-9079293D02*
X-7908747Y-9031674D01*
X-7908747Y-9031674D02*
X-7899223Y-8993579D01*
X-7899223Y-8993579D02*
X-7889699Y-8974531D01*
X-7889699Y-8974531D02*
X-7880176Y-8965008D01*
X-7880176Y-8965008D02*
X-7861128Y-8955484D01*
X-7708747Y-9136436D02*
X-7699223Y-9145960D01*
X-7699223Y-9145960D02*
X-7708747Y-9155484D01*
X-7708747Y-9155484D02*
X-7718271Y-9145960D01*
X-7718271Y-9145960D02*
X-7708747Y-9136436D01*
X-7708747Y-9136436D02*
X-7708747Y-9155484D01*
X-7584937Y-9041198D02*
X-7603985Y-9031674D01*
X-7603985Y-9031674D02*
X-7613509Y-9022150D01*
X-7613509Y-9022150D02*
X-7623033Y-9003103D01*
X-7623033Y-9003103D02*
X-7623033Y-8993579D01*
X-7623033Y-8993579D02*
X-7613509Y-8974531D01*
X-7613509Y-8974531D02*
X-7603985Y-8965008D01*
X-7603985Y-8965008D02*
X-7584937Y-8955484D01*
X-7584937Y-8955484D02*
X-7546842Y-8955484D01*
X-7546842Y-8955484D02*
X-7527795Y-8965008D01*
X-7527795Y-8965008D02*
X-7518271Y-8974531D01*
X-7518271Y-8974531D02*
X-7508747Y-8993579D01*
X-7508747Y-8993579D02*
X-7508747Y-9003103D01*
X-7508747Y-9003103D02*
X-7518271Y-9022150D01*
X-7518271Y-9022150D02*
X-7527795Y-9031674D01*
X-7527795Y-9031674D02*
X-7546842Y-9041198D01*
X-7546842Y-9041198D02*
X-7584937Y-9041198D01*
X-7584937Y-9041198D02*
X-7603985Y-9050722D01*
X-7603985Y-9050722D02*
X-7613509Y-9060246D01*
X-7613509Y-9060246D02*
X-7623033Y-9079293D01*
X-7623033Y-9079293D02*
X-7623033Y-9117389D01*
X-7623033Y-9117389D02*
X-7613509Y-9136436D01*
X-7613509Y-9136436D02*
X-7603985Y-9145960D01*
X-7603985Y-9145960D02*
X-7584937Y-9155484D01*
X-7584937Y-9155484D02*
X-7546842Y-9155484D01*
X-7546842Y-9155484D02*
X-7527795Y-9145960D01*
X-7527795Y-9145960D02*
X-7518271Y-9136436D01*
X-7518271Y-9136436D02*
X-7508747Y-9117389D01*
X-7508747Y-9117389D02*
X-7508747Y-9079293D01*
X-7508747Y-9079293D02*
X-7518271Y-9060246D01*
X-7518271Y-9060246D02*
X-7527795Y-9050722D01*
X-7527795Y-9050722D02*
X-7546842Y-9041198D01*
X-7384937Y-8955484D02*
X-7365890Y-8955484D01*
X-7365890Y-8955484D02*
X-7346842Y-8965008D01*
X-7346842Y-8965008D02*
X-7337318Y-8974531D01*
X-7337318Y-8974531D02*
X-7327795Y-8993579D01*
X-7327795Y-8993579D02*
X-7318271Y-9031674D01*
X-7318271Y-9031674D02*
X-7318271Y-9079293D01*
X-7318271Y-9079293D02*
X-7327795Y-9117389D01*
X-7327795Y-9117389D02*
X-7337318Y-9136436D01*
X-7337318Y-9136436D02*
X-7346842Y-9145960D01*
X-7346842Y-9145960D02*
X-7365890Y-9155484D01*
X-7365890Y-9155484D02*
X-7384937Y-9155484D01*
X-7384937Y-9155484D02*
X-7403985Y-9145960D01*
X-7403985Y-9145960D02*
X-7413509Y-9136436D01*
X-7413509Y-9136436D02*
X-7423033Y-9117389D01*
X-7423033Y-9117389D02*
X-7432556Y-9079293D01*
X-7432556Y-9079293D02*
X-7432556Y-9031674D01*
X-7432556Y-9031674D02*
X-7423033Y-8993579D01*
X-7423033Y-8993579D02*
X-7413509Y-8974531D01*
X-7413509Y-8974531D02*
X-7403985Y-8965008D01*
X-7403985Y-8965008D02*
X-7384937Y-8955484D01*
X-7194461Y-8955484D02*
X-7175414Y-8955484D01*
X-7175414Y-8955484D02*
X-7156366Y-8965008D01*
X-7156366Y-8965008D02*
X-7146842Y-8974531D01*
X-7146842Y-8974531D02*
X-7137318Y-8993579D01*
X-7137318Y-8993579D02*
X-7127795Y-9031674D01*
X-7127795Y-9031674D02*
X-7127795Y-9079293D01*
X-7127795Y-9079293D02*
X-7137318Y-9117389D01*
X-7137318Y-9117389D02*
X-7146842Y-9136436D01*
X-7146842Y-9136436D02*
X-7156366Y-9145960D01*
X-7156366Y-9145960D02*
X-7175414Y-9155484D01*
X-7175414Y-9155484D02*
X-7194461Y-9155484D01*
X-7194461Y-9155484D02*
X-7213509Y-9145960D01*
X-7213509Y-9145960D02*
X-7223033Y-9136436D01*
X-7223033Y-9136436D02*
X-7232556Y-9117389D01*
X-7232556Y-9117389D02*
X-7242080Y-9079293D01*
X-7242080Y-9079293D02*
X-7242080Y-9031674D01*
X-7242080Y-9031674D02*
X-7232556Y-8993579D01*
X-7232556Y-8993579D02*
X-7223033Y-8974531D01*
X-7223033Y-8974531D02*
X-7213509Y-8965008D01*
X-7213509Y-8965008D02*
X-7194461Y-8955484D01*
X-7042080Y-9155484D02*
X-7042080Y-9022150D01*
X-7042080Y-9041198D02*
X-7032556Y-9031674D01*
X-7032556Y-9031674D02*
X-7013509Y-9022150D01*
X-7013509Y-9022150D02*
X-6984937Y-9022150D01*
X-6984937Y-9022150D02*
X-6965890Y-9031674D01*
X-6965890Y-9031674D02*
X-6956366Y-9050722D01*
X-6956366Y-9050722D02*
X-6956366Y-9155484D01*
X-6956366Y-9050722D02*
X-6946842Y-9031674D01*
X-6946842Y-9031674D02*
X-6927795Y-9022150D01*
X-6927795Y-9022150D02*
X-6899223Y-9022150D01*
X-6899223Y-9022150D02*
X-6880175Y-9031674D01*
X-6880175Y-9031674D02*
X-6870652Y-9050722D01*
X-6870652Y-9050722D02*
X-6870652Y-9155484D01*
X-6775414Y-9155484D02*
X-6775414Y-9022150D01*
X-6775414Y-9041198D02*
X-6765890Y-9031674D01*
X-6765890Y-9031674D02*
X-6746842Y-9022150D01*
X-6746842Y-9022150D02*
X-6718271Y-9022150D01*
X-6718271Y-9022150D02*
X-6699223Y-9031674D01*
X-6699223Y-9031674D02*
X-6689699Y-9050722D01*
X-6689699Y-9050722D02*
X-6689699Y-9155484D01*
X-6689699Y-9050722D02*
X-6680175Y-9031674D01*
X-6680175Y-9031674D02*
X-6661128Y-9022150D01*
X-6661128Y-9022150D02*
X-6632556Y-9022150D01*
X-6632556Y-9022150D02*
X-6613509Y-9031674D01*
X-6613509Y-9031674D02*
X-6603985Y-9050722D01*
X-6603985Y-9050722D02*
X-6603985Y-9155484D01*
X-6213509Y-8945960D02*
X-6384937Y-9203103D01*
X-5956366Y-8955484D02*
X-5937318Y-8955484D01*
X-5937318Y-8955484D02*
X-5918271Y-8965008D01*
X-5918271Y-8965008D02*
X-5908747Y-8974531D01*
X-5908747Y-8974531D02*
X-5899223Y-8993579D01*
X-5899223Y-8993579D02*
X-5889699Y-9031674D01*
X-5889699Y-9031674D02*
X-5889699Y-9079293D01*
X-5889699Y-9079293D02*
X-5899223Y-9117389D01*
X-5899223Y-9117389D02*
X-5908747Y-9136436D01*
X-5908747Y-9136436D02*
X-5918271Y-9145960D01*
X-5918271Y-9145960D02*
X-5937318Y-9155484D01*
X-5937318Y-9155484D02*
X-5956366Y-9155484D01*
X-5956366Y-9155484D02*
X-5975413Y-9145960D01*
X-5975413Y-9145960D02*
X-5984937Y-9136436D01*
X-5984937Y-9136436D02*
X-5994461Y-9117389D01*
X-5994461Y-9117389D02*
X-6003985Y-9079293D01*
X-6003985Y-9079293D02*
X-6003985Y-9031674D01*
X-6003985Y-9031674D02*
X-5994461Y-8993579D01*
X-5994461Y-8993579D02*
X-5984937Y-8974531D01*
X-5984937Y-8974531D02*
X-5975413Y-8965008D01*
X-5975413Y-8965008D02*
X-5956366Y-8955484D01*
X-5803985Y-9136436D02*
X-5794461Y-9145960D01*
X-5794461Y-9145960D02*
X-5803985Y-9155484D01*
X-5803985Y-9155484D02*
X-5813509Y-9145960D01*
X-5813509Y-9145960D02*
X-5803985Y-9136436D01*
X-5803985Y-9136436D02*
X-5803985Y-9155484D01*
X-5670652Y-8955484D02*
X-5651604Y-8955484D01*
X-5651604Y-8955484D02*
X-5632556Y-8965008D01*
X-5632556Y-8965008D02*
X-5623032Y-8974531D01*
X-5623032Y-8974531D02*
X-5613509Y-8993579D01*
X-5613509Y-8993579D02*
X-5603985Y-9031674D01*
X-5603985Y-9031674D02*
X-5603985Y-9079293D01*
X-5603985Y-9079293D02*
X-5613509Y-9117389D01*
X-5613509Y-9117389D02*
X-5623032Y-9136436D01*
X-5623032Y-9136436D02*
X-5632556Y-9145960D01*
X-5632556Y-9145960D02*
X-5651604Y-9155484D01*
X-5651604Y-9155484D02*
X-5670652Y-9155484D01*
X-5670652Y-9155484D02*
X-5689699Y-9145960D01*
X-5689699Y-9145960D02*
X-5699223Y-9136436D01*
X-5699223Y-9136436D02*
X-5708747Y-9117389D01*
X-5708747Y-9117389D02*
X-5718271Y-9079293D01*
X-5718271Y-9079293D02*
X-5718271Y-9031674D01*
X-5718271Y-9031674D02*
X-5708747Y-8993579D01*
X-5708747Y-8993579D02*
X-5699223Y-8974531D01*
X-5699223Y-8974531D02*
X-5689699Y-8965008D01*
X-5689699Y-8965008D02*
X-5670652Y-8955484D01*
X-5537318Y-8955484D02*
X-5413509Y-8955484D01*
X-5413509Y-8955484D02*
X-5480175Y-9031674D01*
X-5480175Y-9031674D02*
X-5451604Y-9031674D01*
X-5451604Y-9031674D02*
X-5432556Y-9041198D01*
X-5432556Y-9041198D02*
X-5423033Y-9050722D01*
X-5423033Y-9050722D02*
X-5413509Y-9069770D01*
X-5413509Y-9069770D02*
X-5413509Y-9117389D01*
X-5413509Y-9117389D02*
X-5423033Y-9136436D01*
X-5423033Y-9136436D02*
X-5432556Y-9145960D01*
X-5432556Y-9145960D02*
X-5451604Y-9155484D01*
X-5451604Y-9155484D02*
X-5508747Y-9155484D01*
X-5508747Y-9155484D02*
X-5527794Y-9145960D01*
X-5527794Y-9145960D02*
X-5537318Y-9136436D01*
X-5223033Y-9155484D02*
X-5337318Y-9155484D01*
X-5280175Y-9155484D02*
X-5280175Y-8955484D01*
X-5280175Y-8955484D02*
X-5299223Y-8984055D01*
X-5299223Y-8984055D02*
X-5318271Y-9003103D01*
X-5318271Y-9003103D02*
X-5337318Y-9012627D01*
X-5042080Y-8955484D02*
X-5137318Y-8955484D01*
X-5137318Y-8955484D02*
X-5146842Y-9050722D01*
X-5146842Y-9050722D02*
X-5137318Y-9041198D01*
X-5137318Y-9041198D02*
X-5118271Y-9031674D01*
X-5118271Y-9031674D02*
X-5070652Y-9031674D01*
X-5070652Y-9031674D02*
X-5051604Y-9041198D01*
X-5051604Y-9041198D02*
X-5042080Y-9050722D01*
X-5042080Y-9050722D02*
X-5032556Y-9069770D01*
X-5032556Y-9069770D02*
X-5032556Y-9117389D01*
X-5032556Y-9117389D02*
X-5042080Y-9136436D01*
X-5042080Y-9136436D02*
X-5051604Y-9145960D01*
X-5051604Y-9145960D02*
X-5070652Y-9155484D01*
X-5070652Y-9155484D02*
X-5118271Y-9155484D01*
X-5118271Y-9155484D02*
X-5137318Y-9145960D01*
X-5137318Y-9145960D02*
X-5146842Y-9136436D01*
X-4956366Y-8955484D02*
X-4956366Y-8993579D01*
X-4880175Y-8955484D02*
X-4880175Y-8993579D01*
X-4584937Y-9231674D02*
X-4594461Y-9222150D01*
X-4594461Y-9222150D02*
X-4613509Y-9193579D01*
X-4613509Y-9193579D02*
X-4623032Y-9174531D01*
X-4623032Y-9174531D02*
X-4632556Y-9145960D01*
X-4632556Y-9145960D02*
X-4642080Y-9098341D01*
X-4642080Y-9098341D02*
X-4642080Y-9060246D01*
X-4642080Y-9060246D02*
X-4632556Y-9012627D01*
X-4632556Y-9012627D02*
X-4623032Y-8984055D01*
X-4623032Y-8984055D02*
X-4613509Y-8965008D01*
X-4613509Y-8965008D02*
X-4594461Y-8936436D01*
X-4594461Y-8936436D02*
X-4584937Y-8926912D01*
X-4518271Y-8974531D02*
X-4508747Y-8965008D01*
X-4508747Y-8965008D02*
X-4489699Y-8955484D01*
X-4489699Y-8955484D02*
X-4442080Y-8955484D01*
X-4442080Y-8955484D02*
X-4423032Y-8965008D01*
X-4423032Y-8965008D02*
X-4413509Y-8974531D01*
X-4413509Y-8974531D02*
X-4403985Y-8993579D01*
X-4403985Y-8993579D02*
X-4403985Y-9012627D01*
X-4403985Y-9012627D02*
X-4413509Y-9041198D01*
X-4413509Y-9041198D02*
X-4527794Y-9155484D01*
X-4527794Y-9155484D02*
X-4403985Y-9155484D01*
X-4165889Y-9155484D02*
X-4165889Y-8955484D01*
X-4080175Y-9155484D02*
X-4080175Y-9050722D01*
X-4080175Y-9050722D02*
X-4089699Y-9031674D01*
X-4089699Y-9031674D02*
X-4108747Y-9022150D01*
X-4108747Y-9022150D02*
X-4137318Y-9022150D01*
X-4137318Y-9022150D02*
X-4156366Y-9031674D01*
X-4156366Y-9031674D02*
X-4165889Y-9041198D01*
X-3956366Y-9155484D02*
X-3975413Y-9145960D01*
X-3975413Y-9145960D02*
X-3984937Y-9136436D01*
X-3984937Y-9136436D02*
X-3994461Y-9117389D01*
X-3994461Y-9117389D02*
X-3994461Y-9060246D01*
X-3994461Y-9060246D02*
X-3984937Y-9041198D01*
X-3984937Y-9041198D02*
X-3975413Y-9031674D01*
X-3975413Y-9031674D02*
X-3956366Y-9022150D01*
X-3956366Y-9022150D02*
X-3927794Y-9022150D01*
X-3927794Y-9022150D02*
X-3908747Y-9031674D01*
X-3908747Y-9031674D02*
X-3899223Y-9041198D01*
X-3899223Y-9041198D02*
X-3889699Y-9060246D01*
X-3889699Y-9060246D02*
X-3889699Y-9117389D01*
X-3889699Y-9117389D02*
X-3899223Y-9136436D01*
X-3899223Y-9136436D02*
X-3908747Y-9145960D01*
X-3908747Y-9145960D02*
X-3927794Y-9155484D01*
X-3927794Y-9155484D02*
X-3956366Y-9155484D01*
X-3775413Y-9155484D02*
X-3794461Y-9145960D01*
X-3794461Y-9145960D02*
X-3803985Y-9126912D01*
X-3803985Y-9126912D02*
X-3803985Y-8955484D01*
X-3623032Y-9145960D02*
X-3642080Y-9155484D01*
X-3642080Y-9155484D02*
X-3680175Y-9155484D01*
X-3680175Y-9155484D02*
X-3699223Y-9145960D01*
X-3699223Y-9145960D02*
X-3708747Y-9126912D01*
X-3708747Y-9126912D02*
X-3708747Y-9050722D01*
X-3708747Y-9050722D02*
X-3699223Y-9031674D01*
X-3699223Y-9031674D02*
X-3680175Y-9022150D01*
X-3680175Y-9022150D02*
X-3642080Y-9022150D01*
X-3642080Y-9022150D02*
X-3623032Y-9031674D01*
X-3623032Y-9031674D02*
X-3613508Y-9050722D01*
X-3613508Y-9050722D02*
X-3613508Y-9069770D01*
X-3613508Y-9069770D02*
X-3708747Y-9088817D01*
X-3537318Y-9145960D02*
X-3518270Y-9155484D01*
X-3518270Y-9155484D02*
X-3480175Y-9155484D01*
X-3480175Y-9155484D02*
X-3461127Y-9145960D01*
X-3461127Y-9145960D02*
X-3451604Y-9126912D01*
X-3451604Y-9126912D02*
X-3451604Y-9117389D01*
X-3451604Y-9117389D02*
X-3461127Y-9098341D01*
X-3461127Y-9098341D02*
X-3480175Y-9088817D01*
X-3480175Y-9088817D02*
X-3508747Y-9088817D01*
X-3508747Y-9088817D02*
X-3527794Y-9079293D01*
X-3527794Y-9079293D02*
X-3537318Y-9060246D01*
X-3537318Y-9060246D02*
X-3537318Y-9050722D01*
X-3537318Y-9050722D02*
X-3527794Y-9031674D01*
X-3527794Y-9031674D02*
X-3508747Y-9022150D01*
X-3508747Y-9022150D02*
X-3480175Y-9022150D01*
X-3480175Y-9022150D02*
X-3461127Y-9031674D01*
X-3384937Y-9231674D02*
X-3375413Y-9222150D01*
X-3375413Y-9222150D02*
X-3356366Y-9193579D01*
X-3356366Y-9193579D02*
X-3346842Y-9174531D01*
X-3346842Y-9174531D02*
X-3337318Y-9145960D01*
X-3337318Y-9145960D02*
X-3327794Y-9098341D01*
X-3327794Y-9098341D02*
X-3327794Y-9060246D01*
X-3327794Y-9060246D02*
X-3337318Y-9012627D01*
X-3337318Y-9012627D02*
X-3346842Y-8984055D01*
X-3346842Y-8984055D02*
X-3356366Y-8965008D01*
X-3356366Y-8965008D02*
X-3375413Y-8936436D01*
X-3375413Y-8936436D02*
X-3384937Y-8926912D01*
D12*
X-8211000Y-9277000D02*
X-8211000Y-9379000D01*
X-8262000Y-9328000D02*
X-8160000Y-9328000D01*
D10*
X-7794461Y-9419484D02*
X-7908747Y-9419484D01*
X-7851604Y-9419484D02*
X-7851604Y-9219484D01*
X-7851604Y-9219484D02*
X-7870652Y-9248055D01*
X-7870652Y-9248055D02*
X-7889699Y-9267103D01*
X-7889699Y-9267103D02*
X-7908747Y-9276627D01*
X-7708747Y-9400436D02*
X-7699223Y-9409960D01*
X-7699223Y-9409960D02*
X-7708747Y-9419484D01*
X-7708747Y-9419484D02*
X-7718271Y-9409960D01*
X-7718271Y-9409960D02*
X-7708747Y-9400436D01*
X-7708747Y-9400436D02*
X-7708747Y-9419484D01*
X-7575414Y-9219484D02*
X-7556366Y-9219484D01*
X-7556366Y-9219484D02*
X-7537318Y-9229008D01*
X-7537318Y-9229008D02*
X-7527795Y-9238531D01*
X-7527795Y-9238531D02*
X-7518271Y-9257579D01*
X-7518271Y-9257579D02*
X-7508747Y-9295674D01*
X-7508747Y-9295674D02*
X-7508747Y-9343293D01*
X-7508747Y-9343293D02*
X-7518271Y-9381389D01*
X-7518271Y-9381389D02*
X-7527795Y-9400436D01*
X-7527795Y-9400436D02*
X-7537318Y-9409960D01*
X-7537318Y-9409960D02*
X-7556366Y-9419484D01*
X-7556366Y-9419484D02*
X-7575414Y-9419484D01*
X-7575414Y-9419484D02*
X-7594461Y-9409960D01*
X-7594461Y-9409960D02*
X-7603985Y-9400436D01*
X-7603985Y-9400436D02*
X-7613509Y-9381389D01*
X-7613509Y-9381389D02*
X-7623033Y-9343293D01*
X-7623033Y-9343293D02*
X-7623033Y-9295674D01*
X-7623033Y-9295674D02*
X-7613509Y-9257579D01*
X-7613509Y-9257579D02*
X-7603985Y-9238531D01*
X-7603985Y-9238531D02*
X-7594461Y-9229008D01*
X-7594461Y-9229008D02*
X-7575414Y-9219484D01*
X-7432556Y-9238531D02*
X-7423033Y-9229008D01*
X-7423033Y-9229008D02*
X-7403985Y-9219484D01*
X-7403985Y-9219484D02*
X-7356366Y-9219484D01*
X-7356366Y-9219484D02*
X-7337318Y-9229008D01*
X-7337318Y-9229008D02*
X-7327795Y-9238531D01*
X-7327795Y-9238531D02*
X-7318271Y-9257579D01*
X-7318271Y-9257579D02*
X-7318271Y-9276627D01*
X-7318271Y-9276627D02*
X-7327795Y-9305198D01*
X-7327795Y-9305198D02*
X-7442080Y-9419484D01*
X-7442080Y-9419484D02*
X-7318271Y-9419484D01*
X-7194461Y-9219484D02*
X-7175414Y-9219484D01*
X-7175414Y-9219484D02*
X-7156366Y-9229008D01*
X-7156366Y-9229008D02*
X-7146842Y-9238531D01*
X-7146842Y-9238531D02*
X-7137318Y-9257579D01*
X-7137318Y-9257579D02*
X-7127795Y-9295674D01*
X-7127795Y-9295674D02*
X-7127795Y-9343293D01*
X-7127795Y-9343293D02*
X-7137318Y-9381389D01*
X-7137318Y-9381389D02*
X-7146842Y-9400436D01*
X-7146842Y-9400436D02*
X-7156366Y-9409960D01*
X-7156366Y-9409960D02*
X-7175414Y-9419484D01*
X-7175414Y-9419484D02*
X-7194461Y-9419484D01*
X-7194461Y-9419484D02*
X-7213509Y-9409960D01*
X-7213509Y-9409960D02*
X-7223033Y-9400436D01*
X-7223033Y-9400436D02*
X-7232556Y-9381389D01*
X-7232556Y-9381389D02*
X-7242080Y-9343293D01*
X-7242080Y-9343293D02*
X-7242080Y-9295674D01*
X-7242080Y-9295674D02*
X-7232556Y-9257579D01*
X-7232556Y-9257579D02*
X-7223033Y-9238531D01*
X-7223033Y-9238531D02*
X-7213509Y-9229008D01*
X-7213509Y-9229008D02*
X-7194461Y-9219484D01*
X-7042080Y-9419484D02*
X-7042080Y-9286150D01*
X-7042080Y-9305198D02*
X-7032556Y-9295674D01*
X-7032556Y-9295674D02*
X-7013509Y-9286150D01*
X-7013509Y-9286150D02*
X-6984937Y-9286150D01*
X-6984937Y-9286150D02*
X-6965890Y-9295674D01*
X-6965890Y-9295674D02*
X-6956366Y-9314722D01*
X-6956366Y-9314722D02*
X-6956366Y-9419484D01*
X-6956366Y-9314722D02*
X-6946842Y-9295674D01*
X-6946842Y-9295674D02*
X-6927795Y-9286150D01*
X-6927795Y-9286150D02*
X-6899223Y-9286150D01*
X-6899223Y-9286150D02*
X-6880175Y-9295674D01*
X-6880175Y-9295674D02*
X-6870652Y-9314722D01*
X-6870652Y-9314722D02*
X-6870652Y-9419484D01*
X-6775414Y-9419484D02*
X-6775414Y-9286150D01*
X-6775414Y-9305198D02*
X-6765890Y-9295674D01*
X-6765890Y-9295674D02*
X-6746842Y-9286150D01*
X-6746842Y-9286150D02*
X-6718271Y-9286150D01*
X-6718271Y-9286150D02*
X-6699223Y-9295674D01*
X-6699223Y-9295674D02*
X-6689699Y-9314722D01*
X-6689699Y-9314722D02*
X-6689699Y-9419484D01*
X-6689699Y-9314722D02*
X-6680175Y-9295674D01*
X-6680175Y-9295674D02*
X-6661128Y-9286150D01*
X-6661128Y-9286150D02*
X-6632556Y-9286150D01*
X-6632556Y-9286150D02*
X-6613509Y-9295674D01*
X-6613509Y-9295674D02*
X-6603985Y-9314722D01*
X-6603985Y-9314722D02*
X-6603985Y-9419484D01*
X-6213509Y-9209960D02*
X-6384937Y-9467103D01*
X-5956366Y-9219484D02*
X-5937318Y-9219484D01*
X-5937318Y-9219484D02*
X-5918271Y-9229008D01*
X-5918271Y-9229008D02*
X-5908747Y-9238531D01*
X-5908747Y-9238531D02*
X-5899223Y-9257579D01*
X-5899223Y-9257579D02*
X-5889699Y-9295674D01*
X-5889699Y-9295674D02*
X-5889699Y-9343293D01*
X-5889699Y-9343293D02*
X-5899223Y-9381389D01*
X-5899223Y-9381389D02*
X-5908747Y-9400436D01*
X-5908747Y-9400436D02*
X-5918271Y-9409960D01*
X-5918271Y-9409960D02*
X-5937318Y-9419484D01*
X-5937318Y-9419484D02*
X-5956366Y-9419484D01*
X-5956366Y-9419484D02*
X-5975413Y-9409960D01*
X-5975413Y-9409960D02*
X-5984937Y-9400436D01*
X-5984937Y-9400436D02*
X-5994461Y-9381389D01*
X-5994461Y-9381389D02*
X-6003985Y-9343293D01*
X-6003985Y-9343293D02*
X-6003985Y-9295674D01*
X-6003985Y-9295674D02*
X-5994461Y-9257579D01*
X-5994461Y-9257579D02*
X-5984937Y-9238531D01*
X-5984937Y-9238531D02*
X-5975413Y-9229008D01*
X-5975413Y-9229008D02*
X-5956366Y-9219484D01*
X-5803985Y-9400436D02*
X-5794461Y-9409960D01*
X-5794461Y-9409960D02*
X-5803985Y-9419484D01*
X-5803985Y-9419484D02*
X-5813509Y-9409960D01*
X-5813509Y-9409960D02*
X-5803985Y-9400436D01*
X-5803985Y-9400436D02*
X-5803985Y-9419484D01*
X-5670652Y-9219484D02*
X-5651604Y-9219484D01*
X-5651604Y-9219484D02*
X-5632556Y-9229008D01*
X-5632556Y-9229008D02*
X-5623032Y-9238531D01*
X-5623032Y-9238531D02*
X-5613509Y-9257579D01*
X-5613509Y-9257579D02*
X-5603985Y-9295674D01*
X-5603985Y-9295674D02*
X-5603985Y-9343293D01*
X-5603985Y-9343293D02*
X-5613509Y-9381389D01*
X-5613509Y-9381389D02*
X-5623032Y-9400436D01*
X-5623032Y-9400436D02*
X-5632556Y-9409960D01*
X-5632556Y-9409960D02*
X-5651604Y-9419484D01*
X-5651604Y-9419484D02*
X-5670652Y-9419484D01*
X-5670652Y-9419484D02*
X-5689699Y-9409960D01*
X-5689699Y-9409960D02*
X-5699223Y-9400436D01*
X-5699223Y-9400436D02*
X-5708747Y-9381389D01*
X-5708747Y-9381389D02*
X-5718271Y-9343293D01*
X-5718271Y-9343293D02*
X-5718271Y-9295674D01*
X-5718271Y-9295674D02*
X-5708747Y-9257579D01*
X-5708747Y-9257579D02*
X-5699223Y-9238531D01*
X-5699223Y-9238531D02*
X-5689699Y-9229008D01*
X-5689699Y-9229008D02*
X-5670652Y-9219484D01*
X-5432556Y-9286150D02*
X-5432556Y-9419484D01*
X-5480175Y-9209960D02*
X-5527794Y-9352817D01*
X-5527794Y-9352817D02*
X-5403985Y-9352817D01*
X-5289699Y-9219484D02*
X-5270652Y-9219484D01*
X-5270652Y-9219484D02*
X-5251604Y-9229008D01*
X-5251604Y-9229008D02*
X-5242080Y-9238531D01*
X-5242080Y-9238531D02*
X-5232556Y-9257579D01*
X-5232556Y-9257579D02*
X-5223033Y-9295674D01*
X-5223033Y-9295674D02*
X-5223033Y-9343293D01*
X-5223033Y-9343293D02*
X-5232556Y-9381389D01*
X-5232556Y-9381389D02*
X-5242080Y-9400436D01*
X-5242080Y-9400436D02*
X-5251604Y-9409960D01*
X-5251604Y-9409960D02*
X-5270652Y-9419484D01*
X-5270652Y-9419484D02*
X-5289699Y-9419484D01*
X-5289699Y-9419484D02*
X-5308747Y-9409960D01*
X-5308747Y-9409960D02*
X-5318271Y-9400436D01*
X-5318271Y-9400436D02*
X-5327794Y-9381389D01*
X-5327794Y-9381389D02*
X-5337318Y-9343293D01*
X-5337318Y-9343293D02*
X-5337318Y-9295674D01*
X-5337318Y-9295674D02*
X-5327794Y-9257579D01*
X-5327794Y-9257579D02*
X-5318271Y-9238531D01*
X-5318271Y-9238531D02*
X-5308747Y-9229008D01*
X-5308747Y-9229008D02*
X-5289699Y-9219484D01*
X-5146842Y-9238531D02*
X-5137318Y-9229008D01*
X-5137318Y-9229008D02*
X-5118271Y-9219484D01*
X-5118271Y-9219484D02*
X-5070652Y-9219484D01*
X-5070652Y-9219484D02*
X-5051604Y-9229008D01*
X-5051604Y-9229008D02*
X-5042080Y-9238531D01*
X-5042080Y-9238531D02*
X-5032556Y-9257579D01*
X-5032556Y-9257579D02*
X-5032556Y-9276627D01*
X-5032556Y-9276627D02*
X-5042080Y-9305198D01*
X-5042080Y-9305198D02*
X-5156366Y-9419484D01*
X-5156366Y-9419484D02*
X-5032556Y-9419484D01*
X-4956366Y-9219484D02*
X-4956366Y-9257579D01*
X-4880175Y-9219484D02*
X-4880175Y-9257579D01*
X-4584937Y-9495674D02*
X-4594461Y-9486150D01*
X-4594461Y-9486150D02*
X-4613509Y-9457579D01*
X-4613509Y-9457579D02*
X-4623032Y-9438531D01*
X-4623032Y-9438531D02*
X-4632556Y-9409960D01*
X-4632556Y-9409960D02*
X-4642080Y-9362341D01*
X-4642080Y-9362341D02*
X-4642080Y-9324246D01*
X-4642080Y-9324246D02*
X-4632556Y-9276627D01*
X-4632556Y-9276627D02*
X-4623032Y-9248055D01*
X-4623032Y-9248055D02*
X-4613509Y-9229008D01*
X-4613509Y-9229008D02*
X-4594461Y-9200436D01*
X-4594461Y-9200436D02*
X-4584937Y-9190912D01*
X-4499223Y-9419484D02*
X-4461128Y-9419484D01*
X-4461128Y-9419484D02*
X-4442080Y-9409960D01*
X-4442080Y-9409960D02*
X-4432556Y-9400436D01*
X-4432556Y-9400436D02*
X-4413509Y-9371865D01*
X-4413509Y-9371865D02*
X-4403985Y-9333770D01*
X-4403985Y-9333770D02*
X-4403985Y-9257579D01*
X-4403985Y-9257579D02*
X-4413509Y-9238531D01*
X-4413509Y-9238531D02*
X-4423032Y-9229008D01*
X-4423032Y-9229008D02*
X-4442080Y-9219484D01*
X-4442080Y-9219484D02*
X-4480175Y-9219484D01*
X-4480175Y-9219484D02*
X-4499223Y-9229008D01*
X-4499223Y-9229008D02*
X-4508747Y-9238531D01*
X-4508747Y-9238531D02*
X-4518271Y-9257579D01*
X-4518271Y-9257579D02*
X-4518271Y-9305198D01*
X-4518271Y-9305198D02*
X-4508747Y-9324246D01*
X-4508747Y-9324246D02*
X-4499223Y-9333770D01*
X-4499223Y-9333770D02*
X-4480175Y-9343293D01*
X-4480175Y-9343293D02*
X-4442080Y-9343293D01*
X-4442080Y-9343293D02*
X-4423032Y-9333770D01*
X-4423032Y-9333770D02*
X-4413509Y-9324246D01*
X-4413509Y-9324246D02*
X-4403985Y-9305198D01*
X-4327794Y-9238531D02*
X-4318271Y-9229008D01*
X-4318271Y-9229008D02*
X-4299223Y-9219484D01*
X-4299223Y-9219484D02*
X-4251604Y-9219484D01*
X-4251604Y-9219484D02*
X-4232556Y-9229008D01*
X-4232556Y-9229008D02*
X-4223032Y-9238531D01*
X-4223032Y-9238531D02*
X-4213509Y-9257579D01*
X-4213509Y-9257579D02*
X-4213509Y-9276627D01*
X-4213509Y-9276627D02*
X-4223032Y-9305198D01*
X-4223032Y-9305198D02*
X-4337318Y-9419484D01*
X-4337318Y-9419484D02*
X-4213509Y-9419484D01*
X-3975413Y-9419484D02*
X-3975413Y-9219484D01*
X-3889699Y-9419484D02*
X-3889699Y-9314722D01*
X-3889699Y-9314722D02*
X-3899223Y-9295674D01*
X-3899223Y-9295674D02*
X-3918270Y-9286150D01*
X-3918270Y-9286150D02*
X-3946842Y-9286150D01*
X-3946842Y-9286150D02*
X-3965889Y-9295674D01*
X-3965889Y-9295674D02*
X-3975413Y-9305198D01*
X-3765889Y-9419484D02*
X-3784937Y-9409960D01*
X-3784937Y-9409960D02*
X-3794461Y-9400436D01*
X-3794461Y-9400436D02*
X-3803985Y-9381389D01*
X-3803985Y-9381389D02*
X-3803985Y-9324246D01*
X-3803985Y-9324246D02*
X-3794461Y-9305198D01*
X-3794461Y-9305198D02*
X-3784937Y-9295674D01*
X-3784937Y-9295674D02*
X-3765889Y-9286150D01*
X-3765889Y-9286150D02*
X-3737318Y-9286150D01*
X-3737318Y-9286150D02*
X-3718270Y-9295674D01*
X-3718270Y-9295674D02*
X-3708747Y-9305198D01*
X-3708747Y-9305198D02*
X-3699223Y-9324246D01*
X-3699223Y-9324246D02*
X-3699223Y-9381389D01*
X-3699223Y-9381389D02*
X-3708747Y-9400436D01*
X-3708747Y-9400436D02*
X-3718270Y-9409960D01*
X-3718270Y-9409960D02*
X-3737318Y-9419484D01*
X-3737318Y-9419484D02*
X-3765889Y-9419484D01*
X-3584937Y-9419484D02*
X-3603985Y-9409960D01*
X-3603985Y-9409960D02*
X-3613508Y-9390912D01*
X-3613508Y-9390912D02*
X-3613508Y-9219484D01*
X-3432556Y-9409960D02*
X-3451604Y-9419484D01*
X-3451604Y-9419484D02*
X-3489699Y-9419484D01*
X-3489699Y-9419484D02*
X-3508747Y-9409960D01*
X-3508747Y-9409960D02*
X-3518270Y-9390912D01*
X-3518270Y-9390912D02*
X-3518270Y-9314722D01*
X-3518270Y-9314722D02*
X-3508747Y-9295674D01*
X-3508747Y-9295674D02*
X-3489699Y-9286150D01*
X-3489699Y-9286150D02*
X-3451604Y-9286150D01*
X-3451604Y-9286150D02*
X-3432556Y-9295674D01*
X-3432556Y-9295674D02*
X-3423032Y-9314722D01*
X-3423032Y-9314722D02*
X-3423032Y-9333770D01*
X-3423032Y-9333770D02*
X-3518270Y-9352817D01*
X-3346842Y-9409960D02*
X-3327794Y-9419484D01*
X-3327794Y-9419484D02*
X-3289699Y-9419484D01*
X-3289699Y-9419484D02*
X-3270651Y-9409960D01*
X-3270651Y-9409960D02*
X-3261127Y-9390912D01*
X-3261127Y-9390912D02*
X-3261127Y-9381389D01*
X-3261127Y-9381389D02*
X-3270651Y-9362341D01*
X-3270651Y-9362341D02*
X-3289699Y-9352817D01*
X-3289699Y-9352817D02*
X-3318270Y-9352817D01*
X-3318270Y-9352817D02*
X-3337318Y-9343293D01*
X-3337318Y-9343293D02*
X-3346842Y-9324246D01*
X-3346842Y-9324246D02*
X-3346842Y-9314722D01*
X-3346842Y-9314722D02*
X-3337318Y-9295674D01*
X-3337318Y-9295674D02*
X-3318270Y-9286150D01*
X-3318270Y-9286150D02*
X-3289699Y-9286150D01*
X-3289699Y-9286150D02*
X-3270651Y-9295674D01*
X-3194461Y-9495674D02*
X-3184937Y-9486150D01*
X-3184937Y-9486150D02*
X-3165889Y-9457579D01*
X-3165889Y-9457579D02*
X-3156366Y-9438531D01*
X-3156366Y-9438531D02*
X-3146842Y-9409960D01*
X-3146842Y-9409960D02*
X-3137318Y-9362341D01*
X-3137318Y-9362341D02*
X-3137318Y-9324246D01*
X-3137318Y-9324246D02*
X-3146842Y-9276627D01*
X-3146842Y-9276627D02*
X-3156366Y-9248055D01*
X-3156366Y-9248055D02*
X-3165889Y-9229008D01*
X-3165889Y-9229008D02*
X-3184937Y-9200436D01*
X-3184937Y-9200436D02*
X-3194461Y-9190912D01*
M02*
