%TF.GenerationSoftware,KiCad,Pcbnew,7.0.9-rc1*%
%TF.CreationDate,2023-11-05T19:21:47+02:00*%
%TF.ProjectId,projectA,70726f6a-6563-4744-912e-6b696361645f,rev?*%
%TF.SameCoordinates,PX5e5c173PY6474d3b*%
%TF.FileFunction,Legend,Top*%
%TF.FilePolarity,Positive*%
%FSLAX46Y46*%
G04 Gerber Fmt 4.6, Leading zero omitted, Abs format (unit mm)*
G04 Created by KiCad (PCBNEW 7.0.9-rc1) date 2023-11-05 19:21:47*
%MOMM*%
%LPD*%
G01*
G04 APERTURE LIST*
%ADD10C,0.100000*%
%ADD11C,0.120000*%
%ADD12C,0.150000*%
G04 APERTURE END LIST*
D10*
%TO.C,U11*%
X-10023287Y-61172952D02*
X-10023287Y-40911102D01*
X-25583406Y-61172952D02*
X-10023287Y-61172952D01*
X-25583406Y-40911102D02*
X-10023287Y-40911102D01*
X-25583406Y-40911102D02*
X-25583406Y-61172952D01*
D11*
%TO.C,R4*%
X-34898292Y45977673D02*
X-35270292Y45717196D01*
X-35741450Y47181826D02*
X-36113450Y46921349D01*
D10*
%TO.C,U1*%
X60666653Y49916123D02*
X37466653Y49916123D01*
X37466653Y49916123D02*
X37466653Y20516123D01*
X60666653Y20516123D02*
X60666653Y49916123D01*
X37466653Y20516123D02*
X60666653Y20516123D01*
D11*
%TO.C,C3*%
X-7126586Y74187555D02*
X-7341677Y74494737D01*
X-7387723Y74233600D02*
X-7080541Y74448691D01*
X-7280810Y75061602D02*
X-8255720Y75233505D01*
X-5544208Y76277584D02*
X-5372305Y77252494D01*
X-8255720Y75233505D02*
X-9764549Y77388336D01*
X-5372305Y77252494D02*
X-6881134Y79407325D01*
X-9764549Y77388336D02*
X-9191143Y77789840D01*
X-6881134Y79407325D02*
X-7454540Y79005822D01*
%TO.C,C2*%
X-56531915Y33549362D02*
X-56224733Y33764453D01*
X-56485870Y33810499D02*
X-56270779Y33503317D01*
X-55657868Y33703586D02*
X-55485965Y34678496D01*
X-54441886Y31966984D02*
X-53466976Y31795081D01*
X-55485965Y34678496D02*
X-53331134Y36187325D01*
X-53466976Y31795081D02*
X-51312145Y33303910D01*
X-53331134Y36187325D02*
X-52929630Y35613919D01*
X-51312145Y33303910D02*
X-51713648Y33877316D01*
D10*
%TO.C,U3*%
X-42676507Y52506911D02*
X-44472558Y54302962D01*
X-44472558Y54302962D02*
X-55574135Y43201386D01*
X-53778084Y41405335D02*
X-42676507Y52506911D01*
X-55574135Y43201386D02*
X-53778084Y41405335D01*
D11*
%TO.C,C5*%
X-33857453Y-32836922D02*
X-34098498Y-33124188D01*
X-33834342Y-33101078D02*
X-34121609Y-32860032D01*
X-34661801Y-33212111D02*
X-34575522Y-34198293D01*
X-36285816Y-31849401D02*
X-37271998Y-31935681D01*
X-34575522Y-34198293D02*
X-36266415Y-36213421D01*
X-37271998Y-31935681D02*
X-38962891Y-33950809D01*
X-36266415Y-36213421D02*
X-36802646Y-35763470D01*
X-38962891Y-33950809D02*
X-38426660Y-34400760D01*
%TO.C,C12*%
X-3677763Y72313894D02*
X-4105773Y72014198D01*
X-4520921Y73518048D02*
X-4948931Y73218352D01*
%TO.C,D8*%
X-20094828Y33046085D02*
X-22294252Y31506033D01*
X-21192985Y29933261D02*
X-18993562Y31473313D01*
X-22294252Y31506033D02*
X-21192985Y29933261D01*
D10*
%TO.C,U2*%
X-56763347Y-29413877D02*
X-33563347Y-29413877D01*
X-33563347Y-29413877D02*
X-33563347Y-13877D01*
X-56763347Y-13877D02*
X-56763347Y-29413877D01*
X-33563347Y-13877D02*
X-56763347Y-13877D01*
%TO.C,U10*%
X13490112Y59162977D02*
X12838976Y57271940D01*
X13490112Y59162977D02*
X21054261Y56558432D01*
X21054261Y56558432D02*
X20403124Y54667395D01*
X20403124Y54667395D02*
X12838976Y57271940D01*
D11*
%TO.C,R2*%
X-40915768Y54464285D02*
X-41287768Y54203808D01*
X-41758926Y55668438D02*
X-42130926Y55407961D01*
%TO.C,C10*%
X49137905Y51491123D02*
X48615401Y51491123D01*
X49137905Y52961123D02*
X48615401Y52961123D01*
%TO.C,R7*%
X-25708292Y33397673D02*
X-26080292Y33137196D01*
X-26551450Y34601826D02*
X-26923450Y34341349D01*
%TO.C,R9*%
X-26978347Y-42439313D02*
X-26978347Y-42893441D01*
X-28448347Y-42439313D02*
X-28448347Y-42893441D01*
%TO.C,D2*%
X-40221836Y57009062D02*
X-39120569Y55436290D01*
X-39120569Y55436290D02*
X-36921146Y56976342D01*
X-38022412Y58549114D02*
X-40221836Y57009062D01*
%TO.C,C7*%
X64698991Y12788705D02*
X64834225Y12284005D01*
X63279081Y12408241D02*
X63414315Y11903541D01*
%TO.C,D6*%
X-28214252Y40006033D02*
X-27112985Y38433261D01*
X-27112985Y38433261D02*
X-24913562Y39973313D01*
X-26014828Y41546085D02*
X-28214252Y40006033D01*
%TO.C,D1*%
X-43234252Y61196033D02*
X-42132985Y59623261D01*
X-42132985Y59623261D02*
X-39933562Y61163313D01*
X-41034828Y62736085D02*
X-43234252Y61196033D01*
D12*
%TO.C,JP1*%
X-40546250Y44556216D02*
X-40669038Y43859852D01*
X-41005111Y45211538D02*
X-40546250Y44556216D01*
X-40669038Y43859852D02*
X-43617985Y41794977D01*
X-41701475Y45334325D02*
X-41005111Y45211538D01*
X-43617985Y41794977D02*
X-44314349Y41917764D01*
X-44650423Y43269450D02*
X-41701475Y45334325D01*
X-44314349Y41917764D02*
X-44773210Y42573086D01*
X-44773210Y42573086D02*
X-44650423Y43269450D01*
D11*
%TO.C,C9*%
X15474379Y59716112D02*
X14980342Y59886222D01*
X15952964Y61106024D02*
X15458927Y61276134D01*
D10*
%TO.C,U7*%
X-38191799Y44299763D02*
X-50479079Y35696116D01*
X-27580635Y29145450D02*
X-38191799Y44299763D01*
X-39867915Y20541803D02*
X-50479079Y35696116D01*
X-39867915Y20541803D02*
X-27580635Y29145450D01*
D11*
%TO.C,C8*%
X-27088347Y-58132625D02*
X-27088347Y-58655129D01*
X-28558347Y-58132625D02*
X-28558347Y-58655129D01*
%TO.C,C11*%
X-45034599Y-30478877D02*
X-44512095Y-30478877D01*
X-45034599Y-31948877D02*
X-44512095Y-31948877D01*
%TO.C,D3*%
X-37211836Y52749062D02*
X-36110569Y51176290D01*
X-36110569Y51176290D02*
X-33911146Y52716342D01*
X-35012412Y54289114D02*
X-37211836Y52749062D01*
D10*
%TO.C,U6*%
X24394711Y55055103D02*
X12107431Y46451456D01*
X35005875Y39900790D02*
X24394711Y55055103D01*
X22718595Y31297143D02*
X12107431Y46451456D01*
X22718595Y31297143D02*
X35005875Y39900790D01*
%TO.C,U4*%
X-24200439Y-63274122D02*
X-24857839Y-65727574D01*
X-24857839Y-65727574D02*
X-9692804Y-69791033D01*
X-9035404Y-67337581D02*
X-24200439Y-63274122D01*
X-9692804Y-69791033D02*
X-9035404Y-67337581D01*
D11*
%TO.C,D5*%
X-30991836Y44409062D02*
X-29890569Y42836290D01*
X-29890569Y42836290D02*
X-27691146Y44376342D01*
X-28792412Y45949114D02*
X-30991836Y44409062D01*
%TO.C,C6*%
X-27851229Y-64241449D02*
X-28355929Y-64106215D01*
X-27470765Y-62821539D02*
X-27975465Y-62686305D01*
%TO.C,D7*%
X-24974252Y35926033D02*
X-23872985Y34353261D01*
X-23872985Y34353261D02*
X-21673562Y35893313D01*
X-22774828Y37466085D02*
X-24974252Y35926033D01*
%TO.C,R5*%
X-32015768Y41684285D02*
X-32387768Y41423808D01*
X-32858926Y42888438D02*
X-33230926Y42627961D01*
%TO.C,R1*%
X-43965768Y58674285D02*
X-44337768Y58413808D01*
X-44808926Y59878438D02*
X-45180926Y59617961D01*
%TO.C,C4*%
X-44057804Y49531113D02*
X-43688337Y49900580D01*
X-43018357Y48491666D02*
X-42648890Y48861133D01*
%TO.C,R10*%
X-20650926Y26227961D02*
X-20278926Y26488438D01*
X-19807768Y25023808D02*
X-19435768Y25284285D01*
%TO.C,R11*%
X-17918402Y22434573D02*
X-17546402Y22695050D01*
X-17075244Y21230420D02*
X-16703244Y21490897D01*
%TO.C,D4*%
X-34016297Y48593761D02*
X-32915030Y47020989D01*
X-32915030Y47020989D02*
X-30715607Y48561041D01*
X-31816873Y50133813D02*
X-34016297Y48593761D01*
%TO.C,C1*%
X31378085Y46593671D02*
X31685267Y46808762D01*
X31424130Y46854808D02*
X31639221Y46547626D01*
X32252132Y46747895D02*
X32424035Y47722805D01*
X33468114Y45011293D02*
X34443024Y44839390D01*
X32424035Y47722805D02*
X34578866Y49231634D01*
X34443024Y44839390D02*
X36597855Y46348219D01*
X34578866Y49231634D02*
X34980370Y48658228D01*
X36597855Y46348219D02*
X36196352Y46921625D01*
%TO.C,R8*%
X-22945768Y28994285D02*
X-23317768Y28733808D01*
X-23788926Y30198438D02*
X-24160926Y29937961D01*
%TO.C,U8*%
X-26945004Y-35069719D02*
X-25177237Y-33301952D01*
X-26945004Y-33301952D02*
X-25177237Y-35069719D01*
X-29755753Y-23908038D02*
X-34546402Y-19117390D01*
X-24735295Y-28928496D02*
X-19944647Y-33719145D01*
X-19944647Y-33719145D02*
X34537931Y20763433D01*
X19936176Y35365188D02*
X-34546402Y-19117390D01*
X24726824Y30574539D02*
X19936176Y35365188D01*
X29747282Y25554081D02*
X34537931Y20763433D01*
X34120738Y27763790D02*
X32352971Y25996023D01*
D10*
%TO.C,U9*%
X-58070963Y-54698761D02*
X-41358485Y-34781605D01*
X-45048208Y-65626150D02*
X-58070963Y-54698761D01*
X-41358485Y-34781605D02*
X-28335730Y-45708995D01*
X-28335730Y-45708995D02*
X-45048208Y-65626150D01*
D11*
%TO.C,R3*%
X-38005768Y50184285D02*
X-38377768Y49923808D01*
X-38848926Y51388438D02*
X-39220926Y51127961D01*
D10*
%TO.C,U5*%
X66852956Y10771631D02*
X69306408Y11429031D01*
X69306408Y11429031D02*
X65242949Y26594067D01*
X62789497Y25936667D02*
X66852956Y10771631D01*
X65242949Y26594067D02*
X62789497Y25936667D01*
D11*
%TO.C,R6*%
X-28915768Y37514285D02*
X-29287768Y37253808D01*
X-29758926Y38718438D02*
X-30130926Y38457961D01*
D10*
%TO.C,U12*%
X-39992048Y65094538D02*
X-15417487Y82301831D01*
X-8445344Y20041176D02*
X-39992048Y65094538D01*
X-8445344Y20041176D02*
X16129217Y37248469D01*
X-33019144Y67950532D02*
X-30105375Y63789240D01*
X-30938497Y69407417D02*
X-33019144Y67950532D01*
X-29481613Y67326770D02*
X-30938497Y69407417D01*
X-28857851Y70864301D02*
X-27400967Y68783654D01*
X-27400967Y68783654D02*
X-29481613Y67326770D01*
X-26777205Y72321185D02*
X-28857851Y70864301D01*
X-25320321Y70240539D02*
X-26777205Y72321185D01*
X-24696559Y73778069D02*
X-23239675Y71697423D01*
X-23239675Y71697423D02*
X-25320321Y70240539D01*
X-22615913Y75234953D02*
X-24696559Y73778069D01*
X-22615913Y75234953D02*
X-18973702Y70033338D01*
X-20535266Y76691837D02*
X-22615913Y75234953D01*
X-20535266Y76691837D02*
X-16893056Y71490222D01*
X-15417487Y82301831D02*
X16129217Y37248469D01*
%TD*%
M02*
