%TF.GenerationSoftware,KiCad,Pcbnew,7.0.9-rc1*%
%TF.CreationDate,2023-11-05T19:21:47+02:00*%
%TF.ProjectId,projectA,70726f6a-6563-4744-912e-6b696361645f,rev?*%
%TF.SameCoordinates,PX5e5c173PY6474d3b*%
%TF.FileFunction,Copper,L2,Bot*%
%TF.FilePolarity,Positive*%
%FSLAX46Y46*%
G04 Gerber Fmt 4.6, Leading zero omitted, Abs format (unit mm)*
G04 Created by KiCad (PCBNEW 7.0.9-rc1) date 2023-11-05 19:21:47*
%MOMM*%
%LPD*%
G01*
G04 APERTURE LIST*
G04 Aperture macros list*
%AMRotRect*
0 Rectangle, with rotation*
0 The origin of the aperture is its center*
0 $1 length*
0 $2 width*
0 $3 Rotation angle, in degrees counterclockwise*
0 Add horizontal line*
21,1,$1,$2,0,0,$3*%
G04 Aperture macros list end*
%ADD10C,0.100000*%
%TA.AperFunction,NonConductor*%
%ADD11C,0.100000*%
%TD*%
%TA.AperFunction,ComponentPad*%
%ADD12O,2.000000X1.300000*%
%TD*%
%TA.AperFunction,ComponentPad*%
%ADD13C,2.000000*%
%TD*%
%TA.AperFunction,ComponentPad*%
%ADD14RotRect,1.524000X1.524000X225.000000*%
%TD*%
%TA.AperFunction,ComponentPad*%
%ADD15RotRect,1.000000X1.000000X341.000000*%
%TD*%
%TA.AperFunction,ComponentPad*%
%ADD16C,1.400000*%
%TD*%
%TA.AperFunction,ComponentPad*%
%ADD17RotRect,2.000000X2.000000X305.000000*%
%TD*%
%TA.AperFunction,ComponentPad*%
%ADD18RotRect,1.524000X1.524000X345.000000*%
%TD*%
%TA.AperFunction,ComponentPad*%
%ADD19RotRect,2.500000X2.500000X50.000000*%
%TD*%
%TA.AperFunction,ComponentPad*%
%ADD20RotRect,1.524000X1.524000X105.000000*%
%TD*%
%TA.AperFunction,ComponentPad*%
%ADD21RotRect,2.000000X2.000000X35.000000*%
%TD*%
G04 APERTURE END LIST*
D10*
D11*
X-34932253Y-18849053D02*
X-34359833Y-19421473D01*
X-34359833Y-19421473D02*
X-34326162Y-19522488D01*
X-34326162Y-19522488D02*
X-34326162Y-19589831D01*
X-34326162Y-19589831D02*
X-34359833Y-19690847D01*
X-34359833Y-19690847D02*
X-34494520Y-19825534D01*
X-34494520Y-19825534D02*
X-34595536Y-19859205D01*
X-34595536Y-19859205D02*
X-34662879Y-19859205D01*
X-34662879Y-19859205D02*
X-34763894Y-19825534D01*
X-34763894Y-19825534D02*
X-35336314Y-19253114D01*
X-35471001Y-19993892D02*
X-35437329Y-19892877D01*
X-35437329Y-19892877D02*
X-35437329Y-19825534D01*
X-35437329Y-19825534D02*
X-35471001Y-19724518D01*
X-35471001Y-19724518D02*
X-35504673Y-19690847D01*
X-35504673Y-19690847D02*
X-35605688Y-19657175D01*
X-35605688Y-19657175D02*
X-35673032Y-19657175D01*
X-35673032Y-19657175D02*
X-35774047Y-19690847D01*
X-35774047Y-19690847D02*
X-35908734Y-19825534D01*
X-35908734Y-19825534D02*
X-35942406Y-19926549D01*
X-35942406Y-19926549D02*
X-35942406Y-19993892D01*
X-35942406Y-19993892D02*
X-35908734Y-20094908D01*
X-35908734Y-20094908D02*
X-35875062Y-20128579D01*
X-35875062Y-20128579D02*
X-35774047Y-20162251D01*
X-35774047Y-20162251D02*
X-35706703Y-20162251D01*
X-35706703Y-20162251D02*
X-35605688Y-20128579D01*
X-35605688Y-20128579D02*
X-35471001Y-19993892D01*
X-35471001Y-19993892D02*
X-35369986Y-19960221D01*
X-35369986Y-19960221D02*
X-35302642Y-19960221D01*
X-35302642Y-19960221D02*
X-35201627Y-19993892D01*
X-35201627Y-19993892D02*
X-35066940Y-20128579D01*
X-35066940Y-20128579D02*
X-35033268Y-20229595D01*
X-35033268Y-20229595D02*
X-35033268Y-20296938D01*
X-35033268Y-20296938D02*
X-35066940Y-20397953D01*
X-35066940Y-20397953D02*
X-35201627Y-20532640D01*
X-35201627Y-20532640D02*
X-35302642Y-20566312D01*
X-35302642Y-20566312D02*
X-35369986Y-20566312D01*
X-35369986Y-20566312D02*
X-35471001Y-20532640D01*
X-35471001Y-20532640D02*
X-35605688Y-20397953D01*
X-35605688Y-20397953D02*
X-35639360Y-20296938D01*
X-35639360Y-20296938D02*
X-35639360Y-20229595D01*
X-35639360Y-20229595D02*
X-35605688Y-20128579D01*
D12*
%TO.P,U11,8,INT*%
%TO.N,/MPU_ESP_INT*%
X-24083406Y-59672952D03*
%TO.P,U11,7,AD0*%
%TO.N,GND*%
X-24083406Y-57132952D03*
%TO.P,U11,6,XCL*%
%TO.N,unconnected-(U11-XCL-Pad6)*%
X-24083406Y-54592952D03*
%TO.P,U11,5,XDA*%
%TO.N,unconnected-(U11-XDA-Pad5)*%
X-24083406Y-52052952D03*
%TO.P,U11,4,SDA*%
%TO.N,/ESP_MPU_VL_SDA*%
X-24083406Y-49512952D03*
%TO.P,U11,3,SCL*%
%TO.N,/ESP_MPU_VL_SCL*%
X-24083406Y-46972952D03*
%TO.P,U11,2,GND*%
%TO.N,GND*%
X-24083406Y-44432952D03*
%TO.P,U11,1,VCC*%
%TO.N,+3.3V*%
X-24083406Y-41892952D03*
%TD*%
D13*
%TO.P,U1,1,A_IB*%
%TO.N,/ESP_MD_A_AIB*%
X55166653Y47916123D03*
%TO.P,U1,2,A_IA*%
%TO.N,/ESP_MD_A_AIA*%
X52626653Y47916123D03*
%TO.P,U1,3,VCC*%
%TO.N,+9V*%
X50086653Y47916123D03*
%TO.P,U1,4,GND*%
%TO.N,GND*%
X47546653Y47916123D03*
%TO.P,U1,5,B_IB*%
%TO.N,/ESP_MD_A_BIB*%
X45006653Y47916123D03*
%TO.P,U1,6,B_IA*%
%TO.N,/ESP_MD_A_BIA*%
X42466653Y47916123D03*
%TD*%
D14*
%TO.P,U3,1,VIN*%
%TO.N,+3.3V*%
X-44472558Y52506911D03*
%TO.P,U3,2,GND*%
%TO.N,GND*%
X-46431244Y50548225D03*
%TO.P,U3,3,SCL*%
%TO.N,/ESP_MPU_VL_SCL*%
X-48227295Y48752174D03*
%TO.P,U3,4,SDA*%
%TO.N,/ESP_MPU_VL_SDA*%
X-50023347Y46956123D03*
%TO.P,U3,5,GPIO1*%
%TO.N,unconnected-(U3-GPIO1-Pad5)*%
X-51819398Y45160072D03*
%TO.P,U3,6,XSHUT*%
%TO.N,/ESP_VL_A_XSHUT*%
X-53615449Y43364020D03*
%TD*%
D13*
%TO.P,U2,1,A_IB*%
%TO.N,/ESP_MD_B_AIB*%
X-51263347Y-27413877D03*
%TO.P,U2,2,A_IA*%
%TO.N,/ESP_MD_B_AIA*%
X-48723347Y-27413877D03*
%TO.P,U2,3,VCC*%
%TO.N,+9V*%
X-46183347Y-27413877D03*
%TO.P,U2,4,GND*%
%TO.N,GND*%
X-43643347Y-27413877D03*
%TO.P,U2,5,B_IB*%
%TO.N,/ESP_MD_B_BIB*%
X-41103347Y-27413877D03*
%TO.P,U2,6,B_IA*%
%TO.N,/ESP_MD_B_BIA*%
X-38563347Y-27413877D03*
%TD*%
D15*
%TO.P,U10,1,5V*%
%TO.N,+5V*%
X13920959Y57957004D03*
%TO.P,U10,2,RXD_SDA*%
%TO.N,/ESP_LUNA_LED8_TXD*%
X15102857Y57550044D03*
%TO.P,U10,3,TXD_SCL*%
%TO.N,/LUNA_ESP_RXD*%
X16284755Y57143084D03*
%TO.P,U10,4,GND*%
%TO.N,GND*%
X17466653Y56736123D03*
%TO.P,U10,5,CONFIGURATION_INPUT*%
%TO.N,+3.3V*%
X18648552Y56329163D03*
%TO.P,U10,6,MULTIPLEXING_OUTPUT*%
%TO.N,unconnected-(U10-MULTIPLEXING_OUTPUT-Pad6)*%
X19830450Y55922203D03*
%TD*%
D16*
%TO.P,JP1,1,A*%
%TO.N,/CHRG_BB_IN_P*%
X-41619407Y44293093D03*
%TO.P,JP1,2,B*%
%TO.N,/BB_EN*%
X-43700053Y42836209D03*
%TD*%
D17*
%TO.P,U7,1,IN_P*%
%TO.N,/CHRG_BB_IN_P*%
X-39313782Y41682980D03*
%TO.P,U7,2,EN*%
%TO.N,/BB_EN*%
X-41394428Y40226095D03*
%TO.P,U7,3,IN_N*%
%TO.N,GND*%
X-47636367Y35855443D03*
%TO.P,U7,4,OUT_P*%
%TO.N,+9V*%
X-30423347Y28986123D03*
%TO.P,U7,5,OUT_N*%
%TO.N,GND*%
X-38745932Y23158586D03*
%TD*%
%TO.P,U6,1,IN_P*%
%TO.N,/CHRG_BB_IN_P*%
X23272728Y52438320D03*
%TO.P,U6,2,EN*%
X21192082Y50981435D03*
%TO.P,U6,3,IN_N*%
%TO.N,GND*%
X14950143Y46610783D03*
%TO.P,U6,4,OUT_P*%
%TO.N,+5V*%
X32163163Y39741463D03*
%TO.P,U6,5,OUT_N*%
%TO.N,GND*%
X23840578Y33913926D03*
%TD*%
D18*
%TO.P,U4,1,VIN*%
%TO.N,+3.3V*%
X-23302413Y-64829548D03*
%TO.P,U4,2,GND*%
%TO.N,GND*%
X-20626799Y-65546477D03*
%TO.P,U4,3,SCL*%
%TO.N,/ESP_MPU_VL_SCL*%
X-18173347Y-66203877D03*
%TO.P,U4,4,SDA*%
%TO.N,/ESP_MPU_VL_SDA*%
X-15719896Y-66861278D03*
%TO.P,U4,5,GPIO1*%
%TO.N,unconnected-(U4-GPIO1-Pad5)*%
X-13266444Y-67518678D03*
%TO.P,U4,6,XSHUT*%
%TO.N,/ESP_VL_B_XSHUT*%
X-10812992Y-68176078D03*
%TD*%
D19*
%TO.P,U9,1,OUT_P*%
%TO.N,/CHRG_BB_IN_P*%
X-41173600Y-36894853D03*
%TO.P,U9,2,B_P*%
%TO.N,/CHRG_BAT_POS*%
X-38875467Y-38823216D03*
%TO.P,U9,3,B_N*%
%TO.N,GND*%
X-32747111Y-43965517D03*
%TO.P,U9,4,OUT_N*%
X-30448978Y-45893880D03*
%TO.P,U9,5,IN_P*%
%TO.N,unconnected-(U9-IN_P-Pad5)*%
X-55957715Y-54513876D03*
%TO.P,U9,6,IN_N*%
%TO.N,GND*%
X-45233093Y-63512902D03*
%TD*%
D20*
%TO.P,U5,1,VIN*%
%TO.N,+3.3V*%
X67750982Y12327057D03*
%TO.P,U5,2,GND*%
%TO.N,GND*%
X67034053Y15002672D03*
%TO.P,U5,3,SCL*%
%TO.N,/ESP_MPU_VL_SCL*%
X66376653Y17456123D03*
%TO.P,U5,4,SDA*%
%TO.N,/ESP_MPU_VL_SDA*%
X65719252Y19909575D03*
%TO.P,U5,5,GPIO1*%
%TO.N,unconnected-(U5-GPIO1-Pad5)*%
X65061852Y22363026D03*
%TO.P,U5,6,XSHUT*%
%TO.N,/ESP_VL_C_XSHUT*%
X64404452Y24816478D03*
%TD*%
D13*
%TO.P,U12,1,3V3*%
%TO.N,+3.3V*%
X-35898837Y62735720D03*
%TO.P,U12,2,RESTART__EN*%
%TO.N,+5V*%
X-34441953Y60655074D03*
%TO.P,U12,3,ADC1_0_RTC_GPIO0__GPIO36*%
%TO.N,/MPU_ESP_INT*%
X-32985068Y58574428D03*
%TO.P,U12,4,ADC1_3_RTC_GPIO3__GPIO39*%
%TO.N,unconnected-(U12-ADC1_3_RTC_GPIO3__GPIO39-Pad4)*%
X-31528184Y56493782D03*
%TO.P,U12,5,ADC1_6_RTC_GPIO4__GPIO34*%
%TO.N,unconnected-(U12-ADC1_6_RTC_GPIO4__GPIO34-Pad5)*%
X-30071300Y54413135D03*
%TO.P,U12,6,ADC1_7_RTC_GPIO5__GPIO35*%
%TO.N,unconnected-(U12-ADC1_7_RTC_GPIO5__GPIO35-Pad6)*%
X-28614416Y52332489D03*
%TO.P,U12,7,TOUCH_9__ADC1_4__RTC_GPIO9_GPIO32*%
%TO.N,/ESP_VL_A_XSHUT*%
X-27157532Y50251843D03*
%TO.P,U12,8,TOUCH_8__ADC1_5__RTC_GPIO8_GPIO33*%
%TO.N,/ESP_VL_B_XSHUT*%
X-25700648Y48171197D03*
%TO.P,U12,9,DAC_1__ADC2_8__RTC_GPIO6__GPIO25*%
%TO.N,/ESP_VL_C_XSHUT*%
X-24243764Y46090551D03*
%TO.P,U12,10,DAC_2__ADC2_9__RTC_GPIO7__GPIO26*%
%TO.N,/ESP_LED1*%
X-22786879Y44009904D03*
%TO.P,U12,11,TOUCH_7__ADC2_7__RTC_GPIO17__GPIO27*%
%TO.N,/ESP_LED2*%
X-21329995Y41929258D03*
%TO.P,U12,12,SC_CLK__HSPI_CLK__TOUCH_6__ADC2_6__RTC_GPIO16__GPIO14*%
%TO.N,/ESP_LED3*%
X-19873111Y39848612D03*
%TO.P,U12,13,SD_DAT2__HSPI_MISO__TOUCH_5__ADC2_5__RTC_GPIO15__GPIO12*%
%TO.N,/ESP_LED4*%
X-18416227Y37767966D03*
%TO.P,U12,14,GND1*%
%TO.N,GND*%
X-16959343Y35687320D03*
%TO.P,U12,15,SD_DAT3__HSPI_MOSI__TOUCH_4__ADC2_4__RTC_GPIO14__GPIO13*%
%TO.N,/ESP_LED5*%
X-15502459Y33606673D03*
%TO.P,U12,16,SHD_SD2__GPIO9*%
%TO.N,unconnected-(U12-SHD_SD2__GPIO9-Pad16)*%
X-14045574Y31526027D03*
%TO.P,U12,17,SWP_SD3__GPIO10*%
%TO.N,unconnected-(U12-SWP_SD3__GPIO10-Pad17)*%
X-12588690Y29445381D03*
%TO.P,U12,18,CSC_CMD__GPIO11*%
%TO.N,unconnected-(U12-CSC_CMD__GPIO11-Pad18)*%
X-11131806Y27364735D03*
D21*
%TO.P,U12,19,5V*%
%TO.N,+5V*%
X-9674922Y25284089D03*
D13*
%TO.P,U12,20,GPIO6__SCK_CLK*%
%TO.N,unconnected-(U12-GPIO6__SCK_CLK-Pad20)*%
X11623031Y40197076D03*
%TO.P,U12,21,GPIO7__SDO_SD0*%
%TO.N,unconnected-(U12-GPIO7__SDO_SD0-Pad21)*%
X10166147Y42277722D03*
%TO.P,U12,22,GPIO8__SDI_SD1*%
%TO.N,unconnected-(U12-GPIO8__SDI_SD1-Pad22)*%
X8709263Y44358368D03*
%TO.P,U12,23,GPIO15__RTC_GPIO13__ADC2_3__TOUCH3__SD_CMD__HSPI_CS*%
%TO.N,/ESP_MD_A_AIA*%
X7252379Y46439015D03*
%TO.P,U12,24,GPIO2__RTC_GPIO12__ADC2_2__TOUCH_2__SD_DAT0__LED*%
%TO.N,/ESP_MD_B_AIB*%
X5795495Y48519661D03*
%TO.P,U12,25,GPIO0__RTC_GPIO11__ADC2_1__TOUCH_1*%
%TO.N,/ESP_LED6*%
X4338610Y50600307D03*
%TO.P,U12,26,GPIO4__RTC_GPIO10__ADC2_0__TOUCH0__SD_DAT1*%
%TO.N,/ESP_MD_B_AIA*%
X2881726Y52680953D03*
%TO.P,U12,27,GPIO16__RX2*%
%TO.N,/LUNA_ESP_RXD*%
X1424842Y54761599D03*
%TO.P,U12,28,GPIO17__TX2*%
%TO.N,/ESP_LUNA_LED8_TXD*%
X-32042Y56842246D03*
%TO.P,U12,29,GPIO5__VSPI_CS*%
%TO.N,/ESP_MD_B_BIB*%
X-1488926Y58922892D03*
%TO.P,U12,30,GPIO18__VSPI_CLK*%
%TO.N,/ESP_MD_B_BIA*%
X-2945810Y61003538D03*
%TO.P,U12,31,GPIO19__VSPI_MISO*%
%TO.N,/ESP_MD_A_BIB*%
X-4402695Y63084184D03*
%TO.P,U12,32,GND2*%
%TO.N,GND*%
X-5859579Y65164830D03*
%TO.P,U12,33,GPIO21__I2C_SDA*%
%TO.N,/ESP_MPU_VL_SDA*%
X-7316463Y67245476D03*
%TO.P,U12,34,GPIO3__RX0*%
%TO.N,/ESP_MD_A_BIA*%
X-8773347Y69326123D03*
%TO.P,U12,35,GPIO1__TX0*%
%TO.N,/ESP_MD_A_AIB*%
X-10230231Y71406769D03*
%TO.P,U12,36,GPIO22__I2C_SCL*%
%TO.N,/ESP_MPU_VL_SCL*%
X-11687115Y73487415D03*
%TO.P,U12,37,GPIO23__VSPI_MOSI*%
%TO.N,/ESP_LED7*%
X-13143999Y75568061D03*
D21*
%TO.P,U12,38,GND3*%
%TO.N,GND*%
X-14600884Y77648707D03*
%TD*%
%TA.AperFunction,Conductor*%
%TO.N,GND*%
G36*
X-31659501Y-44551779D02*
G01*
X-30629808Y-45415795D01*
X-30727540Y-45460429D01*
X-30838373Y-45556467D01*
X-30917660Y-45679840D01*
X-30952320Y-45797877D01*
X-31536588Y-45307618D01*
X-31561812Y-45286453D01*
X-31980894Y-44934801D01*
X-32566282Y-44443600D01*
X-32468549Y-44398968D01*
X-32357716Y-44302930D01*
X-32278429Y-44179557D01*
X-32243770Y-44061519D01*
X-31659501Y-44551779D01*
G37*
%TD.AperFunction*%
%TA.AperFunction,Conductor*%
G36*
X1838542Y80936300D02*
G01*
X3629554Y80876842D01*
X5418812Y80777778D01*
X7205441Y80639156D01*
X8988567Y80461043D01*
X10767315Y80243528D01*
X12540817Y79986716D01*
X14308203Y79690734D01*
X16068609Y79355726D01*
X17821173Y78981856D01*
X19565037Y78569307D01*
X21299348Y78118281D01*
X23023257Y77628999D01*
X24735920Y77101700D01*
X26436499Y76536643D01*
X28124162Y75934103D01*
X29798082Y75294377D01*
X31457441Y74617776D01*
X33101426Y73904632D01*
X34729232Y73155295D01*
X36340063Y72370130D01*
X37933130Y71549523D01*
X39507653Y70693873D01*
X41062863Y69803603D01*
X42597997Y68879146D01*
X44112305Y67920954D01*
X45605045Y66929497D01*
X47075487Y65905261D01*
X48522910Y64848746D01*
X49946607Y63760469D01*
X51345881Y62640963D01*
X52720046Y61490777D01*
X54068431Y60310472D01*
X55390375Y59100628D01*
X56685231Y57861835D01*
X57952365Y56594701D01*
X59191158Y55299845D01*
X60401002Y53977901D01*
X61581307Y52629516D01*
X62731493Y51255351D01*
X63850999Y49856077D01*
X64939276Y48432380D01*
X65995791Y46984957D01*
X67020027Y45514515D01*
X68011484Y44021775D01*
X68969676Y42507467D01*
X69894133Y40972333D01*
X70784403Y39417123D01*
X71640053Y37842600D01*
X72460660Y36249533D01*
X73245825Y34638702D01*
X73995162Y33010896D01*
X74708306Y31366911D01*
X75384907Y29707552D01*
X76024633Y28033632D01*
X76627173Y26345969D01*
X77192230Y24645390D01*
X77719529Y22932727D01*
X78208811Y21208818D01*
X78659837Y19474507D01*
X79072386Y17730643D01*
X79446256Y15978079D01*
X79781264Y14217673D01*
X80077246Y12450287D01*
X80334058Y10676785D01*
X80551573Y8898037D01*
X80729686Y7114911D01*
X80868308Y5328282D01*
X80967372Y3539024D01*
X81026830Y1748012D01*
X81046653Y-43877D01*
X81026830Y-1835766D01*
X80967372Y-3626778D01*
X80868308Y-5416036D01*
X80729686Y-7202665D01*
X80551573Y-8985791D01*
X80334058Y-10764539D01*
X80077246Y-12538041D01*
X79781264Y-14305427D01*
X79446256Y-16065833D01*
X79072386Y-17818397D01*
X78659837Y-19562261D01*
X78208811Y-21296572D01*
X77719529Y-23020481D01*
X77192230Y-24733144D01*
X76627173Y-26433723D01*
X76024633Y-28121386D01*
X75384907Y-29795306D01*
X74708306Y-31454665D01*
X73995162Y-33098650D01*
X73245825Y-34726456D01*
X72460660Y-36337287D01*
X71640053Y-37930354D01*
X70784403Y-39504877D01*
X69894133Y-41060087D01*
X68969676Y-42595221D01*
X68011484Y-44109529D01*
X67020027Y-45602269D01*
X65995791Y-47072711D01*
X64939276Y-48520134D01*
X63850999Y-49943831D01*
X62731493Y-51343105D01*
X61581307Y-52717270D01*
X60401002Y-54065655D01*
X59191158Y-55387599D01*
X57952365Y-56682455D01*
X56685231Y-57949589D01*
X55390375Y-59188382D01*
X54068431Y-60398226D01*
X52720046Y-61578531D01*
X51345881Y-62728717D01*
X49946607Y-63848223D01*
X48522910Y-64936500D01*
X47075487Y-65993015D01*
X45605045Y-67017251D01*
X44112305Y-68008708D01*
X42597997Y-68966900D01*
X41062863Y-69891357D01*
X39507653Y-70781627D01*
X37933130Y-71637277D01*
X36340063Y-72457884D01*
X34729232Y-73243049D01*
X33101426Y-73992386D01*
X31457441Y-74705530D01*
X29798082Y-75382131D01*
X28124162Y-76021857D01*
X26436499Y-76624397D01*
X24735920Y-77189454D01*
X23023257Y-77716753D01*
X21299348Y-78206035D01*
X19565037Y-78657061D01*
X17821173Y-79069610D01*
X16068609Y-79443480D01*
X14308203Y-79778488D01*
X12540817Y-80074470D01*
X10767315Y-80331282D01*
X8988567Y-80548797D01*
X7205441Y-80726910D01*
X5418812Y-80865532D01*
X3629554Y-80964596D01*
X1838542Y-81024054D01*
X46653Y-81043877D01*
X-1745236Y-81024054D01*
X-3536248Y-80964596D01*
X-5325506Y-80865532D01*
X-7112135Y-80726910D01*
X-8895261Y-80548797D01*
X-10674009Y-80331282D01*
X-12447511Y-80074470D01*
X-14214897Y-79778488D01*
X-15975303Y-79443480D01*
X-17727867Y-79069610D01*
X-19471731Y-78657061D01*
X-21206042Y-78206035D01*
X-22929951Y-77716753D01*
X-24642614Y-77189454D01*
X-26343193Y-76624397D01*
X-28030856Y-76021857D01*
X-29704776Y-75382131D01*
X-31364135Y-74705530D01*
X-33008120Y-73992386D01*
X-34635926Y-73243049D01*
X-36246757Y-72457884D01*
X-37839824Y-71637277D01*
X-39414347Y-70781627D01*
X-40969557Y-69891357D01*
X-42504691Y-68966900D01*
X-44018999Y-68008708D01*
X-45511739Y-67017251D01*
X-46982181Y-65993015D01*
X-48429604Y-64936500D01*
X-49853301Y-63848223D01*
X-50024818Y-63710999D01*
X-47497352Y-63710999D01*
X-47464568Y-63850984D01*
X-47464567Y-63850987D01*
X-47393666Y-63976073D01*
X-47352171Y-64019245D01*
X-47352160Y-64019256D01*
X-46549484Y-64692782D01*
X-45711437Y-63694038D01*
X-45701775Y-63726942D01*
X-45622488Y-63850315D01*
X-45511655Y-63946353D01*
X-45378254Y-64007275D01*
X-45327674Y-64014547D01*
X-46166462Y-65014175D01*
X-45363775Y-65687710D01*
X-45314052Y-65721076D01*
X-45314046Y-65721079D01*
X-45178554Y-65769182D01*
X-45034996Y-65777160D01*
X-44895011Y-65744376D01*
X-44895008Y-65744375D01*
X-44769922Y-65673474D01*
X-44726750Y-65631979D01*
X-44726749Y-65631978D01*
X-44485361Y-65344303D01*
X-24740742Y-65344303D01*
X-24727062Y-65487575D01*
X-24673572Y-65621187D01*
X-24584609Y-65734314D01*
X-24584607Y-65734315D01*
X-24584605Y-65734318D01*
X-24467369Y-65817800D01*
X-24411449Y-65839419D01*
X-22846896Y-66258639D01*
X-22846886Y-66258640D01*
X-22846884Y-66258641D01*
X-22837555Y-66260095D01*
X-22787657Y-66267877D01*
X-22644387Y-66254197D01*
X-22510774Y-66200706D01*
X-22397643Y-66111740D01*
X-22314161Y-65994504D01*
X-22294353Y-65943267D01*
X-22251823Y-65887840D01*
X-22186073Y-65864203D01*
X-22117981Y-65879864D01*
X-22069167Y-65929853D01*
X-22055127Y-65998298D01*
X-22056178Y-66007089D01*
X-22064625Y-66061256D01*
X-22064626Y-66061262D01*
X-22050959Y-66204380D01*
X-22050957Y-66204389D01*
X-21997521Y-66337862D01*
X-21908647Y-66450877D01*
X-21908646Y-66450878D01*
X-21791521Y-66534281D01*
X-21791522Y-66534281D01*
X-21735675Y-66555871D01*
X-21735657Y-66555876D01*
X-21194912Y-66700769D01*
X-20983598Y-65912135D01*
X-20905361Y-65979928D01*
X-20771960Y-66040850D01*
X-20663272Y-66056477D01*
X-20590326Y-66056477D01*
X-20501201Y-66043662D01*
X-20711948Y-66830178D01*
X-20171196Y-66975073D01*
X-20171190Y-66975074D01*
X-20112017Y-66984302D01*
X-20112014Y-66984303D01*
X-19968896Y-66970636D01*
X-19968887Y-66970634D01*
X-19835414Y-66917198D01*
X-19768213Y-66864352D01*
X-19703348Y-66838384D01*
X-19634741Y-66851608D01*
X-19584174Y-66899824D01*
X-19576445Y-66915736D01*
X-19544506Y-66995515D01*
X-19455543Y-67108643D01*
X-19455541Y-67108644D01*
X-19455539Y-67108647D01*
X-19338303Y-67192129D01*
X-19282383Y-67213748D01*
X-17717830Y-67632968D01*
X-17717820Y-67632969D01*
X-17717818Y-67632970D01*
X-17708489Y-67634424D01*
X-17658591Y-67642206D01*
X-17515321Y-67628526D01*
X-17381708Y-67575035D01*
X-17314568Y-67522236D01*
X-17249705Y-67496269D01*
X-17181098Y-67509491D01*
X-17130531Y-67557707D01*
X-17122801Y-67573619D01*
X-17091054Y-67652917D01*
X-17002092Y-67766044D01*
X-17002090Y-67766045D01*
X-17002088Y-67766048D01*
X-16884852Y-67849530D01*
X-16828932Y-67871149D01*
X-15264379Y-68290369D01*
X-15264369Y-68290370D01*
X-15264367Y-68290371D01*
X-15255038Y-68291825D01*
X-15205140Y-68299607D01*
X-15061870Y-68285927D01*
X-14928257Y-68232436D01*
X-14861115Y-68179635D01*
X-14796252Y-68153668D01*
X-14727645Y-68166892D01*
X-14677078Y-68215107D01*
X-14669348Y-68231021D01*
X-14637603Y-68310316D01*
X-14548640Y-68423444D01*
X-14548638Y-68423445D01*
X-14548636Y-68423448D01*
X-14431400Y-68506930D01*
X-14375480Y-68528549D01*
X-12810927Y-68947769D01*
X-12810917Y-68947770D01*
X-12810915Y-68947771D01*
X-12801586Y-68949225D01*
X-12751688Y-68957007D01*
X-12608418Y-68943327D01*
X-12474805Y-68889836D01*
X-12407663Y-68837035D01*
X-12342800Y-68811068D01*
X-12274193Y-68824292D01*
X-12223626Y-68872507D01*
X-12215896Y-68888421D01*
X-12184151Y-68967716D01*
X-12095188Y-69080844D01*
X-12095186Y-69080845D01*
X-12095184Y-69080848D01*
X-11977948Y-69164330D01*
X-11922028Y-69185949D01*
X-10357475Y-69605169D01*
X-10357465Y-69605170D01*
X-10357463Y-69605171D01*
X-10348134Y-69606625D01*
X-10298236Y-69614407D01*
X-10154966Y-69600727D01*
X-10021353Y-69547236D01*
X-9908222Y-69458270D01*
X-9824740Y-69341034D01*
X-9803121Y-69285114D01*
X-9383901Y-67720561D01*
X-9374663Y-67661322D01*
X-9388343Y-67518052D01*
X-9441834Y-67384439D01*
X-9441834Y-67384438D01*
X-9530797Y-67271311D01*
X-9530799Y-67271309D01*
X-9530800Y-67271308D01*
X-9648036Y-67187826D01*
X-9648038Y-67187825D01*
X-9703953Y-67166208D01*
X-9703955Y-67166207D01*
X-9703956Y-67166207D01*
X-11268509Y-66746987D01*
X-11268514Y-66746986D01*
X-11268522Y-66746984D01*
X-11327747Y-66737749D01*
X-11327748Y-66737749D01*
X-11471020Y-66751429D01*
X-11604631Y-66804919D01*
X-11671774Y-66857720D01*
X-11736639Y-66883687D01*
X-11805246Y-66870463D01*
X-11855812Y-66822246D01*
X-11863536Y-66806347D01*
X-11895286Y-66727039D01*
X-11948482Y-66659394D01*
X-11984249Y-66613911D01*
X-11984251Y-66613909D01*
X-11984252Y-66613908D01*
X-12101488Y-66530426D01*
X-12101490Y-66530425D01*
X-12157405Y-66508808D01*
X-12157407Y-66508807D01*
X-12157408Y-66508807D01*
X-13721961Y-66089587D01*
X-13721966Y-66089586D01*
X-13721974Y-66089584D01*
X-13781199Y-66080349D01*
X-13781200Y-66080349D01*
X-13924472Y-66094029D01*
X-14058083Y-66147519D01*
X-14125226Y-66200320D01*
X-14190091Y-66226287D01*
X-14258698Y-66213063D01*
X-14309264Y-66164846D01*
X-14316988Y-66148947D01*
X-14348738Y-66069639D01*
X-14408995Y-65993015D01*
X-14437701Y-65956511D01*
X-14437703Y-65956509D01*
X-14437704Y-65956508D01*
X-14554940Y-65873026D01*
X-14554942Y-65873025D01*
X-14610857Y-65851408D01*
X-14610859Y-65851407D01*
X-14610860Y-65851407D01*
X-16175413Y-65432187D01*
X-16175418Y-65432186D01*
X-16175426Y-65432184D01*
X-16234651Y-65422949D01*
X-16234652Y-65422949D01*
X-16377924Y-65436629D01*
X-16511535Y-65490119D01*
X-16578676Y-65542919D01*
X-16643541Y-65568886D01*
X-16712147Y-65555662D01*
X-16762714Y-65507446D01*
X-16770443Y-65491534D01*
X-16802189Y-65412237D01*
X-16891152Y-65299110D01*
X-16891154Y-65299108D01*
X-16891155Y-65299107D01*
X-17008391Y-65215625D01*
X-17008393Y-65215624D01*
X-17064308Y-65194007D01*
X-17064310Y-65194006D01*
X-17064311Y-65194006D01*
X-18628864Y-64774786D01*
X-18628869Y-64774785D01*
X-18628877Y-64774783D01*
X-18688102Y-64765548D01*
X-18688103Y-64765548D01*
X-18831375Y-64779228D01*
X-18964988Y-64832719D01*
X-19032539Y-64885840D01*
X-19097404Y-64911807D01*
X-19166011Y-64898582D01*
X-19216577Y-64850366D01*
X-19224305Y-64834455D01*
X-19256078Y-64755090D01*
X-19344952Y-64642076D01*
X-19344953Y-64642075D01*
X-19462078Y-64558672D01*
X-19462077Y-64558672D01*
X-19517924Y-64537082D01*
X-19517942Y-64537077D01*
X-20058688Y-64392183D01*
X-20270002Y-65180817D01*
X-20348237Y-65113026D01*
X-20481638Y-65052104D01*
X-20590326Y-65036477D01*
X-20663272Y-65036477D01*
X-20752398Y-65049291D01*
X-20541652Y-64262774D01*
X-21082403Y-64117880D01*
X-21082409Y-64117879D01*
X-21141582Y-64108651D01*
X-21141585Y-64108650D01*
X-21284703Y-64122317D01*
X-21284712Y-64122319D01*
X-21418185Y-64175755D01*
X-21531200Y-64264629D01*
X-21531201Y-64264630D01*
X-21614604Y-64381755D01*
X-21634371Y-64432888D01*
X-21676904Y-64488320D01*
X-21742655Y-64511957D01*
X-21810746Y-64496294D01*
X-21859560Y-64446304D01*
X-21873599Y-64377860D01*
X-21872548Y-64369071D01*
X-21869342Y-64348503D01*
X-21864084Y-64314792D01*
X-21877764Y-64171522D01*
X-21931255Y-64037909D01*
X-21931255Y-64037908D01*
X-22020218Y-63924781D01*
X-22020220Y-63924779D01*
X-22020221Y-63924778D01*
X-22137457Y-63841296D01*
X-22137459Y-63841295D01*
X-22193374Y-63819678D01*
X-22193376Y-63819677D01*
X-22193377Y-63819677D01*
X-23757930Y-63400457D01*
X-23757935Y-63400456D01*
X-23757943Y-63400454D01*
X-23817168Y-63391219D01*
X-23817169Y-63391219D01*
X-23960441Y-63404899D01*
X-24094053Y-63458389D01*
X-24207180Y-63547352D01*
X-24207183Y-63547356D01*
X-24290666Y-63664593D01*
X-24312283Y-63720508D01*
X-24312284Y-63720512D01*
X-24712897Y-65215625D01*
X-24731507Y-65285077D01*
X-24740742Y-65344302D01*
X-24740742Y-65344303D01*
X-44485361Y-65344303D01*
X-44053213Y-64829290D01*
X-45052264Y-63990985D01*
X-44954531Y-63946353D01*
X-44843698Y-63850315D01*
X-44764411Y-63726942D01*
X-44729752Y-63608904D01*
X-43731820Y-64446269D01*
X-43058285Y-63643583D01*
X-43024919Y-63593860D01*
X-43024916Y-63593854D01*
X-42976813Y-63458362D01*
X-42968835Y-63314804D01*
X-43001619Y-63174819D01*
X-43001620Y-63174816D01*
X-43072521Y-63049730D01*
X-43114016Y-63006558D01*
X-43114027Y-63006547D01*
X-43916704Y-62333020D01*
X-44754751Y-63331762D01*
X-44764411Y-63298862D01*
X-44843698Y-63175489D01*
X-44954531Y-63079451D01*
X-45087932Y-63018529D01*
X-45138516Y-63011256D01*
X-44299726Y-62011627D01*
X-45102418Y-61338089D01*
X-45152135Y-61304727D01*
X-45152141Y-61304724D01*
X-45287633Y-61256621D01*
X-45431191Y-61248643D01*
X-45571176Y-61281427D01*
X-45571179Y-61281428D01*
X-45696265Y-61352329D01*
X-45739437Y-61393824D01*
X-45739448Y-61393835D01*
X-46412975Y-62196511D01*
X-45413922Y-63034817D01*
X-45511655Y-63079451D01*
X-45622488Y-63175489D01*
X-45701775Y-63298862D01*
X-45736435Y-63416899D01*
X-46734368Y-62579533D01*
X-47407906Y-63382226D01*
X-47441268Y-63431943D01*
X-47441271Y-63431949D01*
X-47489374Y-63567441D01*
X-47497352Y-63710999D01*
X-50024818Y-63710999D01*
X-51252575Y-62728717D01*
X-52626740Y-61578531D01*
X-53975125Y-60398226D01*
X-54651112Y-59779562D01*
X-25583906Y-59779562D01*
X-25544727Y-59989150D01*
X-25467704Y-60187971D01*
X-25355458Y-60369254D01*
X-25329046Y-60398226D01*
X-25211813Y-60526824D01*
X-25041660Y-60655319D01*
X-24850800Y-60750355D01*
X-24850798Y-60750355D01*
X-24850795Y-60750357D01*
X-24645716Y-60808708D01*
X-24486600Y-60823452D01*
X-24486596Y-60823452D01*
X-23680216Y-60823452D01*
X-23680212Y-60823452D01*
X-23521096Y-60808708D01*
X-23316017Y-60750357D01*
X-23316013Y-60750355D01*
X-23316012Y-60750355D01*
X-23125153Y-60655319D01*
X-23125153Y-60655318D01*
X-23125151Y-60655318D01*
X-22954999Y-60526824D01*
X-22811354Y-60369254D01*
X-22699108Y-60187971D01*
X-22622085Y-59989150D01*
X-22582906Y-59779562D01*
X-22582906Y-59566342D01*
X-22622085Y-59356754D01*
X-22699108Y-59157933D01*
X-22811354Y-58976650D01*
X-22954999Y-58819080D01*
X-22955000Y-58819079D01*
X-23125153Y-58690584D01*
X-23316013Y-58595548D01*
X-23521096Y-58537196D01*
X-23640072Y-58526171D01*
X-23705009Y-58500385D01*
X-23745696Y-58443584D01*
X-23749216Y-58373803D01*
X-23714451Y-58313197D01*
X-23652438Y-58281007D01*
X-23640070Y-58279229D01*
X-23521191Y-58268214D01*
X-23521187Y-58268213D01*
X-23316210Y-58209893D01*
X-23316190Y-58209885D01*
X-23125417Y-58114892D01*
X-22955335Y-57986451D01*
X-22811755Y-57828951D01*
X-22811753Y-57828949D01*
X-22699560Y-57647750D01*
X-22699556Y-57647741D01*
X-22622570Y-57449015D01*
X-22622569Y-57449010D01*
X-22610219Y-57382952D01*
X-23637834Y-57382952D01*
X-23614724Y-57346992D01*
X-23573406Y-57206279D01*
X-23573406Y-57059625D01*
X-23614724Y-56918912D01*
X-23637834Y-56882952D01*
X-22610219Y-56882952D01*
X-22622569Y-56816893D01*
X-22622570Y-56816888D01*
X-22699556Y-56618162D01*
X-22699560Y-56618153D01*
X-22811753Y-56436954D01*
X-22811755Y-56436952D01*
X-22955335Y-56279452D01*
X-23125417Y-56151011D01*
X-23316190Y-56056018D01*
X-23316210Y-56056010D01*
X-23521187Y-55997690D01*
X-23521190Y-55997689D01*
X-23640071Y-55986674D01*
X-23705008Y-55960888D01*
X-23745696Y-55904087D01*
X-23749216Y-55834306D01*
X-23714451Y-55773700D01*
X-23652438Y-55741510D01*
X-23640080Y-55739733D01*
X-23521096Y-55728708D01*
X-23316017Y-55670357D01*
X-23316013Y-55670355D01*
X-23316012Y-55670355D01*
X-23125153Y-55575319D01*
X-23125153Y-55575318D01*
X-23125151Y-55575318D01*
X-22954999Y-55446824D01*
X-22811354Y-55289254D01*
X-22699108Y-55107971D01*
X-22622085Y-54909150D01*
X-22582906Y-54699562D01*
X-22582906Y-54486342D01*
X-22622085Y-54276754D01*
X-22699108Y-54077933D01*
X-22811354Y-53896650D01*
X-22954999Y-53739080D01*
X-22955000Y-53739079D01*
X-23125153Y-53610584D01*
X-23316013Y-53515548D01*
X-23521096Y-53457196D01*
X-23637363Y-53446422D01*
X-23702298Y-53420637D01*
X-23742986Y-53363837D01*
X-23746506Y-53294056D01*
X-23711741Y-53233449D01*
X-23649729Y-53201259D01*
X-23637368Y-53199481D01*
X-23521096Y-53188708D01*
X-23316017Y-53130357D01*
X-23316013Y-53130355D01*
X-23316012Y-53130355D01*
X-23125153Y-53035319D01*
X-23125153Y-53035318D01*
X-23125151Y-53035318D01*
X-22954999Y-52906824D01*
X-22811354Y-52749254D01*
X-22699108Y-52567971D01*
X-22622085Y-52369150D01*
X-22582906Y-52159562D01*
X-22582906Y-51946342D01*
X-22622085Y-51736754D01*
X-22699108Y-51537933D01*
X-22811354Y-51356650D01*
X-22954999Y-51199080D01*
X-22955000Y-51199079D01*
X-23125153Y-51070584D01*
X-23316013Y-50975548D01*
X-23521096Y-50917196D01*
X-23637363Y-50906422D01*
X-23702298Y-50880637D01*
X-23742986Y-50823837D01*
X-23746506Y-50754056D01*
X-23711741Y-50693449D01*
X-23649729Y-50661259D01*
X-23637368Y-50659481D01*
X-23521096Y-50648708D01*
X-23316017Y-50590357D01*
X-23316013Y-50590355D01*
X-23316012Y-50590355D01*
X-23125153Y-50495319D01*
X-23125153Y-50495318D01*
X-23125151Y-50495318D01*
X-22954999Y-50366824D01*
X-22811354Y-50209254D01*
X-22699108Y-50027971D01*
X-22622085Y-49829150D01*
X-22582906Y-49619562D01*
X-22582906Y-49406342D01*
X-22622085Y-49196754D01*
X-22699108Y-48997933D01*
X-22811354Y-48816650D01*
X-22954999Y-48659080D01*
X-22955000Y-48659079D01*
X-23125153Y-48530584D01*
X-23316013Y-48435548D01*
X-23521096Y-48377196D01*
X-23637363Y-48366422D01*
X-23702298Y-48340637D01*
X-23742986Y-48283837D01*
X-23746506Y-48214056D01*
X-23711741Y-48153449D01*
X-23649729Y-48121259D01*
X-23637368Y-48119481D01*
X-23521096Y-48108708D01*
X-23316017Y-48050357D01*
X-23316013Y-48050355D01*
X-23316012Y-48050355D01*
X-23125153Y-47955319D01*
X-23125153Y-47955318D01*
X-23125151Y-47955318D01*
X-22954999Y-47826824D01*
X-22811354Y-47669254D01*
X-22699108Y-47487971D01*
X-22622085Y-47289150D01*
X-22582906Y-47079562D01*
X-22582906Y-46866342D01*
X-22622085Y-46656754D01*
X-22699108Y-46457933D01*
X-22811354Y-46276650D01*
X-22954999Y-46119080D01*
X-23080161Y-46024561D01*
X-23125153Y-45990584D01*
X-23316013Y-45895548D01*
X-23521096Y-45837196D01*
X-23640072Y-45826171D01*
X-23705009Y-45800385D01*
X-23745696Y-45743584D01*
X-23749216Y-45673803D01*
X-23714451Y-45613197D01*
X-23652438Y-45581007D01*
X-23640070Y-45579229D01*
X-23521191Y-45568214D01*
X-23521187Y-45568213D01*
X-23316210Y-45509893D01*
X-23316190Y-45509885D01*
X-23125417Y-45414892D01*
X-22955335Y-45286451D01*
X-22811755Y-45128951D01*
X-22811753Y-45128949D01*
X-22699560Y-44947750D01*
X-22699556Y-44947741D01*
X-22622570Y-44749015D01*
X-22622569Y-44749010D01*
X-22610219Y-44682952D01*
X-23637834Y-44682952D01*
X-23614724Y-44646992D01*
X-23573406Y-44506279D01*
X-23573406Y-44359625D01*
X-23614724Y-44218912D01*
X-23637834Y-44182952D01*
X-22610219Y-44182952D01*
X-22622569Y-44116893D01*
X-22622570Y-44116888D01*
X-22699556Y-43918162D01*
X-22699560Y-43918153D01*
X-22811753Y-43736954D01*
X-22811755Y-43736952D01*
X-22955335Y-43579452D01*
X-23125417Y-43451011D01*
X-23316190Y-43356018D01*
X-23316210Y-43356010D01*
X-23521187Y-43297690D01*
X-23521190Y-43297689D01*
X-23640071Y-43286674D01*
X-23705008Y-43260888D01*
X-23745696Y-43204087D01*
X-23749216Y-43134306D01*
X-23714451Y-43073700D01*
X-23652438Y-43041510D01*
X-23640080Y-43039733D01*
X-23521096Y-43028708D01*
X-23316017Y-42970357D01*
X-23316013Y-42970355D01*
X-23316012Y-42970355D01*
X-23125153Y-42875319D01*
X-23125153Y-42875318D01*
X-23125151Y-42875318D01*
X-22954999Y-42746824D01*
X-22811354Y-42589254D01*
X-22699108Y-42407971D01*
X-22622085Y-42209150D01*
X-22582906Y-41999562D01*
X-22582906Y-41786342D01*
X-22622085Y-41576754D01*
X-22699108Y-41377933D01*
X-22811354Y-41196650D01*
X-22954999Y-41039080D01*
X-22964586Y-41031840D01*
X-23125153Y-40910584D01*
X-23316013Y-40815548D01*
X-23521096Y-40757196D01*
X-23680212Y-40742452D01*
X-24486600Y-40742452D01*
X-24613893Y-40754247D01*
X-24645717Y-40757196D01*
X-24850799Y-40815548D01*
X-24850801Y-40815548D01*
X-25041660Y-40910584D01*
X-25211813Y-41039079D01*
X-25355459Y-41196651D01*
X-25467704Y-41377932D01*
X-25467705Y-41377934D01*
X-25544726Y-41576751D01*
X-25544727Y-41576754D01*
X-25583906Y-41786342D01*
X-25583906Y-41999562D01*
X-25544727Y-42209150D01*
X-25467704Y-42407971D01*
X-25355458Y-42589254D01*
X-25350018Y-42595221D01*
X-25211813Y-42746824D01*
X-25041660Y-42875319D01*
X-24850800Y-42970355D01*
X-24850798Y-42970355D01*
X-24850795Y-42970357D01*
X-24645716Y-43028708D01*
X-24526741Y-43039732D01*
X-24461805Y-43065518D01*
X-24421117Y-43122318D01*
X-24417597Y-43192099D01*
X-24452362Y-43252706D01*
X-24514374Y-43284896D01*
X-24526742Y-43286674D01*
X-24645623Y-43297689D01*
X-24645626Y-43297690D01*
X-24850603Y-43356010D01*
X-24850623Y-43356018D01*
X-25041396Y-43451011D01*
X-25211478Y-43579452D01*
X-25355058Y-43736952D01*
X-25355060Y-43736954D01*
X-25467253Y-43918153D01*
X-25467257Y-43918162D01*
X-25544243Y-44116888D01*
X-25544244Y-44116893D01*
X-25556593Y-44182952D01*
X-24528978Y-44182952D01*
X-24552088Y-44218912D01*
X-24593406Y-44359625D01*
X-24593406Y-44506279D01*
X-24552088Y-44646992D01*
X-24528978Y-44682952D01*
X-25556593Y-44682952D01*
X-25544244Y-44749010D01*
X-25544243Y-44749015D01*
X-25467257Y-44947741D01*
X-25467253Y-44947750D01*
X-25355060Y-45128949D01*
X-25355058Y-45128951D01*
X-25211478Y-45286451D01*
X-25041396Y-45414892D01*
X-24850623Y-45509885D01*
X-24850603Y-45509893D01*
X-24645626Y-45568213D01*
X-24645622Y-45568214D01*
X-24526743Y-45579229D01*
X-24461805Y-45605015D01*
X-24421117Y-45661815D01*
X-24417597Y-45731596D01*
X-24452362Y-45792202D01*
X-24514374Y-45824393D01*
X-24526741Y-45826171D01*
X-24645717Y-45837196D01*
X-24850799Y-45895548D01*
X-24850801Y-45895548D01*
X-25041660Y-45990584D01*
X-25211813Y-46119079D01*
X-25355459Y-46276651D01*
X-25467704Y-46457932D01*
X-25467705Y-46457934D01*
X-25544726Y-46656751D01*
X-25544727Y-46656754D01*
X-25583906Y-46866342D01*
X-25583906Y-47079562D01*
X-25544727Y-47289150D01*
X-25467704Y-47487971D01*
X-25355458Y-47669254D01*
X-25211813Y-47826824D01*
X-25041660Y-47955319D01*
X-24850800Y-48050355D01*
X-24850798Y-48050355D01*
X-24850795Y-48050357D01*
X-24645716Y-48108708D01*
X-24529452Y-48119481D01*
X-24464515Y-48145267D01*
X-24423827Y-48202067D01*
X-24420307Y-48271848D01*
X-24455072Y-48332455D01*
X-24517085Y-48364645D01*
X-24529448Y-48366422D01*
X-24614259Y-48374281D01*
X-24645717Y-48377196D01*
X-24850799Y-48435548D01*
X-24850801Y-48435548D01*
X-25041660Y-48530584D01*
X-25211813Y-48659079D01*
X-25355459Y-48816651D01*
X-25467704Y-48997932D01*
X-25467705Y-48997934D01*
X-25544726Y-49196751D01*
X-25544727Y-49196754D01*
X-25583906Y-49406342D01*
X-25583906Y-49619562D01*
X-25544727Y-49829150D01*
X-25467704Y-50027971D01*
X-25355458Y-50209254D01*
X-25211813Y-50366824D01*
X-25041660Y-50495319D01*
X-24850800Y-50590355D01*
X-24850798Y-50590355D01*
X-24850795Y-50590357D01*
X-24645716Y-50648708D01*
X-24529452Y-50659481D01*
X-24464515Y-50685267D01*
X-24423827Y-50742067D01*
X-24420307Y-50811848D01*
X-24455072Y-50872455D01*
X-24517085Y-50904645D01*
X-24529448Y-50906422D01*
X-24614259Y-50914281D01*
X-24645717Y-50917196D01*
X-24850799Y-50975548D01*
X-24850801Y-50975548D01*
X-25041660Y-51070584D01*
X-25211813Y-51199079D01*
X-25355459Y-51356651D01*
X-25467704Y-51537932D01*
X-25467705Y-51537934D01*
X-25497782Y-51615573D01*
X-25544727Y-51736754D01*
X-25583906Y-51946342D01*
X-25583906Y-52159562D01*
X-25544727Y-52369150D01*
X-25467704Y-52567971D01*
X-25355458Y-52749254D01*
X-25211813Y-52906824D01*
X-25041660Y-53035319D01*
X-24850800Y-53130355D01*
X-24850798Y-53130355D01*
X-24850795Y-53130357D01*
X-24645716Y-53188708D01*
X-24529452Y-53199481D01*
X-24464515Y-53225267D01*
X-24423827Y-53282067D01*
X-24420307Y-53351848D01*
X-24455072Y-53412455D01*
X-24517085Y-53444645D01*
X-24529448Y-53446422D01*
X-24614259Y-53454281D01*
X-24645717Y-53457196D01*
X-24850799Y-53515548D01*
X-24850801Y-53515548D01*
X-25041660Y-53610584D01*
X-25211813Y-53739079D01*
X-25355459Y-53896651D01*
X-25467704Y-54077932D01*
X-25467705Y-54077934D01*
X-25544726Y-54276751D01*
X-25544727Y-54276754D01*
X-25583906Y-54486342D01*
X-25583906Y-54699562D01*
X-25544727Y-54909150D01*
X-25467704Y-55107971D01*
X-25355458Y-55289254D01*
X-25265804Y-55387599D01*
X-25211813Y-55446824D01*
X-25041660Y-55575319D01*
X-24850800Y-55670355D01*
X-24850798Y-55670355D01*
X-24850795Y-55670357D01*
X-24645716Y-55728708D01*
X-24526741Y-55739732D01*
X-24461805Y-55765518D01*
X-24421117Y-55822318D01*
X-24417597Y-55892099D01*
X-24452362Y-55952706D01*
X-24514374Y-55984896D01*
X-24526742Y-55986674D01*
X-24645623Y-55997689D01*
X-24645626Y-55997690D01*
X-24850603Y-56056010D01*
X-24850623Y-56056018D01*
X-25041396Y-56151011D01*
X-25211478Y-56279452D01*
X-25355058Y-56436952D01*
X-25355060Y-56436954D01*
X-25467253Y-56618153D01*
X-25467257Y-56618162D01*
X-25544243Y-56816888D01*
X-25544244Y-56816893D01*
X-25556593Y-56882952D01*
X-24528978Y-56882952D01*
X-24552088Y-56918912D01*
X-24593406Y-57059625D01*
X-24593406Y-57206279D01*
X-24552088Y-57346992D01*
X-24528978Y-57382952D01*
X-25556593Y-57382952D01*
X-25544244Y-57449010D01*
X-25544243Y-57449015D01*
X-25467257Y-57647741D01*
X-25467253Y-57647750D01*
X-25355060Y-57828949D01*
X-25355058Y-57828951D01*
X-25211478Y-57986451D01*
X-25041396Y-58114892D01*
X-24850623Y-58209885D01*
X-24850603Y-58209893D01*
X-24645626Y-58268213D01*
X-24645622Y-58268214D01*
X-24526743Y-58279229D01*
X-24461805Y-58305015D01*
X-24421117Y-58361815D01*
X-24417597Y-58431596D01*
X-24452362Y-58492202D01*
X-24514374Y-58524393D01*
X-24526741Y-58526171D01*
X-24645717Y-58537196D01*
X-24850799Y-58595548D01*
X-24850801Y-58595548D01*
X-25041660Y-58690584D01*
X-25211813Y-58819079D01*
X-25355459Y-58976651D01*
X-25467704Y-59157932D01*
X-25467705Y-59157934D01*
X-25479500Y-59188382D01*
X-25544727Y-59356754D01*
X-25583906Y-59566342D01*
X-25583906Y-59779562D01*
X-54651112Y-59779562D01*
X-55297069Y-59188382D01*
X-56591925Y-57949589D01*
X-57859059Y-56682455D01*
X-59097852Y-55387599D01*
X-59716145Y-54712017D01*
X-58222477Y-54712017D01*
X-58189660Y-54852143D01*
X-58189658Y-54852148D01*
X-58157346Y-54909152D01*
X-58118687Y-54977354D01*
X-58077143Y-55020580D01*
X-56088686Y-56689092D01*
X-56073175Y-56699501D01*
X-56038903Y-56722500D01*
X-56038900Y-56722501D01*
X-55903276Y-56770651D01*
X-55888900Y-56771449D01*
X-55759574Y-56778638D01*
X-55619444Y-56745819D01*
X-55494237Y-56674848D01*
X-55451011Y-56633304D01*
X-53782499Y-54644847D01*
X-53749091Y-54595064D01*
X-53710493Y-54486344D01*
X-53700940Y-54459436D01*
X-53699454Y-54432691D01*
X-53692953Y-54315735D01*
X-53725772Y-54175605D01*
X-53796743Y-54050398D01*
X-53838287Y-54007172D01*
X-55826744Y-52338660D01*
X-55876527Y-52305252D01*
X-55876526Y-52305252D01*
X-55876528Y-52305251D01*
X-55876531Y-52305250D01*
X-56012155Y-52257100D01*
X-56148669Y-52249513D01*
X-56155856Y-52249114D01*
X-56155857Y-52249114D01*
X-56295983Y-52281931D01*
X-56295988Y-52281933D01*
X-56421193Y-52352903D01*
X-56464419Y-52394447D01*
X-58132933Y-54382907D01*
X-58166340Y-54432688D01*
X-58166341Y-54432691D01*
X-58214491Y-54568315D01*
X-58222477Y-54712017D01*
X-59716145Y-54712017D01*
X-60307696Y-54065655D01*
X-61488001Y-52717270D01*
X-62638187Y-51343105D01*
X-63757693Y-49943831D01*
X-64845970Y-48520134D01*
X-65902485Y-47072711D01*
X-66926721Y-45602269D01*
X-67882256Y-44163614D01*
X-35011370Y-44163614D01*
X-34978586Y-44303599D01*
X-34978585Y-44303602D01*
X-34907684Y-44428688D01*
X-34866189Y-44471860D01*
X-34866178Y-44471871D01*
X-34063502Y-45145397D01*
X-33225455Y-44146653D01*
X-33215793Y-44179557D01*
X-33136506Y-44302930D01*
X-33025673Y-44398968D01*
X-32892272Y-44459890D01*
X-32841692Y-44467162D01*
X-33680480Y-45466790D01*
X-32877793Y-46140325D01*
X-32828070Y-46173691D01*
X-32828067Y-46173693D01*
X-32728200Y-46209147D01*
X-32671609Y-46250126D01*
X-32661808Y-46264856D01*
X-32609551Y-46357051D01*
X-32568056Y-46400223D01*
X-32568045Y-46400234D01*
X-31765369Y-47073760D01*
X-30927322Y-46075016D01*
X-30917660Y-46107920D01*
X-30838373Y-46231293D01*
X-30727540Y-46327331D01*
X-30594139Y-46388253D01*
X-30543559Y-46395525D01*
X-31382347Y-47395153D01*
X-30579660Y-48068688D01*
X-30529937Y-48102054D01*
X-30529931Y-48102057D01*
X-30394439Y-48150160D01*
X-30250881Y-48158138D01*
X-30110896Y-48125354D01*
X-30110893Y-48125353D01*
X-29985807Y-48054452D01*
X-29942635Y-48012957D01*
X-29942634Y-48012956D01*
X-29269098Y-47210268D01*
X-30268149Y-46371963D01*
X-30170416Y-46327331D01*
X-30059583Y-46231293D01*
X-29980296Y-46107920D01*
X-29945637Y-45989882D01*
X-28947705Y-46827247D01*
X-28274170Y-46024561D01*
X-28240804Y-45974838D01*
X-28240801Y-45974832D01*
X-28192698Y-45839340D01*
X-28184720Y-45695782D01*
X-28217504Y-45555797D01*
X-28217505Y-45555794D01*
X-28288406Y-45430708D01*
X-28329901Y-45387536D01*
X-28329912Y-45387525D01*
X-29132589Y-44713998D01*
X-29970636Y-45712740D01*
X-29980296Y-45679840D01*
X-30059583Y-45556467D01*
X-30170416Y-45460429D01*
X-30303817Y-45399507D01*
X-30354401Y-45392234D01*
X-29515611Y-44392605D01*
X-30318303Y-43719067D01*
X-30368020Y-43685705D01*
X-30368026Y-43685701D01*
X-30467892Y-43650247D01*
X-30524482Y-43609268D01*
X-30534282Y-43594539D01*
X-30586539Y-43502345D01*
X-30628034Y-43459173D01*
X-30628045Y-43459162D01*
X-31430722Y-42785635D01*
X-32268769Y-43784377D01*
X-32278429Y-43751477D01*
X-32357716Y-43628104D01*
X-32468549Y-43532066D01*
X-32601950Y-43471144D01*
X-32652534Y-43463871D01*
X-31813744Y-42464242D01*
X-32616436Y-41790704D01*
X-32666153Y-41757342D01*
X-32666159Y-41757339D01*
X-32801651Y-41709236D01*
X-32945209Y-41701258D01*
X-33085194Y-41734042D01*
X-33085197Y-41734043D01*
X-33210283Y-41804944D01*
X-33253455Y-41846439D01*
X-33253466Y-41846450D01*
X-33926993Y-42649126D01*
X-32927940Y-43487432D01*
X-33025673Y-43532066D01*
X-33136506Y-43628104D01*
X-33215793Y-43751477D01*
X-33250453Y-43869514D01*
X-34248386Y-43032148D01*
X-34921924Y-43834841D01*
X-34955286Y-43884558D01*
X-34955289Y-43884564D01*
X-35003392Y-44020056D01*
X-35011370Y-44163614D01*
X-67882256Y-44163614D01*
X-67918178Y-44109529D01*
X-68876370Y-42595221D01*
X-69800827Y-41060087D01*
X-70691097Y-39504877D01*
X-71546747Y-37930354D01*
X-71978081Y-37092994D01*
X-43438362Y-37092994D01*
X-43405545Y-37233120D01*
X-43405543Y-37233125D01*
X-43334573Y-37358330D01*
X-43334572Y-37358331D01*
X-43293028Y-37401557D01*
X-41304571Y-39070069D01*
X-41254788Y-39103477D01*
X-41254783Y-39103479D01*
X-41155031Y-39138893D01*
X-41098440Y-39179871D01*
X-41088641Y-39194600D01*
X-41036439Y-39286694D01*
X-40994895Y-39329920D01*
X-39006438Y-40998432D01*
X-38956655Y-41031840D01*
X-38956652Y-41031841D01*
X-38821028Y-41079991D01*
X-38806652Y-41080789D01*
X-38677326Y-41087978D01*
X-38537196Y-41055159D01*
X-38411989Y-40984188D01*
X-38368763Y-40942644D01*
X-36700251Y-38954187D01*
X-36666843Y-38904404D01*
X-36618692Y-38768775D01*
X-36610705Y-38625075D01*
X-36643524Y-38484945D01*
X-36714495Y-38359738D01*
X-36756039Y-38316512D01*
X-38744496Y-36648000D01*
X-38794279Y-36614592D01*
X-38794278Y-36614592D01*
X-38794280Y-36614591D01*
X-38794283Y-36614590D01*
X-38894038Y-36579175D01*
X-38950628Y-36538196D01*
X-38960427Y-36523468D01*
X-39012628Y-36431375D01*
X-39054172Y-36388149D01*
X-40828851Y-34899018D01*
X-41042629Y-34719637D01*
X-41092412Y-34686229D01*
X-41092411Y-34686229D01*
X-41092413Y-34686228D01*
X-41092416Y-34686227D01*
X-41228040Y-34638077D01*
X-41364554Y-34630490D01*
X-41371741Y-34630091D01*
X-41371742Y-34630091D01*
X-41511868Y-34662908D01*
X-41511873Y-34662910D01*
X-41637078Y-34733880D01*
X-41680304Y-34775424D01*
X-43348818Y-36763884D01*
X-43382225Y-36813665D01*
X-43382226Y-36813668D01*
X-43430376Y-36949292D01*
X-43438362Y-37092994D01*
X-71978081Y-37092994D01*
X-72367354Y-36337287D01*
X-73152519Y-34726456D01*
X-73901856Y-33098650D01*
X-74615000Y-31454665D01*
X-75291601Y-29795306D01*
X-75931327Y-28121386D01*
X-76183925Y-27413882D01*
X-52768990Y-27413882D01*
X-52748457Y-27661689D01*
X-52748455Y-27661701D01*
X-52687411Y-27902758D01*
X-52587521Y-28130483D01*
X-52451514Y-28338659D01*
X-52451511Y-28338662D01*
X-52283091Y-28521615D01*
X-52086856Y-28674351D01*
X-52086854Y-28674352D01*
X-51869015Y-28792241D01*
X-51868157Y-28792705D01*
X-51649206Y-28867871D01*
X-51634383Y-28872960D01*
X-51632961Y-28873448D01*
X-51387682Y-28914377D01*
X-51139012Y-28914377D01*
X-50893733Y-28873448D01*
X-50658537Y-28792705D01*
X-50439838Y-28674351D01*
X-50243603Y-28521615D01*
X-50084576Y-28348865D01*
X-50024690Y-28312876D01*
X-49954852Y-28314976D01*
X-49902119Y-28348865D01*
X-49743091Y-28521615D01*
X-49546856Y-28674351D01*
X-49546854Y-28674352D01*
X-49329015Y-28792241D01*
X-49328157Y-28792705D01*
X-49109206Y-28867871D01*
X-49094383Y-28872960D01*
X-49092961Y-28873448D01*
X-48847682Y-28914377D01*
X-48599012Y-28914377D01*
X-48353733Y-28873448D01*
X-48118537Y-28792705D01*
X-47899838Y-28674351D01*
X-47703603Y-28521615D01*
X-47544576Y-28348865D01*
X-47484690Y-28312876D01*
X-47414852Y-28314976D01*
X-47362119Y-28348865D01*
X-47203091Y-28521615D01*
X-47006856Y-28674351D01*
X-47006854Y-28674352D01*
X-46789015Y-28792241D01*
X-46788157Y-28792705D01*
X-46569206Y-28867871D01*
X-46554383Y-28872960D01*
X-46552961Y-28873448D01*
X-46307682Y-28914377D01*
X-46059012Y-28914377D01*
X-45813733Y-28873448D01*
X-45578537Y-28792705D01*
X-45359838Y-28674351D01*
X-45163603Y-28521615D01*
X-44995183Y-28338662D01*
X-44994814Y-28338096D01*
X-44994602Y-28337915D01*
X-44992025Y-28334606D01*
X-44991345Y-28335135D01*
X-44941671Y-28292737D01*
X-44878209Y-28282574D01*
X-44866783Y-28283759D01*
X-44134481Y-27551457D01*
X-44112029Y-27627917D01*
X-44032742Y-27751290D01*
X-43921909Y-27847328D01*
X-43788508Y-27908250D01*
X-43784713Y-27908795D01*
X-44513405Y-28637486D01*
X-44466579Y-28673932D01*
X-44466577Y-28673933D01*
X-44247962Y-28792241D01*
X-44247951Y-28792246D01*
X-44012841Y-28872960D01*
X-43767640Y-28913877D01*
X-43519054Y-28913877D01*
X-43273854Y-28872960D01*
X-43038744Y-28792246D01*
X-43038733Y-28792241D01*
X-42820119Y-28673934D01*
X-42820116Y-28673932D01*
X-42773291Y-28637486D01*
X-43501982Y-27908795D01*
X-43498186Y-27908250D01*
X-43364785Y-27847328D01*
X-43253952Y-27751290D01*
X-43174665Y-27627917D01*
X-43152215Y-27551457D01*
X-42419913Y-28283759D01*
X-42408486Y-28282574D01*
X-42339774Y-28295237D01*
X-42295255Y-28335071D01*
X-42294664Y-28334612D01*
X-42292129Y-28337869D01*
X-42291891Y-28338082D01*
X-42291516Y-28338657D01*
X-42291511Y-28338662D01*
X-42123091Y-28521615D01*
X-41926856Y-28674351D01*
X-41926854Y-28674352D01*
X-41709015Y-28792241D01*
X-41708157Y-28792705D01*
X-41489206Y-28867871D01*
X-41474383Y-28872960D01*
X-41472961Y-28873448D01*
X-41227682Y-28914377D01*
X-40979012Y-28914377D01*
X-40733733Y-28873448D01*
X-40498537Y-28792705D01*
X-40279838Y-28674351D01*
X-40083603Y-28521615D01*
X-39924576Y-28348865D01*
X-39864690Y-28312876D01*
X-39794852Y-28314976D01*
X-39742119Y-28348865D01*
X-39583091Y-28521615D01*
X-39386856Y-28674351D01*
X-39386854Y-28674352D01*
X-39169015Y-28792241D01*
X-39168157Y-28792705D01*
X-38949206Y-28867871D01*
X-38934383Y-28872960D01*
X-38932961Y-28873448D01*
X-38687682Y-28914377D01*
X-38439012Y-28914377D01*
X-38193733Y-28873448D01*
X-37958537Y-28792705D01*
X-37739838Y-28674351D01*
X-37543603Y-28521615D01*
X-37375183Y-28338662D01*
X-37239174Y-28130484D01*
X-37139284Y-27902758D01*
X-37078239Y-27661698D01*
X-37057704Y-27413877D01*
X-37075440Y-27199837D01*
X-37078238Y-27166064D01*
X-37078240Y-27166052D01*
X-37139284Y-26924995D01*
X-37239174Y-26697270D01*
X-37375181Y-26489094D01*
X-37426154Y-26433723D01*
X-37543603Y-26306139D01*
X-37739838Y-26153403D01*
X-37739840Y-26153402D01*
X-37739841Y-26153401D01*
X-37958536Y-26035049D01*
X-37958545Y-26035046D01*
X-38193731Y-25954306D01*
X-38439012Y-25913377D01*
X-38687682Y-25913377D01*
X-38932964Y-25954306D01*
X-39168150Y-26035046D01*
X-39168159Y-26035049D01*
X-39386854Y-26153401D01*
X-39583090Y-26306138D01*
X-39742117Y-26478887D01*
X-39802005Y-26514878D01*
X-39871843Y-26512777D01*
X-39924577Y-26478887D01*
X-39966154Y-26433723D01*
X-40083603Y-26306139D01*
X-40279838Y-26153403D01*
X-40279840Y-26153402D01*
X-40279841Y-26153401D01*
X-40498536Y-26035049D01*
X-40498545Y-26035046D01*
X-40733731Y-25954306D01*
X-40979012Y-25913377D01*
X-41227682Y-25913377D01*
X-41472964Y-25954306D01*
X-41708150Y-26035046D01*
X-41708159Y-26035049D01*
X-41926854Y-26153401D01*
X-42123090Y-26306138D01*
X-42291510Y-26489090D01*
X-42291518Y-26489101D01*
X-42291892Y-26489674D01*
X-42292105Y-26489855D01*
X-42294657Y-26493135D01*
X-42295333Y-26492609D01*
X-42345043Y-26535024D01*
X-42408482Y-26545179D01*
X-42419913Y-26543993D01*
X-43152215Y-27276295D01*
X-43174665Y-27199837D01*
X-43253952Y-27076464D01*
X-43364785Y-26980426D01*
X-43498186Y-26919504D01*
X-43501981Y-26918958D01*
X-42773290Y-26190267D01*
X-42773291Y-26190266D01*
X-42820118Y-26153820D01*
X-43038733Y-26035512D01*
X-43038744Y-26035507D01*
X-43273854Y-25954793D01*
X-43519054Y-25913877D01*
X-43767640Y-25913877D01*
X-44012841Y-25954793D01*
X-44247951Y-26035507D01*
X-44247957Y-26035509D01*
X-44466586Y-26153826D01*
X-44513405Y-26190265D01*
X-44513405Y-26190267D01*
X-43784713Y-26918958D01*
X-43788508Y-26919504D01*
X-43921909Y-26980426D01*
X-44032742Y-27076464D01*
X-44112029Y-27199837D01*
X-44134480Y-27276296D01*
X-44866783Y-26543993D01*
X-44878212Y-26545179D01*
X-44946924Y-26532514D01*
X-44991437Y-26492679D01*
X-44992030Y-26493142D01*
X-44994579Y-26489868D01*
X-44994812Y-26489659D01*
X-44995181Y-26489095D01*
X-44995182Y-26489094D01*
X-44995183Y-26489092D01*
X-45163603Y-26306139D01*
X-45359838Y-26153403D01*
X-45359840Y-26153402D01*
X-45359841Y-26153401D01*
X-45578536Y-26035049D01*
X-45578545Y-26035046D01*
X-45813731Y-25954306D01*
X-46059012Y-25913377D01*
X-46307682Y-25913377D01*
X-46552964Y-25954306D01*
X-46788150Y-26035046D01*
X-46788159Y-26035049D01*
X-47006854Y-26153401D01*
X-47203090Y-26306138D01*
X-47362117Y-26478887D01*
X-47422005Y-26514878D01*
X-47491843Y-26512777D01*
X-47544577Y-26478887D01*
X-47586154Y-26433723D01*
X-47703603Y-26306139D01*
X-47899838Y-26153403D01*
X-47899840Y-26153402D01*
X-47899841Y-26153401D01*
X-48118536Y-26035049D01*
X-48118545Y-26035046D01*
X-48353731Y-25954306D01*
X-48599012Y-25913377D01*
X-48847682Y-25913377D01*
X-49092964Y-25954306D01*
X-49328150Y-26035046D01*
X-49328159Y-26035049D01*
X-49546854Y-26153401D01*
X-49743090Y-26306138D01*
X-49902117Y-26478887D01*
X-49962005Y-26514878D01*
X-50031843Y-26512777D01*
X-50084577Y-26478887D01*
X-50126154Y-26433723D01*
X-50243603Y-26306139D01*
X-50439838Y-26153403D01*
X-50439840Y-26153402D01*
X-50439841Y-26153401D01*
X-50658536Y-26035049D01*
X-50658545Y-26035046D01*
X-50893731Y-25954306D01*
X-51139012Y-25913377D01*
X-51387682Y-25913377D01*
X-51632964Y-25954306D01*
X-51868150Y-26035046D01*
X-51868159Y-26035049D01*
X-52086854Y-26153401D01*
X-52283090Y-26306138D01*
X-52451514Y-26489094D01*
X-52587521Y-26697270D01*
X-52687411Y-26924995D01*
X-52748455Y-27166052D01*
X-52748457Y-27166064D01*
X-52768990Y-27413871D01*
X-52768990Y-27413882D01*
X-76183925Y-27413882D01*
X-76533867Y-26433723D01*
X-77098924Y-24733144D01*
X-77626223Y-23020481D01*
X-78115505Y-21296572D01*
X-78463037Y-19960221D01*
X-36821945Y-19960221D01*
X-35336316Y-21445852D01*
X-35336315Y-21445852D01*
X-33446623Y-19556160D01*
X-33446623Y-19556159D01*
X-34932252Y-18070529D01*
X-34932253Y-18070529D01*
X-36821945Y-19960221D01*
X-78463037Y-19960221D01*
X-78566531Y-19562261D01*
X-78979080Y-17818397D01*
X-79352950Y-16065833D01*
X-79687958Y-14305427D01*
X-79983940Y-12538041D01*
X-80240752Y-10764539D01*
X-80458267Y-8985791D01*
X-80636380Y-7202665D01*
X-80775002Y-5416036D01*
X-80874066Y-3626778D01*
X-80933524Y-1835766D01*
X-80953347Y-43877D01*
X-80933524Y1748012D01*
X-80874066Y3539024D01*
X-80775002Y5328282D01*
X-80636380Y7114911D01*
X-80458267Y8898037D01*
X-80240752Y10676785D01*
X-79983940Y12450287D01*
X-79687958Y14217673D01*
X-79352950Y15978079D01*
X-78979080Y17730643D01*
X-78566531Y19474507D01*
X-78115505Y21208818D01*
X-77626223Y22932727D01*
X-77498316Y23348169D01*
X-40640691Y23348169D01*
X-40604582Y23209006D01*
X-40604581Y23209003D01*
X-40575671Y23156553D01*
X-40575665Y23156544D01*
X-40118056Y22503009D01*
X-40118055Y22503009D01*
X-39255932Y23106676D01*
X-39255932Y23085259D01*
X-39214614Y22944546D01*
X-39135327Y22821173D01*
X-39024494Y22725135D01*
X-38966760Y22698769D01*
X-39831267Y22093434D01*
X-39373647Y21439886D01*
X-39334253Y21394786D01*
X-39334252Y21394785D01*
X-39215823Y21313252D01*
X-39079226Y21268391D01*
X-39079229Y21268391D01*
X-38935515Y21263828D01*
X-38796352Y21299937D01*
X-38796349Y21299938D01*
X-38743899Y21328848D01*
X-38743890Y21328854D01*
X-38090356Y21786464D01*
X-38090355Y21786465D01*
X-38695432Y22650603D01*
X-38600771Y22664213D01*
X-38467370Y22725135D01*
X-38356537Y22821173D01*
X-38283767Y22934407D01*
X-37680780Y22073253D01*
X-37680779Y22073252D01*
X-37027240Y22530865D01*
X-37027232Y22530872D01*
X-36982132Y22570266D01*
X-36982131Y22570267D01*
X-36900598Y22688696D01*
X-36855737Y22825292D01*
X-36851174Y22969004D01*
X-36887283Y23108167D01*
X-36887284Y23108170D01*
X-36916194Y23160620D01*
X-36916200Y23160629D01*
X-37373810Y23814165D01*
X-37373811Y23814165D01*
X-38235932Y23210501D01*
X-38235932Y23231913D01*
X-38277250Y23372626D01*
X-38356537Y23495999D01*
X-38467370Y23592037D01*
X-38525108Y23618405D01*
X-37660599Y24223740D01*
X-38118218Y24877287D01*
X-38157612Y24922387D01*
X-38157613Y24922388D01*
X-38276042Y25003921D01*
X-38412639Y25048782D01*
X-38412636Y25048782D01*
X-38556350Y25053345D01*
X-38695513Y25017236D01*
X-38695516Y25017235D01*
X-38747966Y24988325D01*
X-38747975Y24988319D01*
X-39401511Y24530710D01*
X-39401511Y24530709D01*
X-38796433Y23666570D01*
X-38891093Y23652959D01*
X-39024494Y23592037D01*
X-39135327Y23495999D01*
X-39208098Y23382766D01*
X-39811086Y24243921D01*
X-40464633Y23786301D01*
X-40509733Y23746907D01*
X-40509734Y23746906D01*
X-40591267Y23628477D01*
X-40636128Y23491881D01*
X-40640691Y23348169D01*
X-77498316Y23348169D01*
X-77098924Y24645390D01*
X-76533867Y26345969D01*
X-75931327Y28033632D01*
X-75494879Y29175651D01*
X-32318607Y29175651D01*
X-32282463Y29036351D01*
X-32282461Y29036345D01*
X-32253520Y28983839D01*
X-31051449Y27267106D01*
X-31012009Y27221951D01*
X-30893464Y27140338D01*
X-30893463Y27140338D01*
X-30893462Y27140337D01*
X-30847223Y27125152D01*
X-30756730Y27095431D01*
X-30756727Y27095430D01*
X-30612878Y27090863D01*
X-30473569Y27127009D01*
X-30421063Y27155950D01*
X-28704330Y28358021D01*
X-28659175Y28397461D01*
X-28577562Y28516006D01*
X-28532654Y28652743D01*
X-28528087Y28796592D01*
X-28564233Y28935901D01*
X-28593174Y28988407D01*
X-29795245Y30705140D01*
X-29834685Y30750295D01*
X-29953230Y30831908D01*
X-29953231Y30831909D01*
X-29953233Y30831910D01*
X-30089967Y30876816D01*
X-30089964Y30876816D01*
X-30151617Y30878774D01*
X-30233816Y30881383D01*
X-30233817Y30881383D01*
X-30233820Y30881383D01*
X-30373120Y30845239D01*
X-30373129Y30845235D01*
X-30425623Y30816301D01*
X-30425630Y30816297D01*
X-31212174Y30265552D01*
X-32029584Y29693194D01*
X-32142368Y29614222D01*
X-32187519Y29574786D01*
X-32187522Y29574782D01*
X-32269134Y29456238D01*
X-32314040Y29319506D01*
X-32314040Y29319503D01*
X-32317911Y29197560D01*
X-32318607Y29175651D01*
X-75494879Y29175651D01*
X-75291601Y29707552D01*
X-74615000Y31366911D01*
X-73901856Y33010896D01*
X-73152519Y34638702D01*
X-72467037Y36045026D01*
X-49531126Y36045026D01*
X-49495017Y35905863D01*
X-49495016Y35905860D01*
X-49466106Y35853410D01*
X-49466100Y35853401D01*
X-49008491Y35199866D01*
X-49008490Y35199866D01*
X-48146367Y35803533D01*
X-48146367Y35782116D01*
X-48105049Y35641403D01*
X-48025762Y35518030D01*
X-47914929Y35421992D01*
X-47857195Y35395626D01*
X-48721702Y34790291D01*
X-48264082Y34136743D01*
X-48224688Y34091643D01*
X-48224687Y34091642D01*
X-48106258Y34010109D01*
X-47969661Y33965248D01*
X-47969664Y33965248D01*
X-47825950Y33960685D01*
X-47686787Y33996794D01*
X-47686784Y33996795D01*
X-47634334Y34025705D01*
X-47634325Y34025711D01*
X-46980791Y34483321D01*
X-46980790Y34483322D01*
X-47585867Y35347460D01*
X-47491206Y35361070D01*
X-47357805Y35421992D01*
X-47246972Y35518030D01*
X-47174202Y35631264D01*
X-46571215Y34770110D01*
X-46571214Y34770109D01*
X-45917675Y35227722D01*
X-45917667Y35227729D01*
X-45872567Y35267123D01*
X-45872566Y35267124D01*
X-45791033Y35385553D01*
X-45746172Y35522149D01*
X-45741609Y35665861D01*
X-45777718Y35805024D01*
X-45777719Y35805027D01*
X-45806629Y35857477D01*
X-45806635Y35857486D01*
X-46264245Y36511022D01*
X-46264246Y36511022D01*
X-47126367Y35907358D01*
X-47126367Y35928770D01*
X-47167685Y36069483D01*
X-47246972Y36192856D01*
X-47357805Y36288894D01*
X-47415543Y36315262D01*
X-46551034Y36920597D01*
X-47008653Y37574144D01*
X-47048047Y37619244D01*
X-47048048Y37619245D01*
X-47166477Y37700778D01*
X-47303074Y37745639D01*
X-47303071Y37745639D01*
X-47446785Y37750202D01*
X-47585948Y37714093D01*
X-47585951Y37714092D01*
X-47638401Y37685182D01*
X-47638410Y37685176D01*
X-48291946Y37227567D01*
X-48291946Y37227566D01*
X-47686868Y36363427D01*
X-47781528Y36349816D01*
X-47914929Y36288894D01*
X-48025762Y36192856D01*
X-48098533Y36079623D01*
X-48701521Y36940778D01*
X-49355068Y36483158D01*
X-49400168Y36443764D01*
X-49400169Y36443763D01*
X-49481702Y36325334D01*
X-49526563Y36188738D01*
X-49531126Y36045026D01*
X-72467037Y36045026D01*
X-72367354Y36249533D01*
X-71546747Y37842600D01*
X-70691097Y39417123D01*
X-70119512Y40415623D01*
X-43289688Y40415623D01*
X-43267503Y40330122D01*
X-43253542Y40276317D01*
X-43224601Y40223811D01*
X-42022530Y38507078D01*
X-41983090Y38461923D01*
X-41864545Y38380310D01*
X-41864544Y38380310D01*
X-41864543Y38380309D01*
X-41818304Y38365124D01*
X-41727811Y38335403D01*
X-41727808Y38335402D01*
X-41583959Y38330835D01*
X-41444650Y38366981D01*
X-41392144Y38395922D01*
X-39675411Y39597993D01*
X-39630256Y39637433D01*
X-39593215Y39691236D01*
X-39558122Y39742209D01*
X-39503893Y39786266D01*
X-39487140Y39791917D01*
X-39364004Y39823866D01*
X-39311498Y39852807D01*
X-37594765Y41054878D01*
X-37549610Y41094318D01*
X-37467997Y41212863D01*
X-37423089Y41349600D01*
X-37418522Y41493449D01*
X-37454668Y41632758D01*
X-37483609Y41685264D01*
X-38685680Y43401997D01*
X-38725120Y43447152D01*
X-38728448Y43449443D01*
X-38843668Y43528767D01*
X-38980402Y43573673D01*
X-38980399Y43573673D01*
X-39042052Y43575631D01*
X-39124251Y43578240D01*
X-39124252Y43578240D01*
X-39124255Y43578240D01*
X-39263555Y43542096D01*
X-39263564Y43542092D01*
X-39316058Y43513158D01*
X-39316065Y43513154D01*
X-40282841Y42836209D01*
X-40970130Y42354963D01*
X-41032803Y42311079D01*
X-41077954Y42271643D01*
X-41077957Y42271639D01*
X-41150088Y42166866D01*
X-41204318Y42122810D01*
X-41221080Y42117157D01*
X-41339455Y42086442D01*
X-41344206Y42085209D01*
X-41344209Y42085208D01*
X-41344210Y42085207D01*
X-41396704Y42056273D01*
X-41396711Y42056269D01*
X-42247579Y41460484D01*
X-43049609Y40898895D01*
X-43113449Y40854194D01*
X-43158600Y40814758D01*
X-43158603Y40814754D01*
X-43240215Y40696210D01*
X-43285121Y40559478D01*
X-43289688Y40415623D01*
X-70119512Y40415623D01*
X-69800827Y40972333D01*
X-68876370Y42507467D01*
X-68334378Y43364020D01*
X-55198726Y43364020D01*
X-55178246Y43221565D01*
X-55178245Y43221561D01*
X-55118459Y43090650D01*
X-55118458Y43090649D01*
X-55118457Y43090647D01*
X-55080838Y43043964D01*
X-55080835Y43043961D01*
X-55080830Y43043955D01*
X-54213956Y42177083D01*
X-53935505Y41898632D01*
X-53888822Y41861012D01*
X-53888821Y41861012D01*
X-53888819Y41861010D01*
X-53757909Y41801225D01*
X-53757908Y41801225D01*
X-53757906Y41801224D01*
X-53615449Y41780743D01*
X-53472992Y41801224D01*
X-53342076Y41861012D01*
X-53295393Y41898631D01*
X-52357816Y42836209D01*
X-44905696Y42836209D01*
X-44885169Y42614674D01*
X-44885168Y42614672D01*
X-44824284Y42400686D01*
X-44824278Y42400671D01*
X-44725115Y42201526D01*
X-44725110Y42201518D01*
X-44591033Y42023971D01*
X-44426616Y41874086D01*
X-44426614Y41874084D01*
X-44237458Y41756964D01*
X-44237457Y41756964D01*
X-44237454Y41756962D01*
X-44029993Y41676591D01*
X-43811296Y41635709D01*
X-43811294Y41635709D01*
X-43588812Y41635709D01*
X-43588810Y41635709D01*
X-43370113Y41676591D01*
X-43162652Y41756962D01*
X-42973491Y41874085D01*
X-42809072Y42023973D01*
X-42674995Y42201520D01*
X-42575824Y42400681D01*
X-42514938Y42614673D01*
X-42494410Y42836209D01*
X-42496063Y42854043D01*
X-42514938Y43057745D01*
X-42522727Y43085119D01*
X-42559813Y43215465D01*
X-42559227Y43285328D01*
X-42520960Y43343787D01*
X-42457163Y43372278D01*
X-42388090Y43361754D01*
X-42357011Y43341035D01*
X-42345969Y43330969D01*
X-42345967Y43330968D01*
X-42345966Y43330967D01*
X-42156812Y43213848D01*
X-42156811Y43213848D01*
X-42156808Y43213846D01*
X-41949347Y43133475D01*
X-41730650Y43092593D01*
X-41730648Y43092593D01*
X-41508166Y43092593D01*
X-41508164Y43092593D01*
X-41289467Y43133475D01*
X-41082006Y43213846D01*
X-40892845Y43330969D01*
X-40728426Y43480857D01*
X-40594349Y43658404D01*
X-40495178Y43857565D01*
X-40434292Y44071557D01*
X-40413764Y44293093D01*
X-40418171Y44340648D01*
X-40434292Y44514629D01*
X-40434293Y44514631D01*
X-40455752Y44590051D01*
X-40495178Y44728621D01*
X-40506886Y44752134D01*
X-40594346Y44927777D01*
X-40594351Y44927785D01*
X-40728428Y45105332D01*
X-40892845Y45255217D01*
X-40892847Y45255219D01*
X-41082003Y45372339D01*
X-41082009Y45372341D01*
X-41289467Y45452711D01*
X-41508164Y45493593D01*
X-41730650Y45493593D01*
X-41949347Y45452711D01*
X-42080543Y45401886D01*
X-42156806Y45372341D01*
X-42156812Y45372339D01*
X-42345968Y45255219D01*
X-42345970Y45255217D01*
X-42510387Y45105332D01*
X-42644464Y44927785D01*
X-42644469Y44927777D01*
X-42743632Y44728632D01*
X-42743638Y44728617D01*
X-42804522Y44514631D01*
X-42804523Y44514629D01*
X-42825050Y44293094D01*
X-42825050Y44293093D01*
X-42804523Y44071558D01*
X-42804522Y44071556D01*
X-42759648Y43913841D01*
X-42760235Y43843974D01*
X-42798501Y43785515D01*
X-42862299Y43757025D01*
X-42931371Y43767549D01*
X-42962452Y43788270D01*
X-42973491Y43798333D01*
X-42973493Y43798335D01*
X-43162649Y43915455D01*
X-43162655Y43915457D01*
X-43370113Y43995827D01*
X-43588810Y44036709D01*
X-43811296Y44036709D01*
X-44029993Y43995827D01*
X-44161189Y43945002D01*
X-44237452Y43915457D01*
X-44237458Y43915455D01*
X-44426614Y43798335D01*
X-44426616Y43798333D01*
X-44591033Y43648448D01*
X-44725110Y43470901D01*
X-44725115Y43470893D01*
X-44824278Y43271748D01*
X-44824284Y43271733D01*
X-44885168Y43057747D01*
X-44885169Y43057745D01*
X-44905696Y42836210D01*
X-44905696Y42836209D01*
X-52357816Y42836209D01*
X-52150061Y43043964D01*
X-52112441Y43090647D01*
X-52052653Y43221563D01*
X-52032172Y43364020D01*
X-52044328Y43448569D01*
X-52034384Y43517723D01*
X-51988629Y43570527D01*
X-51921590Y43590212D01*
X-51903944Y43588950D01*
X-51819399Y43576795D01*
X-51819399Y43576796D01*
X-51819398Y43576795D01*
X-51676941Y43597276D01*
X-51546025Y43657064D01*
X-51499342Y43694683D01*
X-50354010Y44840016D01*
X-50316390Y44886699D01*
X-50298068Y44926817D01*
X-50256603Y45017613D01*
X-50256604Y45017613D01*
X-50256602Y45017615D01*
X-50236121Y45160072D01*
X-50248276Y45244617D01*
X-50238332Y45313775D01*
X-50192577Y45366579D01*
X-50125537Y45386263D01*
X-50107892Y45385001D01*
X-50023347Y45372846D01*
X-49880890Y45393327D01*
X-49749974Y45453115D01*
X-49703291Y45490734D01*
X-48557959Y46636067D01*
X-48520339Y46682750D01*
X-48518476Y46686828D01*
X-48460552Y46813664D01*
X-48460553Y46813664D01*
X-48460551Y46813666D01*
X-48440070Y46956123D01*
X-48445133Y46991341D01*
X-48452225Y47040669D01*
X-48442281Y47109828D01*
X-48396525Y47162631D01*
X-48329486Y47182315D01*
X-48311854Y47181054D01*
X-48227295Y47168897D01*
X-48084838Y47189378D01*
X-47953922Y47249166D01*
X-47907239Y47286785D01*
X-46761907Y48432118D01*
X-46724287Y48478801D01*
X-46714158Y48500979D01*
X-46684429Y48566079D01*
X-46664499Y48609717D01*
X-46644018Y48752174D01*
X-46656248Y48837238D01*
X-46646304Y48906392D01*
X-46600549Y48959196D01*
X-46533510Y48978881D01*
X-46515864Y48977619D01*
X-46431244Y48965454D01*
X-46288931Y48985914D01*
X-46288923Y48985916D01*
X-46158150Y49045638D01*
X-46158143Y49045643D01*
X-46111512Y49083220D01*
X-45715652Y49479080D01*
X-45715652Y49479081D01*
X-46289879Y50053307D01*
X-46286083Y50053852D01*
X-46152682Y50114774D01*
X-46041849Y50210812D01*
X-45962562Y50334185D01*
X-45940111Y50410645D01*
X-45362100Y49832633D01*
X-45362099Y49832633D01*
X-44966239Y50228493D01*
X-44928662Y50275124D01*
X-44928657Y50275131D01*
X-44868935Y50405904D01*
X-44868933Y50405912D01*
X-44848473Y50548225D01*
X-44868933Y50690539D01*
X-44868935Y50690547D01*
X-44928657Y50821320D01*
X-44928662Y50821327D01*
X-44963062Y50864015D01*
X-44989800Y50928566D01*
X-44977394Y50997326D01*
X-44929783Y51048463D01*
X-44862084Y51065742D01*
X-44795790Y51043677D01*
X-44788716Y51038382D01*
X-44745931Y51003903D01*
X-44745930Y51003903D01*
X-44745928Y51003901D01*
X-44615018Y50944116D01*
X-44615017Y50944116D01*
X-44615015Y50944115D01*
X-44472558Y50923634D01*
X-44330101Y50944115D01*
X-44199185Y51003903D01*
X-44152502Y51041522D01*
X-43007170Y52186855D01*
X-42969550Y52233538D01*
X-42909762Y52364454D01*
X-42889281Y52506911D01*
X-42909762Y52649368D01*
X-42924187Y52680953D01*
X-42969549Y52780282D01*
X-42969550Y52780283D01*
X-42969550Y52780284D01*
X-43007169Y52826967D01*
X-43007174Y52826972D01*
X-43007178Y52826977D01*
X-44152495Y53972292D01*
X-44152502Y53972299D01*
X-44199185Y54009919D01*
X-44199187Y54009920D01*
X-44199189Y54009922D01*
X-44330099Y54069707D01*
X-44330103Y54069708D01*
X-44472558Y54090188D01*
X-44615014Y54069708D01*
X-44615018Y54069707D01*
X-44745929Y54009921D01*
X-44792624Y53972292D01*
X-45937939Y52826975D01*
X-45937945Y52826969D01*
X-45937946Y52826967D01*
X-45942456Y52821370D01*
X-45975567Y52780283D01*
X-45975569Y52780281D01*
X-46035354Y52649371D01*
X-46035355Y52649367D01*
X-46055835Y52506911D01*
X-46035355Y52364456D01*
X-46035354Y52364452D01*
X-45975567Y52233539D01*
X-45975566Y52233537D01*
X-45941100Y52190767D01*
X-45914362Y52126216D01*
X-45926768Y52057457D01*
X-45974379Y52006320D01*
X-46042079Y51989041D01*
X-46108373Y52011106D01*
X-46115458Y52016411D01*
X-46158138Y52050805D01*
X-46158150Y52050813D01*
X-46288923Y52110535D01*
X-46288931Y52110537D01*
X-46431244Y52130997D01*
X-46573558Y52110537D01*
X-46573566Y52110535D01*
X-46704339Y52050813D01*
X-46704346Y52050808D01*
X-46750982Y52013227D01*
X-47146837Y51617372D01*
X-47146837Y51617371D01*
X-46572610Y51043144D01*
X-46576405Y51042598D01*
X-46709806Y50981676D01*
X-46820639Y50885638D01*
X-46899926Y50762265D01*
X-46922378Y50685806D01*
X-47500390Y51263818D01*
X-47500391Y51263818D01*
X-47896246Y50867963D01*
X-47933827Y50821327D01*
X-47933832Y50821320D01*
X-47993554Y50690547D01*
X-47993556Y50690539D01*
X-48014016Y50548225D01*
X-48014016Y50548224D01*
X-48001851Y50463605D01*
X-48011795Y50394447D01*
X-48057551Y50341644D01*
X-48124591Y50321960D01*
X-48142235Y50323222D01*
X-48227295Y50335451D01*
X-48369751Y50314971D01*
X-48369755Y50314970D01*
X-48500666Y50255184D01*
X-48547361Y50217555D01*
X-49692676Y49072238D01*
X-49692682Y49072231D01*
X-49730304Y49025546D01*
X-49730306Y49025544D01*
X-49790091Y48894634D01*
X-49790092Y48894630D01*
X-49810572Y48752174D01*
X-49810572Y48752173D01*
X-49798418Y48667628D01*
X-49808363Y48598469D01*
X-49854119Y48545666D01*
X-49921158Y48525983D01*
X-49938802Y48527245D01*
X-50023347Y48539400D01*
X-50165803Y48518920D01*
X-50165807Y48518919D01*
X-50296718Y48459133D01*
X-50343413Y48421504D01*
X-51488728Y47276187D01*
X-51488734Y47276180D01*
X-51526356Y47229495D01*
X-51526358Y47229493D01*
X-51586143Y47098583D01*
X-51586144Y47098579D01*
X-51606624Y46956123D01*
X-51606624Y46956122D01*
X-51594470Y46871578D01*
X-51604415Y46802420D01*
X-51650170Y46749616D01*
X-51717210Y46729933D01*
X-51734853Y46731195D01*
X-51819396Y46743349D01*
X-51819398Y46743349D01*
X-51961854Y46722869D01*
X-51961858Y46722868D01*
X-52092769Y46663082D01*
X-52139464Y46625453D01*
X-53284779Y45480136D01*
X-53284785Y45480129D01*
X-53322407Y45433444D01*
X-53322409Y45433442D01*
X-53382194Y45302532D01*
X-53382195Y45302528D01*
X-53402675Y45160073D01*
X-53390520Y45075527D01*
X-53400464Y45006369D01*
X-53446219Y44953565D01*
X-53513259Y44933881D01*
X-53530903Y44935143D01*
X-53615447Y44947297D01*
X-53615449Y44947297D01*
X-53757905Y44926817D01*
X-53757909Y44926816D01*
X-53888820Y44867030D01*
X-53935515Y44829401D01*
X-55080830Y43684084D01*
X-55080836Y43684077D01*
X-55118458Y43637392D01*
X-55118460Y43637390D01*
X-55178245Y43506480D01*
X-55178246Y43506476D01*
X-55198726Y43364020D01*
X-68334378Y43364020D01*
X-67918178Y44021775D01*
X-66926721Y45514515D01*
X-65902485Y46984957D01*
X-64845970Y48432380D01*
X-63757693Y49856077D01*
X-62638187Y51255351D01*
X-61488001Y52629516D01*
X-60307696Y53977901D01*
X-59097852Y55299845D01*
X-57859059Y56594701D01*
X-56591925Y57861835D01*
X-55297069Y59100628D01*
X-53975125Y60310472D01*
X-52626740Y61490777D01*
X-51252575Y62640963D01*
X-51134144Y62735715D01*
X-37404480Y62735715D01*
X-37383947Y62487908D01*
X-37383945Y62487896D01*
X-37322901Y62246839D01*
X-37223011Y62019114D01*
X-37087004Y61810938D01*
X-37087001Y61810935D01*
X-36918581Y61627982D01*
X-36722346Y61475246D01*
X-36503647Y61356892D01*
X-36268451Y61276149D01*
X-36023172Y61235220D01*
X-36002220Y61235220D01*
X-35935181Y61215535D01*
X-35889426Y61162731D01*
X-35879482Y61093573D01*
X-35882013Y61080787D01*
X-35901576Y61003533D01*
X-35927061Y60902896D01*
X-35927063Y60902887D01*
X-35947596Y60655080D01*
X-35947596Y60655069D01*
X-35927063Y60407262D01*
X-35927061Y60407250D01*
X-35866017Y60166193D01*
X-35766127Y59938468D01*
X-35630120Y59730292D01*
X-35630117Y59730289D01*
X-35461697Y59547336D01*
X-35265462Y59394600D01*
X-35046763Y59276246D01*
X-34811567Y59195503D01*
X-34566288Y59154574D01*
X-34545335Y59154574D01*
X-34478296Y59134889D01*
X-34432541Y59082085D01*
X-34422597Y59012927D01*
X-34425128Y59000141D01*
X-34444691Y58922887D01*
X-34470176Y58822250D01*
X-34470178Y58822241D01*
X-34490711Y58574434D01*
X-34490711Y58574423D01*
X-34470178Y58326616D01*
X-34470176Y58326604D01*
X-34409132Y58085547D01*
X-34309242Y57857822D01*
X-34173235Y57649646D01*
X-34173232Y57649643D01*
X-34004812Y57466690D01*
X-33808577Y57313954D01*
X-33589878Y57195600D01*
X-33354682Y57114857D01*
X-33109403Y57073928D01*
X-33088451Y57073928D01*
X-33021412Y57054243D01*
X-32975657Y57001439D01*
X-32965713Y56932281D01*
X-32968244Y56919495D01*
X-32987807Y56842241D01*
X-33013292Y56741604D01*
X-33013294Y56741595D01*
X-33033827Y56493788D01*
X-33033827Y56493777D01*
X-33013294Y56245970D01*
X-33013292Y56245958D01*
X-32952248Y56004901D01*
X-32852358Y55777176D01*
X-32716351Y55569000D01*
X-32716348Y55568997D01*
X-32547928Y55386044D01*
X-32351693Y55233308D01*
X-32132994Y55114954D01*
X-31897798Y55034211D01*
X-31652519Y54993282D01*
X-31631567Y54993282D01*
X-31564528Y54973597D01*
X-31518773Y54920793D01*
X-31508829Y54851635D01*
X-31511361Y54838842D01*
X-31556408Y54660960D01*
X-31556410Y54660948D01*
X-31576943Y54413141D01*
X-31576943Y54413130D01*
X-31556410Y54165323D01*
X-31556408Y54165311D01*
X-31495364Y53924254D01*
X-31395474Y53696529D01*
X-31259467Y53488353D01*
X-31259464Y53488350D01*
X-31091044Y53305397D01*
X-30894809Y53152661D01*
X-30676110Y53034307D01*
X-30440914Y52953564D01*
X-30195635Y52912635D01*
X-30174683Y52912635D01*
X-30107644Y52892950D01*
X-30061889Y52840146D01*
X-30051945Y52770988D01*
X-30054476Y52758202D01*
X-30074039Y52680948D01*
X-30099524Y52580311D01*
X-30099526Y52580302D01*
X-30120059Y52332495D01*
X-30120059Y52332484D01*
X-30099526Y52084677D01*
X-30099524Y52084665D01*
X-30038480Y51843608D01*
X-29938590Y51615883D01*
X-29802583Y51407707D01*
X-29802580Y51407704D01*
X-29634160Y51224751D01*
X-29437925Y51072015D01*
X-29219226Y50953661D01*
X-28984030Y50872918D01*
X-28738751Y50831989D01*
X-28717799Y50831989D01*
X-28650760Y50812304D01*
X-28605005Y50759500D01*
X-28595061Y50690342D01*
X-28597592Y50677556D01*
X-28617155Y50600302D01*
X-28642640Y50499665D01*
X-28642642Y50499656D01*
X-28663175Y50251849D01*
X-28663175Y50251838D01*
X-28642642Y50004031D01*
X-28642640Y50004019D01*
X-28581596Y49762962D01*
X-28481706Y49535237D01*
X-28345699Y49327061D01*
X-28345696Y49327058D01*
X-28177276Y49144105D01*
X-27981041Y48991369D01*
X-27919676Y48958160D01*
X-27802291Y48894634D01*
X-27762342Y48873015D01*
X-27543391Y48797849D01*
X-27535023Y48794976D01*
X-27527146Y48792272D01*
X-27281867Y48751343D01*
X-27260915Y48751343D01*
X-27193876Y48731658D01*
X-27148121Y48678854D01*
X-27138177Y48609696D01*
X-27140708Y48596910D01*
X-27168791Y48486014D01*
X-27185756Y48419019D01*
X-27185758Y48419010D01*
X-27206291Y48171203D01*
X-27206291Y48171192D01*
X-27185758Y47923385D01*
X-27185756Y47923373D01*
X-27124712Y47682316D01*
X-27024822Y47454591D01*
X-26888815Y47246415D01*
X-26888812Y47246412D01*
X-26720392Y47063459D01*
X-26524157Y46910723D01*
X-26305458Y46792369D01*
X-26070262Y46711626D01*
X-25824983Y46670697D01*
X-25804031Y46670697D01*
X-25736992Y46651012D01*
X-25691237Y46598208D01*
X-25681293Y46529050D01*
X-25683824Y46516264D01*
X-25703387Y46439010D01*
X-25728872Y46338373D01*
X-25728874Y46338364D01*
X-25749407Y46090557D01*
X-25749407Y46090546D01*
X-25728874Y45842739D01*
X-25728872Y45842727D01*
X-25667828Y45601670D01*
X-25567938Y45373945D01*
X-25431931Y45165769D01*
X-25399519Y45130560D01*
X-25263508Y44982813D01*
X-25067273Y44830077D01*
X-25066037Y44829408D01*
X-24856524Y44716025D01*
X-24848574Y44711723D01*
X-24613378Y44630980D01*
X-24368099Y44590051D01*
X-24347146Y44590051D01*
X-24280107Y44570366D01*
X-24234352Y44517562D01*
X-24224408Y44448404D01*
X-24226940Y44435611D01*
X-24271987Y44257729D01*
X-24271989Y44257717D01*
X-24292522Y44009910D01*
X-24292522Y44009899D01*
X-24271989Y43762092D01*
X-24271987Y43762080D01*
X-24210943Y43521023D01*
X-24111053Y43293298D01*
X-23975046Y43085122D01*
X-23942634Y43049913D01*
X-23806623Y42902166D01*
X-23610388Y42749430D01*
X-23391689Y42631076D01*
X-23156493Y42550333D01*
X-22911214Y42509404D01*
X-22890262Y42509404D01*
X-22823223Y42489719D01*
X-22777468Y42436915D01*
X-22767524Y42367757D01*
X-22770055Y42354971D01*
X-22789618Y42277717D01*
X-22815103Y42177080D01*
X-22815105Y42177071D01*
X-22835638Y41929264D01*
X-22835638Y41929253D01*
X-22815105Y41681446D01*
X-22815103Y41681434D01*
X-22754059Y41440377D01*
X-22654169Y41212652D01*
X-22518162Y41004476D01*
X-22518159Y41004473D01*
X-22349739Y40821520D01*
X-22153504Y40668784D01*
X-21934805Y40550430D01*
X-21699609Y40469687D01*
X-21454330Y40428758D01*
X-21433378Y40428758D01*
X-21366339Y40409073D01*
X-21320584Y40356269D01*
X-21310640Y40287111D01*
X-21313171Y40274325D01*
X-21332734Y40197071D01*
X-21358219Y40096434D01*
X-21358221Y40096425D01*
X-21378754Y39848618D01*
X-21378754Y39848607D01*
X-21358221Y39600800D01*
X-21358219Y39600788D01*
X-21297175Y39359731D01*
X-21197285Y39132006D01*
X-21061278Y38923830D01*
X-21061275Y38923827D01*
X-20892855Y38740874D01*
X-20696620Y38588138D01*
X-20477921Y38469784D01*
X-20242725Y38389041D01*
X-19997446Y38348112D01*
X-19976494Y38348112D01*
X-19909455Y38328427D01*
X-19863700Y38275623D01*
X-19853756Y38206465D01*
X-19856287Y38193679D01*
X-19874917Y38120110D01*
X-19901335Y38015788D01*
X-19901337Y38015779D01*
X-19921870Y37767972D01*
X-19921870Y37767961D01*
X-19901337Y37520154D01*
X-19901335Y37520142D01*
X-19840291Y37279085D01*
X-19740401Y37051360D01*
X-19604394Y36843184D01*
X-19604391Y36843181D01*
X-19435971Y36660228D01*
X-19239736Y36507492D01*
X-19021037Y36389138D01*
X-18785841Y36308395D01*
X-18540562Y36267466D01*
X-18491538Y36267466D01*
X-18424499Y36247781D01*
X-18382212Y36201980D01*
X-18376354Y36191034D01*
X-17357336Y36011355D01*
X-17428025Y35901360D01*
X-17469343Y35760647D01*
X-17469343Y35613993D01*
X-17441287Y35518444D01*
X-18463542Y35698694D01*
X-18464484Y35687318D01*
X-18464484Y35687314D01*
X-18443958Y35439591D01*
X-18443956Y35439582D01*
X-18382931Y35198603D01*
X-18283076Y34970953D01*
X-18147111Y34762842D01*
X-17978751Y34579956D01*
X-17978741Y34579947D01*
X-17782581Y34427269D01*
X-17782572Y34427263D01*
X-17563958Y34308956D01*
X-17563955Y34308954D01*
X-17462391Y34274088D01*
X-17282775Y35292749D01*
X-17237905Y35253869D01*
X-17104504Y35192947D01*
X-16995816Y35177320D01*
X-16922870Y35177320D01*
X-16814182Y35192947D01*
X-16790774Y35203638D01*
X-16969978Y34187322D01*
X-16959542Y34174885D01*
X-16931530Y34110876D01*
X-16934326Y34064739D01*
X-16987567Y33854498D01*
X-16987569Y33854486D01*
X-17008102Y33606679D01*
X-17008102Y33606668D01*
X-16987569Y33358861D01*
X-16987567Y33358849D01*
X-16926523Y33117792D01*
X-16826633Y32890067D01*
X-16690626Y32681891D01*
X-16690623Y32681888D01*
X-16522203Y32498935D01*
X-16325968Y32346199D01*
X-16107269Y32227845D01*
X-15872073Y32147102D01*
X-15626794Y32106173D01*
X-15605841Y32106173D01*
X-15538802Y32086488D01*
X-15493047Y32033684D01*
X-15483103Y31964526D01*
X-15485635Y31951732D01*
X-15530682Y31773849D01*
X-15530684Y31773840D01*
X-15551217Y31526033D01*
X-15551217Y31526022D01*
X-15530684Y31278215D01*
X-15530682Y31278203D01*
X-15469638Y31037146D01*
X-15369748Y30809421D01*
X-15233741Y30601245D01*
X-15233738Y30601242D01*
X-15065318Y30418289D01*
X-14869083Y30265553D01*
X-14650384Y30147199D01*
X-14415188Y30066456D01*
X-14169909Y30025527D01*
X-14148957Y30025527D01*
X-14081918Y30005842D01*
X-14036163Y29953038D01*
X-14026219Y29883880D01*
X-14028751Y29871086D01*
X-14073798Y29693203D01*
X-14073800Y29693194D01*
X-14094333Y29445387D01*
X-14094333Y29445376D01*
X-14073800Y29197569D01*
X-14073798Y29197557D01*
X-14012754Y28956500D01*
X-13912864Y28728775D01*
X-13776857Y28520599D01*
X-13772629Y28516006D01*
X-13608434Y28337643D01*
X-13412199Y28184907D01*
X-13193500Y28066553D01*
X-12958304Y27985810D01*
X-12713025Y27944881D01*
X-12692073Y27944881D01*
X-12625034Y27925196D01*
X-12579279Y27872392D01*
X-12569335Y27803234D01*
X-12571867Y27790440D01*
X-12616914Y27612557D01*
X-12616916Y27612548D01*
X-12637449Y27364741D01*
X-12637449Y27364730D01*
X-12616916Y27116923D01*
X-12616914Y27116911D01*
X-12555870Y26875854D01*
X-12455980Y26648129D01*
X-12319973Y26439953D01*
X-12319970Y26439950D01*
X-12151550Y26256997D01*
X-11955315Y26104261D01*
X-11736616Y25985907D01*
X-11657453Y25958731D01*
X-11587468Y25934704D01*
X-11530453Y25894319D01*
X-11504322Y25829519D01*
X-11517100Y25762316D01*
X-11516769Y25762152D01*
X-11517357Y25760968D01*
X-11517373Y25760879D01*
X-11517535Y25760609D01*
X-11520709Y25754204D01*
X-11565615Y25617472D01*
X-11570182Y25473617D01*
X-11534038Y25334317D01*
X-11534036Y25334311D01*
X-11505095Y25281805D01*
X-10303024Y23565072D01*
X-10263584Y23519917D01*
X-10145039Y23438304D01*
X-10145038Y23438304D01*
X-10145037Y23438303D01*
X-10098798Y23423118D01*
X-10008305Y23393397D01*
X-10008302Y23393396D01*
X-9864453Y23388829D01*
X-9725144Y23424975D01*
X-9672638Y23453916D01*
X-7955905Y24655987D01*
X-7910750Y24695427D01*
X-7829137Y24813972D01*
X-7784229Y24950709D01*
X-7779662Y25094558D01*
X-7815808Y25233867D01*
X-7844749Y25286373D01*
X-7876161Y25331234D01*
X62966123Y25331234D01*
X62975360Y25271996D01*
X63394582Y23707443D01*
X63416200Y23651522D01*
X63499682Y23534286D01*
X63499683Y23534285D01*
X63499684Y23534284D01*
X63499685Y23534283D01*
X63553605Y23491881D01*
X63612813Y23445320D01*
X63692111Y23413574D01*
X63747029Y23370385D01*
X63769882Y23304359D01*
X63753409Y23236458D01*
X63743494Y23221808D01*
X63690693Y23154665D01*
X63637203Y23021054D01*
X63637203Y23021052D01*
X63623523Y22877782D01*
X63632760Y22818544D01*
X64051982Y21253991D01*
X64073600Y21198070D01*
X64157082Y21080834D01*
X64157083Y21080833D01*
X64157084Y21080832D01*
X64157085Y21080831D01*
X64165098Y21074530D01*
X64270213Y20991868D01*
X64349509Y20960123D01*
X64404428Y20916933D01*
X64427281Y20850906D01*
X64410808Y20783006D01*
X64400893Y20768356D01*
X64348093Y20701214D01*
X64294603Y20567603D01*
X64294603Y20567601D01*
X64280923Y20424331D01*
X64290160Y20365093D01*
X64709382Y18800540D01*
X64731000Y18744619D01*
X64814482Y18627383D01*
X64814483Y18627382D01*
X64814484Y18627381D01*
X64814485Y18627380D01*
X64927612Y18538417D01*
X65006909Y18506671D01*
X65061830Y18463480D01*
X65084682Y18397453D01*
X65068209Y18329553D01*
X65058294Y18314904D01*
X65005494Y18247762D01*
X64952004Y18114151D01*
X64952004Y18114149D01*
X64938324Y17970879D01*
X64947561Y17911641D01*
X65366783Y16347088D01*
X65388401Y16291167D01*
X65471883Y16173931D01*
X65471884Y16173930D01*
X65471885Y16173929D01*
X65471886Y16173928D01*
X65585014Y16084965D01*
X65664792Y16053026D01*
X65719714Y16009836D01*
X65742566Y15943809D01*
X65726093Y15875909D01*
X65716178Y15861259D01*
X65663331Y15794058D01*
X65609895Y15660585D01*
X65609893Y15660576D01*
X65596226Y15517458D01*
X65596227Y15517455D01*
X65605455Y15458282D01*
X65605456Y15458276D01*
X65750350Y14917525D01*
X66539618Y15129009D01*
X66524053Y15075999D01*
X66524053Y14929345D01*
X66565371Y14788632D01*
X66644658Y14665259D01*
X66667350Y14645596D01*
X65879759Y14434561D01*
X66024653Y13893815D01*
X66024658Y13893797D01*
X66046248Y13837951D01*
X66129651Y13720826D01*
X66129652Y13720825D01*
X66242667Y13631951D01*
X66376140Y13578515D01*
X66376149Y13578513D01*
X66519267Y13564846D01*
X66519268Y13564846D01*
X66573446Y13573296D01*
X66642718Y13564178D01*
X66696064Y13519055D01*
X66716546Y13452255D01*
X66697662Y13384986D01*
X66645408Y13338605D01*
X66637269Y13335119D01*
X66616259Y13326997D01*
X66586026Y13315309D01*
X66586025Y13315308D01*
X66468787Y13231825D01*
X66468786Y13231824D01*
X66379823Y13118697D01*
X66326333Y12985085D01*
X66326333Y12985083D01*
X66312653Y12841813D01*
X66321890Y12782575D01*
X66741112Y11218022D01*
X66762730Y11162101D01*
X66846212Y11044865D01*
X66846213Y11044864D01*
X66846214Y11044863D01*
X66846215Y11044862D01*
X66959342Y10955899D01*
X67048543Y10920189D01*
X67092956Y10902408D01*
X67236226Y10888728D01*
X67295464Y10897965D01*
X68860017Y11317187D01*
X68915938Y11338805D01*
X69033174Y11422287D01*
X69122140Y11535418D01*
X69175631Y11669031D01*
X69189311Y11812301D01*
X69180074Y11871539D01*
X68760852Y13436092D01*
X68739234Y13492013D01*
X68655752Y13609249D01*
X68655750Y13609251D01*
X68655749Y13609252D01*
X68655748Y13609253D01*
X68542621Y13698216D01*
X68409009Y13751706D01*
X68265738Y13765386D01*
X68211453Y13756922D01*
X68142181Y13766044D01*
X68088838Y13811170D01*
X68068360Y13877971D01*
X68087247Y13945239D01*
X68139505Y13991617D01*
X68147641Y13995101D01*
X68198775Y14014869D01*
X68315899Y14098271D01*
X68315900Y14098272D01*
X68404774Y14211287D01*
X68458210Y14344760D01*
X68458212Y14344769D01*
X68471879Y14487887D01*
X68471878Y14487890D01*
X68462650Y14547063D01*
X68462649Y14547069D01*
X68317754Y15087821D01*
X67528488Y14876339D01*
X67544053Y14929345D01*
X67544053Y15075999D01*
X67502735Y15216712D01*
X67423448Y15340085D01*
X67400754Y15359750D01*
X68188345Y15570785D01*
X68043452Y16111530D01*
X68043447Y16111548D01*
X68021857Y16167394D01*
X67938454Y16284519D01*
X67938453Y16284520D01*
X67825438Y16373394D01*
X67746074Y16405167D01*
X67691153Y16448358D01*
X67668301Y16514385D01*
X67684774Y16582285D01*
X67694681Y16596924D01*
X67747811Y16664484D01*
X67801302Y16798097D01*
X67814982Y16941367D01*
X67805745Y17000605D01*
X67386523Y18565158D01*
X67364905Y18621079D01*
X67281423Y18738315D01*
X67281421Y18738317D01*
X67281420Y18738318D01*
X67281419Y18738319D01*
X67168292Y18827281D01*
X67088994Y18859028D01*
X67034074Y18902219D01*
X67011222Y18968246D01*
X67027696Y19036146D01*
X67037611Y19050796D01*
X67090410Y19117936D01*
X67143901Y19251549D01*
X67157581Y19394819D01*
X67148344Y19454057D01*
X66729122Y21018610D01*
X66707504Y21074531D01*
X66624022Y21191767D01*
X66624020Y21191769D01*
X66624019Y21191770D01*
X66624018Y21191771D01*
X66510891Y21280734D01*
X66431595Y21312479D01*
X66376674Y21355670D01*
X66353822Y21421697D01*
X66370295Y21489597D01*
X66380211Y21504247D01*
X66433010Y21571387D01*
X66486501Y21705000D01*
X66500181Y21848270D01*
X66490944Y21907508D01*
X66071722Y23472061D01*
X66050104Y23527982D01*
X65966622Y23645218D01*
X65966620Y23645220D01*
X65966619Y23645221D01*
X65966618Y23645222D01*
X65853490Y23734185D01*
X65774195Y23765930D01*
X65719273Y23809120D01*
X65696421Y23875147D01*
X65712894Y23943047D01*
X65722810Y23957698D01*
X65775610Y24024839D01*
X65829101Y24158452D01*
X65842781Y24301722D01*
X65833544Y24360960D01*
X65414322Y25925513D01*
X65392704Y25981434D01*
X65309222Y26098670D01*
X65309220Y26098672D01*
X65309219Y26098673D01*
X65309218Y26098674D01*
X65196091Y26187637D01*
X65062479Y26241127D01*
X64919209Y26254807D01*
X64919208Y26254807D01*
X64859970Y26245570D01*
X63295417Y25826348D01*
X63295412Y25826347D01*
X63295408Y25826345D01*
X63239497Y25804731D01*
X63122257Y25721246D01*
X63122256Y25721245D01*
X63033293Y25608118D01*
X62979803Y25474506D01*
X62966417Y25334308D01*
X62966123Y25331234D01*
X-7876161Y25331234D01*
X-9046820Y27003106D01*
X-9086260Y27048261D01*
X-9148141Y27090863D01*
X-9204808Y27129876D01*
X-9341542Y27174782D01*
X-9341539Y27174782D01*
X-9403192Y27176740D01*
X-9485391Y27179349D01*
X-9485392Y27179349D01*
X-9485395Y27179349D01*
X-9493223Y27178476D01*
X-9562030Y27190612D01*
X-9613354Y27238022D01*
X-9630898Y27305653D01*
X-9630537Y27311955D01*
X-9626163Y27364732D01*
X-9626163Y27364741D01*
X-9646697Y27612548D01*
X-9646699Y27612557D01*
X-9646699Y27612560D01*
X-9707743Y27853617D01*
X-9807633Y28081342D01*
X-9943640Y28289518D01*
X-10006702Y28358021D01*
X-10112062Y28472473D01*
X-10308297Y28625209D01*
X-10308299Y28625210D01*
X-10308300Y28625211D01*
X-10526995Y28743563D01*
X-10527004Y28743566D01*
X-10762190Y28824306D01*
X-11007471Y28865235D01*
X-11028423Y28865235D01*
X-11095462Y28884920D01*
X-11141217Y28937724D01*
X-11151161Y29006882D01*
X-11148629Y29019676D01*
X-11103582Y29197560D01*
X-11103581Y29197569D01*
X-11083047Y29445376D01*
X-11083047Y29445387D01*
X-11103581Y29693194D01*
X-11103583Y29693203D01*
X-11107216Y29707552D01*
X-11164627Y29934263D01*
X-11264517Y30161988D01*
X-11400524Y30370164D01*
X-11444826Y30418289D01*
X-11568946Y30553119D01*
X-11765181Y30705855D01*
X-11765183Y30705856D01*
X-11765184Y30705857D01*
X-11983879Y30824209D01*
X-11983888Y30824212D01*
X-12219074Y30904952D01*
X-12464355Y30945881D01*
X-12485307Y30945881D01*
X-12552346Y30965566D01*
X-12598101Y31018370D01*
X-12608045Y31087528D01*
X-12605513Y31100322D01*
X-12560466Y31278206D01*
X-12560465Y31278215D01*
X-12539931Y31526022D01*
X-12539931Y31526033D01*
X-12560465Y31773840D01*
X-12560467Y31773849D01*
X-12560467Y31773852D01*
X-12621511Y32014909D01*
X-12721401Y32242634D01*
X-12857408Y32450810D01*
X-12941175Y32541805D01*
X-13025830Y32633765D01*
X-13222065Y32786501D01*
X-13222067Y32786502D01*
X-13222068Y32786503D01*
X-13440763Y32904855D01*
X-13440772Y32904858D01*
X-13675958Y32985598D01*
X-13921239Y33026527D01*
X-13942192Y33026527D01*
X-14009231Y33046212D01*
X-14054986Y33099016D01*
X-14064930Y33168174D01*
X-14062398Y33180968D01*
X-14017351Y33358852D01*
X-13999315Y33576513D01*
X-13996816Y33606668D01*
X-13996816Y33606679D01*
X-14017350Y33854486D01*
X-14017352Y33854498D01*
X-14078396Y34095555D01*
X-14081885Y34103509D01*
X21945819Y34103509D01*
X21981928Y33964346D01*
X21981929Y33964343D01*
X22010839Y33911893D01*
X22010845Y33911884D01*
X22468454Y33258349D01*
X22468455Y33258349D01*
X23330578Y33862016D01*
X23330578Y33840599D01*
X23371896Y33699886D01*
X23451183Y33576513D01*
X23562016Y33480475D01*
X23619750Y33454109D01*
X22755243Y32848774D01*
X23212863Y32195226D01*
X23252257Y32150126D01*
X23252258Y32150125D01*
X23370687Y32068592D01*
X23507284Y32023731D01*
X23507281Y32023731D01*
X23650995Y32019168D01*
X23790158Y32055277D01*
X23790161Y32055278D01*
X23842611Y32084188D01*
X23842620Y32084194D01*
X24496154Y32541804D01*
X24496155Y32541805D01*
X23891078Y33405943D01*
X23985739Y33419553D01*
X24119140Y33480475D01*
X24229973Y33576513D01*
X24302743Y33689747D01*
X24905730Y32828593D01*
X24905731Y32828592D01*
X25559270Y33286205D01*
X25559278Y33286212D01*
X25604378Y33325606D01*
X25604379Y33325607D01*
X25685912Y33444036D01*
X25730773Y33580632D01*
X25735336Y33724344D01*
X25699227Y33863507D01*
X25699226Y33863510D01*
X25670316Y33915960D01*
X25670310Y33915969D01*
X25212700Y34569505D01*
X25212699Y34569505D01*
X24350578Y33965841D01*
X24350578Y33987253D01*
X24309260Y34127966D01*
X24229973Y34251339D01*
X24119140Y34347377D01*
X24061402Y34373745D01*
X24925911Y34979080D01*
X24468292Y35632627D01*
X24428898Y35677727D01*
X24428897Y35677728D01*
X24310468Y35759261D01*
X24173871Y35804122D01*
X24173874Y35804122D01*
X24030160Y35808685D01*
X23890997Y35772576D01*
X23890994Y35772575D01*
X23838544Y35743665D01*
X23838535Y35743659D01*
X23184999Y35286050D01*
X23184999Y35286049D01*
X23790077Y34421910D01*
X23695417Y34408299D01*
X23562016Y34347377D01*
X23451183Y34251339D01*
X23378412Y34138106D01*
X22775424Y34999261D01*
X22121877Y34541641D01*
X22076777Y34502247D01*
X22076776Y34502246D01*
X21995243Y34383817D01*
X21950382Y34247221D01*
X21945819Y34103509D01*
X-14081885Y34103509D01*
X-14178286Y34323280D01*
X-14314293Y34531456D01*
X-14358941Y34579956D01*
X-14482715Y34714411D01*
X-14678950Y34867147D01*
X-14678952Y34867148D01*
X-14678953Y34867149D01*
X-14897648Y34985501D01*
X-14897657Y34985504D01*
X-15132843Y35066244D01*
X-15378124Y35107173D01*
X-15427147Y35107173D01*
X-15494186Y35126858D01*
X-15536471Y35172656D01*
X-15542333Y35183608D01*
X-16561350Y35363288D01*
X-16490661Y35473280D01*
X-16449343Y35613993D01*
X-16449343Y35760647D01*
X-16477400Y35856199D01*
X-15455145Y35675947D01*
X-15454202Y35687319D01*
X-15454202Y35687325D01*
X-15474729Y35935051D01*
X-15474731Y35935059D01*
X-15535756Y36176038D01*
X-15635611Y36403688D01*
X-15771576Y36611799D01*
X-15939936Y36794685D01*
X-15939946Y36794694D01*
X-16136106Y36947372D01*
X-16136115Y36947378D01*
X-16354729Y37065685D01*
X-16354743Y37065691D01*
X-16456296Y37100555D01*
X-16456297Y37100555D01*
X-16635914Y36081894D01*
X-16680781Y36120771D01*
X-16814182Y36181693D01*
X-16922870Y36197320D01*
X-16995816Y36197320D01*
X-17104504Y36181693D01*
X-17127914Y36171003D01*
X-16948709Y37187320D01*
X-16959144Y37199756D01*
X-16987157Y37263764D01*
X-16984360Y37309903D01*
X-16931122Y37520133D01*
X-16931120Y37520142D01*
X-16931119Y37520145D01*
X-16931118Y37520154D01*
X-16910584Y37767961D01*
X-16910584Y37767972D01*
X-16931118Y38015779D01*
X-16931120Y38015788D01*
X-16958246Y38122910D01*
X-16992164Y38256848D01*
X-17092054Y38484573D01*
X-17228061Y38692749D01*
X-17272363Y38740874D01*
X-17396483Y38875704D01*
X-17592718Y39028440D01*
X-17592720Y39028441D01*
X-17592721Y39028442D01*
X-17811416Y39146794D01*
X-17811425Y39146797D01*
X-18046611Y39227537D01*
X-18291892Y39268466D01*
X-18312844Y39268466D01*
X-18379883Y39288151D01*
X-18425638Y39340955D01*
X-18435582Y39410113D01*
X-18433050Y39422907D01*
X-18418473Y39480470D01*
X-18388003Y39600791D01*
X-18388002Y39600800D01*
X-18367468Y39848607D01*
X-18367468Y39848618D01*
X-18388002Y40096425D01*
X-18388004Y40096434D01*
X-18420262Y40223820D01*
X-18449048Y40337494D01*
X-18548938Y40565219D01*
X-18684945Y40773395D01*
X-18723022Y40814757D01*
X-18853367Y40956350D01*
X-19049602Y41109086D01*
X-19049604Y41109087D01*
X-19049605Y41109088D01*
X-19268300Y41227440D01*
X-19268309Y41227443D01*
X-19503495Y41308183D01*
X-19748776Y41349112D01*
X-19769728Y41349112D01*
X-19836767Y41368797D01*
X-19882522Y41421601D01*
X-19892466Y41490759D01*
X-19889934Y41503553D01*
X-19844887Y41681437D01*
X-19844886Y41681446D01*
X-19824352Y41929253D01*
X-19824352Y41929264D01*
X-19844886Y42177071D01*
X-19844888Y42177080D01*
X-19870375Y42277728D01*
X-19905932Y42418140D01*
X-20005822Y42645865D01*
X-20141829Y42854041D01*
X-20186131Y42902166D01*
X-20310251Y43036996D01*
X-20506486Y43189732D01*
X-20506488Y43189733D01*
X-20506489Y43189734D01*
X-20725184Y43308086D01*
X-20725193Y43308089D01*
X-20960379Y43388829D01*
X-21205660Y43429758D01*
X-21226612Y43429758D01*
X-21293651Y43449443D01*
X-21339406Y43502247D01*
X-21349350Y43571405D01*
X-21346818Y43584199D01*
X-21301771Y43762083D01*
X-21301318Y43767549D01*
X-21281236Y44009899D01*
X-21281236Y44009910D01*
X-21301770Y44257717D01*
X-21301772Y44257729D01*
X-21362816Y44498786D01*
X-21462706Y44726511D01*
X-21598713Y44934687D01*
X-21675056Y45017617D01*
X-21767135Y45117642D01*
X-21963370Y45270378D01*
X-21963372Y45270379D01*
X-21963373Y45270380D01*
X-22182068Y45388732D01*
X-22182077Y45388735D01*
X-22417263Y45469475D01*
X-22662544Y45510404D01*
X-22683497Y45510404D01*
X-22750536Y45530089D01*
X-22796291Y45582893D01*
X-22806235Y45652051D01*
X-22803703Y45664844D01*
X-22764934Y45817939D01*
X-22758656Y45842730D01*
X-22757319Y45858868D01*
X-22738121Y46090546D01*
X-22738121Y46090557D01*
X-22758655Y46338364D01*
X-22758657Y46338373D01*
X-22788707Y46457040D01*
X-22819701Y46579433D01*
X-22919591Y46807158D01*
X-23055598Y47015334D01*
X-23078921Y47040669D01*
X-23224020Y47198289D01*
X-23420255Y47351025D01*
X-23420257Y47351026D01*
X-23420258Y47351027D01*
X-23638953Y47469379D01*
X-23638962Y47469382D01*
X-23874148Y47550122D01*
X-24119429Y47591051D01*
X-24140381Y47591051D01*
X-24207420Y47610736D01*
X-24253175Y47663540D01*
X-24263119Y47732698D01*
X-24260587Y47745492D01*
X-24242265Y47817843D01*
X-24215540Y47923376D01*
X-24215539Y47923385D01*
X-24195005Y48171192D01*
X-24195005Y48171203D01*
X-24215539Y48419010D01*
X-24215541Y48419019D01*
X-24225698Y48459131D01*
X-24276585Y48660079D01*
X-24376475Y48887804D01*
X-24512482Y49095980D01*
X-24552761Y49139734D01*
X-24680904Y49278935D01*
X-24877139Y49431671D01*
X-24877141Y49431672D01*
X-24877142Y49431673D01*
X-25095837Y49550025D01*
X-25095846Y49550028D01*
X-25331032Y49630768D01*
X-25576313Y49671697D01*
X-25597265Y49671697D01*
X-25664304Y49691382D01*
X-25710059Y49744186D01*
X-25720003Y49813344D01*
X-25717471Y49826138D01*
X-25699149Y49898489D01*
X-25672424Y50004022D01*
X-25672423Y50004031D01*
X-25651889Y50251838D01*
X-25651889Y50251849D01*
X-25672423Y50499656D01*
X-25672425Y50499665D01*
X-25703290Y50621552D01*
X-25733469Y50740725D01*
X-25833359Y50968450D01*
X-25969366Y51176626D01*
X-26049632Y51263818D01*
X-26137788Y51359581D01*
X-26334023Y51512317D01*
X-26334025Y51512318D01*
X-26334026Y51512319D01*
X-26552721Y51630671D01*
X-26552730Y51630674D01*
X-26787916Y51711414D01*
X-27033197Y51752343D01*
X-27054149Y51752343D01*
X-27121188Y51772028D01*
X-27166943Y51824832D01*
X-27176887Y51893990D01*
X-27174355Y51906784D01*
X-27159778Y51964347D01*
X-27129308Y52084668D01*
X-27129307Y52084677D01*
X-27108773Y52332484D01*
X-27108773Y52332495D01*
X-27129307Y52580302D01*
X-27129309Y52580311D01*
X-27154796Y52680959D01*
X-27190353Y52821371D01*
X-27290243Y53049096D01*
X-27426250Y53257272D01*
X-27470552Y53305397D01*
X-27594672Y53440227D01*
X-27790907Y53592963D01*
X-27790909Y53592964D01*
X-27790910Y53592965D01*
X-28009605Y53711317D01*
X-28009614Y53711320D01*
X-28244800Y53792060D01*
X-28490081Y53832989D01*
X-28511033Y53832989D01*
X-28578072Y53852674D01*
X-28623827Y53905478D01*
X-28633771Y53974636D01*
X-28631239Y53987430D01*
X-28625544Y54009919D01*
X-28586192Y54165314D01*
X-28586191Y54165323D01*
X-28565657Y54413130D01*
X-28565657Y54413141D01*
X-28586191Y54660948D01*
X-28586193Y54660960D01*
X-28647237Y54902017D01*
X-28747127Y55129742D01*
X-28883134Y55337918D01*
X-28927437Y55386044D01*
X-29051556Y55520873D01*
X-29247791Y55673609D01*
X-29247793Y55673610D01*
X-29247794Y55673611D01*
X-29466489Y55791963D01*
X-29466498Y55791966D01*
X-29701684Y55872706D01*
X-29946965Y55913635D01*
X-29967917Y55913635D01*
X-30034956Y55933320D01*
X-30080711Y55986124D01*
X-30090655Y56055282D01*
X-30088123Y56068075D01*
X-30043077Y56245958D01*
X-30043076Y56245961D01*
X-30041739Y56262099D01*
X-30022541Y56493777D01*
X-30022541Y56493788D01*
X-30043075Y56741595D01*
X-30043077Y56741604D01*
X-30068564Y56842252D01*
X-30104121Y56982664D01*
X-30204011Y57210389D01*
X-30340018Y57418565D01*
X-30393797Y57476984D01*
X-30508440Y57601520D01*
X-30704675Y57754256D01*
X-30704677Y57754257D01*
X-30704678Y57754258D01*
X-30923373Y57872610D01*
X-30923382Y57872613D01*
X-31158568Y57953353D01*
X-31403849Y57994282D01*
X-31424801Y57994282D01*
X-31491840Y58013967D01*
X-31537595Y58066771D01*
X-31547539Y58135929D01*
X-31545007Y58148723D01*
X-31526685Y58221074D01*
X-31499960Y58326607D01*
X-31499959Y58326616D01*
X-31479425Y58574423D01*
X-31479425Y58574434D01*
X-31499959Y58822241D01*
X-31499961Y58822250D01*
X-31536405Y58966165D01*
X-31561005Y59063310D01*
X-31660895Y59291035D01*
X-31796902Y59499211D01*
X-31841204Y59547336D01*
X-31965324Y59682166D01*
X-32161559Y59834902D01*
X-32161561Y59834903D01*
X-32161562Y59834904D01*
X-32380257Y59953256D01*
X-32380266Y59953259D01*
X-32615452Y60033999D01*
X-32860733Y60074928D01*
X-32881686Y60074928D01*
X-32948725Y60094613D01*
X-32994480Y60147417D01*
X-33004424Y60216575D01*
X-33001892Y60229369D01*
X-32983570Y60301720D01*
X-32956845Y60407253D01*
X-32956844Y60407262D01*
X-32936310Y60655069D01*
X-32936310Y60655080D01*
X-32956844Y60902887D01*
X-32956846Y60902896D01*
X-32982333Y61003544D01*
X-33017890Y61143956D01*
X-33117780Y61371681D01*
X-33253787Y61579857D01*
X-33298089Y61627982D01*
X-33422209Y61762812D01*
X-33618444Y61915548D01*
X-33618446Y61915549D01*
X-33618447Y61915550D01*
X-33837142Y62033902D01*
X-33837151Y62033905D01*
X-34072337Y62114645D01*
X-34317618Y62155574D01*
X-34338570Y62155574D01*
X-34405609Y62175259D01*
X-34451364Y62228063D01*
X-34461308Y62297221D01*
X-34458776Y62310015D01*
X-34440454Y62382366D01*
X-34413729Y62487899D01*
X-34413728Y62487908D01*
X-34393194Y62735715D01*
X-34393194Y62735726D01*
X-34413728Y62983533D01*
X-34413730Y62983545D01*
X-34474774Y63224602D01*
X-34574664Y63452327D01*
X-34710671Y63660503D01*
X-34794530Y63751598D01*
X-34879093Y63843458D01*
X-35075328Y63996194D01*
X-35075330Y63996195D01*
X-35075331Y63996196D01*
X-35294026Y64114548D01*
X-35294035Y64114551D01*
X-35529221Y64195291D01*
X-35774502Y64236220D01*
X-36023172Y64236220D01*
X-36268454Y64195291D01*
X-36503640Y64114551D01*
X-36503649Y64114548D01*
X-36722344Y63996196D01*
X-36918580Y63843459D01*
X-37087004Y63660503D01*
X-37223011Y63452327D01*
X-37322901Y63224602D01*
X-37383945Y62983545D01*
X-37383947Y62983533D01*
X-37404480Y62735726D01*
X-37404480Y62735715D01*
X-51134144Y62735715D01*
X-49853301Y63760469D01*
X-48429604Y64848746D01*
X-46982181Y65905261D01*
X-45511739Y66929497D01*
X-44018999Y67920954D01*
X-42504691Y68879146D01*
X-40969557Y69803603D01*
X-39414347Y70693873D01*
X-37839824Y71549523D01*
X-36246757Y72370130D01*
X-34635926Y73155295D01*
X-33008120Y73904632D01*
X-31364135Y74617776D01*
X-29704776Y75294377D01*
X-28030856Y75934103D01*
X-26343193Y76536643D01*
X-24642614Y77101700D01*
X-22929951Y77628999D01*
X-21206042Y78118281D01*
X-19471731Y78569307D01*
X-17727867Y78981856D01*
X-15975303Y79355726D01*
X-15866229Y79376483D01*
X-14898997Y79560549D01*
X-14829463Y79553744D01*
X-14774643Y79510425D01*
X-14751946Y79444345D01*
X-14768578Y79376483D01*
X-14804696Y79337160D01*
X-15256463Y79020831D01*
X-15256463Y79020830D01*
X-14651385Y78156691D01*
X-14746045Y78143080D01*
X-14879446Y78082158D01*
X-14990279Y77986120D01*
X-15063050Y77872887D01*
X-15666038Y78734042D01*
X-16319585Y78276422D01*
X-16364685Y78237028D01*
X-16364686Y78237027D01*
X-16446219Y78118598D01*
X-16491080Y77982002D01*
X-16495643Y77838290D01*
X-16459534Y77699127D01*
X-16459533Y77699124D01*
X-16430623Y77646674D01*
X-16430617Y77646665D01*
X-15973008Y76993130D01*
X-15973007Y76993130D01*
X-15110884Y77596797D01*
X-15110884Y77575380D01*
X-15069566Y77434667D01*
X-14990279Y77311294D01*
X-14879446Y77215256D01*
X-14821712Y77188890D01*
X-15686219Y76583555D01*
X-15228599Y75930007D01*
X-15189205Y75884907D01*
X-15189204Y75884906D01*
X-15070775Y75803373D01*
X-14934178Y75758512D01*
X-14934181Y75758512D01*
X-14790471Y75753949D01*
X-14782549Y75754832D01*
X-14713741Y75742700D01*
X-14662414Y75695294D01*
X-14644865Y75627664D01*
X-14645226Y75621358D01*
X-14649641Y75568067D01*
X-14649642Y75568057D01*
X-14649642Y75568056D01*
X-14629109Y75320249D01*
X-14629107Y75320237D01*
X-14568063Y75079180D01*
X-14468173Y74851455D01*
X-14332166Y74643279D01*
X-14332163Y74643276D01*
X-14163743Y74460323D01*
X-13967508Y74307587D01*
X-13748809Y74189233D01*
X-13513613Y74108490D01*
X-13268334Y74067561D01*
X-13247382Y74067561D01*
X-13180343Y74047876D01*
X-13134588Y73995072D01*
X-13124644Y73925914D01*
X-13127175Y73913128D01*
X-13155258Y73802232D01*
X-13172223Y73735237D01*
X-13172225Y73735228D01*
X-13192758Y73487421D01*
X-13192758Y73487410D01*
X-13172225Y73239603D01*
X-13172223Y73239591D01*
X-13111179Y72998534D01*
X-13011289Y72770809D01*
X-12875282Y72562633D01*
X-12875279Y72562630D01*
X-12706859Y72379677D01*
X-12510624Y72226941D01*
X-12291925Y72108587D01*
X-12056729Y72027844D01*
X-11811450Y71986915D01*
X-11790498Y71986915D01*
X-11723459Y71967230D01*
X-11677704Y71914426D01*
X-11667760Y71845268D01*
X-11670292Y71832474D01*
X-11715339Y71654591D01*
X-11715341Y71654582D01*
X-11735874Y71406775D01*
X-11735874Y71406764D01*
X-11715341Y71158957D01*
X-11715339Y71158945D01*
X-11654295Y70917888D01*
X-11554405Y70690163D01*
X-11418398Y70481987D01*
X-11418395Y70481984D01*
X-11249975Y70299031D01*
X-11053740Y70146295D01*
X-10835041Y70027941D01*
X-10599845Y69947198D01*
X-10354566Y69906269D01*
X-10333614Y69906269D01*
X-10266575Y69886584D01*
X-10220820Y69833780D01*
X-10210876Y69764622D01*
X-10213408Y69751828D01*
X-10258455Y69573945D01*
X-10258457Y69573936D01*
X-10278990Y69326129D01*
X-10278990Y69326118D01*
X-10258457Y69078311D01*
X-10258455Y69078299D01*
X-10197411Y68837242D01*
X-10097521Y68609517D01*
X-9961514Y68401341D01*
X-9929102Y68366132D01*
X-9793091Y68218385D01*
X-9596856Y68065649D01*
X-9378157Y67947295D01*
X-9142961Y67866552D01*
X-8897682Y67825623D01*
X-8876730Y67825623D01*
X-8809691Y67805938D01*
X-8763936Y67753134D01*
X-8753992Y67683976D01*
X-8756524Y67671183D01*
X-8801571Y67493301D01*
X-8801573Y67493289D01*
X-8822106Y67245482D01*
X-8822106Y67245471D01*
X-8801573Y66997664D01*
X-8801571Y66997652D01*
X-8740527Y66756595D01*
X-8640637Y66528870D01*
X-8504630Y66320694D01*
X-8504627Y66320691D01*
X-8336207Y66137738D01*
X-8139972Y65985002D01*
X-7921273Y65866648D01*
X-7686077Y65785905D01*
X-7440798Y65744976D01*
X-7391774Y65744976D01*
X-7324735Y65725291D01*
X-7282448Y65679490D01*
X-7276590Y65668544D01*
X-6257572Y65488865D01*
X-6328261Y65378870D01*
X-6369579Y65238157D01*
X-6369579Y65091503D01*
X-6341523Y64995954D01*
X-7363778Y65176204D01*
X-7364720Y65164828D01*
X-7364720Y65164824D01*
X-7344194Y64917101D01*
X-7344192Y64917092D01*
X-7283167Y64676113D01*
X-7183312Y64448463D01*
X-7047347Y64240352D01*
X-6878987Y64057466D01*
X-6878977Y64057457D01*
X-6682817Y63904779D01*
X-6682808Y63904773D01*
X-6464194Y63786466D01*
X-6464191Y63786464D01*
X-6362627Y63751598D01*
X-6183011Y64770259D01*
X-6138141Y64731379D01*
X-6004740Y64670457D01*
X-5896052Y64654830D01*
X-5823106Y64654830D01*
X-5714418Y64670457D01*
X-5691010Y64681148D01*
X-5870214Y63664832D01*
X-5859778Y63652395D01*
X-5831766Y63588386D01*
X-5834562Y63542249D01*
X-5887803Y63332009D01*
X-5887805Y63331997D01*
X-5908338Y63084190D01*
X-5908338Y63084179D01*
X-5887805Y62836372D01*
X-5887803Y62836360D01*
X-5826759Y62595303D01*
X-5726869Y62367578D01*
X-5590862Y62159402D01*
X-5590859Y62159399D01*
X-5422439Y61976446D01*
X-5226204Y61823710D01*
X-5007505Y61705356D01*
X-4772309Y61624613D01*
X-4527030Y61583684D01*
X-4506077Y61583684D01*
X-4439038Y61563999D01*
X-4393283Y61511195D01*
X-4383339Y61442037D01*
X-4385871Y61429243D01*
X-4430918Y61251360D01*
X-4430920Y61251351D01*
X-4451453Y61003544D01*
X-4451453Y61003533D01*
X-4430920Y60755726D01*
X-4430918Y60755714D01*
X-4369874Y60514657D01*
X-4269984Y60286932D01*
X-4133977Y60078756D01*
X-4133974Y60078753D01*
X-3965554Y59895800D01*
X-3769319Y59743064D01*
X-3550620Y59624710D01*
X-3315424Y59543967D01*
X-3070145Y59503038D01*
X-3049193Y59503038D01*
X-2982154Y59483353D01*
X-2936399Y59430549D01*
X-2926455Y59361391D01*
X-2928987Y59348597D01*
X-2974034Y59170714D01*
X-2974036Y59170705D01*
X-2994569Y58922898D01*
X-2994569Y58922887D01*
X-2974036Y58675080D01*
X-2974034Y58675068D01*
X-2912990Y58434011D01*
X-2813100Y58206286D01*
X-2677093Y57998110D01*
X-2677090Y57998107D01*
X-2508670Y57815154D01*
X-2312435Y57662418D01*
X-2093736Y57544064D01*
X-1858540Y57463321D01*
X-1613261Y57422392D01*
X-1592309Y57422392D01*
X-1525270Y57402707D01*
X-1479515Y57349903D01*
X-1469571Y57280745D01*
X-1472102Y57267959D01*
X-1495853Y57174167D01*
X-1517150Y57090068D01*
X-1517152Y57090059D01*
X-1537685Y56842252D01*
X-1537685Y56842241D01*
X-1517152Y56594434D01*
X-1517150Y56594422D01*
X-1456106Y56353365D01*
X-1356216Y56125640D01*
X-1220209Y55917464D01*
X-1220206Y55917461D01*
X-1051786Y55734508D01*
X-855551Y55581772D01*
X-636852Y55463418D01*
X-401656Y55382675D01*
X-156377Y55341746D01*
X-135425Y55341746D01*
X-68386Y55322061D01*
X-22631Y55269257D01*
X-12687Y55200099D01*
X-15219Y55187306D01*
X-60266Y55009424D01*
X-60268Y55009412D01*
X-80801Y54761605D01*
X-80801Y54761594D01*
X-60268Y54513787D01*
X-60266Y54513775D01*
X778Y54272718D01*
X100668Y54044993D01*
X236675Y53836817D01*
X236678Y53836814D01*
X405098Y53653861D01*
X601333Y53501125D01*
X820032Y53382771D01*
X1055228Y53302028D01*
X1300507Y53261099D01*
X1321459Y53261099D01*
X1388498Y53241414D01*
X1434253Y53188610D01*
X1444197Y53119452D01*
X1441666Y53106666D01*
X1431475Y53066419D01*
X1396618Y52928775D01*
X1396616Y52928766D01*
X1376083Y52680959D01*
X1376083Y52680948D01*
X1396616Y52433141D01*
X1396618Y52433129D01*
X1457662Y52192072D01*
X1557552Y51964347D01*
X1693559Y51756171D01*
X1693562Y51756168D01*
X1861982Y51573215D01*
X2058217Y51420479D01*
X2276916Y51302125D01*
X2512112Y51221382D01*
X2757391Y51180453D01*
X2778343Y51180453D01*
X2845382Y51160768D01*
X2891137Y51107964D01*
X2901081Y51038806D01*
X2898550Y51026020D01*
X2887321Y50981676D01*
X2853502Y50848129D01*
X2853500Y50848120D01*
X2832967Y50600313D01*
X2832967Y50600302D01*
X2853500Y50352495D01*
X2853502Y50352483D01*
X2914546Y50111426D01*
X3014436Y49883701D01*
X3150443Y49675525D01*
X3150446Y49675522D01*
X3318866Y49492569D01*
X3515101Y49339833D01*
X3733800Y49221479D01*
X3968996Y49140736D01*
X4214275Y49099807D01*
X4235228Y49099807D01*
X4302267Y49080122D01*
X4348022Y49027318D01*
X4357966Y48958160D01*
X4355435Y48945374D01*
X4340857Y48887804D01*
X4310387Y48767483D01*
X4310385Y48767474D01*
X4289852Y48519667D01*
X4289852Y48519656D01*
X4310385Y48271849D01*
X4310387Y48271837D01*
X4371431Y48030780D01*
X4471321Y47803055D01*
X4607328Y47594879D01*
X4607331Y47594876D01*
X4775751Y47411923D01*
X4971986Y47259187D01*
X5190685Y47140833D01*
X5425881Y47060090D01*
X5671160Y47019161D01*
X5692112Y47019161D01*
X5759151Y46999476D01*
X5804906Y46946672D01*
X5814850Y46877514D01*
X5812319Y46864728D01*
X5798052Y46808385D01*
X5767271Y46686837D01*
X5767269Y46686828D01*
X5746736Y46439021D01*
X5746736Y46439010D01*
X5767269Y46191203D01*
X5767271Y46191191D01*
X5828315Y45950134D01*
X5928205Y45722409D01*
X6064212Y45514233D01*
X6095601Y45480136D01*
X6232635Y45331277D01*
X6428870Y45178541D01*
X6647569Y45060187D01*
X6882765Y44979444D01*
X7128044Y44938515D01*
X7148996Y44938515D01*
X7216035Y44918830D01*
X7261790Y44866026D01*
X7271734Y44796868D01*
X7269202Y44784075D01*
X7224155Y44606193D01*
X7224153Y44606181D01*
X7203620Y44358374D01*
X7203620Y44358363D01*
X7224153Y44110556D01*
X7224155Y44110544D01*
X7285199Y43869487D01*
X7385089Y43641762D01*
X7521096Y43433586D01*
X7521099Y43433583D01*
X7689519Y43250630D01*
X7885754Y43097894D01*
X8104453Y42979540D01*
X8339649Y42898797D01*
X8584928Y42857868D01*
X8605880Y42857868D01*
X8672919Y42838183D01*
X8718674Y42785379D01*
X8728618Y42716221D01*
X8726086Y42703427D01*
X8681039Y42525544D01*
X8681037Y42525535D01*
X8660504Y42277728D01*
X8660504Y42277717D01*
X8681037Y42029910D01*
X8681039Y42029898D01*
X8742083Y41788841D01*
X8841973Y41561116D01*
X8977980Y41352940D01*
X8977983Y41352937D01*
X9146403Y41169984D01*
X9342638Y41017248D01*
X9561337Y40898894D01*
X9796533Y40818151D01*
X10041812Y40777222D01*
X10062764Y40777222D01*
X10129803Y40757537D01*
X10175558Y40704733D01*
X10185502Y40635575D01*
X10182970Y40622781D01*
X10137923Y40444898D01*
X10137921Y40444889D01*
X10117388Y40197082D01*
X10117388Y40197071D01*
X10137921Y39949264D01*
X10137923Y39949252D01*
X10198967Y39708195D01*
X10298857Y39480470D01*
X10434864Y39272294D01*
X10434867Y39272291D01*
X10603287Y39089338D01*
X10799522Y38936602D01*
X11018221Y38818248D01*
X11253417Y38737505D01*
X11498696Y38696576D01*
X11747366Y38696576D01*
X11992645Y38737505D01*
X12227841Y38818248D01*
X12446540Y38936602D01*
X12642775Y39089338D01*
X12811195Y39272291D01*
X12947204Y39480469D01*
X13047094Y39708195D01*
X13103514Y39930991D01*
X30267903Y39930991D01*
X30295699Y39823866D01*
X30304049Y39791685D01*
X30332990Y39739179D01*
X31535061Y38022446D01*
X31574501Y37977291D01*
X31693046Y37895678D01*
X31693047Y37895678D01*
X31693048Y37895677D01*
X31739287Y37880492D01*
X31829780Y37850771D01*
X31829783Y37850770D01*
X31973632Y37846203D01*
X32112941Y37882349D01*
X32165447Y37911290D01*
X33882180Y39113361D01*
X33927335Y39152801D01*
X34008948Y39271346D01*
X34053856Y39408083D01*
X34058423Y39551932D01*
X34022277Y39691241D01*
X33993336Y39743747D01*
X32791265Y41460480D01*
X32751825Y41505635D01*
X32633280Y41587248D01*
X32633279Y41587249D01*
X32633277Y41587250D01*
X32496543Y41632156D01*
X32496546Y41632156D01*
X32434893Y41634114D01*
X32352694Y41636723D01*
X32352693Y41636723D01*
X32352690Y41636723D01*
X32213390Y41600579D01*
X32213381Y41600575D01*
X32160887Y41571641D01*
X32160880Y41571637D01*
X31350892Y41004476D01*
X30528683Y40428758D01*
X30444142Y40369562D01*
X30398991Y40330126D01*
X30398988Y40330122D01*
X30317376Y40211578D01*
X30272470Y40074846D01*
X30267903Y39930991D01*
X13103514Y39930991D01*
X13108139Y39949255D01*
X13120334Y40096425D01*
X13128674Y40197071D01*
X13128674Y40197082D01*
X13108140Y40444889D01*
X13108138Y40444898D01*
X13077669Y40565219D01*
X13047094Y40685958D01*
X12947204Y40913683D01*
X12811197Y41121859D01*
X12727616Y41212652D01*
X12642775Y41304814D01*
X12446540Y41457550D01*
X12446538Y41457551D01*
X12446537Y41457552D01*
X12227842Y41575904D01*
X12227833Y41575907D01*
X11992647Y41656647D01*
X11747366Y41697576D01*
X11726414Y41697576D01*
X11659375Y41717261D01*
X11613620Y41770065D01*
X11603676Y41839223D01*
X11606208Y41852017D01*
X11651255Y42029901D01*
X11653440Y42056269D01*
X11671790Y42277717D01*
X11671790Y42277728D01*
X11651256Y42525535D01*
X11651254Y42525544D01*
X11620785Y42645865D01*
X11590210Y42766604D01*
X11490320Y42994329D01*
X11354313Y43202505D01*
X11270732Y43293298D01*
X11185891Y43385460D01*
X10989656Y43538196D01*
X10989654Y43538197D01*
X10989653Y43538198D01*
X10770958Y43656550D01*
X10770949Y43656553D01*
X10535763Y43737293D01*
X10290482Y43778222D01*
X10269530Y43778222D01*
X10202491Y43797907D01*
X10156736Y43850711D01*
X10146792Y43919869D01*
X10149324Y43932663D01*
X10194371Y44110547D01*
X10206566Y44257717D01*
X10214906Y44358363D01*
X10214906Y44358374D01*
X10194372Y44606181D01*
X10194370Y44606193D01*
X10133326Y44847250D01*
X10033436Y45074975D01*
X9897429Y45283151D01*
X9820628Y45366579D01*
X9729007Y45466106D01*
X9532772Y45618842D01*
X9532770Y45618843D01*
X9532769Y45618844D01*
X9314074Y45737196D01*
X9314065Y45737199D01*
X9078879Y45817939D01*
X8833598Y45858868D01*
X8812646Y45858868D01*
X8745607Y45878553D01*
X8699852Y45931357D01*
X8689908Y46000515D01*
X8692440Y46013308D01*
X8724749Y46140893D01*
X8737487Y46191194D01*
X8743404Y46262602D01*
X8758022Y46439010D01*
X8758022Y46439021D01*
X8737488Y46686828D01*
X8737486Y46686837D01*
X8708737Y46800366D01*
X13055384Y46800366D01*
X13091493Y46661203D01*
X13091494Y46661200D01*
X13120404Y46608750D01*
X13120410Y46608741D01*
X13578019Y45955206D01*
X13578020Y45955206D01*
X14440143Y46558873D01*
X14440143Y46537456D01*
X14481461Y46396743D01*
X14560748Y46273370D01*
X14671581Y46177332D01*
X14729315Y46150966D01*
X13864808Y45545631D01*
X14322428Y44892083D01*
X14361822Y44846983D01*
X14361823Y44846982D01*
X14480252Y44765449D01*
X14616849Y44720588D01*
X14616846Y44720588D01*
X14760560Y44716025D01*
X14899723Y44752134D01*
X14899726Y44752135D01*
X14952176Y44781045D01*
X14952185Y44781051D01*
X15605719Y45238661D01*
X15605720Y45238662D01*
X15000643Y46102800D01*
X15095304Y46116410D01*
X15228705Y46177332D01*
X15339538Y46273370D01*
X15412308Y46386604D01*
X16015295Y45525450D01*
X16015296Y45525449D01*
X16668835Y45983062D01*
X16668843Y45983069D01*
X16713943Y46022463D01*
X16713944Y46022464D01*
X16795477Y46140893D01*
X16840338Y46277489D01*
X16844901Y46421201D01*
X16808792Y46560364D01*
X16808791Y46560367D01*
X16779881Y46612817D01*
X16779875Y46612826D01*
X16322265Y47266362D01*
X16322264Y47266362D01*
X15460143Y46662698D01*
X15460143Y46684110D01*
X15418825Y46824823D01*
X15339538Y46948196D01*
X15228705Y47044234D01*
X15170967Y47070602D01*
X16035476Y47675937D01*
X15867299Y47916118D01*
X40961010Y47916118D01*
X40981543Y47668311D01*
X40981545Y47668299D01*
X41042589Y47427242D01*
X41142479Y47199517D01*
X41278486Y46991341D01*
X41310898Y46956132D01*
X41446909Y46808385D01*
X41643144Y46655649D01*
X41679328Y46636067D01*
X41860985Y46537759D01*
X41861843Y46537295D01*
X42080794Y46462129D01*
X42095617Y46457040D01*
X42097039Y46456552D01*
X42342318Y46415623D01*
X42590988Y46415623D01*
X42836267Y46456552D01*
X43071463Y46537295D01*
X43290162Y46655649D01*
X43486397Y46808385D01*
X43645424Y46981135D01*
X43705310Y47017124D01*
X43775148Y47015024D01*
X43827881Y46981135D01*
X43986909Y46808385D01*
X44183144Y46655649D01*
X44219328Y46636067D01*
X44400985Y46537759D01*
X44401843Y46537295D01*
X44620794Y46462129D01*
X44635617Y46457040D01*
X44637039Y46456552D01*
X44882318Y46415623D01*
X45130988Y46415623D01*
X45376267Y46456552D01*
X45611463Y46537295D01*
X45830162Y46655649D01*
X46026397Y46808385D01*
X46194817Y46991338D01*
X46195186Y46991904D01*
X46195398Y46992085D01*
X46197975Y46995394D01*
X46198655Y46994865D01*
X46248329Y47037263D01*
X46311791Y47047426D01*
X46323217Y47046241D01*
X47055519Y47778543D01*
X47077971Y47702083D01*
X47157258Y47578710D01*
X47268091Y47482672D01*
X47401492Y47421750D01*
X47405287Y47421205D01*
X46676595Y46692514D01*
X46723421Y46656068D01*
X46723423Y46656067D01*
X46942038Y46537759D01*
X46942049Y46537754D01*
X47177159Y46457040D01*
X47422360Y46416123D01*
X47670946Y46416123D01*
X47916146Y46457040D01*
X48151256Y46537754D01*
X48151267Y46537759D01*
X48369881Y46656066D01*
X48369884Y46656068D01*
X48416709Y46692514D01*
X47688018Y47421205D01*
X47691814Y47421750D01*
X47825215Y47482672D01*
X47936048Y47578710D01*
X48015335Y47702083D01*
X48037785Y47778543D01*
X48770087Y47046241D01*
X48781514Y47047426D01*
X48850226Y47034763D01*
X48894745Y46994929D01*
X48895336Y46995388D01*
X48897871Y46992131D01*
X48898109Y46991918D01*
X48898484Y46991343D01*
X48938204Y46948196D01*
X49066909Y46808385D01*
X49263144Y46655649D01*
X49299328Y46636067D01*
X49480985Y46537759D01*
X49481843Y46537295D01*
X49700794Y46462129D01*
X49715617Y46457040D01*
X49717039Y46456552D01*
X49962318Y46415623D01*
X50210988Y46415623D01*
X50456267Y46456552D01*
X50691463Y46537295D01*
X50910162Y46655649D01*
X51106397Y46808385D01*
X51265424Y46981135D01*
X51325310Y47017124D01*
X51395148Y47015024D01*
X51447881Y46981135D01*
X51606909Y46808385D01*
X51803144Y46655649D01*
X51839328Y46636067D01*
X52020985Y46537759D01*
X52021843Y46537295D01*
X52240794Y46462129D01*
X52255617Y46457040D01*
X52257039Y46456552D01*
X52502318Y46415623D01*
X52750988Y46415623D01*
X52996267Y46456552D01*
X53231463Y46537295D01*
X53450162Y46655649D01*
X53646397Y46808385D01*
X53805424Y46981135D01*
X53865310Y47017124D01*
X53935148Y47015024D01*
X53987881Y46981135D01*
X54146909Y46808385D01*
X54343144Y46655649D01*
X54379328Y46636067D01*
X54560985Y46537759D01*
X54561843Y46537295D01*
X54780794Y46462129D01*
X54795617Y46457040D01*
X54797039Y46456552D01*
X55042318Y46415623D01*
X55290988Y46415623D01*
X55536267Y46456552D01*
X55771463Y46537295D01*
X55990162Y46655649D01*
X56186397Y46808385D01*
X56354817Y46991338D01*
X56490826Y47199516D01*
X56590716Y47427242D01*
X56651761Y47668302D01*
X56654345Y47699489D01*
X56672296Y47916118D01*
X56672296Y47916129D01*
X56651762Y48163936D01*
X56651760Y48163948D01*
X56590716Y48405005D01*
X56490826Y48632730D01*
X56354819Y48840906D01*
X56325260Y48873015D01*
X56186397Y49023861D01*
X55990162Y49176597D01*
X55990160Y49176598D01*
X55990159Y49176599D01*
X55771464Y49294951D01*
X55771455Y49294954D01*
X55536269Y49375694D01*
X55290988Y49416623D01*
X55042318Y49416623D01*
X54797036Y49375694D01*
X54561850Y49294954D01*
X54561841Y49294951D01*
X54343146Y49176599D01*
X54146910Y49023862D01*
X53987883Y48851113D01*
X53927995Y48815122D01*
X53858157Y48817223D01*
X53805423Y48851113D01*
X53754535Y48906392D01*
X53646397Y49023861D01*
X53450162Y49176597D01*
X53450160Y49176598D01*
X53450159Y49176599D01*
X53231464Y49294951D01*
X53231455Y49294954D01*
X52996269Y49375694D01*
X52750988Y49416623D01*
X52502318Y49416623D01*
X52257036Y49375694D01*
X52021850Y49294954D01*
X52021841Y49294951D01*
X51803146Y49176599D01*
X51606910Y49023862D01*
X51447883Y48851113D01*
X51387995Y48815122D01*
X51318157Y48817223D01*
X51265423Y48851113D01*
X51214535Y48906392D01*
X51106397Y49023861D01*
X50910162Y49176597D01*
X50910160Y49176598D01*
X50910159Y49176599D01*
X50691464Y49294951D01*
X50691455Y49294954D01*
X50456269Y49375694D01*
X50210988Y49416623D01*
X49962318Y49416623D01*
X49717036Y49375694D01*
X49481850Y49294954D01*
X49481841Y49294951D01*
X49263146Y49176599D01*
X49066910Y49023862D01*
X48898490Y48840910D01*
X48898482Y48840899D01*
X48898108Y48840326D01*
X48897895Y48840145D01*
X48895343Y48836865D01*
X48894667Y48837391D01*
X48844957Y48794976D01*
X48781518Y48784821D01*
X48770087Y48786007D01*
X48037785Y48053705D01*
X48015335Y48130163D01*
X47936048Y48253536D01*
X47825215Y48349574D01*
X47691814Y48410496D01*
X47688019Y48411042D01*
X48416710Y49139733D01*
X48416709Y49139734D01*
X48369882Y49176180D01*
X48151267Y49294488D01*
X48151256Y49294493D01*
X47916146Y49375207D01*
X47670946Y49416123D01*
X47422360Y49416123D01*
X47177159Y49375207D01*
X46942049Y49294493D01*
X46942043Y49294491D01*
X46723414Y49176174D01*
X46676595Y49139735D01*
X46676595Y49139733D01*
X47405287Y48411042D01*
X47401492Y48410496D01*
X47268091Y48349574D01*
X47157258Y48253536D01*
X47077971Y48130163D01*
X47055520Y48053704D01*
X46323217Y48786007D01*
X46311788Y48784821D01*
X46243076Y48797486D01*
X46198563Y48837321D01*
X46197970Y48836858D01*
X46195421Y48840132D01*
X46195188Y48840341D01*
X46194819Y48840905D01*
X46194818Y48840906D01*
X46194817Y48840908D01*
X46026397Y49023861D01*
X45830162Y49176597D01*
X45830160Y49176598D01*
X45830159Y49176599D01*
X45611464Y49294951D01*
X45611455Y49294954D01*
X45376269Y49375694D01*
X45130988Y49416623D01*
X44882318Y49416623D01*
X44637036Y49375694D01*
X44401850Y49294954D01*
X44401841Y49294951D01*
X44183146Y49176599D01*
X43986910Y49023862D01*
X43827883Y48851113D01*
X43767995Y48815122D01*
X43698157Y48817223D01*
X43645423Y48851113D01*
X43594535Y48906392D01*
X43486397Y49023861D01*
X43290162Y49176597D01*
X43290160Y49176598D01*
X43290159Y49176599D01*
X43071464Y49294951D01*
X43071455Y49294954D01*
X42836269Y49375694D01*
X42590988Y49416623D01*
X42342318Y49416623D01*
X42097036Y49375694D01*
X41861850Y49294954D01*
X41861841Y49294951D01*
X41643146Y49176599D01*
X41446910Y49023862D01*
X41278486Y48840906D01*
X41142479Y48632730D01*
X41042589Y48405005D01*
X40981545Y48163948D01*
X40981543Y48163936D01*
X40961010Y47916129D01*
X40961010Y47916118D01*
X15867299Y47916118D01*
X15577857Y48329484D01*
X15538463Y48374584D01*
X15538462Y48374585D01*
X15420033Y48456118D01*
X15283436Y48500979D01*
X15283439Y48500979D01*
X15139725Y48505542D01*
X15000562Y48469433D01*
X15000559Y48469432D01*
X14948109Y48440522D01*
X14948100Y48440516D01*
X14294564Y47982907D01*
X14294564Y47982906D01*
X14899642Y47118767D01*
X14804982Y47105156D01*
X14671581Y47044234D01*
X14560748Y46948196D01*
X14487977Y46834963D01*
X13884989Y47696118D01*
X13231442Y47238498D01*
X13186342Y47199104D01*
X13186341Y47199103D01*
X13104808Y47080674D01*
X13059947Y46944078D01*
X13055384Y46800366D01*
X8708737Y46800366D01*
X8707017Y46807158D01*
X8676442Y46927897D01*
X8576552Y47155622D01*
X8440545Y47363798D01*
X8387196Y47421750D01*
X8272123Y47546753D01*
X8075888Y47699489D01*
X8075886Y47699490D01*
X8075885Y47699491D01*
X7857190Y47817843D01*
X7857181Y47817846D01*
X7621995Y47898586D01*
X7376714Y47939515D01*
X7355762Y47939515D01*
X7288723Y47959200D01*
X7242968Y48012004D01*
X7233024Y48081162D01*
X7235556Y48093956D01*
X7244725Y48130163D01*
X7280603Y48271840D01*
X7285380Y48329484D01*
X7301138Y48519656D01*
X7301138Y48519667D01*
X7280604Y48767474D01*
X7280602Y48767483D01*
X7262900Y48837391D01*
X7219558Y49008543D01*
X7119668Y49236268D01*
X6983661Y49444444D01*
X6900080Y49535237D01*
X6815239Y49627399D01*
X6619004Y49780135D01*
X6619002Y49780136D01*
X6619001Y49780137D01*
X6400306Y49898489D01*
X6400297Y49898492D01*
X6165111Y49979232D01*
X5919830Y50020161D01*
X5898877Y50020161D01*
X5831838Y50039846D01*
X5786083Y50092650D01*
X5776139Y50161808D01*
X5778671Y50174602D01*
X5823718Y50352486D01*
X5823789Y50353337D01*
X5844253Y50600302D01*
X5844253Y50600313D01*
X5823719Y50848120D01*
X5823717Y50848129D01*
X5799411Y50944115D01*
X5762673Y51089189D01*
X5726803Y51170963D01*
X19296822Y51170963D01*
X19332966Y51031663D01*
X19332968Y51031657D01*
X19361909Y50979151D01*
X20563980Y49262418D01*
X20603420Y49217263D01*
X20721965Y49135650D01*
X20721966Y49135650D01*
X20721967Y49135649D01*
X20768206Y49120464D01*
X20858699Y49090743D01*
X20858702Y49090742D01*
X21002551Y49086175D01*
X21141860Y49122321D01*
X21194366Y49151262D01*
X22911099Y50353333D01*
X22956254Y50392773D01*
X22956259Y50392780D01*
X23028388Y50497549D01*
X23082617Y50541606D01*
X23099370Y50547257D01*
X23222506Y50579206D01*
X23275012Y50608147D01*
X24991745Y51810218D01*
X25036900Y51849658D01*
X25118513Y51968203D01*
X25163421Y52104940D01*
X25167988Y52248789D01*
X25131842Y52388098D01*
X25102901Y52440604D01*
X23900830Y54157337D01*
X23861390Y54202492D01*
X23742845Y54284105D01*
X23742844Y54284106D01*
X23742842Y54284107D01*
X23606108Y54329013D01*
X23606111Y54329013D01*
X23544458Y54330971D01*
X23462259Y54333580D01*
X23462258Y54333580D01*
X23462255Y54333580D01*
X23322955Y54297436D01*
X23322946Y54297432D01*
X23270452Y54268498D01*
X23270445Y54268494D01*
X22474715Y53711317D01*
X21676872Y53152660D01*
X21553707Y53066419D01*
X21508556Y53026983D01*
X21508553Y53026979D01*
X21436422Y52922206D01*
X21382192Y52878150D01*
X21365430Y52872497D01*
X21247055Y52841782D01*
X21242304Y52840549D01*
X21242301Y52840548D01*
X21242300Y52840547D01*
X21189806Y52811613D01*
X21189799Y52811609D01*
X20505546Y52332489D01*
X19481686Y51615573D01*
X19473061Y51609534D01*
X19427910Y51570098D01*
X19427907Y51570094D01*
X19346295Y51451550D01*
X19301389Y51314818D01*
X19296822Y51170963D01*
X5726803Y51170963D01*
X5662783Y51316914D01*
X5526776Y51525090D01*
X5482474Y51573215D01*
X5358354Y51708045D01*
X5162119Y51860781D01*
X5162117Y51860782D01*
X5162116Y51860783D01*
X4943421Y51979135D01*
X4943412Y51979138D01*
X4708226Y52059878D01*
X4462945Y52100807D01*
X4441993Y52100807D01*
X4374954Y52120492D01*
X4329199Y52173296D01*
X4319255Y52242454D01*
X4321787Y52255248D01*
X4341346Y52332484D01*
X4366834Y52433132D01*
X4366835Y52433141D01*
X4387369Y52680948D01*
X4387369Y52680959D01*
X4366835Y52928766D01*
X4366833Y52928775D01*
X4336364Y53049096D01*
X4305789Y53169835D01*
X4205899Y53397560D01*
X4069892Y53605736D01*
X3986311Y53696529D01*
X3901470Y53788691D01*
X3705235Y53941427D01*
X3705233Y53941428D01*
X3705232Y53941429D01*
X3486537Y54059781D01*
X3486528Y54059784D01*
X3251342Y54140524D01*
X3006061Y54181453D01*
X2985109Y54181453D01*
X2918070Y54201138D01*
X2872315Y54253942D01*
X2862371Y54323100D01*
X2864903Y54335894D01*
X2869719Y54354912D01*
X2909950Y54513778D01*
X2922145Y54660948D01*
X2930485Y54761594D01*
X2930485Y54761605D01*
X2909951Y55009412D01*
X2909949Y55009424D01*
X2848905Y55250481D01*
X2749015Y55478206D01*
X2613008Y55686382D01*
X2591991Y55709213D01*
X17377464Y55709213D01*
X17659060Y55612251D01*
X17719442Y55598462D01*
X17744508Y55589830D01*
X17804780Y55561549D01*
X17804794Y55561544D01*
X17804797Y55561542D01*
X18840845Y55204803D01*
X18861442Y55200099D01*
X18903479Y55190498D01*
X18928543Y55181868D01*
X18932418Y55180050D01*
X18932419Y55180049D01*
X18986695Y55154582D01*
X20022743Y54797843D01*
X20059456Y54789459D01*
X20081190Y54784494D01*
X20081191Y54784495D01*
X20081192Y54784494D01*
X20225068Y54788147D01*
X20362086Y54832188D01*
X20481147Y54913045D01*
X20572604Y55024172D01*
X20598071Y55078448D01*
X20954810Y56114496D01*
X20968159Y56172945D01*
X20964506Y56316821D01*
X20920465Y56453839D01*
X20839608Y56572900D01*
X20790738Y56613120D01*
X20728482Y56664357D01*
X20674206Y56689824D01*
X20674201Y56689826D01*
X19638156Y57046564D01*
X19575522Y57060868D01*
X19550457Y57069499D01*
X19492316Y57096781D01*
X19492303Y57096786D01*
X18456257Y57453524D01*
X18391323Y57468354D01*
X18366260Y57476984D01*
X18310205Y57503286D01*
X18028601Y57600250D01*
X18028600Y57600250D01*
X17883997Y57180293D01*
X17881516Y57174167D01*
X17880934Y57172927D01*
X17880924Y57172901D01*
X17524193Y56136877D01*
X17524180Y56136831D01*
X17523873Y56135488D01*
X17522063Y56129162D01*
X17377464Y55709214D01*
X17377464Y55709213D01*
X2591991Y55709213D01*
X2529426Y55777176D01*
X2444586Y55869337D01*
X2248351Y56022073D01*
X2248349Y56022074D01*
X2248348Y56022075D01*
X2029653Y56140427D01*
X2029644Y56140430D01*
X1794458Y56221170D01*
X1549177Y56262099D01*
X1528225Y56262099D01*
X1461186Y56281784D01*
X1415431Y56334588D01*
X1405487Y56403746D01*
X1408019Y56416539D01*
X1453065Y56594422D01*
X1453066Y56594425D01*
X1462905Y56713162D01*
X1473601Y56842241D01*
X1473601Y56842252D01*
X1453067Y57090059D01*
X1453065Y57090068D01*
X1446788Y57114858D01*
X1392021Y57331128D01*
X1292131Y57558853D01*
X1195823Y57706264D01*
X12783249Y57706264D01*
X12786902Y57562388D01*
X12786903Y57562386D01*
X12821894Y57453523D01*
X12830944Y57425369D01*
X12830945Y57425366D01*
X12906608Y57313953D01*
X12911801Y57306307D01*
X12974058Y57255070D01*
X13022926Y57214851D01*
X13022927Y57214851D01*
X13022928Y57214850D01*
X13077204Y57189383D01*
X14113252Y56832644D01*
X14146659Y56825015D01*
X14175886Y56818339D01*
X14200950Y56809709D01*
X14204825Y56807891D01*
X14204826Y56807890D01*
X14259102Y56782423D01*
X15295150Y56425684D01*
X15328557Y56418055D01*
X15357784Y56411379D01*
X15382848Y56402749D01*
X15386723Y56400931D01*
X15386724Y56400930D01*
X15441000Y56375463D01*
X16477048Y56018724D01*
X16535497Y56005375D01*
X16541981Y56003894D01*
X16567046Y55995263D01*
X16623093Y55968964D01*
X16623106Y55968959D01*
X16904703Y55871998D01*
X16904704Y55871998D01*
X17049304Y56291949D01*
X17051801Y56298105D01*
X17052376Y56299329D01*
X17202776Y56736123D01*
X17434181Y56736123D01*
X17443692Y56713162D01*
X17460685Y56706123D01*
X17472621Y56706123D01*
X17489614Y56713162D01*
X17499125Y56736123D01*
X17489614Y56759084D01*
X17472621Y56766123D01*
X17460685Y56766123D01*
X17443692Y56759084D01*
X17434181Y56736123D01*
X17202776Y56736123D01*
X17409115Y57335377D01*
X17409413Y57336684D01*
X17411232Y57343064D01*
X17555840Y57763034D01*
X17555840Y57763035D01*
X17274246Y57859995D01*
X17274242Y57859996D01*
X17213864Y57873786D01*
X17188802Y57882416D01*
X17128519Y57910702D01*
X17128506Y57910707D01*
X16092461Y58267445D01*
X16029827Y58281749D01*
X16004762Y58290380D01*
X15946621Y58317662D01*
X15946608Y58317667D01*
X14910563Y58674405D01*
X14847929Y58688709D01*
X14822864Y58697340D01*
X14764723Y58724622D01*
X14764710Y58724627D01*
X13728666Y59081364D01*
X13670218Y59094714D01*
X13526342Y59091061D01*
X13526340Y59091060D01*
X13389323Y59047019D01*
X13389320Y59047018D01*
X13270265Y58966165D01*
X13270261Y58966161D01*
X13178805Y58855037D01*
X13178805Y58855036D01*
X13153338Y58800761D01*
X13153336Y58800756D01*
X12796599Y57764712D01*
X12783249Y57706264D01*
X1195823Y57706264D01*
X1156124Y57767029D01*
X1072543Y57857822D01*
X987702Y57949984D01*
X791467Y58102720D01*
X791465Y58102721D01*
X791464Y58102722D01*
X572769Y58221074D01*
X572760Y58221077D01*
X337574Y58301817D01*
X92293Y58342746D01*
X71341Y58342746D01*
X4302Y58362431D01*
X-41453Y58415235D01*
X-51397Y58484393D01*
X-48865Y58497187D01*
X-29306Y58574423D01*
X-3818Y58675071D01*
X-2688Y58688709D01*
X16717Y58922887D01*
X16717Y58922898D01*
X-3817Y59170705D01*
X-3819Y59170714D01*
X-34288Y59291035D01*
X-64863Y59411774D01*
X-164753Y59639499D01*
X-300760Y59847675D01*
X-384341Y59938468D01*
X-469182Y60030630D01*
X-665417Y60183366D01*
X-665419Y60183367D01*
X-665420Y60183368D01*
X-884115Y60301720D01*
X-884124Y60301723D01*
X-1119310Y60382463D01*
X-1364591Y60423392D01*
X-1385543Y60423392D01*
X-1452582Y60443077D01*
X-1498337Y60495881D01*
X-1508281Y60565039D01*
X-1505749Y60577833D01*
X-1486190Y60655069D01*
X-1460702Y60755717D01*
X-1448507Y60902887D01*
X-1440167Y61003533D01*
X-1440167Y61003544D01*
X-1460701Y61251351D01*
X-1460703Y61251360D01*
X-1491172Y61371681D01*
X-1521747Y61492420D01*
X-1621637Y61720145D01*
X-1757644Y61928321D01*
X-1841225Y62019114D01*
X-1926066Y62111276D01*
X-2122301Y62264012D01*
X-2122303Y62264013D01*
X-2122304Y62264014D01*
X-2340999Y62382366D01*
X-2341008Y62382369D01*
X-2576194Y62463109D01*
X-2821475Y62504038D01*
X-2842428Y62504038D01*
X-2909467Y62523723D01*
X-2955222Y62576527D01*
X-2965166Y62645685D01*
X-2962634Y62658479D01*
X-2943075Y62735715D01*
X-2917587Y62836363D01*
X-2905392Y62983533D01*
X-2897052Y63084179D01*
X-2897052Y63084190D01*
X-2917586Y63331997D01*
X-2917588Y63332009D01*
X-2978632Y63573066D01*
X-3078522Y63800791D01*
X-3214529Y64008967D01*
X-3259176Y64057466D01*
X-3382951Y64191922D01*
X-3579186Y64344658D01*
X-3579188Y64344659D01*
X-3579189Y64344660D01*
X-3797884Y64463012D01*
X-3797893Y64463015D01*
X-4033079Y64543755D01*
X-4278360Y64584684D01*
X-4327384Y64584684D01*
X-4394423Y64604369D01*
X-4436709Y64650168D01*
X-4442570Y64661118D01*
X-5461586Y64840798D01*
X-5390897Y64950790D01*
X-5349579Y65091503D01*
X-5349579Y65238157D01*
X-5377636Y65333709D01*
X-4355381Y65153457D01*
X-4354438Y65164829D01*
X-4354438Y65164835D01*
X-4374965Y65412561D01*
X-4374967Y65412569D01*
X-4435992Y65653548D01*
X-4535847Y65881198D01*
X-4671812Y66089309D01*
X-4840172Y66272195D01*
X-4840182Y66272204D01*
X-5036342Y66424882D01*
X-5036351Y66424888D01*
X-5254965Y66543195D01*
X-5254979Y66543201D01*
X-5356532Y66578065D01*
X-5356533Y66578065D01*
X-5536150Y65559404D01*
X-5581017Y65598281D01*
X-5714418Y65659203D01*
X-5823106Y65674830D01*
X-5896052Y65674830D01*
X-6004740Y65659203D01*
X-6028150Y65648513D01*
X-5848945Y66664830D01*
X-5859380Y66677266D01*
X-5887393Y66741274D01*
X-5884596Y66787413D01*
X-5831358Y66997643D01*
X-5831356Y66997652D01*
X-5831355Y66997655D01*
X-5810820Y67245476D01*
X-5822906Y67391327D01*
X-5831354Y67493289D01*
X-5831356Y67493301D01*
X-5892400Y67734358D01*
X-5992290Y67962083D01*
X-6128297Y68170259D01*
X-6172600Y68218385D01*
X-6296719Y68353214D01*
X-6492954Y68505950D01*
X-6492956Y68505951D01*
X-6492957Y68505952D01*
X-6711652Y68624304D01*
X-6711661Y68624307D01*
X-6946847Y68705047D01*
X-7192128Y68745976D01*
X-7213080Y68745976D01*
X-7280119Y68765661D01*
X-7325874Y68818465D01*
X-7335818Y68887623D01*
X-7333286Y68900416D01*
X-7288240Y69078299D01*
X-7288239Y69078302D01*
X-7267704Y69326123D01*
X-7269521Y69348048D01*
X-7288238Y69573936D01*
X-7288240Y69573945D01*
X-7288240Y69573948D01*
X-7349284Y69815005D01*
X-7449174Y70042730D01*
X-7585181Y70250906D01*
X-7606790Y70274379D01*
X-7753603Y70433861D01*
X-7949838Y70586597D01*
X-7949840Y70586598D01*
X-7949841Y70586599D01*
X-8168536Y70704951D01*
X-8168545Y70704954D01*
X-8403731Y70785694D01*
X-8649012Y70826623D01*
X-8669964Y70826623D01*
X-8737003Y70846308D01*
X-8782758Y70899112D01*
X-8792702Y70968270D01*
X-8790170Y70981064D01*
X-8745123Y71158948D01*
X-8724588Y71406769D01*
X-8745123Y71654590D01*
X-8745124Y71654594D01*
X-8806168Y71895651D01*
X-8906058Y72123376D01*
X-9042065Y72331552D01*
X-9086367Y72379677D01*
X-9210487Y72514507D01*
X-9406722Y72667243D01*
X-9406724Y72667244D01*
X-9406725Y72667245D01*
X-9625420Y72785597D01*
X-9625429Y72785600D01*
X-9860615Y72866340D01*
X-10105896Y72907269D01*
X-10126848Y72907269D01*
X-10193887Y72926954D01*
X-10239642Y72979758D01*
X-10249586Y73048916D01*
X-10247054Y73061710D01*
X-10223355Y73155295D01*
X-10202007Y73239594D01*
X-10181472Y73487415D01*
X-10202007Y73735236D01*
X-10244904Y73904632D01*
X-10263052Y73976297D01*
X-10362942Y74204022D01*
X-10498949Y74412198D01*
X-10543251Y74460323D01*
X-10667371Y74595153D01*
X-10863606Y74747889D01*
X-10863608Y74747890D01*
X-10863609Y74747891D01*
X-11082304Y74866243D01*
X-11082313Y74866246D01*
X-11317499Y74946986D01*
X-11562780Y74987915D01*
X-11583732Y74987915D01*
X-11650771Y75007600D01*
X-11696526Y75060404D01*
X-11706470Y75129562D01*
X-11703938Y75142356D01*
X-11658891Y75320240D01*
X-11638356Y75568061D01*
X-11643295Y75627664D01*
X-11658890Y75815874D01*
X-11658892Y75815886D01*
X-11719936Y76056943D01*
X-11819826Y76284668D01*
X-11955833Y76492844D01*
X-11996153Y76536643D01*
X-12124255Y76675799D01*
X-12320490Y76828535D01*
X-12320492Y76828536D01*
X-12320493Y76828537D01*
X-12539188Y76946889D01*
X-12539197Y76946892D01*
X-12688829Y76998261D01*
X-12745844Y77038646D01*
X-12771975Y77103446D01*
X-12759185Y77170717D01*
X-12759489Y77170868D01*
X-12758949Y77171960D01*
X-12758924Y77172086D01*
X-12758698Y77172466D01*
X-12755550Y77178817D01*
X-12710689Y77315413D01*
X-12706126Y77459125D01*
X-12742235Y77598288D01*
X-12742236Y77598291D01*
X-12771146Y77650741D01*
X-12771152Y77650750D01*
X-13228762Y78304286D01*
X-13228763Y78304286D01*
X-14090884Y77700623D01*
X-14090884Y77722034D01*
X-14132202Y77862747D01*
X-14211489Y77986120D01*
X-14322322Y78082158D01*
X-14380060Y78108526D01*
X-13515551Y78713861D01*
X-13973170Y79367408D01*
X-14012564Y79412508D01*
X-14012565Y79412509D01*
X-14124752Y79489744D01*
X-14168808Y79543973D01*
X-14176552Y79613413D01*
X-14145525Y79676015D01*
X-14085578Y79711906D01*
X-14074933Y79714174D01*
X-12447511Y79986716D01*
X-10674009Y80243528D01*
X-8895261Y80461043D01*
X-7112135Y80639156D01*
X-5325506Y80777778D01*
X-3536248Y80876842D01*
X-1745236Y80936300D01*
X46653Y80956123D01*
X1838542Y80936300D01*
G37*
%TD.AperFunction*%
%TD*%
M02*
