%TF.GenerationSoftware,KiCad,Pcbnew,7.0.9-rc1*%
%TF.CreationDate,2023-11-05T19:21:47+02:00*%
%TF.ProjectId,projectA,70726f6a-6563-4744-912e-6b696361645f,rev?*%
%TF.SameCoordinates,PX5e5c173PY6474d3b*%
%TF.FileFunction,Paste,Top*%
%TF.FilePolarity,Positive*%
%FSLAX46Y46*%
G04 Gerber Fmt 4.6, Leading zero omitted, Abs format (unit mm)*
G04 Created by KiCad (PCBNEW 7.0.9-rc1) date 2023-11-05 19:21:47*
%MOMM*%
%LPD*%
G01*
G04 APERTURE LIST*
G04 Aperture macros list*
%AMRoundRect*
0 Rectangle with rounded corners*
0 $1 Rounding radius*
0 $2 $3 $4 $5 $6 $7 $8 $9 X,Y pos of 4 corners*
0 Add a 4 corners polygon primitive as box body*
4,1,4,$2,$3,$4,$5,$6,$7,$8,$9,$2,$3,0*
0 Add four circle primitives for the rounded corners*
1,1,$1+$1,$2,$3*
1,1,$1+$1,$4,$5*
1,1,$1+$1,$6,$7*
1,1,$1+$1,$8,$9*
0 Add four rect primitives between the rounded corners*
20,1,$1+$1,$2,$3,$4,$5,0*
20,1,$1+$1,$4,$5,$6,$7,0*
20,1,$1+$1,$6,$7,$8,$9,0*
20,1,$1+$1,$8,$9,$2,$3,0*%
%AMRotRect*
0 Rectangle, with rotation*
0 The origin of the aperture is its center*
0 $1 length*
0 $2 width*
0 $3 Rotation angle, in degrees counterclockwise*
0 Add horizontal line*
21,1,$1,$2,0,0,$3*%
G04 Aperture macros list end*
%ADD10RoundRect,0.250000X-0.043082X0.519182X-0.473137X0.218055X0.043082X-0.519182X0.473137X-0.218055X0*%
%ADD11RotRect,2.200000X1.600000X125.000000*%
%ADD12RotRect,2.200000X1.600000X35.000000*%
%ADD13RotRect,2.200000X1.600000X230.000000*%
%ADD14RoundRect,0.250000X-0.067661X0.532491X-0.477237X0.245703X0.067661X-0.532491X0.477237X-0.245703X0*%
%ADD15RoundRect,0.243750X0.062026X-0.513547X0.461363X-0.233929X-0.062026X0.513547X-0.461363X0.233929X0*%
%ADD16RoundRect,0.250000X0.250000X0.475000X-0.250000X0.475000X-0.250000X-0.475000X0.250000X-0.475000X0*%
%ADD17RoundRect,0.250000X-0.450000X0.262500X-0.450000X-0.262500X0.450000X-0.262500X0.450000X0.262500X0*%
%ADD18RoundRect,0.250000X-0.523520X0.118542X-0.394110X-0.364421X0.523520X-0.118542X0.394110X0.364421X0*%
%ADD19RoundRect,0.250000X0.391025X0.367729X-0.081735X0.530513X-0.391025X-0.367729X0.081735X-0.530513X0*%
%ADD20RoundRect,0.250000X-0.475000X0.250000X-0.475000X-0.250000X0.475000X-0.250000X0.475000X0.250000X0*%
%ADD21RoundRect,0.250000X-0.250000X-0.475000X0.250000X-0.475000X0.250000X0.475000X-0.250000X0.475000X0*%
%ADD22RoundRect,0.250000X0.364421X0.394110X-0.118542X0.523520X-0.364421X-0.394110X0.118542X-0.523520X0*%
%ADD23RoundRect,0.250000X0.159099X-0.512652X0.512652X-0.159099X-0.159099X0.512652X-0.512652X0.159099X0*%
%ADD24RoundRect,0.250000X0.043082X-0.519182X0.473137X-0.218055X-0.043082X0.519182X-0.473137X0.218055X0*%
%ADD25RotRect,8.460000X6.470000X45.000000*%
G04 APERTURE END LIST*
D10*
%TO.C,R4*%
X-34758395Y46972899D03*
X-36253347Y45926123D03*
%TD*%
D11*
%TO.C,C3*%
X-6452982Y75727395D03*
X-8173712Y78184851D03*
%TD*%
D12*
%TO.C,C2*%
X-54992075Y32875758D03*
X-52534619Y34596488D03*
%TD*%
D13*
%TO.C,C5*%
X-35519166Y-32584810D03*
X-37447528Y-34882944D03*
%TD*%
D14*
%TO.C,C12*%
X-3535153Y73311021D03*
X-5091541Y72221225D03*
%TD*%
D15*
%TO.C,D8*%
X-19595392Y32223851D03*
X-21131302Y31148395D03*
%TD*%
D10*
%TO.C,R2*%
X-40775871Y55459511D03*
X-42270823Y54412735D03*
%TD*%
D16*
%TO.C,C10*%
X49826653Y52226123D03*
X47926653Y52226123D03*
%TD*%
D10*
%TO.C,R7*%
X-25568395Y34392899D03*
X-27063347Y33346123D03*
%TD*%
D17*
%TO.C,R9*%
X-27713347Y-41753877D03*
X-27713347Y-43578877D03*
%TD*%
D15*
%TO.C,D2*%
X-39058886Y56651424D03*
X-37522976Y57726880D03*
%TD*%
D18*
%TO.C,C7*%
X63810775Y13263753D03*
X64302531Y11428493D03*
%TD*%
D15*
%TO.C,D6*%
X-27051302Y39648395D03*
X-25515392Y40723851D03*
%TD*%
%TO.C,D1*%
X-42071302Y60838395D03*
X-40535392Y61913851D03*
%TD*%
D19*
%TO.C,C9*%
X16364896Y60186833D03*
X14568410Y60805413D03*
%TD*%
D20*
%TO.C,C8*%
X-27823347Y-57443877D03*
X-27823347Y-59343877D03*
%TD*%
D21*
%TO.C,C11*%
X-45723347Y-31213877D03*
X-43823347Y-31213877D03*
%TD*%
D15*
%TO.C,D3*%
X-36048886Y52391424D03*
X-34512976Y53466880D03*
%TD*%
%TO.C,D5*%
X-29828886Y44051424D03*
X-28292976Y45126880D03*
%TD*%
D22*
%TO.C,C6*%
X-26995717Y-63709755D03*
X-28830977Y-63217999D03*
%TD*%
D15*
%TO.C,D7*%
X-23811302Y35568395D03*
X-22275392Y36643851D03*
%TD*%
D10*
%TO.C,R5*%
X-31875871Y42679511D03*
X-33370823Y41632735D03*
%TD*%
%TO.C,R1*%
X-43825871Y59669511D03*
X-45320823Y58622735D03*
%TD*%
D23*
%TO.C,C4*%
X-44025098Y48524372D03*
X-42681596Y49867874D03*
%TD*%
D24*
%TO.C,R10*%
X-20790823Y25232735D03*
X-19295871Y26279511D03*
%TD*%
%TO.C,R11*%
X-18058299Y21439347D03*
X-16563347Y22486123D03*
%TD*%
D15*
%TO.C,D4*%
X-32853347Y48236123D03*
X-31317437Y49311579D03*
%TD*%
D12*
%TO.C,C1*%
X32917925Y45920067D03*
X35375381Y47640797D03*
%TD*%
D10*
%TO.C,R8*%
X-22805871Y29989511D03*
X-24300823Y28942735D03*
%TD*%
D25*
%TO.C,U8*%
X28046691Y28873947D03*
X-28055161Y-27227905D03*
%TD*%
D10*
%TO.C,R3*%
X-37865871Y51179511D03*
X-39360823Y50132735D03*
%TD*%
%TO.C,R6*%
X-28775871Y38509511D03*
X-30270823Y37462735D03*
%TD*%
M02*
