M48
; DRILL file {KiCad 7.0.9-rc1} date 
; FORMAT={-:-/ absolute / metric / decimal}
; #@! TF.CreationDate,2023-11-05T19:21:25+02:00
; #@! TF.GenerationSoftware,Kicad,Pcbnew,7.0.9-rc1
; #@! TF.FileFunction,Plated,1,2,PTH
FMAT,2
METRIC
; #@! TA.AperFunction,Plated,PTH,ComponentDrill
T1C0.060
; #@! TA.AperFunction,Plated,PTH,ComponentDrill
T2C0.800
; #@! TA.AperFunction,Plated,PTH,ComponentDrill
T3C1.020
%
G90
G05
T1
X13.921Y57.957
X15.103Y57.55
X16.285Y57.143
X17.467Y56.736
X18.649Y56.329
X19.83Y55.922
T2
X-43.7Y42.836
X-41.619Y44.293
T3
X-55.958Y-54.514
X-53.615Y43.364
X-51.819Y45.16
X-51.263Y-27.414
X-50.023Y46.956
X-48.723Y-27.414
X-48.227Y48.752
X-47.636Y35.855
X-46.431Y50.548
X-46.183Y-27.414
X-45.233Y-63.513
X-44.473Y52.507
X-43.643Y-27.414
X-41.394Y40.226
X-41.174Y-36.895
X-41.103Y-27.414
X-39.314Y41.683
X-38.875Y-38.823
X-38.746Y23.159
X-38.563Y-27.414
X-35.899Y62.736
X-34.442Y60.655
X-32.985Y58.574
X-32.747Y-43.966
X-31.528Y56.494
X-30.449Y-45.894
X-30.423Y28.986
X-30.071Y54.413
X-28.614Y52.332
X-27.158Y50.252
X-25.701Y48.171
X-24.244Y46.091
X-24.083Y-41.893
X-24.083Y-44.433
X-24.083Y-46.973
X-24.083Y-49.513
X-24.083Y-52.053
X-24.083Y-54.593
X-24.083Y-57.133
X-24.083Y-59.673
X-23.302Y-64.83
X-22.787Y44.01
X-21.33Y41.929
X-20.627Y-65.546
X-19.873Y39.849
X-18.416Y37.768
X-18.173Y-66.204
X-16.959Y35.687
X-15.72Y-66.861
X-15.502Y33.607
X-14.601Y77.649
X-14.046Y31.526
X-13.266Y-67.519
X-13.144Y75.568
X-12.589Y29.445
X-11.687Y73.487
X-11.132Y27.365
X-10.813Y-68.176
X-10.23Y71.407
X-9.675Y25.284
X-8.773Y69.326
X-7.316Y67.245
X-5.86Y65.165
X-4.403Y63.084
X-2.946Y61.004
X-1.489Y58.923
X-0.032Y56.842
X1.425Y54.762
X2.882Y52.681
X4.339Y50.6
X5.795Y48.52
X7.252Y46.439
X8.709Y44.358
X10.166Y42.278
X11.623Y40.197
X14.95Y46.611
X21.192Y50.981
X23.273Y52.438
X23.841Y33.914
X32.163Y39.741
X42.467Y47.916
X45.007Y47.916
X47.547Y47.916
X50.087Y47.916
X52.627Y47.916
X55.167Y47.916
X64.404Y24.816
X65.062Y22.363
X65.719Y19.91
X66.377Y17.456
X67.034Y15.003
X67.751Y12.327
T0
M30
