%TF.GenerationSoftware,KiCad,Pcbnew,7.0.9-rc1*%
%TF.CreationDate,2023-11-05T19:21:47+02:00*%
%TF.ProjectId,projectA,70726f6a-6563-4744-912e-6b696361645f,rev?*%
%TF.SameCoordinates,PX5e5c173PY6474d3b*%
%TF.FileFunction,Copper,L1,Top*%
%TF.FilePolarity,Positive*%
%FSLAX46Y46*%
G04 Gerber Fmt 4.6, Leading zero omitted, Abs format (unit mm)*
G04 Created by KiCad (PCBNEW 7.0.9-rc1) date 2023-11-05 19:21:47*
%MOMM*%
%LPD*%
G01*
G04 APERTURE LIST*
G04 Aperture macros list*
%AMRoundRect*
0 Rectangle with rounded corners*
0 $1 Rounding radius*
0 $2 $3 $4 $5 $6 $7 $8 $9 X,Y pos of 4 corners*
0 Add a 4 corners polygon primitive as box body*
4,1,4,$2,$3,$4,$5,$6,$7,$8,$9,$2,$3,0*
0 Add four circle primitives for the rounded corners*
1,1,$1+$1,$2,$3*
1,1,$1+$1,$4,$5*
1,1,$1+$1,$6,$7*
1,1,$1+$1,$8,$9*
0 Add four rect primitives between the rounded corners*
20,1,$1+$1,$2,$3,$4,$5,0*
20,1,$1+$1,$4,$5,$6,$7,0*
20,1,$1+$1,$6,$7,$8,$9,0*
20,1,$1+$1,$8,$9,$2,$3,0*%
%AMRotRect*
0 Rectangle, with rotation*
0 The origin of the aperture is its center*
0 $1 length*
0 $2 width*
0 $3 Rotation angle, in degrees counterclockwise*
0 Add horizontal line*
21,1,$1,$2,0,0,$3*%
G04 Aperture macros list end*
%ADD10C,0.100000*%
%TA.AperFunction,NonConductor*%
%ADD11C,0.100000*%
%TD*%
%ADD12C,0.150000*%
%TA.AperFunction,NonConductor*%
%ADD13C,0.150000*%
%TD*%
%TA.AperFunction,ComponentPad*%
%ADD14O,2.000000X1.300000*%
%TD*%
%TA.AperFunction,SMDPad,CuDef*%
%ADD15RoundRect,0.250000X-0.043082X0.519182X-0.473137X0.218055X0.043082X-0.519182X0.473137X-0.218055X0*%
%TD*%
%TA.AperFunction,ComponentPad*%
%ADD16C,2.000000*%
%TD*%
%TA.AperFunction,SMDPad,CuDef*%
%ADD17RotRect,2.200000X1.600000X125.000000*%
%TD*%
%TA.AperFunction,SMDPad,CuDef*%
%ADD18RotRect,2.200000X1.600000X35.000000*%
%TD*%
%TA.AperFunction,ComponentPad*%
%ADD19RotRect,1.524000X1.524000X225.000000*%
%TD*%
%TA.AperFunction,SMDPad,CuDef*%
%ADD20RotRect,2.200000X1.600000X230.000000*%
%TD*%
%TA.AperFunction,SMDPad,CuDef*%
%ADD21RoundRect,0.250000X-0.067661X0.532491X-0.477237X0.245703X0.067661X-0.532491X0.477237X-0.245703X0*%
%TD*%
%TA.AperFunction,SMDPad,CuDef*%
%ADD22RoundRect,0.243750X0.062026X-0.513547X0.461363X-0.233929X-0.062026X0.513547X-0.461363X0.233929X0*%
%TD*%
%TA.AperFunction,ComponentPad*%
%ADD23RotRect,1.000000X1.000000X341.000000*%
%TD*%
%TA.AperFunction,SMDPad,CuDef*%
%ADD24RoundRect,0.250000X0.250000X0.475000X-0.250000X0.475000X-0.250000X-0.475000X0.250000X-0.475000X0*%
%TD*%
%TA.AperFunction,SMDPad,CuDef*%
%ADD25RoundRect,0.250000X-0.450000X0.262500X-0.450000X-0.262500X0.450000X-0.262500X0.450000X0.262500X0*%
%TD*%
%TA.AperFunction,SMDPad,CuDef*%
%ADD26RoundRect,0.250000X-0.523520X0.118542X-0.394110X-0.364421X0.523520X-0.118542X0.394110X0.364421X0*%
%TD*%
%TA.AperFunction,ComponentPad*%
%ADD27C,1.400000*%
%TD*%
%TA.AperFunction,SMDPad,CuDef*%
%ADD28RoundRect,0.250000X0.391025X0.367729X-0.081735X0.530513X-0.391025X-0.367729X0.081735X-0.530513X0*%
%TD*%
%TA.AperFunction,ComponentPad*%
%ADD29RotRect,2.000000X2.000000X305.000000*%
%TD*%
%TA.AperFunction,SMDPad,CuDef*%
%ADD30RoundRect,0.250000X-0.475000X0.250000X-0.475000X-0.250000X0.475000X-0.250000X0.475000X0.250000X0*%
%TD*%
%TA.AperFunction,SMDPad,CuDef*%
%ADD31RoundRect,0.250000X-0.250000X-0.475000X0.250000X-0.475000X0.250000X0.475000X-0.250000X0.475000X0*%
%TD*%
%TA.AperFunction,ComponentPad*%
%ADD32RotRect,1.524000X1.524000X345.000000*%
%TD*%
%TA.AperFunction,SMDPad,CuDef*%
%ADD33RoundRect,0.250000X0.364421X0.394110X-0.118542X0.523520X-0.364421X-0.394110X0.118542X-0.523520X0*%
%TD*%
%TA.AperFunction,SMDPad,CuDef*%
%ADD34RoundRect,0.250000X0.159099X-0.512652X0.512652X-0.159099X-0.159099X0.512652X-0.512652X0.159099X0*%
%TD*%
%TA.AperFunction,SMDPad,CuDef*%
%ADD35RoundRect,0.250000X0.043082X-0.519182X0.473137X-0.218055X-0.043082X0.519182X-0.473137X0.218055X0*%
%TD*%
%TA.AperFunction,SMDPad,CuDef*%
%ADD36RotRect,8.460000X6.470000X45.000000*%
%TD*%
%TA.AperFunction,ComponentPad*%
%ADD37RotRect,2.500000X2.500000X50.000000*%
%TD*%
%TA.AperFunction,ComponentPad*%
%ADD38RotRect,1.524000X1.524000X105.000000*%
%TD*%
%TA.AperFunction,ComponentPad*%
%ADD39RotRect,2.000000X2.000000X35.000000*%
%TD*%
G04 APERTURE END LIST*
D10*
D11*
X-26821501Y-39810371D02*
X-26821501Y-40619894D01*
X-26821501Y-40619894D02*
X-26773882Y-40715132D01*
X-26773882Y-40715132D02*
X-26726263Y-40762752D01*
X-26726263Y-40762752D02*
X-26631025Y-40810371D01*
X-26631025Y-40810371D02*
X-26440549Y-40810371D01*
X-26440549Y-40810371D02*
X-26345311Y-40762752D01*
X-26345311Y-40762752D02*
X-26297692Y-40715132D01*
X-26297692Y-40715132D02*
X-26250073Y-40619894D01*
X-26250073Y-40619894D02*
X-26250073Y-39810371D01*
X-25250073Y-40810371D02*
X-25821501Y-40810371D01*
X-25535787Y-40810371D02*
X-25535787Y-39810371D01*
X-25535787Y-39810371D02*
X-25631025Y-39953228D01*
X-25631025Y-39953228D02*
X-25726263Y-40048466D01*
X-25726263Y-40048466D02*
X-25821501Y-40096085D01*
X-24297692Y-40810371D02*
X-24869120Y-40810371D01*
X-24583406Y-40810371D02*
X-24583406Y-39810371D01*
X-24583406Y-39810371D02*
X-24678644Y-39953228D01*
X-24678644Y-39953228D02*
X-24773882Y-40048466D01*
X-24773882Y-40048466D02*
X-24869120Y-40096085D01*
D12*
D13*
X-34435122Y44629749D02*
X-34981304Y44828629D01*
X-34903209Y44301991D02*
X-35476785Y45121143D01*
X-35476785Y45121143D02*
X-35164727Y45339648D01*
X-35164727Y45339648D02*
X-35059400Y45355267D01*
X-35059400Y45355267D02*
X-34993079Y45343573D01*
X-34993079Y45343573D02*
X-34899446Y45292872D01*
X-34899446Y45292872D02*
X-34817506Y45175850D01*
X-34817506Y45175850D02*
X-34801887Y45070522D01*
X-34801887Y45070522D02*
X-34813581Y45004202D01*
X-34813581Y45004202D02*
X-34864283Y44910568D01*
X-34864283Y44910568D02*
X-35176340Y44692063D01*
X-34115376Y45667487D02*
X-33732992Y45121386D01*
X-34528917Y45842979D02*
X-34314256Y45121305D01*
X-34314256Y45121305D02*
X-33807162Y45476376D01*
D10*
D11*
X61369233Y44138028D02*
X60559710Y44138028D01*
X60559710Y44138028D02*
X60464472Y44090409D01*
X60464472Y44090409D02*
X60416853Y44042790D01*
X60416853Y44042790D02*
X60369233Y43947552D01*
X60369233Y43947552D02*
X60369233Y43757076D01*
X60369233Y43757076D02*
X60416853Y43661838D01*
X60416853Y43661838D02*
X60464472Y43614219D01*
X60464472Y43614219D02*
X60559710Y43566600D01*
X60559710Y43566600D02*
X61369233Y43566600D01*
X60369233Y42566600D02*
X60369233Y43138028D01*
X60369233Y42852314D02*
X61369233Y42852314D01*
X61369233Y42852314D02*
X61226376Y42947552D01*
X61226376Y42947552D02*
X61131138Y43042790D01*
X61131138Y43042790D02*
X61083519Y43138028D01*
D12*
D13*
X-9915206Y75337745D02*
X-9981526Y75349439D01*
X-9981526Y75349439D02*
X-10102473Y75439148D01*
X-10102473Y75439148D02*
X-10157099Y75517162D01*
X-10157099Y75517162D02*
X-10200031Y75661497D01*
X-10200031Y75661497D02*
X-10176643Y75794138D01*
X-10176643Y75794138D02*
X-10125942Y75887772D01*
X-10125942Y75887772D02*
X-9997226Y76036032D01*
X-9997226Y76036032D02*
X-9880204Y76117971D01*
X-9880204Y76117971D02*
X-9696862Y76188216D01*
X-9696862Y76188216D02*
X-9591535Y76203836D01*
X-9591535Y76203836D02*
X-9458894Y76180447D01*
X-9458894Y76180447D02*
X-9337947Y76090739D01*
X-9337947Y76090739D02*
X-9283321Y76012724D01*
X-9283321Y76012724D02*
X-9240389Y75868389D01*
X-9240389Y75868389D02*
X-9252083Y75802069D01*
X-8982876Y75583645D02*
X-8627805Y75076551D01*
X-8627805Y75076551D02*
X-9131055Y75131096D01*
X-9131055Y75131096D02*
X-9049116Y75014074D01*
X-9049116Y75014074D02*
X-9033496Y74908747D01*
X-9033496Y74908747D02*
X-9045191Y74842426D01*
X-9045191Y74842426D02*
X-9095892Y74748793D01*
X-9095892Y74748793D02*
X-9290928Y74612227D01*
X-9290928Y74612227D02*
X-9396256Y74596608D01*
X-9396256Y74596608D02*
X-9462576Y74608302D01*
X-9462576Y74608302D02*
X-9556210Y74659003D01*
X-9556210Y74659003D02*
X-9720089Y74893047D01*
X-9720089Y74893047D02*
X-9735708Y74998374D01*
X-9735708Y74998374D02*
X-9724014Y75064695D01*
D12*
D13*
X-55242281Y35557687D02*
X-55253975Y35491367D01*
X-55253975Y35491367D02*
X-55343684Y35370420D01*
X-55343684Y35370420D02*
X-55421698Y35315794D01*
X-55421698Y35315794D02*
X-55566033Y35272862D01*
X-55566033Y35272862D02*
X-55698674Y35296250D01*
X-55698674Y35296250D02*
X-55792308Y35346951D01*
X-55792308Y35346951D02*
X-55940568Y35475667D01*
X-55940568Y35475667D02*
X-56022507Y35592689D01*
X-56022507Y35592689D02*
X-56092752Y35776031D01*
X-56092752Y35776031D02*
X-56108372Y35881358D01*
X-56108372Y35881358D02*
X-56084983Y36013999D01*
X-56084983Y36013999D02*
X-55995275Y36134946D01*
X-55995275Y36134946D02*
X-55917260Y36189572D01*
X-55917260Y36189572D02*
X-55772925Y36232504D01*
X-55772925Y36232504D02*
X-55706605Y36220810D01*
X-55394547Y36439316D02*
X-55382853Y36505636D01*
X-55382853Y36505636D02*
X-55332152Y36599270D01*
X-55332152Y36599270D02*
X-55137116Y36735835D01*
X-55137116Y36735835D02*
X-55031788Y36751454D01*
X-55031788Y36751454D02*
X-54965468Y36739760D01*
X-54965468Y36739760D02*
X-54871834Y36689059D01*
X-54871834Y36689059D02*
X-54817208Y36611045D01*
X-54817208Y36611045D02*
X-54774275Y36466710D01*
X-54774275Y36466710D02*
X-54914604Y35670865D01*
X-54914604Y35670865D02*
X-54407510Y36025936D01*
D10*
D11*
X-41220939Y52128839D02*
X-41793359Y52701259D01*
X-41793359Y52701259D02*
X-41894374Y52734930D01*
X-41894374Y52734930D02*
X-41961717Y52734930D01*
X-41961717Y52734930D02*
X-42062733Y52701259D01*
X-42062733Y52701259D02*
X-42197420Y52566572D01*
X-42197420Y52566572D02*
X-42231091Y52465556D01*
X-42231091Y52465556D02*
X-42231091Y52398213D01*
X-42231091Y52398213D02*
X-42197420Y52297198D01*
X-42197420Y52297198D02*
X-41625000Y51724778D01*
X-41894374Y51455404D02*
X-42332107Y51017671D01*
X-42332107Y51017671D02*
X-42365778Y51522747D01*
X-42365778Y51522747D02*
X-42466794Y51421732D01*
X-42466794Y51421732D02*
X-42567809Y51388060D01*
X-42567809Y51388060D02*
X-42635152Y51388060D01*
X-42635152Y51388060D02*
X-42736168Y51421732D01*
X-42736168Y51421732D02*
X-42904526Y51590091D01*
X-42904526Y51590091D02*
X-42938198Y51691106D01*
X-42938198Y51691106D02*
X-42938198Y51758450D01*
X-42938198Y51758450D02*
X-42904526Y51859465D01*
X-42904526Y51859465D02*
X-42702496Y52061495D01*
X-42702496Y52061495D02*
X-42601481Y52095167D01*
X-42601481Y52095167D02*
X-42534137Y52095167D01*
D12*
D13*
X-34246703Y-35828211D02*
X-34240834Y-35895299D01*
X-34240834Y-35895299D02*
X-34296183Y-36035342D01*
X-34296183Y-36035342D02*
X-34357400Y-36108299D01*
X-34357400Y-36108299D02*
X-34485706Y-36187125D01*
X-34485706Y-36187125D02*
X-34619880Y-36198864D01*
X-34619880Y-36198864D02*
X-34723446Y-36174124D01*
X-34723446Y-36174124D02*
X-34899968Y-36088167D01*
X-34899968Y-36088167D02*
X-35009403Y-35996340D01*
X-35009403Y-35996340D02*
X-35124707Y-35837426D01*
X-35124707Y-35837426D02*
X-35167055Y-35739730D01*
X-35167055Y-35739730D02*
X-35178793Y-35605555D01*
X-35178793Y-35605555D02*
X-35123445Y-35465511D01*
X-35123445Y-35465511D02*
X-35062227Y-35392555D01*
X-35062227Y-35392555D02*
X-34933922Y-35313729D01*
X-34933922Y-35313729D02*
X-34866835Y-35307860D01*
X-34358222Y-34553554D02*
X-34664311Y-34918337D01*
X-34664311Y-34918337D02*
X-34330137Y-35260905D01*
X-34330137Y-35260905D02*
X-34336006Y-35193817D01*
X-34336006Y-35193817D02*
X-34311267Y-35090252D01*
X-34311267Y-35090252D02*
X-34158222Y-34907860D01*
X-34158222Y-34907860D02*
X-34060526Y-34865513D01*
X-34060526Y-34865513D02*
X-33993438Y-34859643D01*
X-33993438Y-34859643D02*
X-33889873Y-34884383D01*
X-33889873Y-34884383D02*
X-33707481Y-35037427D01*
X-33707481Y-35037427D02*
X-33665134Y-35135124D01*
X-33665134Y-35135124D02*
X-33659264Y-35202211D01*
X-33659264Y-35202211D02*
X-33684004Y-35305776D01*
X-33684004Y-35305776D02*
X-33837049Y-35488168D01*
X-33837049Y-35488168D02*
X-33934745Y-35530516D01*
X-33934745Y-35530516D02*
X-34001832Y-35536385D01*
D12*
D13*
X-3670090Y70726669D02*
X-3681784Y70660349D01*
X-3681784Y70660349D02*
X-3771493Y70539402D01*
X-3771493Y70539402D02*
X-3849507Y70484776D01*
X-3849507Y70484776D02*
X-3993842Y70441844D01*
X-3993842Y70441844D02*
X-4126483Y70465232D01*
X-4126483Y70465232D02*
X-4220116Y70515933D01*
X-4220116Y70515933D02*
X-4368376Y70644649D01*
X-4368376Y70644649D02*
X-4450316Y70761671D01*
X-4450316Y70761671D02*
X-4520561Y70945013D01*
X-4520561Y70945013D02*
X-4536180Y71050340D01*
X-4536180Y71050340D02*
X-4512792Y71182981D01*
X-4512792Y71182981D02*
X-4423084Y71303928D01*
X-4423084Y71303928D02*
X-4345069Y71358554D01*
X-4345069Y71358554D02*
X-4200734Y71401486D01*
X-4200734Y71401486D02*
X-4134414Y71389792D01*
X-2835319Y71194918D02*
X-3303406Y70867160D01*
X-3069362Y71031039D02*
X-3642939Y71850191D01*
X-3642939Y71850191D02*
X-3639014Y71678543D01*
X-3639014Y71678543D02*
X-3662402Y71545902D01*
X-3662402Y71545902D02*
X-3713103Y71452269D01*
X-3042211Y72154561D02*
X-3030517Y72220881D01*
X-3030517Y72220881D02*
X-2979816Y72314515D01*
X-2979816Y72314515D02*
X-2784780Y72451081D01*
X-2784780Y72451081D02*
X-2679452Y72466700D01*
X-2679452Y72466700D02*
X-2613131Y72455006D01*
X-2613131Y72455006D02*
X-2519498Y72404304D01*
X-2519498Y72404304D02*
X-2464872Y72326290D01*
X-2464872Y72326290D02*
X-2421939Y72181955D01*
X-2421939Y72181955D02*
X-2562268Y71386110D01*
X-2562268Y71386110D02*
X-2055174Y71741181D01*
D12*
D13*
X-21653487Y32241805D02*
X-22227063Y33060957D01*
X-22227063Y33060957D02*
X-22032027Y33197523D01*
X-22032027Y33197523D02*
X-21887692Y33240455D01*
X-21887692Y33240455D02*
X-21755051Y33217067D01*
X-21755051Y33217067D02*
X-21661418Y33166365D01*
X-21661418Y33166365D02*
X-21513158Y33037650D01*
X-21513158Y33037650D02*
X-21431218Y32920628D01*
X-21431218Y32920628D02*
X-21360973Y32737286D01*
X-21360973Y32737286D02*
X-21345354Y32631958D01*
X-21345354Y32631958D02*
X-21368742Y32499317D01*
X-21368742Y32499317D02*
X-21458451Y32378371D01*
X-21458451Y32378371D02*
X-21653487Y32241805D01*
X-21045071Y33365408D02*
X-21150399Y33349789D01*
X-21150399Y33349789D02*
X-21216719Y33361483D01*
X-21216719Y33361483D02*
X-21310353Y33412184D01*
X-21310353Y33412184D02*
X-21337666Y33451191D01*
X-21337666Y33451191D02*
X-21353285Y33556519D01*
X-21353285Y33556519D02*
X-21341591Y33622839D01*
X-21341591Y33622839D02*
X-21290890Y33716473D01*
X-21290890Y33716473D02*
X-21134861Y33825725D01*
X-21134861Y33825725D02*
X-21029533Y33841344D01*
X-21029533Y33841344D02*
X-20963213Y33829650D01*
X-20963213Y33829650D02*
X-20869579Y33778949D01*
X-20869579Y33778949D02*
X-20842266Y33739942D01*
X-20842266Y33739942D02*
X-20826647Y33634614D01*
X-20826647Y33634614D02*
X-20838341Y33568294D01*
X-20838341Y33568294D02*
X-20889042Y33474660D01*
X-20889042Y33474660D02*
X-21045071Y33365408D01*
X-21045071Y33365408D02*
X-21095772Y33271774D01*
X-21095772Y33271774D02*
X-21107466Y33205454D01*
X-21107466Y33205454D02*
X-21091847Y33100126D01*
X-21091847Y33100126D02*
X-20982595Y32944097D01*
X-20982595Y32944097D02*
X-20888961Y32893396D01*
X-20888961Y32893396D02*
X-20822641Y32881702D01*
X-20822641Y32881702D02*
X-20717313Y32897321D01*
X-20717313Y32897321D02*
X-20561284Y33006573D01*
X-20561284Y33006573D02*
X-20510583Y33100207D01*
X-20510583Y33100207D02*
X-20498889Y33166527D01*
X-20498889Y33166527D02*
X-20514508Y33271855D01*
X-20514508Y33271855D02*
X-20623760Y33427884D01*
X-20623760Y33427884D02*
X-20717394Y33478585D01*
X-20717394Y33478585D02*
X-20783714Y33490279D01*
X-20783714Y33490279D02*
X-20889042Y33474660D01*
D10*
D11*
X-57465928Y-23635781D02*
X-56656405Y-23635781D01*
X-56656405Y-23635781D02*
X-56561167Y-23588162D01*
X-56561167Y-23588162D02*
X-56513547Y-23540543D01*
X-56513547Y-23540543D02*
X-56465928Y-23445305D01*
X-56465928Y-23445305D02*
X-56465928Y-23254829D01*
X-56465928Y-23254829D02*
X-56513547Y-23159591D01*
X-56513547Y-23159591D02*
X-56561167Y-23111972D01*
X-56561167Y-23111972D02*
X-56656405Y-23064353D01*
X-56656405Y-23064353D02*
X-57465928Y-23064353D01*
X-57370690Y-22635781D02*
X-57418309Y-22588162D01*
X-57418309Y-22588162D02*
X-57465928Y-22492924D01*
X-57465928Y-22492924D02*
X-57465928Y-22254829D01*
X-57465928Y-22254829D02*
X-57418309Y-22159591D01*
X-57418309Y-22159591D02*
X-57370690Y-22111972D01*
X-57370690Y-22111972D02*
X-57275452Y-22064353D01*
X-57275452Y-22064353D02*
X-57180214Y-22064353D01*
X-57180214Y-22064353D02*
X-57037357Y-22111972D01*
X-57037357Y-22111972D02*
X-56465928Y-22683400D01*
X-56465928Y-22683400D02*
X-56465928Y-22064353D01*
D10*
D11*
X12658901Y60551841D02*
X12395346Y59786421D01*
X12395346Y59786421D02*
X12409364Y59680869D01*
X12409364Y59680869D02*
X12438885Y59620341D01*
X12438885Y59620341D02*
X12513432Y59544310D01*
X12513432Y59544310D02*
X12693530Y59482297D01*
X12693530Y59482297D02*
X12799083Y59496315D01*
X12799083Y59496315D02*
X12859611Y59525836D01*
X12859611Y59525836D02*
X12935642Y59600382D01*
X12935642Y59600382D02*
X13199197Y60365802D01*
X13819148Y59094715D02*
X13278851Y59280754D01*
X13549000Y59187735D02*
X13874568Y60133253D01*
X13874568Y60133253D02*
X13738009Y60029186D01*
X13738009Y60029186D02*
X13616953Y59970143D01*
X13616953Y59970143D02*
X13511400Y59956125D01*
X14730037Y59838692D02*
X14820086Y59807685D01*
X14820086Y59807685D02*
X14894632Y59731654D01*
X14894632Y59731654D02*
X14924154Y59671126D01*
X14924154Y59671126D02*
X14938172Y59565574D01*
X14938172Y59565574D02*
X14921184Y59369972D01*
X14921184Y59369972D02*
X14843668Y59144848D01*
X14843668Y59144848D02*
X14736630Y58980253D01*
X14736630Y58980253D02*
X14660599Y58905706D01*
X14660599Y58905706D02*
X14600071Y58876185D01*
X14600071Y58876185D02*
X14494518Y58862167D01*
X14494518Y58862167D02*
X14404469Y58893173D01*
X14404469Y58893173D02*
X14329923Y58969204D01*
X14329923Y58969204D02*
X14300401Y59029732D01*
X14300401Y59029732D02*
X14286383Y59135285D01*
X14286383Y59135285D02*
X14303371Y59330887D01*
X14303371Y59330887D02*
X14380887Y59556010D01*
X14380887Y59556010D02*
X14487925Y59720606D01*
X14487925Y59720606D02*
X14563956Y59795152D01*
X14563956Y59795152D02*
X14624484Y59824674D01*
X14624484Y59824674D02*
X14730037Y59838692D01*
D12*
D13*
X-40452598Y53116361D02*
X-40998780Y53315241D01*
X-40920685Y52788603D02*
X-41494261Y53607755D01*
X-41494261Y53607755D02*
X-41182203Y53826260D01*
X-41182203Y53826260D02*
X-41076876Y53841879D01*
X-41076876Y53841879D02*
X-41010555Y53830185D01*
X-41010555Y53830185D02*
X-40916922Y53779484D01*
X-40916922Y53779484D02*
X-40834982Y53662462D01*
X-40834982Y53662462D02*
X-40819363Y53557134D01*
X-40819363Y53557134D02*
X-40831057Y53490814D01*
X-40831057Y53490814D02*
X-40881759Y53397180D01*
X-40881759Y53397180D02*
X-41193816Y53178675D01*
X-40659490Y54076004D02*
X-40647796Y54142324D01*
X-40647796Y54142324D02*
X-40597095Y54235958D01*
X-40597095Y54235958D02*
X-40402059Y54372523D01*
X-40402059Y54372523D02*
X-40296731Y54388142D01*
X-40296731Y54388142D02*
X-40230411Y54376448D01*
X-40230411Y54376448D02*
X-40136777Y54325747D01*
X-40136777Y54325747D02*
X-40082151Y54247733D01*
X-40082151Y54247733D02*
X-40039218Y54103398D01*
X-40039218Y54103398D02*
X-40179547Y53307553D01*
X-40179547Y53307553D02*
X-39672453Y53662624D01*
D12*
D13*
X48233795Y50186543D02*
X48186176Y50138923D01*
X48186176Y50138923D02*
X48043319Y50091304D01*
X48043319Y50091304D02*
X47948081Y50091304D01*
X47948081Y50091304D02*
X47805224Y50138923D01*
X47805224Y50138923D02*
X47709986Y50234162D01*
X47709986Y50234162D02*
X47662367Y50329400D01*
X47662367Y50329400D02*
X47614748Y50519876D01*
X47614748Y50519876D02*
X47614748Y50662733D01*
X47614748Y50662733D02*
X47662367Y50853209D01*
X47662367Y50853209D02*
X47709986Y50948447D01*
X47709986Y50948447D02*
X47805224Y51043685D01*
X47805224Y51043685D02*
X47948081Y51091304D01*
X47948081Y51091304D02*
X48043319Y51091304D01*
X48043319Y51091304D02*
X48186176Y51043685D01*
X48186176Y51043685D02*
X48233795Y50996066D01*
X49186176Y50091304D02*
X48614748Y50091304D01*
X48900462Y50091304D02*
X48900462Y51091304D01*
X48900462Y51091304D02*
X48805224Y50948447D01*
X48805224Y50948447D02*
X48709986Y50853209D01*
X48709986Y50853209D02*
X48614748Y50805590D01*
X49805224Y51091304D02*
X49900462Y51091304D01*
X49900462Y51091304D02*
X49995700Y51043685D01*
X49995700Y51043685D02*
X50043319Y50996066D01*
X50043319Y50996066D02*
X50090938Y50900828D01*
X50090938Y50900828D02*
X50138557Y50710352D01*
X50138557Y50710352D02*
X50138557Y50472257D01*
X50138557Y50472257D02*
X50090938Y50281781D01*
X50090938Y50281781D02*
X50043319Y50186543D01*
X50043319Y50186543D02*
X49995700Y50138923D01*
X49995700Y50138923D02*
X49900462Y50091304D01*
X49900462Y50091304D02*
X49805224Y50091304D01*
X49805224Y50091304D02*
X49709986Y50138923D01*
X49709986Y50138923D02*
X49662367Y50186543D01*
X49662367Y50186543D02*
X49614748Y50281781D01*
X49614748Y50281781D02*
X49567129Y50472257D01*
X49567129Y50472257D02*
X49567129Y50710352D01*
X49567129Y50710352D02*
X49614748Y50900828D01*
X49614748Y50900828D02*
X49662367Y50996066D01*
X49662367Y50996066D02*
X49709986Y51043685D01*
X49709986Y51043685D02*
X49805224Y51091304D01*
D12*
D13*
X-25245122Y32049749D02*
X-25791304Y32248629D01*
X-25713209Y31721991D02*
X-26286785Y32541143D01*
X-26286785Y32541143D02*
X-25974727Y32759648D01*
X-25974727Y32759648D02*
X-25869400Y32775267D01*
X-25869400Y32775267D02*
X-25803079Y32763573D01*
X-25803079Y32763573D02*
X-25709446Y32712872D01*
X-25709446Y32712872D02*
X-25627506Y32595850D01*
X-25627506Y32595850D02*
X-25611887Y32490522D01*
X-25611887Y32490522D02*
X-25623581Y32424202D01*
X-25623581Y32424202D02*
X-25674283Y32330568D01*
X-25674283Y32330568D02*
X-25986340Y32112063D01*
X-25545648Y33060093D02*
X-24999546Y33442477D01*
X-24999546Y33442477D02*
X-24777035Y32377507D01*
D12*
D13*
X-25608528Y-42833043D02*
X-26084719Y-43166376D01*
X-25608528Y-43404471D02*
X-26608528Y-43404471D01*
X-26608528Y-43404471D02*
X-26608528Y-43023519D01*
X-26608528Y-43023519D02*
X-26560909Y-42928281D01*
X-26560909Y-42928281D02*
X-26513290Y-42880662D01*
X-26513290Y-42880662D02*
X-26418052Y-42833043D01*
X-26418052Y-42833043D02*
X-26275195Y-42833043D01*
X-26275195Y-42833043D02*
X-26179957Y-42880662D01*
X-26179957Y-42880662D02*
X-26132338Y-42928281D01*
X-26132338Y-42928281D02*
X-26084719Y-43023519D01*
X-26084719Y-43023519D02*
X-26084719Y-43404471D01*
X-25608528Y-42356852D02*
X-25608528Y-42166376D01*
X-25608528Y-42166376D02*
X-25656147Y-42071138D01*
X-25656147Y-42071138D02*
X-25703767Y-42023519D01*
X-25703767Y-42023519D02*
X-25846624Y-41928281D01*
X-25846624Y-41928281D02*
X-26037100Y-41880662D01*
X-26037100Y-41880662D02*
X-26418052Y-41880662D01*
X-26418052Y-41880662D02*
X-26513290Y-41928281D01*
X-26513290Y-41928281D02*
X-26560909Y-41975900D01*
X-26560909Y-41975900D02*
X-26608528Y-42071138D01*
X-26608528Y-42071138D02*
X-26608528Y-42261614D01*
X-26608528Y-42261614D02*
X-26560909Y-42356852D01*
X-26560909Y-42356852D02*
X-26513290Y-42404471D01*
X-26513290Y-42404471D02*
X-26418052Y-42452090D01*
X-26418052Y-42452090D02*
X-26179957Y-42452090D01*
X-26179957Y-42452090D02*
X-26084719Y-42404471D01*
X-26084719Y-42404471D02*
X-26037100Y-42356852D01*
X-26037100Y-42356852D02*
X-25989481Y-42261614D01*
X-25989481Y-42261614D02*
X-25989481Y-42071138D01*
X-25989481Y-42071138D02*
X-26037100Y-41975900D01*
X-26037100Y-41975900D02*
X-26084719Y-41928281D01*
X-26084719Y-41928281D02*
X-26179957Y-41880662D01*
D12*
D13*
X-39581071Y57744834D02*
X-40154647Y58563986D01*
X-40154647Y58563986D02*
X-39959611Y58700552D01*
X-39959611Y58700552D02*
X-39815276Y58743484D01*
X-39815276Y58743484D02*
X-39682635Y58720096D01*
X-39682635Y58720096D02*
X-39589002Y58669394D01*
X-39589002Y58669394D02*
X-39440742Y58540679D01*
X-39440742Y58540679D02*
X-39358802Y58423657D01*
X-39358802Y58423657D02*
X-39288557Y58240315D01*
X-39288557Y58240315D02*
X-39272938Y58134987D01*
X-39272938Y58134987D02*
X-39296326Y58002346D01*
X-39296326Y58002346D02*
X-39386035Y57881400D01*
X-39386035Y57881400D02*
X-39581071Y57744834D01*
X-39319876Y59032235D02*
X-39308182Y59098555D01*
X-39308182Y59098555D02*
X-39257481Y59192189D01*
X-39257481Y59192189D02*
X-39062445Y59328754D01*
X-39062445Y59328754D02*
X-38957117Y59344373D01*
X-38957117Y59344373D02*
X-38890797Y59332679D01*
X-38890797Y59332679D02*
X-38797163Y59281978D01*
X-38797163Y59281978D02*
X-38742537Y59203964D01*
X-38742537Y59203964D02*
X-38699604Y59059629D01*
X-38699604Y59059629D02*
X-38839933Y58263784D01*
X-38839933Y58263784D02*
X-38332839Y58618855D01*
D12*
D13*
X65288943Y12848860D02*
X65230621Y12882532D01*
X65230621Y12882532D02*
X65147651Y13008197D01*
X65147651Y13008197D02*
X65123001Y13100190D01*
X65123001Y13100190D02*
X65132024Y13250504D01*
X65132024Y13250504D02*
X65199367Y13367146D01*
X65199367Y13367146D02*
X65279035Y13437792D01*
X65279035Y13437792D02*
X65450697Y13533087D01*
X65450697Y13533087D02*
X65588686Y13570062D01*
X65588686Y13570062D02*
X65784997Y13573364D01*
X65784997Y13573364D02*
X65889314Y13552017D01*
X65889314Y13552017D02*
X66005957Y13484673D01*
X66005957Y13484673D02*
X66088927Y13359009D01*
X66088927Y13359009D02*
X66113577Y13267016D01*
X66113577Y13267016D02*
X66104554Y13116702D01*
X66104554Y13116702D02*
X66070883Y13058380D01*
X66249148Y12761055D02*
X66421695Y12117104D01*
X66421695Y12117104D02*
X65344846Y12272253D01*
D12*
D13*
X-27573487Y40741805D02*
X-28147063Y41560957D01*
X-28147063Y41560957D02*
X-27952027Y41697523D01*
X-27952027Y41697523D02*
X-27807692Y41740455D01*
X-27807692Y41740455D02*
X-27675051Y41717067D01*
X-27675051Y41717067D02*
X-27581418Y41666365D01*
X-27581418Y41666365D02*
X-27433158Y41537650D01*
X-27433158Y41537650D02*
X-27351218Y41420628D01*
X-27351218Y41420628D02*
X-27280973Y41237286D01*
X-27280973Y41237286D02*
X-27265354Y41131958D01*
X-27265354Y41131958D02*
X-27288742Y40999317D01*
X-27288742Y40999317D02*
X-27378451Y40878371D01*
X-27378451Y40878371D02*
X-27573487Y40741805D01*
X-26976846Y42380352D02*
X-27132875Y42271099D01*
X-27132875Y42271099D02*
X-27183576Y42177466D01*
X-27183576Y42177466D02*
X-27195270Y42111145D01*
X-27195270Y42111145D02*
X-27191345Y41939497D01*
X-27191345Y41939497D02*
X-27121100Y41756155D01*
X-27121100Y41756155D02*
X-26902595Y41444097D01*
X-26902595Y41444097D02*
X-26808961Y41393396D01*
X-26808961Y41393396D02*
X-26742641Y41381702D01*
X-26742641Y41381702D02*
X-26637313Y41397321D01*
X-26637313Y41397321D02*
X-26481284Y41506573D01*
X-26481284Y41506573D02*
X-26430583Y41600207D01*
X-26430583Y41600207D02*
X-26418889Y41666527D01*
X-26418889Y41666527D02*
X-26434508Y41771855D01*
X-26434508Y41771855D02*
X-26571074Y41966891D01*
X-26571074Y41966891D02*
X-26664707Y42017592D01*
X-26664707Y42017592D02*
X-26731028Y42029287D01*
X-26731028Y42029287D02*
X-26836355Y42013667D01*
X-26836355Y42013667D02*
X-26992384Y41904415D01*
X-26992384Y41904415D02*
X-27043086Y41810781D01*
X-27043086Y41810781D02*
X-27054780Y41744461D01*
X-27054780Y41744461D02*
X-27039161Y41639133D01*
D12*
D13*
X-42593487Y61931805D02*
X-43167063Y62750957D01*
X-43167063Y62750957D02*
X-42972027Y62887523D01*
X-42972027Y62887523D02*
X-42827692Y62930455D01*
X-42827692Y62930455D02*
X-42695051Y62907067D01*
X-42695051Y62907067D02*
X-42601418Y62856365D01*
X-42601418Y62856365D02*
X-42453158Y62727650D01*
X-42453158Y62727650D02*
X-42371218Y62610628D01*
X-42371218Y62610628D02*
X-42300973Y62427286D01*
X-42300973Y62427286D02*
X-42285354Y62321958D01*
X-42285354Y62321958D02*
X-42308742Y62189317D01*
X-42308742Y62189317D02*
X-42398451Y62068371D01*
X-42398451Y62068371D02*
X-42593487Y61931805D01*
X-41345255Y62805826D02*
X-41813342Y62478068D01*
X-41579299Y62641947D02*
X-42152875Y63461099D01*
X-42152875Y63461099D02*
X-42148950Y63289451D01*
X-42148950Y63289451D02*
X-42172338Y63156810D01*
X-42172338Y63156810D02*
X-42223039Y63063177D01*
D12*
D13*
X-42532482Y41877746D02*
X-42122785Y41292638D01*
X-42122785Y41292638D02*
X-42079853Y41148303D01*
X-42079853Y41148303D02*
X-42103241Y41015662D01*
X-42103241Y41015662D02*
X-42192949Y40894715D01*
X-42192949Y40894715D02*
X-42270964Y40840089D01*
X-41568833Y41331726D02*
X-42142410Y42150878D01*
X-42142410Y42150878D02*
X-41830352Y42369383D01*
X-41830352Y42369383D02*
X-41725024Y42385002D01*
X-41725024Y42385002D02*
X-41658704Y42373308D01*
X-41658704Y42373308D02*
X-41565070Y42322607D01*
X-41565070Y42322607D02*
X-41483131Y42205585D01*
X-41483131Y42205585D02*
X-41467512Y42100258D01*
X-41467512Y42100258D02*
X-41479206Y42033937D01*
X-41479206Y42033937D02*
X-41529907Y41940304D01*
X-41529907Y41940304D02*
X-41841965Y41721798D01*
X-40320602Y42205747D02*
X-40788688Y41877989D01*
X-40554645Y42041868D02*
X-41128221Y42861020D01*
X-41128221Y42861020D02*
X-41124296Y42689372D01*
X-41124296Y42689372D02*
X-41147685Y42556731D01*
X-41147685Y42556731D02*
X-41198386Y42463098D01*
D12*
D13*
X14645044Y58621923D02*
X14584516Y58592402D01*
X14584516Y58592402D02*
X14433939Y58593887D01*
X14433939Y58593887D02*
X14343890Y58624893D01*
X14343890Y58624893D02*
X14224319Y58716428D01*
X14224319Y58716428D02*
X14165276Y58837484D01*
X14165276Y58837484D02*
X14151258Y58943036D01*
X14151258Y58943036D02*
X14168246Y59138638D01*
X14168246Y59138638D02*
X14214756Y59273712D01*
X14214756Y59273712D02*
X14321794Y59438308D01*
X14321794Y59438308D02*
X14397825Y59512854D01*
X14397825Y59512854D02*
X14518881Y59571897D01*
X14518881Y59571897D02*
X14669458Y59570412D01*
X14669458Y59570412D02*
X14759507Y59539405D01*
X14759507Y59539405D02*
X14879078Y59447871D01*
X14879078Y59447871D02*
X14908600Y59387343D01*
X15064285Y58376841D02*
X15244384Y58314828D01*
X15244384Y58314828D02*
X15349936Y58328847D01*
X15349936Y58328847D02*
X15410464Y58358368D01*
X15410464Y58358368D02*
X15547023Y58462436D01*
X15547023Y58462436D02*
X15654061Y58627031D01*
X15654061Y58627031D02*
X15778087Y58987229D01*
X15778087Y58987229D02*
X15764069Y59092781D01*
X15764069Y59092781D02*
X15734547Y59153309D01*
X15734547Y59153309D02*
X15660001Y59229340D01*
X15660001Y59229340D02*
X15479902Y59291353D01*
X15479902Y59291353D02*
X15374350Y59277335D01*
X15374350Y59277335D02*
X15313822Y59247814D01*
X15313822Y59247814D02*
X15237791Y59173268D01*
X15237791Y59173268D02*
X15160274Y58948144D01*
X15160274Y58948144D02*
X15174293Y58842592D01*
X15174293Y58842592D02*
X15203814Y58782064D01*
X15203814Y58782064D02*
X15278360Y58706032D01*
X15278360Y58706032D02*
X15458459Y58644019D01*
X15458459Y58644019D02*
X15564012Y58658038D01*
X15564012Y58658038D02*
X15624540Y58687559D01*
X15624540Y58687559D02*
X15700571Y58762105D01*
D10*
D11*
X-37291393Y45249961D02*
X-37954516Y44785637D01*
X-37954516Y44785637D02*
X-38005217Y44692004D01*
X-38005217Y44692004D02*
X-38016911Y44625683D01*
X-38016911Y44625683D02*
X-38001292Y44520356D01*
X-38001292Y44520356D02*
X-37892040Y44364327D01*
X-37892040Y44364327D02*
X-37798406Y44313625D01*
X-37798406Y44313625D02*
X-37732086Y44301931D01*
X-37732086Y44301931D02*
X-37626758Y44317550D01*
X-37626758Y44317550D02*
X-36963635Y44781874D01*
X-36745130Y44469816D02*
X-36362745Y43923715D01*
X-36362745Y43923715D02*
X-37427716Y43701204D01*
D12*
D13*
X-25783767Y-58560543D02*
X-25736147Y-58608162D01*
X-25736147Y-58608162D02*
X-25688528Y-58751019D01*
X-25688528Y-58751019D02*
X-25688528Y-58846257D01*
X-25688528Y-58846257D02*
X-25736147Y-58989114D01*
X-25736147Y-58989114D02*
X-25831386Y-59084352D01*
X-25831386Y-59084352D02*
X-25926624Y-59131971D01*
X-25926624Y-59131971D02*
X-26117100Y-59179590D01*
X-26117100Y-59179590D02*
X-26259957Y-59179590D01*
X-26259957Y-59179590D02*
X-26450433Y-59131971D01*
X-26450433Y-59131971D02*
X-26545671Y-59084352D01*
X-26545671Y-59084352D02*
X-26640909Y-58989114D01*
X-26640909Y-58989114D02*
X-26688528Y-58846257D01*
X-26688528Y-58846257D02*
X-26688528Y-58751019D01*
X-26688528Y-58751019D02*
X-26640909Y-58608162D01*
X-26640909Y-58608162D02*
X-26593290Y-58560543D01*
X-26259957Y-57989114D02*
X-26307576Y-58084352D01*
X-26307576Y-58084352D02*
X-26355195Y-58131971D01*
X-26355195Y-58131971D02*
X-26450433Y-58179590D01*
X-26450433Y-58179590D02*
X-26498052Y-58179590D01*
X-26498052Y-58179590D02*
X-26593290Y-58131971D01*
X-26593290Y-58131971D02*
X-26640909Y-58084352D01*
X-26640909Y-58084352D02*
X-26688528Y-57989114D01*
X-26688528Y-57989114D02*
X-26688528Y-57798638D01*
X-26688528Y-57798638D02*
X-26640909Y-57703400D01*
X-26640909Y-57703400D02*
X-26593290Y-57655781D01*
X-26593290Y-57655781D02*
X-26498052Y-57608162D01*
X-26498052Y-57608162D02*
X-26450433Y-57608162D01*
X-26450433Y-57608162D02*
X-26355195Y-57655781D01*
X-26355195Y-57655781D02*
X-26307576Y-57703400D01*
X-26307576Y-57703400D02*
X-26259957Y-57798638D01*
X-26259957Y-57798638D02*
X-26259957Y-57989114D01*
X-26259957Y-57989114D02*
X-26212338Y-58084352D01*
X-26212338Y-58084352D02*
X-26164719Y-58131971D01*
X-26164719Y-58131971D02*
X-26069481Y-58179590D01*
X-26069481Y-58179590D02*
X-25879005Y-58179590D01*
X-25879005Y-58179590D02*
X-25783767Y-58131971D01*
X-25783767Y-58131971D02*
X-25736147Y-58084352D01*
X-25736147Y-58084352D02*
X-25688528Y-57989114D01*
X-25688528Y-57989114D02*
X-25688528Y-57798638D01*
X-25688528Y-57798638D02*
X-25736147Y-57703400D01*
X-25736147Y-57703400D02*
X-25783767Y-57655781D01*
X-25783767Y-57655781D02*
X-25879005Y-57608162D01*
X-25879005Y-57608162D02*
X-26069481Y-57608162D01*
X-26069481Y-57608162D02*
X-26164719Y-57655781D01*
X-26164719Y-57655781D02*
X-26212338Y-57703400D01*
X-26212338Y-57703400D02*
X-26259957Y-57798638D01*
D12*
D13*
X-45416205Y-29893457D02*
X-45463824Y-29941077D01*
X-45463824Y-29941077D02*
X-45606681Y-29988696D01*
X-45606681Y-29988696D02*
X-45701919Y-29988696D01*
X-45701919Y-29988696D02*
X-45844776Y-29941077D01*
X-45844776Y-29941077D02*
X-45940014Y-29845838D01*
X-45940014Y-29845838D02*
X-45987633Y-29750600D01*
X-45987633Y-29750600D02*
X-46035252Y-29560124D01*
X-46035252Y-29560124D02*
X-46035252Y-29417267D01*
X-46035252Y-29417267D02*
X-45987633Y-29226791D01*
X-45987633Y-29226791D02*
X-45940014Y-29131553D01*
X-45940014Y-29131553D02*
X-45844776Y-29036315D01*
X-45844776Y-29036315D02*
X-45701919Y-28988696D01*
X-45701919Y-28988696D02*
X-45606681Y-28988696D01*
X-45606681Y-28988696D02*
X-45463824Y-29036315D01*
X-45463824Y-29036315D02*
X-45416205Y-29083934D01*
X-44463824Y-29988696D02*
X-45035252Y-29988696D01*
X-44749538Y-29988696D02*
X-44749538Y-28988696D01*
X-44749538Y-28988696D02*
X-44844776Y-29131553D01*
X-44844776Y-29131553D02*
X-44940014Y-29226791D01*
X-44940014Y-29226791D02*
X-45035252Y-29274410D01*
X-43511443Y-29988696D02*
X-44082871Y-29988696D01*
X-43797157Y-29988696D02*
X-43797157Y-28988696D01*
X-43797157Y-28988696D02*
X-43892395Y-29131553D01*
X-43892395Y-29131553D02*
X-43987633Y-29226791D01*
X-43987633Y-29226791D02*
X-44082871Y-29274410D01*
D12*
D13*
X-36571071Y53484834D02*
X-37144647Y54303986D01*
X-37144647Y54303986D02*
X-36949611Y54440552D01*
X-36949611Y54440552D02*
X-36805276Y54483484D01*
X-36805276Y54483484D02*
X-36672635Y54460096D01*
X-36672635Y54460096D02*
X-36579002Y54409394D01*
X-36579002Y54409394D02*
X-36430742Y54280679D01*
X-36430742Y54280679D02*
X-36348802Y54163657D01*
X-36348802Y54163657D02*
X-36278557Y53980315D01*
X-36278557Y53980315D02*
X-36262938Y53874987D01*
X-36262938Y53874987D02*
X-36286326Y53742346D01*
X-36286326Y53742346D02*
X-36376035Y53621400D01*
X-36376035Y53621400D02*
X-36571071Y53484834D01*
X-36403510Y54822936D02*
X-35896416Y55178007D01*
X-35896416Y55178007D02*
X-35950961Y54674757D01*
X-35950961Y54674757D02*
X-35833939Y54756696D01*
X-35833939Y54756696D02*
X-35728612Y54772316D01*
X-35728612Y54772316D02*
X-35662291Y54760621D01*
X-35662291Y54760621D02*
X-35568658Y54709920D01*
X-35568658Y54709920D02*
X-35432092Y54514884D01*
X-35432092Y54514884D02*
X-35416473Y54409556D01*
X-35416473Y54409556D02*
X-35428167Y54343236D01*
X-35428167Y54343236D02*
X-35478868Y54249602D01*
X-35478868Y54249602D02*
X-35712912Y54085723D01*
X-35712912Y54085723D02*
X-35818239Y54070104D01*
X-35818239Y54070104D02*
X-35884560Y54081798D01*
D10*
D11*
X25295117Y56005301D02*
X24631994Y55540977D01*
X24631994Y55540977D02*
X24581293Y55447344D01*
X24581293Y55447344D02*
X24569599Y55381023D01*
X24569599Y55381023D02*
X24585218Y55275696D01*
X24585218Y55275696D02*
X24694470Y55119667D01*
X24694470Y55119667D02*
X24788104Y55068965D01*
X24788104Y55068965D02*
X24854424Y55057271D01*
X24854424Y55057271D02*
X24959752Y55072890D01*
X24959752Y55072890D02*
X25622875Y55537214D01*
X26141825Y54796077D02*
X26032573Y54952106D01*
X26032573Y54952106D02*
X25938939Y55002807D01*
X25938939Y55002807D02*
X25872619Y55014501D01*
X25872619Y55014501D02*
X25700971Y55010576D01*
X25700971Y55010576D02*
X25517628Y54940331D01*
X25517628Y54940331D02*
X25205571Y54721825D01*
X25205571Y54721825D02*
X25154869Y54628192D01*
X25154869Y54628192D02*
X25143175Y54561871D01*
X25143175Y54561871D02*
X25158794Y54456544D01*
X25158794Y54456544D02*
X25268047Y54300515D01*
X25268047Y54300515D02*
X25361680Y54249813D01*
X25361680Y54249813D02*
X25428001Y54238119D01*
X25428001Y54238119D02*
X25533328Y54253738D01*
X25533328Y54253738D02*
X25728365Y54390304D01*
X25728365Y54390304D02*
X25779066Y54483938D01*
X25779066Y54483938D02*
X25790760Y54550258D01*
X25790760Y54550258D02*
X25775141Y54655586D01*
X25775141Y54655586D02*
X25665888Y54811615D01*
X25665888Y54811615D02*
X25572255Y54862316D01*
X25572255Y54862316D02*
X25505934Y54874010D01*
X25505934Y54874010D02*
X25400607Y54858391D01*
D10*
D11*
X-24600803Y-61824525D02*
X-24810323Y-62606465D01*
X-24810323Y-62606465D02*
X-24788976Y-62710783D01*
X-24788976Y-62710783D02*
X-24755304Y-62769104D01*
X-24755304Y-62769104D02*
X-24675636Y-62839750D01*
X-24675636Y-62839750D02*
X-24491650Y-62889049D01*
X-24491650Y-62889049D02*
X-24387332Y-62867702D01*
X-24387332Y-62867702D02*
X-24329011Y-62834030D01*
X-24329011Y-62834030D02*
X-24258365Y-62754362D01*
X-24258365Y-62754362D02*
X-24048845Y-61972422D01*
X-23261185Y-62528567D02*
X-23433731Y-63172517D01*
X-23392570Y-62098971D02*
X-23807423Y-62727295D01*
X-23807423Y-62727295D02*
X-23209469Y-62887516D01*
D12*
D13*
X-30351071Y45144834D02*
X-30924647Y45963986D01*
X-30924647Y45963986D02*
X-30729611Y46100552D01*
X-30729611Y46100552D02*
X-30585276Y46143484D01*
X-30585276Y46143484D02*
X-30452635Y46120096D01*
X-30452635Y46120096D02*
X-30359002Y46069394D01*
X-30359002Y46069394D02*
X-30210742Y45940679D01*
X-30210742Y45940679D02*
X-30128802Y45823657D01*
X-30128802Y45823657D02*
X-30058557Y45640315D01*
X-30058557Y45640315D02*
X-30042938Y45534987D01*
X-30042938Y45534987D02*
X-30066326Y45402346D01*
X-30066326Y45402346D02*
X-30156035Y45281400D01*
X-30156035Y45281400D02*
X-30351071Y45144834D01*
X-29715423Y46810694D02*
X-30105495Y46537562D01*
X-30105495Y46537562D02*
X-29871371Y46120177D01*
X-29871371Y46120177D02*
X-29859677Y46186497D01*
X-29859677Y46186497D02*
X-29808975Y46280131D01*
X-29808975Y46280131D02*
X-29613939Y46416696D01*
X-29613939Y46416696D02*
X-29508612Y46432316D01*
X-29508612Y46432316D02*
X-29442291Y46420621D01*
X-29442291Y46420621D02*
X-29348658Y46369920D01*
X-29348658Y46369920D02*
X-29212092Y46174884D01*
X-29212092Y46174884D02*
X-29196473Y46069556D01*
X-29196473Y46069556D02*
X-29208167Y46003236D01*
X-29208167Y46003236D02*
X-29258868Y45909602D01*
X-29258868Y45909602D02*
X-29453904Y45773037D01*
X-29453904Y45773037D02*
X-29559232Y45757417D01*
X-29559232Y45757417D02*
X-29625552Y45769112D01*
D12*
D13*
X-28602217Y-65390824D02*
X-28660538Y-65424495D01*
X-28660538Y-65424495D02*
X-28810852Y-65433518D01*
X-28810852Y-65433518D02*
X-28902845Y-65408868D01*
X-28902845Y-65408868D02*
X-29028510Y-65325898D01*
X-29028510Y-65325898D02*
X-29095854Y-65209255D01*
X-29095854Y-65209255D02*
X-29117201Y-65104938D01*
X-29117201Y-65104938D02*
X-29113898Y-64908627D01*
X-29113898Y-64908627D02*
X-29076924Y-64770638D01*
X-29076924Y-64770638D02*
X-28981629Y-64598976D01*
X-28981629Y-64598976D02*
X-28910983Y-64519308D01*
X-28910983Y-64519308D02*
X-28794340Y-64451965D01*
X-28794340Y-64451965D02*
X-28644026Y-64442942D01*
X-28644026Y-64442942D02*
X-28552033Y-64467592D01*
X-28552033Y-64467592D02*
X-28426369Y-64550563D01*
X-28426369Y-64550563D02*
X-28392697Y-64608884D01*
X-27540111Y-64738736D02*
X-27724097Y-64689437D01*
X-27724097Y-64689437D02*
X-27828415Y-64710784D01*
X-27828415Y-64710784D02*
X-27886736Y-64744456D01*
X-27886736Y-64744456D02*
X-28015703Y-64857796D01*
X-28015703Y-64857796D02*
X-28110998Y-65029457D01*
X-28110998Y-65029457D02*
X-28209596Y-65397428D01*
X-28209596Y-65397428D02*
X-28188249Y-65501746D01*
X-28188249Y-65501746D02*
X-28154577Y-65560067D01*
X-28154577Y-65560067D02*
X-28074909Y-65630713D01*
X-28074909Y-65630713D02*
X-27890923Y-65680012D01*
X-27890923Y-65680012D02*
X-27786605Y-65658665D01*
X-27786605Y-65658665D02*
X-27728284Y-65624993D01*
X-27728284Y-65624993D02*
X-27657638Y-65545325D01*
X-27657638Y-65545325D02*
X-27596015Y-65315343D01*
X-27596015Y-65315343D02*
X-27617362Y-65211025D01*
X-27617362Y-65211025D02*
X-27651033Y-65152704D01*
X-27651033Y-65152704D02*
X-27730702Y-65082058D01*
X-27730702Y-65082058D02*
X-27914688Y-65032759D01*
X-27914688Y-65032759D02*
X-28019005Y-65054106D01*
X-28019005Y-65054106D02*
X-28077326Y-65087778D01*
X-28077326Y-65087778D02*
X-28147972Y-65167446D01*
D12*
D13*
X-24333487Y36661805D02*
X-24907063Y37480957D01*
X-24907063Y37480957D02*
X-24712027Y37617523D01*
X-24712027Y37617523D02*
X-24567692Y37660455D01*
X-24567692Y37660455D02*
X-24435051Y37637067D01*
X-24435051Y37637067D02*
X-24341418Y37586365D01*
X-24341418Y37586365D02*
X-24193158Y37457650D01*
X-24193158Y37457650D02*
X-24111218Y37340628D01*
X-24111218Y37340628D02*
X-24040973Y37157286D01*
X-24040973Y37157286D02*
X-24025354Y37051958D01*
X-24025354Y37051958D02*
X-24048742Y36919317D01*
X-24048742Y36919317D02*
X-24138451Y36798371D01*
X-24138451Y36798371D02*
X-24333487Y36661805D01*
X-24165926Y37999907D02*
X-23619824Y38382291D01*
X-23619824Y38382291D02*
X-23397313Y37317321D01*
D12*
D13*
X-31552598Y40336361D02*
X-32098780Y40535241D01*
X-32020685Y40008603D02*
X-32594261Y40827755D01*
X-32594261Y40827755D02*
X-32282203Y41046260D01*
X-32282203Y41046260D02*
X-32176876Y41061879D01*
X-32176876Y41061879D02*
X-32110555Y41050185D01*
X-32110555Y41050185D02*
X-32016922Y40999484D01*
X-32016922Y40999484D02*
X-31934982Y40882462D01*
X-31934982Y40882462D02*
X-31919363Y40777134D01*
X-31919363Y40777134D02*
X-31931057Y40710814D01*
X-31931057Y40710814D02*
X-31981759Y40617180D01*
X-31981759Y40617180D02*
X-32293816Y40398675D01*
X-31385037Y41674463D02*
X-31775109Y41401331D01*
X-31775109Y41401331D02*
X-31540985Y40983946D01*
X-31540985Y40983946D02*
X-31529291Y41050266D01*
X-31529291Y41050266D02*
X-31478589Y41143900D01*
X-31478589Y41143900D02*
X-31283553Y41280465D01*
X-31283553Y41280465D02*
X-31178226Y41296085D01*
X-31178226Y41296085D02*
X-31111905Y41284390D01*
X-31111905Y41284390D02*
X-31018272Y41233689D01*
X-31018272Y41233689D02*
X-30881706Y41038653D01*
X-30881706Y41038653D02*
X-30866087Y40933325D01*
X-30866087Y40933325D02*
X-30877781Y40867005D01*
X-30877781Y40867005D02*
X-30928482Y40773371D01*
X-30928482Y40773371D02*
X-31123518Y40636806D01*
X-31123518Y40636806D02*
X-31228846Y40621186D01*
X-31228846Y40621186D02*
X-31295166Y40632881D01*
D12*
D13*
X-43502598Y57326361D02*
X-44048780Y57525241D01*
X-43970685Y56998603D02*
X-44544261Y57817755D01*
X-44544261Y57817755D02*
X-44232203Y58036260D01*
X-44232203Y58036260D02*
X-44126876Y58051879D01*
X-44126876Y58051879D02*
X-44060555Y58040185D01*
X-44060555Y58040185D02*
X-43966922Y57989484D01*
X-43966922Y57989484D02*
X-43884982Y57872462D01*
X-43884982Y57872462D02*
X-43869363Y57767134D01*
X-43869363Y57767134D02*
X-43881057Y57700814D01*
X-43881057Y57700814D02*
X-43931759Y57607180D01*
X-43931759Y57607180D02*
X-44243816Y57388675D01*
X-42722453Y57872624D02*
X-43190540Y57544866D01*
X-42956497Y57708745D02*
X-43530073Y58527897D01*
X-43530073Y58527897D02*
X-43526148Y58356249D01*
X-43526148Y58356249D02*
X-43549536Y58223608D01*
X-43549536Y58223608D02*
X-43600237Y58129975D01*
D12*
D13*
X-44404875Y50011950D02*
X-44404875Y49944606D01*
X-44404875Y49944606D02*
X-44472219Y49809919D01*
X-44472219Y49809919D02*
X-44539562Y49742576D01*
X-44539562Y49742576D02*
X-44674249Y49675232D01*
X-44674249Y49675232D02*
X-44808936Y49675232D01*
X-44808936Y49675232D02*
X-44909951Y49708904D01*
X-44909951Y49708904D02*
X-45078310Y49809919D01*
X-45078310Y49809919D02*
X-45179325Y49910934D01*
X-45179325Y49910934D02*
X-45280341Y50079293D01*
X-45280341Y50079293D02*
X-45314012Y50180308D01*
X-45314012Y50180308D02*
X-45314012Y50314995D01*
X-45314012Y50314995D02*
X-45246669Y50449682D01*
X-45246669Y50449682D02*
X-45179325Y50517026D01*
X-45179325Y50517026D02*
X-45044638Y50584369D01*
X-45044638Y50584369D02*
X-44977295Y50584369D01*
X-44202845Y51022102D02*
X-43731440Y50550698D01*
X-44640577Y51123117D02*
X-44303860Y50449682D01*
X-44303860Y50449682D02*
X-43866127Y50887415D01*
D12*
D13*
X-21255473Y26366431D02*
X-21801655Y26565311D01*
X-21723560Y26038673D02*
X-22297136Y26857825D01*
X-22297136Y26857825D02*
X-21985078Y27076330D01*
X-21985078Y27076330D02*
X-21879751Y27091949D01*
X-21879751Y27091949D02*
X-21813430Y27080255D01*
X-21813430Y27080255D02*
X-21719797Y27029554D01*
X-21719797Y27029554D02*
X-21637857Y26912532D01*
X-21637857Y26912532D02*
X-21622238Y26807205D01*
X-21622238Y26807205D02*
X-21633932Y26740884D01*
X-21633932Y26740884D02*
X-21684633Y26647251D01*
X-21684633Y26647251D02*
X-21996691Y26428745D01*
X-20475328Y26912694D02*
X-20943415Y26584936D01*
X-20709371Y26748815D02*
X-21282948Y27567967D01*
X-21282948Y27567967D02*
X-21279023Y27396319D01*
X-21279023Y27396319D02*
X-21302411Y27263678D01*
X-21302411Y27263678D02*
X-21353112Y27170045D01*
X-20541810Y28086917D02*
X-20463796Y28141544D01*
X-20463796Y28141544D02*
X-20358468Y28157163D01*
X-20358468Y28157163D02*
X-20292148Y28145469D01*
X-20292148Y28145469D02*
X-20198514Y28094767D01*
X-20198514Y28094767D02*
X-20050254Y27966052D01*
X-20050254Y27966052D02*
X-19913688Y27771015D01*
X-19913688Y27771015D02*
X-19843443Y27587673D01*
X-19843443Y27587673D02*
X-19827824Y27482346D01*
X-19827824Y27482346D02*
X-19839518Y27416025D01*
X-19839518Y27416025D02*
X-19890219Y27322392D01*
X-19890219Y27322392D02*
X-19968234Y27267765D01*
X-19968234Y27267765D02*
X-20073561Y27252146D01*
X-20073561Y27252146D02*
X-20139882Y27263840D01*
X-20139882Y27263840D02*
X-20233515Y27314542D01*
X-20233515Y27314542D02*
X-20381775Y27443257D01*
X-20381775Y27443257D02*
X-20518341Y27638294D01*
X-20518341Y27638294D02*
X-20588587Y27821636D01*
X-20588587Y27821636D02*
X-20604206Y27926963D01*
X-20604206Y27926963D02*
X-20592512Y27993284D01*
X-20592512Y27993284D02*
X-20541810Y28086917D01*
D12*
D13*
X-18522949Y22573043D02*
X-19069131Y22771923D01*
X-18991036Y22245285D02*
X-19564612Y23064437D01*
X-19564612Y23064437D02*
X-19252554Y23282942D01*
X-19252554Y23282942D02*
X-19147227Y23298561D01*
X-19147227Y23298561D02*
X-19080906Y23286867D01*
X-19080906Y23286867D02*
X-18987273Y23236166D01*
X-18987273Y23236166D02*
X-18905333Y23119144D01*
X-18905333Y23119144D02*
X-18889714Y23013817D01*
X-18889714Y23013817D02*
X-18901408Y22947496D01*
X-18901408Y22947496D02*
X-18952109Y22853863D01*
X-18952109Y22853863D02*
X-19264167Y22635357D01*
X-17742804Y23119306D02*
X-18210891Y22791548D01*
X-17976847Y22955427D02*
X-18550424Y23774579D01*
X-18550424Y23774579D02*
X-18546499Y23602931D01*
X-18546499Y23602931D02*
X-18569887Y23470290D01*
X-18569887Y23470290D02*
X-18620588Y23376657D01*
X-16962659Y23665569D02*
X-17430746Y23337811D01*
X-17196703Y23501690D02*
X-17770279Y24320842D01*
X-17770279Y24320842D02*
X-17766354Y24149194D01*
X-17766354Y24149194D02*
X-17789742Y24016554D01*
X-17789742Y24016554D02*
X-17840443Y23922920D01*
D12*
D13*
X-33375532Y49329533D02*
X-33949108Y50148685D01*
X-33949108Y50148685D02*
X-33754072Y50285251D01*
X-33754072Y50285251D02*
X-33609737Y50328183D01*
X-33609737Y50328183D02*
X-33477096Y50304795D01*
X-33477096Y50304795D02*
X-33383463Y50254093D01*
X-33383463Y50254093D02*
X-33235203Y50125378D01*
X-33235203Y50125378D02*
X-33153263Y50008356D01*
X-33153263Y50008356D02*
X-33083018Y49825014D01*
X-33083018Y49825014D02*
X-33067399Y49719686D01*
X-33067399Y49719686D02*
X-33090787Y49587045D01*
X-33090787Y49587045D02*
X-33180496Y49466099D01*
X-33180496Y49466099D02*
X-33375532Y49329533D01*
X-32587699Y50695029D02*
X-32205315Y50148928D01*
X-33001240Y50870521D02*
X-32786579Y50148847D01*
X-32786579Y50148847D02*
X-32279485Y50503918D01*
D12*
D13*
X32667719Y48601996D02*
X32656025Y48535676D01*
X32656025Y48535676D02*
X32566316Y48414729D01*
X32566316Y48414729D02*
X32488302Y48360103D01*
X32488302Y48360103D02*
X32343967Y48317171D01*
X32343967Y48317171D02*
X32211326Y48340559D01*
X32211326Y48340559D02*
X32117692Y48391260D01*
X32117692Y48391260D02*
X31969432Y48519976D01*
X31969432Y48519976D02*
X31887493Y48636998D01*
X31887493Y48636998D02*
X31817248Y48820340D01*
X31817248Y48820340D02*
X31801628Y48925667D01*
X31801628Y48925667D02*
X31825017Y49058308D01*
X31825017Y49058308D02*
X31914725Y49179255D01*
X31914725Y49179255D02*
X31992740Y49233881D01*
X31992740Y49233881D02*
X32137075Y49276813D01*
X32137075Y49276813D02*
X32203395Y49265119D01*
X33502490Y49070245D02*
X33034403Y48742487D01*
X33268446Y48906366D02*
X32694870Y49725518D01*
X32694870Y49725518D02*
X32698795Y49553870D01*
X32698795Y49553870D02*
X32675407Y49421229D01*
X32675407Y49421229D02*
X32624706Y49327596D01*
D12*
D13*
X-22482598Y27646361D02*
X-23028780Y27845241D01*
X-22950685Y27318603D02*
X-23524261Y28137755D01*
X-23524261Y28137755D02*
X-23212203Y28356260D01*
X-23212203Y28356260D02*
X-23106876Y28371879D01*
X-23106876Y28371879D02*
X-23040555Y28360185D01*
X-23040555Y28360185D02*
X-22946922Y28309484D01*
X-22946922Y28309484D02*
X-22864982Y28192462D01*
X-22864982Y28192462D02*
X-22849363Y28087134D01*
X-22849363Y28087134D02*
X-22861057Y28020814D01*
X-22861057Y28020814D02*
X-22911759Y27927180D01*
X-22911759Y27927180D02*
X-23223816Y27708675D01*
X-22342269Y28442206D02*
X-22447597Y28426587D01*
X-22447597Y28426587D02*
X-22513917Y28438281D01*
X-22513917Y28438281D02*
X-22607551Y28488982D01*
X-22607551Y28488982D02*
X-22634864Y28527989D01*
X-22634864Y28527989D02*
X-22650483Y28633317D01*
X-22650483Y28633317D02*
X-22638789Y28699637D01*
X-22638789Y28699637D02*
X-22588088Y28793271D01*
X-22588088Y28793271D02*
X-22432059Y28902523D01*
X-22432059Y28902523D02*
X-22326731Y28918142D01*
X-22326731Y28918142D02*
X-22260411Y28906448D01*
X-22260411Y28906448D02*
X-22166777Y28855747D01*
X-22166777Y28855747D02*
X-22139464Y28816740D01*
X-22139464Y28816740D02*
X-22123845Y28711412D01*
X-22123845Y28711412D02*
X-22135539Y28645092D01*
X-22135539Y28645092D02*
X-22186240Y28551458D01*
X-22186240Y28551458D02*
X-22342269Y28442206D01*
X-22342269Y28442206D02*
X-22392970Y28348572D01*
X-22392970Y28348572D02*
X-22404664Y28282252D01*
X-22404664Y28282252D02*
X-22389045Y28176924D01*
X-22389045Y28176924D02*
X-22279793Y28020895D01*
X-22279793Y28020895D02*
X-22186159Y27970194D01*
X-22186159Y27970194D02*
X-22119839Y27958500D01*
X-22119839Y27958500D02*
X-22014511Y27974119D01*
X-22014511Y27974119D02*
X-21858482Y28083371D01*
X-21858482Y28083371D02*
X-21807781Y28177005D01*
X-21807781Y28177005D02*
X-21796087Y28243325D01*
X-21796087Y28243325D02*
X-21811706Y28348653D01*
X-21811706Y28348653D02*
X-21920958Y28504682D01*
X-21920958Y28504682D02*
X-22014592Y28555383D01*
X-22014592Y28555383D02*
X-22080912Y28567077D01*
X-22080912Y28567077D02*
X-22186240Y28551458D01*
D10*
D11*
X-58011132Y-55743561D02*
X-57391000Y-56263913D01*
X-57391000Y-56263913D02*
X-57287435Y-56288653D01*
X-57287435Y-56288653D02*
X-57220348Y-56282783D01*
X-57220348Y-56282783D02*
X-57122651Y-56240435D01*
X-57122651Y-56240435D02*
X-57000216Y-56094522D01*
X-57000216Y-56094522D02*
X-56975476Y-55990957D01*
X-56975476Y-55990957D02*
X-56981345Y-55923869D01*
X-56981345Y-55923869D02*
X-57023693Y-55826173D01*
X-57023693Y-55826173D02*
X-57643824Y-55305821D01*
X-56541082Y-55547348D02*
X-56418646Y-55401434D01*
X-56418646Y-55401434D02*
X-56393906Y-55297869D01*
X-56393906Y-55297869D02*
X-56399776Y-55230782D01*
X-56399776Y-55230782D02*
X-56447993Y-55065998D01*
X-56447993Y-55065998D02*
X-56563297Y-54907084D01*
X-56563297Y-54907084D02*
X-56855124Y-54662213D01*
X-56855124Y-54662213D02*
X-56958689Y-54637473D01*
X-56958689Y-54637473D02*
X-57025776Y-54643343D01*
X-57025776Y-54643343D02*
X-57123473Y-54685690D01*
X-57123473Y-54685690D02*
X-57245908Y-54831603D01*
X-57245908Y-54831603D02*
X-57270648Y-54935169D01*
X-57270648Y-54935169D02*
X-57264778Y-55002256D01*
X-57264778Y-55002256D02*
X-57222431Y-55099952D01*
X-57222431Y-55099952D02*
X-57040039Y-55252997D01*
X-57040039Y-55252997D02*
X-56936474Y-55277737D01*
X-56936474Y-55277737D02*
X-56869386Y-55271867D01*
X-56869386Y-55271867D02*
X-56771690Y-55229520D01*
X-56771690Y-55229520D02*
X-56649255Y-55083606D01*
X-56649255Y-55083606D02*
X-56624515Y-54980041D01*
X-56624515Y-54980041D02*
X-56630384Y-54912954D01*
X-56630384Y-54912954D02*
X-56672732Y-54815257D01*
D12*
D13*
X-37542598Y48836361D02*
X-38088780Y49035241D01*
X-38010685Y48508603D02*
X-38584261Y49327755D01*
X-38584261Y49327755D02*
X-38272203Y49546260D01*
X-38272203Y49546260D02*
X-38166876Y49561879D01*
X-38166876Y49561879D02*
X-38100555Y49550185D01*
X-38100555Y49550185D02*
X-38006922Y49499484D01*
X-38006922Y49499484D02*
X-37924982Y49382462D01*
X-37924982Y49382462D02*
X-37909363Y49277134D01*
X-37909363Y49277134D02*
X-37921057Y49210814D01*
X-37921057Y49210814D02*
X-37971759Y49117180D01*
X-37971759Y49117180D02*
X-38283816Y48898675D01*
X-37843124Y49846705D02*
X-37336030Y50201776D01*
X-37336030Y50201776D02*
X-37390575Y49698526D01*
X-37390575Y49698526D02*
X-37273553Y49780465D01*
X-37273553Y49780465D02*
X-37168226Y49796085D01*
X-37168226Y49796085D02*
X-37101905Y49784390D01*
X-37101905Y49784390D02*
X-37008272Y49733689D01*
X-37008272Y49733689D02*
X-36871706Y49538653D01*
X-36871706Y49538653D02*
X-36856087Y49433325D01*
X-36856087Y49433325D02*
X-36867781Y49367005D01*
X-36867781Y49367005D02*
X-36918482Y49273371D01*
X-36918482Y49273371D02*
X-37152526Y49109492D01*
X-37152526Y49109492D02*
X-37257853Y49093873D01*
X-37257853Y49093873D02*
X-37324174Y49105567D01*
D10*
D11*
X65797750Y9700108D02*
X66579690Y9909628D01*
X66579690Y9909628D02*
X66659358Y9980274D01*
X66659358Y9980274D02*
X66693030Y10038595D01*
X66693030Y10038595D02*
X66714377Y10142913D01*
X66714377Y10142913D02*
X66665078Y10326899D01*
X66665078Y10326899D02*
X66594432Y10406567D01*
X66594432Y10406567D02*
X66536111Y10440238D01*
X66536111Y10440238D02*
X66431793Y10461586D01*
X66431793Y10461586D02*
X65649853Y10252065D01*
X65403359Y11171995D02*
X65526606Y10712030D01*
X65526606Y10712030D02*
X65998896Y10789281D01*
X65998896Y10789281D02*
X65940574Y10822952D01*
X65940574Y10822952D02*
X65869929Y10902621D01*
X65869929Y10902621D02*
X65808305Y11132603D01*
X65808305Y11132603D02*
X65829652Y11236921D01*
X65829652Y11236921D02*
X65863324Y11295242D01*
X65863324Y11295242D02*
X65942992Y11365888D01*
X65942992Y11365888D02*
X66172974Y11427511D01*
X66172974Y11427511D02*
X66277292Y11406164D01*
X66277292Y11406164D02*
X66335613Y11372493D01*
X66335613Y11372493D02*
X66406259Y11292824D01*
X66406259Y11292824D02*
X66467883Y11062842D01*
X66467883Y11062842D02*
X66446536Y10958524D01*
X66446536Y10958524D02*
X66412864Y10900203D01*
D12*
D13*
X-28452598Y36166361D02*
X-28998780Y36365241D01*
X-28920685Y35838603D02*
X-29494261Y36657755D01*
X-29494261Y36657755D02*
X-29182203Y36876260D01*
X-29182203Y36876260D02*
X-29076876Y36891879D01*
X-29076876Y36891879D02*
X-29010555Y36880185D01*
X-29010555Y36880185D02*
X-28916922Y36829484D01*
X-28916922Y36829484D02*
X-28834982Y36712462D01*
X-28834982Y36712462D02*
X-28819363Y36607134D01*
X-28819363Y36607134D02*
X-28831057Y36540814D01*
X-28831057Y36540814D02*
X-28881759Y36447180D01*
X-28881759Y36447180D02*
X-29193816Y36228675D01*
X-28324044Y37477150D02*
X-28480073Y37367897D01*
X-28480073Y37367897D02*
X-28530774Y37274264D01*
X-28530774Y37274264D02*
X-28542468Y37207943D01*
X-28542468Y37207943D02*
X-28538543Y37036295D01*
X-28538543Y37036295D02*
X-28468298Y36852953D01*
X-28468298Y36852953D02*
X-28249793Y36540895D01*
X-28249793Y36540895D02*
X-28156159Y36490194D01*
X-28156159Y36490194D02*
X-28089839Y36478500D01*
X-28089839Y36478500D02*
X-27984511Y36494119D01*
X-27984511Y36494119D02*
X-27828482Y36603371D01*
X-27828482Y36603371D02*
X-27777781Y36697005D01*
X-27777781Y36697005D02*
X-27766087Y36763325D01*
X-27766087Y36763325D02*
X-27781706Y36868653D01*
X-27781706Y36868653D02*
X-27918272Y37063689D01*
X-27918272Y37063689D02*
X-28011905Y37114390D01*
X-28011905Y37114390D02*
X-28078226Y37126085D01*
X-28078226Y37126085D02*
X-28183553Y37110465D01*
X-28183553Y37110465D02*
X-28339582Y37001213D01*
X-28339582Y37001213D02*
X-28390284Y36907579D01*
X-28390284Y36907579D02*
X-28401978Y36841259D01*
X-28401978Y36841259D02*
X-28386359Y36735931D01*
D10*
D11*
X-39832947Y64452213D02*
X-39368623Y63789090D01*
X-39368623Y63789090D02*
X-39274990Y63738388D01*
X-39274990Y63738388D02*
X-39208669Y63726694D01*
X-39208669Y63726694D02*
X-39103342Y63742313D01*
X-39103342Y63742313D02*
X-38947313Y63851566D01*
X-38947313Y63851566D02*
X-38896611Y63945200D01*
X-38896611Y63945200D02*
X-38884917Y64011520D01*
X-38884917Y64011520D02*
X-38900536Y64116848D01*
X-38900536Y64116848D02*
X-39364860Y64779971D01*
X-37972132Y64534395D02*
X-38440219Y64206637D01*
X-38206175Y64370516D02*
X-38779752Y65189668D01*
X-38779752Y65189668D02*
X-38775827Y65018020D01*
X-38775827Y65018020D02*
X-38799215Y64885379D01*
X-38799215Y64885379D02*
X-38849916Y64791746D01*
X-38179024Y65494038D02*
X-38167330Y65560358D01*
X-38167330Y65560358D02*
X-38116628Y65653992D01*
X-38116628Y65653992D02*
X-37921592Y65790558D01*
X-37921592Y65790558D02*
X-37816265Y65806177D01*
X-37816265Y65806177D02*
X-37749944Y65794483D01*
X-37749944Y65794483D02*
X-37656311Y65743782D01*
X-37656311Y65743782D02*
X-37601684Y65665767D01*
X-37601684Y65665767D02*
X-37558752Y65521432D01*
X-37558752Y65521432D02*
X-37699081Y64725587D01*
X-37699081Y64725587D02*
X-37191987Y65080658D01*
D14*
%TO.P,U11,8,INT*%
%TO.N,/MPU_ESP_INT*%
X-24083406Y-59672952D03*
%TO.P,U11,7,AD0*%
%TO.N,GND*%
X-24083406Y-57132952D03*
%TO.P,U11,6,XCL*%
%TO.N,unconnected-(U11-XCL-Pad6)*%
X-24083406Y-54592952D03*
%TO.P,U11,5,XDA*%
%TO.N,unconnected-(U11-XDA-Pad5)*%
X-24083406Y-52052952D03*
%TO.P,U11,4,SDA*%
%TO.N,/ESP_MPU_VL_SDA*%
X-24083406Y-49512952D03*
%TO.P,U11,3,SCL*%
%TO.N,/ESP_MPU_VL_SCL*%
X-24083406Y-46972952D03*
%TO.P,U11,2,GND*%
%TO.N,GND*%
X-24083406Y-44432952D03*
%TO.P,U11,1,VCC*%
%TO.N,+3.3V*%
X-24083406Y-41892952D03*
%TD*%
D15*
%TO.P,R4,1*%
%TO.N,/R4_LED4*%
X-34758395Y46972899D03*
%TO.P,R4,2*%
%TO.N,+3.3V*%
X-36253347Y45926123D03*
%TD*%
D16*
%TO.P,U1,1,A_IB*%
%TO.N,/ESP_MD_A_AIB*%
X55166653Y47916123D03*
%TO.P,U1,2,A_IA*%
%TO.N,/ESP_MD_A_AIA*%
X52626653Y47916123D03*
%TO.P,U1,3,VCC*%
%TO.N,+9V*%
X50086653Y47916123D03*
%TO.P,U1,4,GND*%
%TO.N,GND*%
X47546653Y47916123D03*
%TO.P,U1,5,B_IB*%
%TO.N,/ESP_MD_A_BIB*%
X45006653Y47916123D03*
%TO.P,U1,6,B_IA*%
%TO.N,/ESP_MD_A_BIA*%
X42466653Y47916123D03*
%TD*%
D17*
%TO.P,C3,1*%
%TO.N,+3.3V*%
X-6452982Y75727395D03*
%TO.P,C3,2*%
%TO.N,GND*%
X-8173712Y78184851D03*
%TD*%
D18*
%TO.P,C2,1*%
%TO.N,+9V*%
X-54992075Y32875758D03*
%TO.P,C2,2*%
%TO.N,GND*%
X-52534619Y34596488D03*
%TD*%
D19*
%TO.P,U3,1,VIN*%
%TO.N,+3.3V*%
X-44472558Y52506911D03*
%TO.P,U3,2,GND*%
%TO.N,GND*%
X-46431244Y50548225D03*
%TO.P,U3,3,SCL*%
%TO.N,/ESP_MPU_VL_SCL*%
X-48227295Y48752174D03*
%TO.P,U3,4,SDA*%
%TO.N,/ESP_MPU_VL_SDA*%
X-50023347Y46956123D03*
%TO.P,U3,5,GPIO1*%
%TO.N,unconnected-(U3-GPIO1-Pad5)*%
X-51819398Y45160072D03*
%TO.P,U3,6,XSHUT*%
%TO.N,/ESP_VL_A_XSHUT*%
X-53615449Y43364020D03*
%TD*%
D20*
%TO.P,C5,1*%
%TO.N,/CHRG_BB_IN_P*%
X-35519166Y-32584810D03*
%TO.P,C5,2*%
%TO.N,GND*%
X-37447528Y-34882944D03*
%TD*%
D21*
%TO.P,C12,1*%
%TO.N,GND*%
X-3535153Y73311021D03*
%TO.P,C12,2*%
%TO.N,+5V*%
X-5091541Y72221225D03*
%TD*%
D22*
%TO.P,D8,2,A*%
%TO.N,/R8_LED8*%
X-19595392Y32223851D03*
%TO.P,D8,1,K*%
%TO.N,/ESP_LUNA_LED8_TXD*%
X-21131302Y31148395D03*
%TD*%
D16*
%TO.P,U2,1,A_IB*%
%TO.N,/ESP_MD_B_AIB*%
X-51263347Y-27413877D03*
%TO.P,U2,2,A_IA*%
%TO.N,/ESP_MD_B_AIA*%
X-48723347Y-27413877D03*
%TO.P,U2,3,VCC*%
%TO.N,+9V*%
X-46183347Y-27413877D03*
%TO.P,U2,4,GND*%
%TO.N,GND*%
X-43643347Y-27413877D03*
%TO.P,U2,5,B_IB*%
%TO.N,/ESP_MD_B_BIB*%
X-41103347Y-27413877D03*
%TO.P,U2,6,B_IA*%
%TO.N,/ESP_MD_B_BIA*%
X-38563347Y-27413877D03*
%TD*%
D23*
%TO.P,U10,1,5V*%
%TO.N,+5V*%
X13920959Y57957004D03*
%TO.P,U10,2,RXD_SDA*%
%TO.N,/ESP_LUNA_LED8_TXD*%
X15102857Y57550044D03*
%TO.P,U10,3,TXD_SCL*%
%TO.N,/LUNA_ESP_RXD*%
X16284755Y57143084D03*
%TO.P,U10,4,GND*%
%TO.N,GND*%
X17466653Y56736123D03*
%TO.P,U10,5,CONFIGURATION_INPUT*%
%TO.N,+3.3V*%
X18648552Y56329163D03*
%TO.P,U10,6,MULTIPLEXING_OUTPUT*%
%TO.N,unconnected-(U10-MULTIPLEXING_OUTPUT-Pad6)*%
X19830450Y55922203D03*
%TD*%
D15*
%TO.P,R2,1*%
%TO.N,/R2_LED2*%
X-40775871Y55459511D03*
%TO.P,R2,2*%
%TO.N,+3.3V*%
X-42270823Y54412735D03*
%TD*%
D24*
%TO.P,C10,1*%
%TO.N,+9V*%
X49826653Y52226123D03*
%TO.P,C10,2*%
%TO.N,GND*%
X47926653Y52226123D03*
%TD*%
D15*
%TO.P,R7,1*%
%TO.N,/R7_LED7*%
X-25568395Y34392899D03*
%TO.P,R7,2*%
%TO.N,+3.3V*%
X-27063347Y33346123D03*
%TD*%
D25*
%TO.P,R9,1*%
%TO.N,+3.3V*%
X-27713347Y-41753877D03*
%TO.P,R9,2*%
%TO.N,/MPU_ESP_INT*%
X-27713347Y-43578877D03*
%TD*%
D22*
%TO.P,D2,1,K*%
%TO.N,/ESP_LED2*%
X-39058886Y56651424D03*
%TO.P,D2,2,A*%
%TO.N,/R2_LED2*%
X-37522976Y57726880D03*
%TD*%
D26*
%TO.P,C7,1*%
%TO.N,GND*%
X63810775Y13263753D03*
%TO.P,C7,2*%
%TO.N,+3.3V*%
X64302531Y11428493D03*
%TD*%
D22*
%TO.P,D6,1,K*%
%TO.N,/ESP_LED6*%
X-27051302Y39648395D03*
%TO.P,D6,2,A*%
%TO.N,/R6_LED6*%
X-25515392Y40723851D03*
%TD*%
%TO.P,D1,1,K*%
%TO.N,/ESP_LED1*%
X-42071302Y60838395D03*
%TO.P,D1,2,A*%
%TO.N,/R1_LED1*%
X-40535392Y61913851D03*
%TD*%
D27*
%TO.P,JP1,1,A*%
%TO.N,/CHRG_BB_IN_P*%
X-41619407Y44293093D03*
%TO.P,JP1,2,B*%
%TO.N,/BB_EN*%
X-43700053Y42836209D03*
%TD*%
D28*
%TO.P,C9,1*%
%TO.N,GND*%
X16364896Y60186833D03*
%TO.P,C9,2*%
%TO.N,+5V*%
X14568410Y60805413D03*
%TD*%
D29*
%TO.P,U7,1,IN_P*%
%TO.N,/CHRG_BB_IN_P*%
X-39313782Y41682980D03*
%TO.P,U7,2,EN*%
%TO.N,/BB_EN*%
X-41394428Y40226095D03*
%TO.P,U7,3,IN_N*%
%TO.N,GND*%
X-47636367Y35855443D03*
%TO.P,U7,4,OUT_P*%
%TO.N,+9V*%
X-30423347Y28986123D03*
%TO.P,U7,5,OUT_N*%
%TO.N,GND*%
X-38745932Y23158586D03*
%TD*%
D30*
%TO.P,C8,1*%
%TO.N,GND*%
X-27823347Y-57443877D03*
%TO.P,C8,2*%
%TO.N,+3.3V*%
X-27823347Y-59343877D03*
%TD*%
D31*
%TO.P,C11,1*%
%TO.N,+9V*%
X-45723347Y-31213877D03*
%TO.P,C11,2*%
%TO.N,GND*%
X-43823347Y-31213877D03*
%TD*%
D22*
%TO.P,D3,1,K*%
%TO.N,/ESP_LED3*%
X-36048886Y52391424D03*
%TO.P,D3,2,A*%
%TO.N,/R3_LED3*%
X-34512976Y53466880D03*
%TD*%
D29*
%TO.P,U6,1,IN_P*%
%TO.N,/CHRG_BB_IN_P*%
X23272728Y52438320D03*
%TO.P,U6,2,EN*%
X21192082Y50981435D03*
%TO.P,U6,3,IN_N*%
%TO.N,GND*%
X14950143Y46610783D03*
%TO.P,U6,4,OUT_P*%
%TO.N,+5V*%
X32163163Y39741463D03*
%TO.P,U6,5,OUT_N*%
%TO.N,GND*%
X23840578Y33913926D03*
%TD*%
D32*
%TO.P,U4,1,VIN*%
%TO.N,+3.3V*%
X-23302413Y-64829548D03*
%TO.P,U4,2,GND*%
%TO.N,GND*%
X-20626799Y-65546477D03*
%TO.P,U4,3,SCL*%
%TO.N,/ESP_MPU_VL_SCL*%
X-18173347Y-66203877D03*
%TO.P,U4,4,SDA*%
%TO.N,/ESP_MPU_VL_SDA*%
X-15719896Y-66861278D03*
%TO.P,U4,5,GPIO1*%
%TO.N,unconnected-(U4-GPIO1-Pad5)*%
X-13266444Y-67518678D03*
%TO.P,U4,6,XSHUT*%
%TO.N,/ESP_VL_B_XSHUT*%
X-10812992Y-68176078D03*
%TD*%
D22*
%TO.P,D5,1,K*%
%TO.N,/ESP_LED5*%
X-29828886Y44051424D03*
%TO.P,D5,2,A*%
%TO.N,/R5_LED5*%
X-28292976Y45126880D03*
%TD*%
D33*
%TO.P,C6,1*%
%TO.N,GND*%
X-26995717Y-63709755D03*
%TO.P,C6,2*%
%TO.N,+3.3V*%
X-28830977Y-63217999D03*
%TD*%
D22*
%TO.P,D7,1,K*%
%TO.N,/ESP_LED7*%
X-23811302Y35568395D03*
%TO.P,D7,2,A*%
%TO.N,/R7_LED7*%
X-22275392Y36643851D03*
%TD*%
D15*
%TO.P,R5,1*%
%TO.N,/R5_LED5*%
X-31875871Y42679511D03*
%TO.P,R5,2*%
%TO.N,+3.3V*%
X-33370823Y41632735D03*
%TD*%
%TO.P,R1,1*%
%TO.N,/R1_LED1*%
X-43825871Y59669511D03*
%TO.P,R1,2*%
%TO.N,+3.3V*%
X-45320823Y58622735D03*
%TD*%
D34*
%TO.P,C4,1*%
%TO.N,GND*%
X-44025098Y48524372D03*
%TO.P,C4,2*%
%TO.N,+3.3V*%
X-42681596Y49867874D03*
%TD*%
D35*
%TO.P,R10,1*%
%TO.N,+3.3V*%
X-20790823Y25232735D03*
%TO.P,R10,2*%
%TO.N,/ESP_MPU_VL_SDA*%
X-19295871Y26279511D03*
%TD*%
%TO.P,R11,1*%
%TO.N,+3.3V*%
X-18058299Y21439347D03*
%TO.P,R11,2*%
%TO.N,/ESP_MPU_VL_SCL*%
X-16563347Y22486123D03*
%TD*%
D22*
%TO.P,D4,1,K*%
%TO.N,/ESP_LED4*%
X-32853347Y48236123D03*
%TO.P,D4,2,A*%
%TO.N,/R4_LED4*%
X-31317437Y49311579D03*
%TD*%
D18*
%TO.P,C1,1*%
%TO.N,+5V*%
X32917925Y45920067D03*
%TO.P,C1,2*%
%TO.N,GND*%
X35375381Y47640797D03*
%TD*%
D15*
%TO.P,R8,1*%
%TO.N,/R8_LED8*%
X-22805871Y29989511D03*
%TO.P,R8,2*%
%TO.N,+3.3V*%
X-24300823Y28942735D03*
%TD*%
D36*
%TO.P,U8,N,NEG*%
%TO.N,GND*%
X28046691Y28873947D03*
%TO.P,U8,P,POS*%
%TO.N,/CHRG_BAT_POS*%
X-28055161Y-27227905D03*
%TD*%
D37*
%TO.P,U9,1,OUT_P*%
%TO.N,/CHRG_BB_IN_P*%
X-41173600Y-36894853D03*
%TO.P,U9,2,B_P*%
%TO.N,/CHRG_BAT_POS*%
X-38875467Y-38823216D03*
%TO.P,U9,3,B_N*%
%TO.N,GND*%
X-32747111Y-43965517D03*
%TO.P,U9,4,OUT_N*%
X-30448978Y-45893880D03*
%TO.P,U9,5,IN_P*%
%TO.N,unconnected-(U9-IN_P-Pad5)*%
X-55957715Y-54513876D03*
%TO.P,U9,6,IN_N*%
%TO.N,GND*%
X-45233093Y-63512902D03*
%TD*%
D15*
%TO.P,R3,1*%
%TO.N,/R3_LED3*%
X-37865871Y51179511D03*
%TO.P,R3,2*%
%TO.N,+3.3V*%
X-39360823Y50132735D03*
%TD*%
D38*
%TO.P,U5,1,VIN*%
%TO.N,+3.3V*%
X67750982Y12327057D03*
%TO.P,U5,2,GND*%
%TO.N,GND*%
X67034053Y15002672D03*
%TO.P,U5,3,SCL*%
%TO.N,/ESP_MPU_VL_SCL*%
X66376653Y17456123D03*
%TO.P,U5,4,SDA*%
%TO.N,/ESP_MPU_VL_SDA*%
X65719252Y19909575D03*
%TO.P,U5,5,GPIO1*%
%TO.N,unconnected-(U5-GPIO1-Pad5)*%
X65061852Y22363026D03*
%TO.P,U5,6,XSHUT*%
%TO.N,/ESP_VL_C_XSHUT*%
X64404452Y24816478D03*
%TD*%
D15*
%TO.P,R6,1*%
%TO.N,/R6_LED6*%
X-28775871Y38509511D03*
%TO.P,R6,2*%
%TO.N,+3.3V*%
X-30270823Y37462735D03*
%TD*%
D16*
%TO.P,U12,1,3V3*%
%TO.N,+3.3V*%
X-35898837Y62735720D03*
%TO.P,U12,2,RESTART__EN*%
%TO.N,+5V*%
X-34441953Y60655074D03*
%TO.P,U12,3,ADC1_0_RTC_GPIO0__GPIO36*%
%TO.N,/MPU_ESP_INT*%
X-32985068Y58574428D03*
%TO.P,U12,4,ADC1_3_RTC_GPIO3__GPIO39*%
%TO.N,unconnected-(U12-ADC1_3_RTC_GPIO3__GPIO39-Pad4)*%
X-31528184Y56493782D03*
%TO.P,U12,5,ADC1_6_RTC_GPIO4__GPIO34*%
%TO.N,unconnected-(U12-ADC1_6_RTC_GPIO4__GPIO34-Pad5)*%
X-30071300Y54413135D03*
%TO.P,U12,6,ADC1_7_RTC_GPIO5__GPIO35*%
%TO.N,unconnected-(U12-ADC1_7_RTC_GPIO5__GPIO35-Pad6)*%
X-28614416Y52332489D03*
%TO.P,U12,7,TOUCH_9__ADC1_4__RTC_GPIO9_GPIO32*%
%TO.N,/ESP_VL_A_XSHUT*%
X-27157532Y50251843D03*
%TO.P,U12,8,TOUCH_8__ADC1_5__RTC_GPIO8_GPIO33*%
%TO.N,/ESP_VL_B_XSHUT*%
X-25700648Y48171197D03*
%TO.P,U12,9,DAC_1__ADC2_8__RTC_GPIO6__GPIO25*%
%TO.N,/ESP_VL_C_XSHUT*%
X-24243764Y46090551D03*
%TO.P,U12,10,DAC_2__ADC2_9__RTC_GPIO7__GPIO26*%
%TO.N,/ESP_LED1*%
X-22786879Y44009904D03*
%TO.P,U12,11,TOUCH_7__ADC2_7__RTC_GPIO17__GPIO27*%
%TO.N,/ESP_LED2*%
X-21329995Y41929258D03*
%TO.P,U12,12,SC_CLK__HSPI_CLK__TOUCH_6__ADC2_6__RTC_GPIO16__GPIO14*%
%TO.N,/ESP_LED3*%
X-19873111Y39848612D03*
%TO.P,U12,13,SD_DAT2__HSPI_MISO__TOUCH_5__ADC2_5__RTC_GPIO15__GPIO12*%
%TO.N,/ESP_LED4*%
X-18416227Y37767966D03*
%TO.P,U12,14,GND1*%
%TO.N,GND*%
X-16959343Y35687320D03*
%TO.P,U12,15,SD_DAT3__HSPI_MOSI__TOUCH_4__ADC2_4__RTC_GPIO14__GPIO13*%
%TO.N,/ESP_LED5*%
X-15502459Y33606673D03*
%TO.P,U12,16,SHD_SD2__GPIO9*%
%TO.N,unconnected-(U12-SHD_SD2__GPIO9-Pad16)*%
X-14045574Y31526027D03*
%TO.P,U12,17,SWP_SD3__GPIO10*%
%TO.N,unconnected-(U12-SWP_SD3__GPIO10-Pad17)*%
X-12588690Y29445381D03*
%TO.P,U12,18,CSC_CMD__GPIO11*%
%TO.N,unconnected-(U12-CSC_CMD__GPIO11-Pad18)*%
X-11131806Y27364735D03*
D39*
%TO.P,U12,19,5V*%
%TO.N,+5V*%
X-9674922Y25284089D03*
D16*
%TO.P,U12,20,GPIO6__SCK_CLK*%
%TO.N,unconnected-(U12-GPIO6__SCK_CLK-Pad20)*%
X11623031Y40197076D03*
%TO.P,U12,21,GPIO7__SDO_SD0*%
%TO.N,unconnected-(U12-GPIO7__SDO_SD0-Pad21)*%
X10166147Y42277722D03*
%TO.P,U12,22,GPIO8__SDI_SD1*%
%TO.N,unconnected-(U12-GPIO8__SDI_SD1-Pad22)*%
X8709263Y44358368D03*
%TO.P,U12,23,GPIO15__RTC_GPIO13__ADC2_3__TOUCH3__SD_CMD__HSPI_CS*%
%TO.N,/ESP_MD_A_AIA*%
X7252379Y46439015D03*
%TO.P,U12,24,GPIO2__RTC_GPIO12__ADC2_2__TOUCH_2__SD_DAT0__LED*%
%TO.N,/ESP_MD_B_AIB*%
X5795495Y48519661D03*
%TO.P,U12,25,GPIO0__RTC_GPIO11__ADC2_1__TOUCH_1*%
%TO.N,/ESP_LED6*%
X4338610Y50600307D03*
%TO.P,U12,26,GPIO4__RTC_GPIO10__ADC2_0__TOUCH0__SD_DAT1*%
%TO.N,/ESP_MD_B_AIA*%
X2881726Y52680953D03*
%TO.P,U12,27,GPIO16__RX2*%
%TO.N,/LUNA_ESP_RXD*%
X1424842Y54761599D03*
%TO.P,U12,28,GPIO17__TX2*%
%TO.N,/ESP_LUNA_LED8_TXD*%
X-32042Y56842246D03*
%TO.P,U12,29,GPIO5__VSPI_CS*%
%TO.N,/ESP_MD_B_BIB*%
X-1488926Y58922892D03*
%TO.P,U12,30,GPIO18__VSPI_CLK*%
%TO.N,/ESP_MD_B_BIA*%
X-2945810Y61003538D03*
%TO.P,U12,31,GPIO19__VSPI_MISO*%
%TO.N,/ESP_MD_A_BIB*%
X-4402695Y63084184D03*
%TO.P,U12,32,GND2*%
%TO.N,GND*%
X-5859579Y65164830D03*
%TO.P,U12,33,GPIO21__I2C_SDA*%
%TO.N,/ESP_MPU_VL_SDA*%
X-7316463Y67245476D03*
%TO.P,U12,34,GPIO3__RX0*%
%TO.N,/ESP_MD_A_BIA*%
X-8773347Y69326123D03*
%TO.P,U12,35,GPIO1__TX0*%
%TO.N,/ESP_MD_A_AIB*%
X-10230231Y71406769D03*
%TO.P,U12,36,GPIO22__I2C_SCL*%
%TO.N,/ESP_MPU_VL_SCL*%
X-11687115Y73487415D03*
%TO.P,U12,37,GPIO23__VSPI_MOSI*%
%TO.N,/ESP_LED7*%
X-13143999Y75568061D03*
D39*
%TO.P,U12,38,GND3*%
%TO.N,GND*%
X-14600884Y77648707D03*
%TD*%
M02*
