0
SECTION
2
HEADER
9
$INSUNITS
70
4
9
$ACADVER
1
AC1014
9
$HANDSEED
5
FFFF
0
ENDSEC
0
SECTION
2
TABLES
0
TABLE
2
VPORT
5
8
100
AcDbSymbolTable
0
ENDTAB
0
TABLE
2
LTYPE
5
5
100
AcDbSymbolTable
0
LTYPE
5
14
100
AcDbSymbolTableRecord
100
AcDbLinetypeTableRecord
2
BYBLOCK
70
0
0
LTYPE
5
15
100
AcDbSymbolTableRecord
100
AcDbLinetypeTableRecord
2
BYLAYER
70
0
0
ENDTAB
0
TABLE
2
LAYER
5
2
100
AcDbSymbolTable
70
2
0
LAYER
5
50
100
AcDbSymbolTableRecord
100
AcDbLayerTableRecord
2
0
70
0
6
CONTINUOUS
0
ENDTAB
0
TABLE
2
STYLE
5
3
100
AcDbSymbolTable
70
1
0
STYLE
5
11
100
AcDbSymbolTableRecord
100
AcDbTextStyleTableRecord
2
STANDARD
70
0
0
ENDTAB
0
TABLE
2
VIEW
5
6
100
AcDbSymbolTable
70
0
0
ENDTAB
0
TABLE
2
UCS
5
7
100
AcDbSymbolTable
70
0
0
ENDTAB
0
TABLE
2
APPID
5
9
100
AcDbSymbolTable
70
2
0
APPID
5
12
100
AcDbSymbolTableRecord
100
AcDbRegAppTableRecord
2
ACAD
70
0
0
ENDTAB
0
TABLE
2
DIMSTYLE
5
A
100
AcDbSymbolTable
70
1
0
ENDTAB
0
TABLE
2
BLOCK_RECORD
5
1
100
AcDbSymbolTable
70
1
0
BLOCK_RECORD
5
1F
100
AcDbSymbolTableRecord
100
AcDbBlockTableRecord
2
*MODEL_SPACE
0
BLOCK_RECORD
5
1B
100
AcDbSymbolTableRecord
100
AcDbBlockTableRecord
2
*PAPER_SPACE
0
ENDTAB
0
ENDSEC
0
SECTION
2
BLOCKS
0
BLOCK
5
20
100
AcDbEntity
100
AcDbBlockBegin
2
*MODEL_SPACE
0
ENDBLK
5
21
100
AcDbEntity
100
AcDbBlockEnd
0
BLOCK
5
1C
100
AcDbEntity
100
AcDbBlockBegin
2
*PAPER_SPACE
0
ENDBLK
5
1D
100
AcDbEntity
100
AcDbBlockEnd
0
ENDSEC
0
SECTION
2
ENTITIES
0
LWPOLYLINE
5
100
100
AcDbEntity
8
0
100
AcDbPolyline
90
10
70
1
43
0.0
10
1.1607342609693994
20
-76.213087818154179
10
14.650563197887863
20
-69.944069037137012
42
0.40047139117505731
10
73.362506241114787
20
-11.216022388644236
10
79.500003776047436
20
1.9300000916700844
10
64.089380930649185
20
9.1212571075073363
10
58.735734905054542
20
-2.3602406493628925
10
24.228526601557277
20
-4.9566106032412618
42
1.4634054366389497
10
8.4099284448711007
20
-20.825954979530742
10
5.8110753220904376
20
-55.282147147471008
10
-6.0300002864096314
20
-60.810002888320014
0
LWPOLYLINE
5
101
100
AcDbEntity
8
0
100
AcDbPolyline
90
10
70
1
43
0.0
10
-12.438806261867619
20
-33.465522361838183
42
0.40011421189678364
10
70.430446767310428
20
-33.286121927236024
10
84.34749589295869
20
-28.46648378341623
10
78.481483632151978
20
-12.453930613103061
10
66.51260574185568
20
-16.838589555734597
10
40.293543433314639
20
5.7288771646807639
42
1.46956702988315
10
17.584993578026801
20
5.538297441154814
10
-9.1912439141430866
20
-16.519213725682871
10
-20.699999537318945
20
-12.299999725073576
10
-26.499999407678843
20
-28.399999365210533
0
CIRCLE
5
102
100
AcDbEntity
8
0
100
AcDbCircle
10
-32.474736310664355
20
-22.666363946444239
30
0
40
0.24999999999999911
210
0
220
-0
230
1
0
CIRCLE
5
103
100
AcDbEntity
8
0
100
AcDbCircle
10
-9.5409803586434368e-19
20
-51.149998856708443
30
0
40
1.5000000000000036
210
0
220
-0
230
1
0
CIRCLE
5
104
100
AcDbEntity
8
0
100
AcDbCircle
10
58.06555393874465
20
-15.237217084891558
30
0
40
1.5000000000000036
210
0
220
-0
230
1
0
CIRCLE
5
105
100
AcDbEntity
8
0
100
AcDbCircle
10
51.784739572386151
20
-7.1300628244329243
30
0
40
1.4999999999999947
210
0
220
-0
230
1
0
CIRCLE
5
106
100
AcDbEntity
8
0
100
AcDbCircle
10
0
20
0
30
0
40
2
210
0
220
0
230
1
0
CIRCLE
5
107
100
AcDbEntity
8
0
100
AcDbCircle
10
-20.929397366473843
20
-0.2862845099277751
30
0
40
1.4999999999999991
210
0
220
-0
230
1
0
CIRCLE
5
108
100
AcDbEntity
8
0
100
AcDbCircle
10
33.944455442729449
20
52.601915807845856
30
0
40
1.4999999999999991
210
0
220
-0
230
1
0
CIRCLE
5
109
100
AcDbEntity
8
0
100
AcDbCircle
10
4.8578953395466486
20
61.779748425658774
30
0
40
1.5000000000000036
210
0
220
-0
230
1
0
LWPOLYLINE
5
110
100
AcDbEntity
8
0
100
AcDbPolyline
90
18
70
1
43
0.0
10
1.7953695292644742
20
60.032848909193532
10
4.5059693647502197
20
68.622407713004222
10
8.4911622879205488
20
67.364803739546119
10
11.199518819415191
20
75.947253787835564
10
12.453498021509713
20
76.602248301162646
10
14.20288845195482
20
76.05019463679271
10
14.649958279247826
20
77.482483482030943
10
34.670001646736637
20
71.170003380393609
10
34.21861117716621
20
69.73841759620602
10
35.963053002443552
20
69.188381109851079
10
36.615909789866691
20
67.934853901589776
10
33.90761084355826
20
59.345478333791171
10
37.88429944813798
20
58.091596550119171
10
35.173202719594094
20
49.531638058431788
10
31.209477307808932
20
50.756671486776142
10
33.299999255686998
20
57.449998715892434
10
8.205879272542095
20
65.358137337006227
10
6.111968279179508
20
58.67949414573058
0
LWPOLYLINE
5
111
100
AcDbEntity
8
0
100
AcDbPolyline
90
4
70
1
43
0.0
10
21.095554739953801
20
56.68624100374717
10
13.482468071146606
20
59.155113608178127
10
12.894974475564489
20
57.25148176275296
10
20.499318131279061
20
54.847668625079351
0
CIRCLE
5
112
100
AcDbEntity
8
0
100
AcDbCircle
10
-74.624014184056009
20
-22.128174342880595
30
0
40
1.4999999999999947
210
0
220
-0
230
1
0
CIRCLE
5
113
100
AcDbEntity
8
0
100
AcDbCircle
10
-53.016488045907437
20
24.265675050948637
30
0
40
1.5000000000000002
210
0
220
0
230
1
0
CIRCLE
5
114
100
AcDbEntity
8
0
100
AcDbCircle
10
33.078152907816339
20
23.5481813191242
30
0
40
0.24999999999999911
210
0
220
-0
230
1
0
LWPOLYLINE
5
115
100
AcDbEntity
8
0
100
AcDbPolyline
90
4
70
1
43
0.0
10
37.465878064342405
20
20.667347820819344
10
37.465878064342405
20
50.067347820819343
10
60.665878064342408
20
50.067347820819343
10
60.665878064342408
20
20.667347820819344
0
LWPOLYLINE
5
116
100
AcDbEntity
8
0
100
AcDbPolyline
90
4
70
1
43
0.0
10
36.909514442069117
20
37.553437089563971
10
24.233993052358208
20
28.632609913848633
10
13.630229583636616
20
43.792101999647734
10
26.275469394702426
20
52.637195964729315
0
LWPOLYLINE
5
117
100
AcDbEntity
8
0
100
AcDbPolyline
90
4
70
1
43
0.0
10
-8.7134527331514491
20
20.211625075695913
10
-40.271349385982433
20
65.257148258907321
10
-15.694980116189221
20
82.465717868478393
10
15.869141412637529
20
37.407440411510073
0
LWPOLYLINE
5
118
100
AcDbEntity
8
0
100
AcDbPolyline
90
4
70
1
43
0.0
10
-45.070965944920232
20
-65.693997756533378
10
-58.14671034137632
20
-54.830070820174356
10
-41.37653234255373
20
-34.961474244477145
10
-28.456049039581369
20
-45.696403157891993
0
LWPOLYLINE
5
119
100
AcDbEntity
8
0
100
AcDbPolyline
90
4
70
1
43
0.0
10
-10.000000149011612
20
-63.000000938773155
10
-25.560118899011613
20
-63.000000938773155
10
-25.560118899011613
20
-42.73815093877316
10
-10.000000149011612
20
-42.73815093877316
0
LWPOLYLINE
5
120
100
AcDbEntity
8
0
100
AcDbPolyline
90
4
70
1
43
0.0
10
-33.425470275617201
20
-29.318957816902529
10
-56.625470275617204
20
-29.318957816902529
10
-56.625470275617204
20
0.081042183097470577
10
-33.425470275617201
20
0.081042183097470577
0
LWPOLYLINE
5
121
100
AcDbEntity
8
0
100
AcDbPolyline
90
4
70
1
43
0.0
10
-69.912993848786314
20
-50.306489732464215
10
-57.559392879129732
20
-50.306489732464215
10
-57.559392879129732
20
39.253333759932886
10
-69.912993848786286
20
39.253333759932886
0
LWPOLYLINE
5
122
100
AcDbEntity
8
0
100
AcDbPolyline
90
4
70
1
43
0.0
10
8.9949586458311295
20
19.500000290572643
10
-81.337861131430515
20
19.894456007471383
10
-81.337861131430515
20
7.6999998278915882
10
8.9949586458311259
20
7.1834517781062859
0
LWPOLYLINE
5
123
100
AcDbEntity
8
0
100
AcDbPolyline
90
4
70
1
43
0.0
10
7.2608890619183271
20
16.599999628961086
10
-82.433346907322033
20
16.1261233170396
10
-82.433346907322033
20
3.899999912828207
10
7.2608890619183342
20
4.4128423110866795
0
LINE
5
124
100
AcDbEntity
8
0
100
AcDbLine
10
-80.433997973007081
20
-24.987341231963743
30
0
11
-70.000001043081284
21
-24.987341231963743
31
0
0
LINE
5
125
100
AcDbEntity
8
0
100
AcDbLine
10
-80.433997973007081
20
-19.205546881871438
30
0
11
-80.433997973007081
21
-24.987341231963743
31
0
0
LINE
5
126
100
AcDbEntity
8
0
100
AcDbLine
10
-70.000001043081284
20
-19.205546881871438
30
0
11
-80.433997973007081
21
-19.205546881871438
31
0
0
LINE
5
127
100
AcDbEntity
8
0
100
AcDbLine
10
-50.111337621869112
20
19.77773291968078
30
0
11
-50.111337621869112
21
30.000000447034836
31
0
0
LINE
5
128
100
AcDbEntity
8
0
100
AcDbLine
10
-55.860880535361176
20
30.000000447034836
30
0
11
-55.860880535361176
21
19.77773291968078
31
0
0
LINE
5
129
100
AcDbEntity
8
0
100
AcDbLine
10
-50.111337621869112
20
30.000000447034836
30
0
11
-55.860880535361176
21
30.000000447034836
31
0
0
LINE
5
130
100
AcDbEntity
8
0
100
AcDbLine
10
-18.016311996998027
20
-6.0000000894069672
30
0
11
-18.016311996998027
21
4.2346142131844182
31
0
0
LINE
5
131
100
AcDbEntity
8
0
100
AcDbLine
10
-23.898995983544218
20
-6.0000000894069672
30
0
11
-18.016311996998027
21
-6.0000000894069672
31
0
0
LINE
5
132
100
AcDbEntity
8
0
100
AcDbLine
10
-23.898995983544218
20
4.2346142131844182
30
0
11
-23.898995983544218
21
-6.0000000894069672
31
0
0
LWPOLYLINE
5
133
100
AcDbEntity
8
0
100
AcDbPolyline
90
4
70
1
43
0.0
10
-42.626654071660766
20
24.586264791392416
10
-53.058576148649699
20
39.674186779521712
10
-40.722063377159031
20
48.316258169843742
10
-30.200408023196754
20
33.250945346364979
0
LWPOLYLINE
5
134
100
AcDbEntity
8
0
100
AcDbPolyline
90
4
70
1
43
0.0
10
-44.976878308464734
20
58.160500827606768
10
-45.694254159119609
20
59.185081879917405
10
-44.055858941810087
20
60.332467391627048
10
-43.344288689354173
20
59.310636764902696
0
LWPOLYLINE
5
135
100
AcDbEntity
8
0
100
AcDbPolyline
90
4
70
1
43
0.0
10
-41.976021316662504
20
53.92303610034925
10
-42.693397167317372
20
54.94761715265988
10
-41.055001950007863
20
56.095002664369531
10
-40.343431697551935
20
55.073172037645179
0
LWPOLYLINE
5
136
100
AcDbEntity
8
0
100
AcDbPolyline
90
4
70
1
43
0.0
10
-38.978994547075743
20
49.682357435043293
10
-39.696370397730611
20
50.706938487353924
10
-38.057975180421103
20
51.854323999063567
10
-37.346404927965175
20
50.832493372339215
0
LWPOLYLINE
5
137
100
AcDbEntity
8
0
100
AcDbPolyline
90
4
70
1
43
0.0
10
-35.967879456960993
20
45.440446201403034
10
-36.685255307615861
20
46.465027253713664
10
-35.04686009030636
20
47.612412765423315
10
-34.335289837850432
20
46.590582138698963
0
LWPOLYLINE
5
138
100
AcDbEntity
8
0
100
AcDbPolyline
90
4
70
1
43
0.0
10
-23.975942156398595
20
28.48094547822776
10
-24.69331800705347
20
29.505526530538397
10
-23.054922789743962
20
30.652912042248044
10
-22.343352537288034
20
29.631081415523688
0
LWPOLYLINE
5
139
100
AcDbEntity
8
0
100
AcDbPolyline
90
4
70
1
43
0.0
10
-26.973282662167698
20
32.718005177178838
10
-27.690658512822569
20
33.742586229489469
10
-26.052263295513068
20
34.889971741199119
10
-25.34069304305714
20
33.868141114474767
0
LWPOLYLINE
5
140
100
AcDbEntity
8
0
100
AcDbPolyline
90
4
70
1
43
0.0
10
-29.970623167936829
20
36.955064876129924
10
-30.687999018591697
20
37.979645928440547
10
-29.049603801282199
20
39.127031440150198
10
-28.338033548826274
20
38.105200813425846
0
LWPOLYLINE
5
141
100
AcDbEntity
8
0
100
AcDbPolyline
90
4
70
1
43
0.0
10
-32.978513131805471
20
41.193339660000262
10
-33.695888982460346
20
42.217920712310892
10
-32.057493765150838
20
43.365306224020543
10
-31.345923512694913
20
42.343475597296191
0
LWPOLYLINE
5
142
100
AcDbEntity
8
0
100
AcDbPolyline
90
60
70
1
43
0.0
10
-63.373048552901281
20
44.651462096247229
10
-64.088893390250618
20
45.356515080311908
10
-60.116997220581993
20
49.411108394078809
10
-61.370278966032437
20
50.638828310492698
10
-60.915290894550779
20
51.103289493179446
10
-59.662009149100335
20
49.875569576765557
10
-58.336803370112818
20
51.228366896061104
10
-59.590085115563241
20
52.456086812475
10
-59.138226847535577
20
52.917353027414372
10
-57.884945102085148
20
51.689633111000489
10
-56.912901946596747
20
52.681914759507151
10
-57.615954626500624
20
53.370628036102389
10
-57.260042914819486
20
53.733950032657518
10
-57.803603316554735
20
54.266424022170909
10
-57.352163694243423
20
54.719940560865737
10
-56.809432606125284
20
54.188278970358688
10
-55.478400055066423
20
55.547024378444085
10
-56.018892331915666
20
56.076492820288514
10
-55.569385279845946
20
56.535358865612409
10
-55.028145679277294
20
56.000575199065054
10
-54.460882333554224
20
56.574686575051146
10
-53.749190629787364
20
55.871483966831235
10
-52.980272090030461
20
56.649684928006252
10
-54.239022330579473
20
57.893420730414121
10
-53.791428078342342
20
58.350334150321714
10
-52.541044069274953
20
57.125452868303405
10
-51.209202521348359
20
58.473372471148444
10
-52.460115958507942
20
59.709364947964104
10
-52.011666549066355
20
60.163228060142593
10
-50.760753111906773
20
58.92723558332694
10
-46.573450312557952
20
63.185221413621832
10
-45.848758953650012
20
62.484508646581062
10
-49.381598197841889
20
58.900295522006225
10
-47.562498289708572
20
57.116137739056533
10
-48.230532860528783
20
56.441705728778643
10
-43.95059450786092
20
52.236021357873625
10
-44.398716701681842
20
51.779987287108796
10
-48.682502093540691
20
55.989451953725265
10
-50.009732544213321
20
54.630441653074101
10
-45.730119897385755
20
50.425077337237425
10
-46.175059689578561
20
49.972281855387173
10
-50.466184282500627
20
54.163060412862045
10
-51.782510023973394
20
52.815215929059576
10
-47.507656397856664
20
48.614528068203107
10
-47.958758534687
20
48.155461441675669
10
-52.232198363536185
20
52.35476003367318
10
-53.569924093073944
20
51.005908413477371
10
-49.29023897483652
20
46.800472883559827
10
-49.738884629995852
20
46.343906109420033
10
-54.019324562048219
20
50.550083357652802
10
-55.34941379550478
20
49.196510568852148
10
-51.068973863452442
20
44.990333320619342
10
-51.517178647615509
20
44.534215201328337
10
-55.797618579667898
20
48.740392449561121
10
-57.12697834623502
20
47.38756200684297
10
-52.848665430448307
20
43.18347487260904
10
-53.305581071852046
20
42.718492100457539
10
-57.583893987638753
20
46.922579234691483
10
-58.261268283555779
20
46.233245472923031
10
-60.052478164679179
20
48.022858605712699
0
LINE
5
143
100
AcDbEntity
8
0
100
AcDbLine
10
-31.430505848176821
20
-71.92800447645584
30
0
11
-31.186016470617389
21
-70.95004696621811
31
0
0
LINE
5
144
100
AcDbEntity
8
0
100
AcDbLine
10
-7.2326717080715808
20
-78.182469973623029
30
0
11
-12.730000604642555
21
-76.770003646379337
31
0
0
LINE
5
145
100
AcDbEntity
8
0
100
AcDbLine
10
-13.359729823661866
20
-76.608203009400711
30
0
11
-15.193889557837066
21
-76.136939799203333
31
0
0
LINE
5
146
100
AcDbEntity
8
0
100
AcDbLine
10
-15.819286951895897
20
-75.976252167651026
30
0
11
-17.164649644955979
21
-75.630578925676616
31
0
0
LINE
5
147
100
AcDbEntity
8
0
100
AcDbLine
10
-17.409566498459132
20
-76.583797044969728
30
0
11
-17.902168433070116
21
-76.457229459427026
31
0
0
LINE
5
148
100
AcDbEntity
8
0
100
AcDbLine
10
-18.520933989140836
20
-76.294153953741272
30
0
11
-20.363158305347667
21
-75.820818655303
31
0
0
LINE
5
149
100
AcDbEntity
8
0
100
AcDbLine
10
-20.981072025807272
20
-75.657662338014987
30
0
11
-21.761898734874407
21
-75.453453557976104
31
0
0
LINE
5
150
100
AcDbEntity
8
0
100
AcDbLine
10
-21.508753264031917
20
-74.485509158741408
30
0
11
-22.567154335537399
21
-74.208706650458609
31
0
0
LINE
5
151
100
AcDbEntity
8
0
100
AcDbLine
10
-23.198795468518689
20
-74.066207996578953
30
0
11
-25.032048860804821
21
-73.586759183681451
31
0
0
LINE
5
152
100
AcDbEntity
8
0
100
AcDbLine
10
-25.649330550512857
20
-73.425322158882153
30
0
11
-31.430505848176821
21
-71.92800447645584
31
0
0
LINE
5
153
100
AcDbEntity
8
0
100
AcDbLine
10
-26.094274715741875
20
-75.126641211805492
30
0
11
-25.649330550512857
21
-73.425322158882153
31
0
0
LINE
5
154
100
AcDbEntity
8
0
100
AcDbLine
10
-25.032048860804821
20
-73.586759183681451
30
0
11
-25.476993026033835
21
-75.28807823660479
31
0
0
LINE
5
155
100
AcDbEntity
8
0
100
AcDbLine
10
-23.634381770832896
20
-75.761512953926314
30
0
11
-23.198795468518689
21
-74.066207996578953
31
0
0
LINE
5
156
100
AcDbEntity
8
0
100
AcDbLine
10
-22.567154335537399
20
-74.208706650458609
30
0
11
-23.014886015744338
21
-75.920684236997758
31
0
0
LINE
5
157
100
AcDbEntity
8
0
100
AcDbLine
10
-21.761898734874407
20
-75.453453557976104
30
0
11
-21.508753264031917
21
-74.485509158741408
31
0
0
LINE
5
158
100
AcDbEntity
8
0
100
AcDbLine
10
-21.173588466281942
20
-76.393781414915253
30
0
11
-20.981072025807272
21
-75.657662338014987
31
0
0
LINE
5
159
100
AcDbEntity
8
0
100
AcDbLine
10
-20.363158305347667
20
-75.820818655303
30
0
11
-20.551445288062489
21
-76.553632918525949
31
0
0
LINE
5
160
100
AcDbEntity
8
0
100
AcDbLine
10
-18.710000888677314
20
-77.030003658728674
30
0
11
-18.520933989140836
21
-76.294153953741272
31
0
0
LINE
5
161
100
AcDbEntity
8
0
100
AcDbLine
10
-17.902168433070116
20
-76.457229459427026
30
0
11
-18.091524233975541
21
-77.194203570577713
31
0
0
LINE
5
162
100
AcDbEntity
8
0
100
AcDbLine
10
-17.164649644955979
20
-75.630578925676616
30
0
11
-17.409566498459132
21
-76.583797044969728
31
0
0
LINE
5
163
100
AcDbEntity
8
0
100
AcDbLine
10
-16.255882715517224
20
-77.675485955517345
30
0
11
-15.819286951895897
21
-75.976252167651026
31
0
0
LINE
5
164
100
AcDbEntity
8
0
100
AcDbLine
10
-15.193889557837066
20
-76.136939799203333
30
0
11
-15.630485321458391
21
-77.836173587069652
31
0
0
LINE
5
165
100
AcDbEntity
8
0
100
AcDbLine
10
-13.796325587283192
20
-78.30743679726703
30
0
11
-13.359729823661866
21
-76.608203009400711
31
0
0
LINE
5
166
100
AcDbEntity
8
0
100
AcDbLine
10
-12.730000604642555
20
-76.770003646379337
30
0
11
-13.166596368263871
21
-78.46923743424567
31
0
0
LINE
5
167
100
AcDbEntity
8
0
100
AcDbLine
10
-13.166596368263871
20
-78.46923743424567
30
0
11
-13.796325587283192
21
-78.30743679726703
31
0
0
LINE
5
168
100
AcDbEntity
8
0
100
AcDbLine
10
-15.630485321458391
20
-77.836173587069652
30
0
11
-16.255882715517224
21
-77.675485955517345
31
0
0
LINE
5
169
100
AcDbEntity
8
0
100
AcDbLine
10
-18.091524233975541
20
-77.194203570577713
30
0
11
-18.710000888677314
21
-77.030003658728674
31
0
0
LINE
5
170
100
AcDbEntity
8
0
100
AcDbLine
10
-20.551445288062489
20
-76.553632918525949
30
0
11
-21.173588466281942
21
-76.393781414915253
31
0
0
LINE
5
171
100
AcDbEntity
8
0
100
AcDbLine
10
-25.476993026033835
20
-75.28807823660479
30
0
11
-26.094274715741875
21
-75.126641211805492
31
0
0
LINE
5
172
100
AcDbEntity
8
0
100
AcDbLine
10
-23.014886015744338
20
-75.920684236997758
30
0
11
-23.634381770832896
21
-75.761512953926314
31
0
0
LINE
5
173
100
AcDbEntity
8
0
100
AcDbLine
10
-31.186016470617389
20
-70.95004696621811
30
0
11
-26.315577230062047
21
-72.217468936887471
31
0
0
LINE
5
174
100
AcDbEntity
8
0
100
AcDbLine
10
-26.315577230062047
20
-72.217468936887471
30
0
11
-25.68000121973455
21
-69.750003312947229
31
0
0
LINE
5
175
100
AcDbEntity
8
0
100
AcDbLine
10
-25.68000121973455
20
-69.750003312947229
30
0
11
-24.761908680298383
21
-69.991322216744834
31
0
0
LINE
5
176
100
AcDbEntity
8
0
100
AcDbLine
10
-24.761908680298383
20
-69.991322216744834
30
0
11
-23.259648351129396
21
-64.181944691250621
31
0
0
LINE
5
177
100
AcDbEntity
8
0
100
AcDbLine
10
-22.640650163945352
20
-64.342012859716746
30
0
11
-24.144260805638794
21
-70.156612166735414
31
0
0
LINE
5
178
100
AcDbEntity
8
0
100
AcDbLine
10
-24.144260805638794
20
-70.156612166735414
30
0
11
-22.303708135933839
21
-70.626522303368603
31
0
0
LINE
5
179
100
AcDbEntity
8
0
100
AcDbLine
10
-22.303708135933839
20
-70.626522303368603
30
0
11
-20.801562129664486
21
-64.817586874940446
31
0
0
LINE
5
180
100
AcDbEntity
8
0
100
AcDbLine
10
-20.18695984356696
20
-64.976518297208841
30
0
11
-21.670718239514265
21
-70.788130484220943
31
0
0
LINE
5
181
100
AcDbEntity
8
0
100
AcDbLine
10
-21.670718239514265
20
-70.788130484220943
30
0
11
-19.84528780545422
21
-71.254179774090517
31
0
0
LINE
5
182
100
AcDbEntity
8
0
100
AcDbLine
10
-19.84528780545422
20
-71.254179774090517
30
0
11
-18.344812217641973
21
-65.451704005985178
31
0
0
LINE
5
183
100
AcDbEntity
8
0
100
AcDbLine
10
-17.721697788624425
20
-65.612836602917966
30
0
11
-19.221677132945896
21
-71.413393352244341
31
0
0
LINE
5
184
100
AcDbEntity
8
0
100
AcDbLine
10
-19.221677132945896
20
-71.413393352244341
30
0
11
-17.384674499151647
21
-71.897472007222206
31
0
0
LINE
5
185
100
AcDbEntity
8
0
100
AcDbLine
10
-17.384674499151647
20
-71.897472007222206
30
0
11
-15.882503055384095
21
-66.088438209671608
31
0
0
LINE
5
186
100
AcDbEntity
8
0
100
AcDbLine
10
-15.262781802875459
20
-66.248693357267214
30
0
11
-16.765218186638982
21
-72.058751701914289
31
0
0
LINE
5
187
100
AcDbEntity
8
0
100
AcDbLine
10
-16.765218186638982
20
-72.058751701914289
30
0
11
-14.927945148937983
21
-72.533856372987515
31
0
0
LINE
5
188
100
AcDbEntity
8
0
100
AcDbLine
10
-14.927945148937983
20
-72.533856372987515
30
0
11
-13.425508765174412
21
-66.72379802834044
31
0
0
LINE
5
189
100
AcDbEntity
8
0
100
AcDbLine
10
-12.806396494660479
20
-66.88389569787789
30
0
11
-14.308832878424012
21
-72.693954042524979
31
0
0
LINE
5
190
100
AcDbEntity
8
0
100
AcDbLine
10
-14.308832878424012
20
-72.693954042524979
30
0
11
-12.472567464733588
21
-73.168798149781992
31
0
0
LINE
5
191
100
AcDbEntity
8
0
100
AcDbLine
10
-10.339732950949848
20
-67.524836079021
30
0
11
-11.841422751026418
21
-73.332007316548328
31
0
0
LINE
5
192
100
AcDbEntity
8
0
100
AcDbLine
10
-11.841422751026418
20
-73.332007316548328
30
0
11
-10.970877664657031
21
-73.557123577673821
31
0
0
LINE
5
193
100
AcDbEntity
8
0
100
AcDbLine
10
-10.905755053690136
20
-73.57396378379886
30
0
11
-11.560000549070537
21
-76.020003610756248
31
0
0
LINE
5
194
100
AcDbEntity
8
0
100
AcDbLine
10
-11.560000549070537
20
-76.020003610756248
30
0
11
-6.9800003315322101
21
-77.210003667278215
31
0
0
LINE
5
195
100
AcDbEntity
8
0
100
AcDbLine
10
-6.9800003315322101
20
-77.210003667278215
30
0
11
-7.2326717080715808
21
-78.182469973623029
31
0
0
LINE
5
196
100
AcDbEntity
8
0
100
AcDbLine
10
-23.259648351129396
20
-64.181944691250621
30
0
11
-22.640650163945352
21
-64.342012859716746
31
0
0
LINE
5
197
100
AcDbEntity
8
0
100
AcDbLine
10
-20.801562129664486
20
-64.817586874940446
30
0
11
-20.18695984356696
21
-64.976518297208841
31
0
0
LINE
5
198
100
AcDbEntity
8
0
100
AcDbLine
10
-18.344812217641973
20
-65.451704005985178
30
0
11
-17.721697788624425
21
-65.612836602917966
31
0
0
LINE
5
199
100
AcDbEntity
8
0
100
AcDbLine
10
-15.882503055384095
20
-66.088438209671608
30
0
11
-15.262781802875459
21
-66.248693357267214
31
0
0
LINE
5
200
100
AcDbEntity
8
0
100
AcDbLine
10
-13.425508765174412
20
-66.72379802834044
30
0
11
-12.806396494660479
21
-66.88389569787789
31
0
0
LINE
5
201
100
AcDbEntity
8
0
100
AcDbLine
10
-10.970877664657031
20
-67.36162691225465
30
0
11
-10.339732950949848
21
-67.524836079021
31
0
0
LINE
5
202
100
AcDbEntity
8
0
100
AcDbLine
10
-12.472567464733588
20
-73.168798149781992
30
0
11
-10.970877664657031
21
-67.36162691225465
31
0
0
LWPOLYLINE
5
203
100
AcDbEntity
8
0
100
AcDbPolyline
90
60
70
1
43
0.0
10
78.009507927705229
20
8.7427830628339684
10
77.04032719123785
20
8.4655383196370124
10
75.702727194874385
20
13.317173414881207
10
73.248051276413563
20
12.633865573890667
10
72.997993307797614
20
13.549616487966155
10
67.215794625960768
20
11.945923333376967
10
67.044918632597643
20
12.562025572607926
10
72.832314666149941
20
14.167160213010117
10
72.318992447117623
20
15.996080650294468
10
66.537233794020707
20
14.392509537702988
10
66.367571300115969
20
15.004236441821641
10
72.142454288985348
20
16.62507007135887
10
71.633349596398077
20
18.438963845030912
10
65.858020382469093
20
16.837175937782039
10
65.686008090281874
20
17.457375161242268
10
71.459427263452554
20
19.058633318571129
10
70.960150359196049
20
20.891563593744806
10
65.178293797191074
20
19.28796532611176
10
65.007218199841759
20
19.90478724784715
10
70.790094515657657
20
21.508668344261448
10
70.282910711413223
20
23.337345804135332
10
64.500034395597311
20
21.733464707721069
10
64.329126909246455
20
22.349680496549524
10
70.112003225062367
20
23.953561592963819
10
69.605097577939063
20
25.781236142938976
10
63.825094862075808
20
24.178152039645589
10
63.650865789772354
20
24.806343978563437
10
69.428116186124896
20
26.408664725873837
10
69.173289025447559
20
27.327457244472711
10
71.618030480720179
20
27.997145005043521
10
70.358600651403961
20
32.55854157103095
10
71.327116865292666
20
32.825954893311078
10
72.852549592195018
20
27.358895252300492
10
74.542427101266767
20
27.830409123752933
10
74.717168248804427
20
27.204147304087549
10
73.027290739732663
20
26.732633432635119
10
73.536244694920342
20
24.908572903142201
10
75.226122203992091
20
25.380086774594623
10
75.399661330023264
20
24.758132928102935
10
73.7097838209515
20
24.286619056650505
10
74.083103358523175
20
22.948664166169426
10
75.031072891930222
20
23.2131690088673
10
75.167763114860065
20
22.723279426769469
10
75.900679317500732
20
22.927779548406768
10
76.067716349891185
20
22.310063097862898
10
75.335918362236569
20
22.105874983382545
10
75.847110127384553
20
20.273794276858872
10
76.575889386948617
20
20.477140098237399
10
76.748525513098343
20
19.858422549302816
10
76.014769472055022
20
19.657087138949901
10
76.228332835399087
20
18.878766982924919
10
75.263495660789729
20
18.614025191910141
10
75.552978192538319
20
17.559021722452325
10
77.259460113294253
20
18.027263506583598
10
77.431361616145693
20
17.411178803604557
10
75.745391304764084
20
16.940755128275512
10
76.246803149123622
20
15.113386712532972
10
77.942660751512221
20
15.578713288640653
10
78.111493031778679
20
14.963413151662861
10
76.415635429390079
20
14.498086575555185
0
CIRCLE
5
204
100
AcDbEntity
8
0
100
AcDbCircle
10
8.3095158357174002e-05
20
68.852932657942659
30
0
40
1.5000000000000002
210
0
220
0
230
1
0
CIRCLE
5
205
100
AcDbEntity
8
0
100
AcDbCircle
10
0
20
0
30
0
40
81.5
210
-0
220
0
230
1
0
ENDSEC
0
SECTION
2
OBJECTS
0
DICTIONARY
5
C
100
AcDbDictionary
3
ACAD_GROUP
350
D
3
ACAD_MLINESTYLE
350
17
0
DICTIONARY
5
D
100
AcDbDictionary
0
DICTIONARY
5
1A
330
C
100
AcDbDictionary
0
DICTIONARY
5
17
100
AcDbDictionary
0
ENDSEC
0
EOF
