%TF.GenerationSoftware,KiCad,Pcbnew,7.0.9-rc1*%
%TF.CreationDate,2023-11-11T13:07:56+02:00*%
%TF.ProjectId,projectA,70726f6a-6563-4744-912e-6b696361645f,rev?*%
%TF.SameCoordinates,PX5e5c173PY6474d3b*%
%TF.FileFunction,Plated,1,2,PTH,Drill*%
%TF.FilePolarity,Positive*%
%FSLAX46Y46*%
G04 Gerber Fmt 4.6, Leading zero omitted, Abs format (unit mm)*
G04 Created by KiCad (PCBNEW 7.0.9-rc1) date 2023-11-11 13:07:56*
%MOMM*%
%LPD*%
G01*
G04 APERTURE LIST*
%TA.AperFunction,ViaDrill*%
%ADD10C,0.300000*%
%TD*%
%TA.AperFunction,ComponentDrill*%
%ADD11C,0.800000*%
%TD*%
%TA.AperFunction,ComponentDrill*%
%ADD12C,1.000000*%
%TD*%
%TA.AperFunction,ComponentDrill*%
%ADD13C,1.020000*%
%TD*%
G04 APERTURE END LIST*
D10*
X-49403347Y-33143877D03*
X-46757376Y26042094D03*
X-46483347Y62986123D03*
X-46050344Y27749126D03*
X-44693347Y46396123D03*
X-43700347Y-30283877D03*
X-41588347Y-158877D03*
X-41428237Y8296123D03*
X-40845533Y50203937D03*
X-40479847Y4176123D03*
X-40220101Y46979369D03*
X-39642025Y51827445D03*
X-38063347Y46126123D03*
X-37743347Y-24433877D03*
X-37043347Y4206123D03*
X-36170344Y47563120D03*
X-36153347Y48466123D03*
X-35741294Y55676482D03*
X-33383347Y56386123D03*
X-33038168Y52331302D03*
X-31943347Y51196123D03*
X-31829847Y-33922211D03*
X-31631864Y54623167D03*
X-30853347Y57903646D03*
X-30743347Y22286123D03*
X-29493347Y-29200200D03*
X-24213347Y25026123D03*
X-24213347Y18836123D03*
X-22753347Y26236123D03*
X-18583347Y23926123D03*
X-17553347Y27496123D03*
X-10313347Y41246123D03*
X-9503347Y54466123D03*
X-6813347Y61876123D03*
X-5803347Y36776123D03*
X-4623347Y53056123D03*
X-3983347Y59046123D03*
X-3231449Y63598021D03*
X-2933329Y64807277D03*
X1926653Y50276123D03*
X4106653Y56456123D03*
X4416653Y46546123D03*
X9416653Y56066123D03*
X11716653Y47346123D03*
X13134798Y38084267D03*
X14636653Y26866123D03*
X16586653Y57616123D03*
X17956653Y43656123D03*
X18116653Y49824661D03*
X21626653Y35316123D03*
X22091653Y39021123D03*
X26075486Y17096562D03*
X26426653Y18366123D03*
X28296653Y64346123D03*
X28711327Y32001449D03*
X33396653Y67716123D03*
X42456653Y52766123D03*
X42586653Y53686123D03*
X44097153Y52226123D03*
X44156653Y53186123D03*
X44756653Y42586123D03*
X47221653Y45051123D03*
X70916653Y13056123D03*
X74146653Y13056123D03*
X80376653Y-1013877D03*
D11*
%TO.C,JP1*%
X-44023347Y42406123D03*
X-41942701Y43863007D03*
D12*
%TO.C,U3*%
X-53273209Y43347050D03*
X-51477158Y45143101D03*
X-49681107Y46939152D03*
X-47885056Y48735204D03*
X-46089004Y50531255D03*
X-44292953Y52327306D03*
%TO.C,TP3*%
X-29623347Y966123D03*
%TO.C,TP5*%
X-26523347Y-29283877D03*
%TO.C,U4*%
X-23236673Y-64584203D03*
X-20783222Y-65241603D03*
X-18329770Y-65899004D03*
X-15876319Y-66556404D03*
X-13422867Y-67213804D03*
X-10969415Y-67871205D03*
%TO.C,TP1*%
X16796653Y-72993877D03*
%TO.C,TP6*%
X26936653Y28956123D03*
%TO.C,TP2*%
X34511653Y27751123D03*
%TO.C,U5*%
X64218635Y24528575D03*
X64876035Y22075123D03*
X65533435Y19621672D03*
X66190836Y17168220D03*
X66848236Y14714769D03*
X67505637Y12261317D03*
%TO.C,TP4*%
X79766653Y-4513877D03*
D13*
%TO.C,U9*%
X-55957715Y-54513876D03*
%TO.C,U2*%
X-51253347Y-27403877D03*
X-48713347Y-27403877D03*
%TO.C,U7*%
X-47636367Y35855443D03*
%TO.C,U2*%
X-46173347Y-27403877D03*
%TO.C,U9*%
X-45233093Y-63512902D03*
%TO.C,U2*%
X-43633347Y-27403877D03*
%TO.C,U7*%
X-41394428Y40226095D03*
%TO.C,U9*%
X-41173600Y-36894853D03*
%TO.C,U2*%
X-41093347Y-27403877D03*
%TO.C,U7*%
X-39313782Y41682980D03*
%TO.C,U9*%
X-38875467Y-38823216D03*
%TO.C,U7*%
X-38745932Y23158586D03*
%TO.C,U2*%
X-38553347Y-27403877D03*
%TO.C,U12*%
X-35898837Y62735720D03*
X-34441953Y60655074D03*
X-32985068Y58574428D03*
%TO.C,U9*%
X-32747111Y-43965517D03*
%TO.C,U12*%
X-31528184Y56493782D03*
%TO.C,U9*%
X-30448978Y-45893880D03*
%TO.C,U7*%
X-30423347Y28986123D03*
%TO.C,U12*%
X-30071300Y54413135D03*
X-28614416Y52332489D03*
X-27157532Y50251843D03*
X-25700648Y48171197D03*
X-24243764Y46090551D03*
%TO.C,U11*%
X-24083406Y-41892952D03*
X-24083406Y-44432952D03*
X-24083406Y-46972952D03*
X-24083406Y-49512952D03*
X-24083406Y-52052952D03*
X-24083406Y-54592952D03*
X-24083406Y-57132952D03*
X-24083406Y-59672952D03*
%TO.C,U12*%
X-22786879Y44009904D03*
X-21329995Y41929258D03*
X-19873111Y39848612D03*
X-18416227Y37767966D03*
X-16959343Y35687320D03*
X-15502459Y33606673D03*
X-14600884Y77648707D03*
X-14045574Y31526027D03*
X-13143999Y75568061D03*
X-12588690Y29445381D03*
X-11687115Y73487415D03*
X-11131806Y27364735D03*
X-10230231Y71406769D03*
X-9674922Y25284089D03*
X-8773347Y69326123D03*
X-7316463Y67245476D03*
X-5859579Y65164830D03*
X-4402695Y63084184D03*
X-2945810Y61003538D03*
X-1488926Y58922892D03*
X-32042Y56842246D03*
X1424842Y54761599D03*
X2881726Y52680953D03*
X4338610Y50600307D03*
X5795495Y48519661D03*
X7252379Y46439015D03*
X8709263Y44358368D03*
X10166147Y42277722D03*
X11623031Y40197076D03*
%TO.C,U6*%
X14950143Y46610783D03*
X21192082Y50981435D03*
X23272728Y52438320D03*
X23840578Y33913926D03*
X32163163Y39741463D03*
%TO.C,U1*%
X42866653Y48056123D03*
X45406653Y48056123D03*
X47946653Y48056123D03*
X50486653Y48056123D03*
X53026653Y48056123D03*
X55566653Y48056123D03*
M02*
